<svg xmlns="http://www.w3.org/2000/svg" width="180" height="28" fill="#9aecc8" xmlns:v="https://vecta.io/nano"><path d="M18.513 13.883a9.26 9.26 0 0 1 6.169-8.725C20.984.582 14.803-1.166 9.256.795S0 8.001 0 13.884s3.709 11.129 9.256 13.09 11.728.213 15.426-4.364c-3.696-1.31-6.166-4.806-6.165-8.727m9.253-9.255c-1.052 0-2.096.179-3.088.53a13.87 13.87 0 0 1 0 17.45c3.473 1.229 7.344.281 9.856-2.413s3.187-6.622 1.719-10.001-4.801-5.565-8.485-5.566m25.165 11.235h-3.472v-2.135h6.117v1.811a6.53 6.53 0 0 1-.825 3.348 5.6 5.6 0 0 1-2.267 2.174 7.58 7.58 0 0 1-6.964-.176 6.4 6.4 0 0 1-2.45-2.671c-.588-1.154-.882-2.526-.88-4.117a9.59 9.59 0 0 1 .519-3.261 7.06 7.06 0 0 1 1.453-2.439c.612-.66 1.358-1.181 2.189-1.527a7.04 7.04 0 0 1 2.738-.526 7.27 7.27 0 0 1 2.334.371 6.28 6.28 0 0 1 1.924 1.034 5.77 5.77 0 0 1 1.387 1.589 5.6 5.6 0 0 1 .714 2.039h-2.78a4.08 4.08 0 0 0-.504-1.071c-.209-.311-.468-.585-.766-.812-.306-.231-.652-.404-1.019-.512a4.34 4.34 0 0 0-1.251-.174 3.9 3.9 0 0 0-2.163.612 4.08 4.08 0 0 0-1.483 1.792 6.86 6.86 0 0 0-.541 2.873 6.98 6.98 0 0 0 .538 2.892c.613 1.502 2.096 2.463 3.716 2.41a4.23 4.23 0 0 0 1.978-.454c.547-.28.999-.717 1.298-1.255a3.79 3.79 0 0 0 .456-1.813h.007zm7.322-9.318v15.072h-2.673V6.545zm7.14 15.292c-1.008.027-2.003-.225-2.877-.728a4.91 4.91 0 0 1-1.88-2.039c-.462-.953-.691-2.003-.667-3.062a6.71 6.71 0 0 1 .667-3.07c.417-.846 1.07-1.554 1.88-2.039a6.02 6.02 0 0 1 5.746 0 4.93 4.93 0 0 1 1.88 2.039 6.71 6.71 0 0 1 .665 3.07c.024 1.059-.204 2.109-.665 3.062a4.93 4.93 0 0 1-1.88 2.039c-.871.502-1.864.754-2.869.728zm.015-2.134a2.28 2.28 0 0 0 1.501-.497c.418-.354.73-.816.901-1.336a5.47 5.47 0 0 0 .298-1.868 5.56 5.56 0 0 0-.298-1.88c-.171-.522-.483-.987-.901-1.344a2.27 2.27 0 0 0-1.501-.5c-.552-.02-1.094.157-1.527.5a2.99 2.99 0 0 0-.905 1.344 5.64 5.64 0 0 0-.297 1.88 5.55 5.55 0 0 0 .297 1.868c.172.521.485.983.905 1.336a2.33 2.33 0 0 0 1.527.497zm7.136 1.914V6.545h2.664v5.639h.109a4.95 4.95 0 0 1 .582-.88 3.15 3.15 0 0 1 1.016-.803 3.52 3.52 0 0 1 1.633-.334 4.36 4.36 0 0 1 2.367.665 4.61 4.61 0 0 1 1.678 1.965c.414.865.621 1.926.621 3.183s-.203 2.311-.61 3.164c-.356.807-.935 1.497-1.668 1.987a4.27 4.27 0 0 1-2.384.684c-.555.019-1.106-.091-1.611-.323a3.22 3.22 0 0 1-1.027-.784 4.8 4.8 0 0 1-.601-.873h-.154v1.781H74.55zm2.612-5.652c-.013.654.093 1.305.313 1.92a2.85 2.85 0 0 0 .905 1.285 2.27 2.27 0 0 0 1.438.46c.534.019 1.059-.148 1.483-.475a2.89 2.89 0 0 0 .901-1.298c.212-.608.313-1.249.3-1.893a5.37 5.37 0 0 0-.3-1.867 2.81 2.81 0 0 0-.897-1.281c-.881-.612-2.048-.619-2.936-.017-.415.324-.728.761-.901 1.259a5.4 5.4 0 0 0-.306 1.906zm13.474 5.88a4.65 4.65 0 0 1-1.931-.386c-.552-.242-1.023-.639-1.353-1.144a3.33 3.33 0 0 1-.497-1.87 3.18 3.18 0 0 1 .352-1.581 2.73 2.73 0 0 1 .964-1.001 4.93 4.93 0 0 1 1.381-.571 11.51 11.51 0 0 1 1.592-.284l1.613-.185a2.35 2.35 0 0 0 .901-.265.62.62 0 0 0 .284-.556v-.044a1.67 1.67 0 0 0-.493-1.286c-.33-.304-.803-.458-1.42-.458-.652 0-1.169.143-1.55.428a2.12 2.12 0 0 0-.769 1.008l-2.488-.354a4.03 4.03 0 0 1 .971-1.726 4.29 4.29 0 0 1 1.655-1.045 6.43 6.43 0 0 1 2.165-.348 7.03 7.03 0 0 1 1.626.185 4.66 4.66 0 0 1 1.483.628 3.25 3.25 0 0 1 1.079 1.19c.29.582.43 1.226.408 1.876v7.565h-2.565v-1.553h-.087a3.22 3.22 0 0 1-1.778 1.535 4.38 4.38 0 0 1-1.542.243zm.691-1.957c.483.013.962-.097 1.392-.319a2.35 2.35 0 0 0 .908-.851 2.2 2.2 0 0 0 .321-1.155V16.23a1.23 1.23 0 0 1-.423.185 6.26 6.26 0 0 1-.667.156l-.728.117-.625.089a4.68 4.68 0 0 0-1.068.265 1.78 1.78 0 0 0-.741.512c-.449.617-.332 1.478.265 1.954a2.33 2.33 0 0 0 1.366.38zm10.11-13.343v15.072h-2.664V6.545zm18.619 5.086h-2.753a3.52 3.52 0 0 0-.434-1.203 3.29 3.29 0 0 0-.788-.895c-.32-.249-.683-.437-1.071-.556-.42-.128-.858-.191-1.298-.185a3.92 3.92 0 0 0-2.178.615 4.08 4.08 0 0 0-1.483 1.796 6.94 6.94 0 0 0-.536 2.881c0 1.153.18 2.123.539 2.91.309.726.825 1.346 1.483 1.781a3.97 3.97 0 0 0 2.169.599c.429.002.857-.061 1.268-.185a3.48 3.48 0 0 0 1.077-.53 3.22 3.22 0 0 0 .803-.867 3.33 3.33 0 0 0 .452-1.177l2.753.013a5.99 5.99 0 0 1-2.002 3.678 6.05 6.05 0 0 1-1.928 1.112c-.787.275-1.617.411-2.45.4a6.86 6.86 0 0 1-3.548-.927 6.42 6.42 0 0 1-2.458-2.656c-.599-1.158-.898-2.546-.897-4.165s.303-3.008.905-4.169a6.48 6.48 0 0 1 2.465-2.653 6.82 6.82 0 0 1 3.533-.927 7.5 7.5 0 0 1 2.339.354 6.02 6.02 0 0 1 1.928 1.034 5.65 5.65 0 0 1 1.396 1.668c.379.699.621 1.464.714 2.254zm5.45 10.214a4.65 4.65 0 0 1-1.931-.386c-.552-.242-1.023-.639-1.353-1.144a3.33 3.33 0 0 1-.497-1.87 3.18 3.18 0 0 1 .352-1.581 2.74 2.74 0 0 1 .964-1.001 4.93 4.93 0 0 1 1.381-.571 11.51 11.51 0 0 1 1.592-.284l1.613-.185a2.35 2.35 0 0 0 .901-.265.62.62 0 0 0 .284-.556v-.044a1.67 1.67 0 0 0-.493-1.286c-.33-.304-.803-.458-1.42-.458-.652 0-1.169.143-1.55.428a2.12 2.12 0 0 0-.769 1.008l-2.488-.354a4.03 4.03 0 0 1 .971-1.726 4.29 4.29 0 0 1 1.657-1.045 6.42 6.42 0 0 1 2.163-.348 7.02 7.02 0 0 1 1.626.185 4.66 4.66 0 0 1 1.483.628 3.25 3.25 0 0 1 1.079 1.19c.29.582.43 1.226.408 1.876v7.565h-2.575v-1.553h-.087a3.22 3.22 0 0 1-1.778 1.535 4.38 4.38 0 0 1-1.533.243h0zm.691-1.957c.483.013.962-.097 1.392-.319a2.34 2.34 0 0 0 .908-.851 2.2 2.2 0 0 0 .321-1.155V16.23a1.23 1.23 0 0 1-.423.185 6.26 6.26 0 0 1-.667.156l-.728.117-.625.089a4.68 4.68 0 0 0-1.068.265 1.78 1.78 0 0 0-.741.512c-.449.617-.332 1.478.265 1.954a2.33 2.33 0 0 0 1.357.38h.009zm10.1-4.894v6.623h-2.664V10.31h2.545v1.92h.133a3.21 3.21 0 0 1 1.247-1.507 3.79 3.79 0 0 1 2.122-.556c.712-.016 1.415.157 2.039.5.585.338 1.056.842 1.353 1.45a4.98 4.98 0 0 1 .475 2.302v7.198h-2.658V14.84c0-.756-.195-1.348-.586-1.774s-.929-.639-1.614-.639c-.433-.008-.86.097-1.24.304-.362.205-.657.511-.847.88a2.94 2.94 0 0 0-.306 1.383zm14.407 6.843a5.49 5.49 0 0 1-2.871-.728 4.92 4.92 0 0 1-1.88-2.039 6.66 6.66 0 0 1-.665-3.062 6.71 6.71 0 0 1 .665-3.07 4.92 4.92 0 0 1 1.88-2.039 6.02 6.02 0 0 1 5.746 0 4.91 4.91 0 0 1 1.88 2.039 6.71 6.71 0 0 1 .665 3.07c.024 1.059-.204 2.109-.665 3.062a4.91 4.91 0 0 1-1.88 2.039c-.873.503-1.868.755-2.875.728h0zm.013-2.134a2.28 2.28 0 0 0 1.501-.497 2.99 2.99 0 0 0 .903-1.336 5.55 5.55 0 0 0 .297-1.868c.009-.639-.092-1.274-.297-1.88-.173-.522-.485-.987-.903-1.344a2.27 2.27 0 0 0-1.501-.5 2.32 2.32 0 0 0-1.526.5 2.99 2.99 0 0 0-.906 1.344 5.64 5.64 0 0 0-.297 1.88 5.55 5.55 0 0 0 .297 1.868c.173.521.486.983.906 1.336.433.341.973.517 1.524.497h.002zm7.136 6.153V10.313h2.619v1.87h.154a4.95 4.95 0 0 1 .582-.88c.28-.334.626-.608 1.016-.803a3.52 3.52 0 0 1 1.633-.334 4.36 4.36 0 0 1 2.367.665 4.61 4.61 0 0 1 1.678 1.965c.414.865.621 1.926.621 3.183s-.203 2.311-.61 3.164c-.356.807-.935 1.497-1.668 1.987a4.27 4.27 0 0 1-2.384.684c-.555.019-1.106-.091-1.611-.323a3.22 3.22 0 0 1-1.027-.784 4.8 4.8 0 0 1-.601-.873h-.109v6.021h-2.66zm2.612-9.891c-.013.654.093 1.305.313 1.92a2.85 2.85 0 0 0 .905 1.285 2.27 2.27 0 0 0 1.438.46c.534.019 1.059-.148 1.483-.475a2.89 2.89 0 0 0 .903-1.298 5.46 5.46 0 0 0 .304-1.887 5.4 5.4 0 0 0-.304-1.872 2.81 2.81 0 0 0-.899-1.281c-.882-.611-2.048-.617-2.936-.015a2.75 2.75 0 0 0-.901 1.259c-.216.611-.319 1.256-.306 1.904h0zm11.079 9.869c-.337.003-.673-.026-1.005-.085a3.52 3.52 0 0 1-.741-.202l.619-2.067a2.69 2.69 0 0 0 1.461.083c.394-.109.719-.475.975-1.099l.228-.612-4.089-11.539h2.825l2.606 8.536h.117l2.612-8.527 2.849.015-4.541 12.658a5.08 5.08 0 0 1-.838 1.522c-.343.423-.78.76-1.277.982a4.3 4.3 0 0 1-1.8.334z"/></svg>