<svg xmlns="http://www.w3.org/2000/svg" width="130" height="67" xmlns:v="https://vecta.io/nano"><defs><linearGradient x1="0.189222042%" y1="2.22608674%" x2="134.161264%" y2="66.2699656%" id="A"><stop stop-color="#00d29a" stop-opacity="0" offset="0%"/><stop stop-color="#9aecc8" offset="100%"/></linearGradient><linearGradient x1="50.0140329%" y1="64.465674%" x2="49.7353243%" y2="-0.907419018%" id="B"><stop stop-color="#00d29a" stop-opacity="0" offset="0%"/><stop stop-color="#9aecc8" offset="100%"/></linearGradient></defs><path d="M15.467 34.639c7.235-5.827 16.486-9.337 26.559-9.402H0l15.467 9.402zM19.8 21.338h13.843c.152 0 .282-.13.282-.282v-3.574c0-.152-.13-.282-.282-.282h-8.947c-.152 0-.282-.13-.282-.282v-3.986c0-.152.13-.282.282-.282h6.607c.152 0 .282-.13.282-.282V8.947c0-.152-.13-.282-.282-.282h-6.607c-.152 0-.282-.13-.282-.282V4.744c0-.152.13-.282.282-.282h8.947c.152 0 .282-.13.282-.282V.65c0-.152-.13-.282-.282-.282H19.8c-.152 0-.282.13-.282.282v20.428c0 .13.13.26.282.26zM2.816 19.973c1.603 1.126 3.791 1.733 6.326 1.733 2.34 0 4.419-.628 5.892-1.755 1.538-1.191 2.361-2.881 2.361-4.874 0-3.098-1.82-5.026-5.567-5.892l-4.333-.997c-1.43-.303-2.166-1.018-2.166-2.123 0-1.408 1.256-2.318 3.184-2.318 2.058 0 3.076.997 3.596 1.971a.3.3 0 0 0 .26.152h4.354c.195 0 .325-.173.282-.347-.412-1.495-1.235-2.751-2.426-3.683C13.041.628 10.94 0 8.47 0 6.152 0 4.094.65 2.621 1.841 1.126 3.054.347 4.723.347 6.672c0 3.033 1.755 4.896 5.394 5.676l4.268.888c1.256.282 2.426.758 2.426 2.21 0 1.516-1.343 2.491-3.401 2.491-1.841 0-3.184-.737-3.791-2.08-.043-.108-.152-.173-.26-.173H.303c-.195 0-.325.173-.282.368a7.31 7.31 0 0 0 2.795 3.921zM41.766.325h-4.419c-.152 0-.282.13-.282.282v20.428c0 .152.13.282.282.282h4.419c.152 0 .282-.13.282-.282V.607c.022-.152-.108-.282-.282-.282z" fill="#9aecc8"/><path d="M42.2 25.259h-.195c-5.351-.087-11.005 1.126-15.987 3.163-3.769 1.538-7.387 3.683-10.55 6.239L42.2 50.908V25.259z" fill="url(#A)"/><path d="M0 25.259v41.463h.022c0-12.911 6.022-24.458 15.446-32.061L0 25.259h0z" fill="url(#B)"/><path d="M102.055 44.929c.845 0 1.3.607 1.321 1.386h-2.86c.173-.91.737-1.386 1.538-1.386m1.365 3.444c-.173.628-.672.932-1.365.932-.91 0-1.538-.65-1.603-1.755h4.896v-.628c0-2.166-1.191-3.661-3.336-3.661-2.058 0-3.531 1.625-3.531 3.856 0 2.275 1.43 3.834 3.574 3.834 1.841 0 2.99-.997 3.271-2.578h-1.906 0zm-9.64.195c0 1.625.932 2.383 2.448 2.383.542 0 1.04-.087 1.321-.238v-1.82c-.238.152-.585.238-.888.238-.52 0-.845-.26-.845-.845v-3.228h1.603v-1.646h-1.603v-2.275H93.8v2.275h-1.126v1.646H93.8v3.509h-.022zm-2.21-5.156h-2.058v4.679c-.152.65-.693 1.018-1.321 1.018-.802 0-1.191-.52-1.191-1.3v-4.398h-2.036v4.809c0 1.625.932 2.73 2.578 2.73.845 0 1.56-.39 1.971-.845v.672h2.036l.022-7.365h0zm-11.72 5.156c0 1.625.932 2.383 2.448 2.383.542 0 1.04-.087 1.321-.238v-1.82c-.238.152-.585.238-.888.238-.52 0-.845-.26-.845-.845v-3.228h1.603v-1.646h-1.603v-2.275H79.87v2.275h-1.126v1.646h1.126v3.509h-.022zm-2.058-7.279c0-.672-.563-1.17-1.191-1.17-.65 0-1.213.498-1.213 1.17 0 .693.563 1.17 1.213 1.17.628 0 1.191-.477 1.191-1.17m-.173 2.123h-2.036v7.365h2.036v-7.365zm-7.279 5.156c0 1.625.932 2.383 2.448 2.383.542 0 1.04-.087 1.321-.238v-1.82c-.238.152-.585.238-.888.238-.52 0-.845-.26-.845-.845v-3.228h1.603v-1.646h-1.603v-2.275H70.36v2.275h-1.126v1.646h1.126v3.509h-.022zm-8.124.022c.217 1.495 1.473 2.361 3.271 2.361 1.711 0 3.011-.888 3.011-2.383 0-1.126-.672-1.841-1.95-2.145l-1.516-.347c-.455-.108-.65-.282-.65-.585 0-.455.477-.693.975-.693.672 0 1.018.303 1.148.715h1.95c-.238-1.386-1.278-2.275-3.119-2.275-1.646 0-2.925.953-2.925 2.383 0 1.235.78 1.82 1.906 2.08l1.473.325c.52.13.737.303.737.628 0 .477-.412.715-1.04.715-.607 0-1.061-.282-1.235-.802l-2.036.022h0zm-7.82 2.21h2.036v-4.658a1.34 1.34 0 0 1 1.343-1.018c.802 0 1.191.52 1.191 1.3v4.398h2.036v-4.809c0-1.625-.932-2.73-2.6-2.73-.845 0-1.581.368-1.971.845v-.672h-2.036V50.8zm-1.863-10.68h-2.101V50.8h2.101V40.12zm73.699-6.044c0 1.625.932 2.383 2.448 2.383.542 0 1.04-.087 1.321-.238v-1.82c-.238.152-.585.238-.888.238-.52 0-.845-.26-.845-.845v-3.228h1.603V28.92h-1.603v-2.275h-2.015v2.275h-1.126v1.646h1.126v3.509h-.022zm-8.427 2.21h2.036v-4.658a1.34 1.34 0 0 1 1.343-1.018c.802 0 1.191.52 1.191 1.3v4.398h2.036v-4.809c0-1.625-.932-2.73-2.6-2.73-.845 0-1.581.368-1.971.845v-.672h-2.036v7.344zm-4.289-5.871c.845 0 1.3.607 1.321 1.386h-2.86c.173-.91.737-1.386 1.538-1.386m1.365 3.466c-.173.628-.672.932-1.365.932-.91 0-1.538-.65-1.603-1.776h4.896v-.628c0-2.166-1.191-3.661-3.336-3.661-2.058 0-3.531 1.625-3.531 3.856 0 2.275 1.43 3.834 3.574 3.834 1.841 0 2.99-.997 3.271-2.578l-1.906.022h0zM104.394 29.7c-.412-.542-1.105-.932-1.971-.932-.823 0-1.495.303-1.863.78v-.607h-2.036v7.365h2.036v-4.744c.13-.628.628-.953 1.148-.953.715 0 1.04.52 1.04 1.321v4.398h2.058v-4.744c.13-.628.607-.953 1.126-.953.715 0 1.061.52 1.061 1.321v4.398h2.036v-4.809c0-1.668-.91-2.73-2.426-2.73a2.66 2.66 0 0 0-2.21.888M90.53 36.286h2.036v-4.658a1.34 1.34 0 0 1 1.343-1.018c.802 0 1.191.52 1.191 1.3v4.398h2.036v-4.809c0-1.625-.932-2.73-2.6-2.73-.845 0-1.581.368-1.971.845v-.672H90.53v7.344h0zm-2.99-3.661c0 1.213-.563 2.101-1.581 2.101s-1.581-.888-1.581-2.101c0-1.235.563-2.123 1.581-2.123s1.581.888 1.581 2.123m2.036 0c0-2.275-1.473-3.856-3.596-3.856s-3.596 1.581-3.596 3.856c0 2.253 1.473 3.834 3.596 3.834s3.596-1.581 3.596-3.834m-7.56-3.726c-.108-.065-.433-.13-.78-.13-.715 0-1.343.368-1.646.888v-.715h-2.036v7.365h2.036v-4.571c.152-.672.715-1.04 1.408-1.04.368 0 .737.087 1.018.238v-2.036h0zm-5.741-2.101c0-.672-.563-1.17-1.191-1.17-.65 0-1.213.498-1.213 1.17 0 .693.563 1.17 1.213 1.17s1.191-.477 1.191-1.17m-.173 2.123h-2.036v7.365h2.036V28.92zm-5.611 7.365l2.795-7.365h-2.058l-1.668 4.896-1.69-4.896h-2.145l2.773 7.365h1.993 0zm-11.98 0h2.036v-4.658a1.34 1.34 0 0 1 1.343-1.018c.802 0 1.191.52 1.191 1.3v4.398h2.036v-4.809c0-1.625-.932-2.73-2.6-2.73-.845 0-1.581.368-1.971.845v-.672H58.51v7.344zm-8.08-10.68v10.68h6.867v-1.863H52.51v-2.686h4.354v-1.798H52.51v-2.491h4.788v-1.841h-6.867 0zm64.427-11.027c-.412-.542-1.105-.932-1.971-.932-.823 0-1.495.303-1.863.78v-.607h-2.036v7.365h2.036v-4.744c.13-.628.628-.953 1.148-.953.715 0 1.04.52 1.04 1.321v4.398h2.058v-4.744c.13-.628.607-.953 1.126-.953.715 0 1.061.52 1.061 1.321v4.398h2.036V16.42c0-1.668-.91-2.73-2.426-2.73-1.018-.065-1.733.347-2.21.888m-7.647-4.138h-2.036v10.723h2.036V10.442zm-5.372 7.04c0 1.213-.563 2.101-1.581 2.101s-1.581-.888-1.581-2.101c0-1.235.563-2.123 1.581-2.123s1.581.888 1.581 2.123m2.015 0c0-2.275-1.473-3.856-3.596-3.856s-3.596 1.581-3.596 3.856c0 2.253 1.473 3.834 3.596 3.834s3.596-1.56 3.596-3.834m-15.056 3.683h2.036v-4.658a1.34 1.34 0 0 1 1.343-1.018c.802 0 1.191.52 1.191 1.3v4.398h2.036v-4.809c0-1.625-.932-2.73-2.6-2.73-.845 0-1.581.39-1.971.845v-4.029h-2.036v10.702h0zm-3.423 0H87.8l-3.098-4.246 2.99-3.141h-2.535l-2.513 2.73V10.42h-2.036v10.723h2.036v-2.318l.585-.65 2.145 2.99zM72.571 17.48c0 2.275 1.451 3.834 3.531 3.834 1.841 0 3.011-1.061 3.228-2.665h-2.015c-.108.563-.563.91-1.213.91-.932 0-1.516-.867-1.516-2.101 0-1.256.585-2.101 1.516-2.101.65 0 1.105.347 1.213.91h2.015c-.217-1.56-1.386-2.665-3.228-2.665-2.08.022-3.531 1.603-3.531 3.878m-2.946 0c0 1.213-.563 2.101-1.581 2.101s-1.581-.888-1.581-2.101c0-1.235.563-2.123 1.581-2.123 1.04 0 1.581.888 1.581 2.123m2.036 0c0-2.275-1.473-3.856-3.596-3.856-2.145 0-3.596 1.581-3.596 3.856 0 2.253 1.473 3.834 3.596 3.834 2.123.022 3.596-1.56 3.596-3.834m-11.915 1.451c0 1.625.932 2.383 2.448 2.383.542 0 1.04-.087 1.321-.238v-1.82c-.238.152-.585.238-.888.238-.52 0-.845-.26-.845-.845v-3.228h1.603v-1.646H61.76V11.5h-2.015v2.275H58.62v1.646h1.126v3.509zm-9.727-.65c.347 1.928 1.95 3.054 4.203 3.054 2.145 0 3.748-1.191 3.748-3.141 0-1.538-.997-2.47-2.643-2.86l-1.841-.433c-.758-.173-1.126-.52-1.126-1.105 0-.715.65-1.191 1.603-1.191 1.061 0 1.625.52 1.863 1.213h2.08c-.325-1.711-1.668-2.946-3.964-2.946-2.123 0-3.639 1.278-3.639 3.119 0 1.668 1.126 2.448 2.556 2.773l1.82.412c.867.195 1.235.52 1.235 1.126 0 .802-.672 1.278-1.69 1.278-.997 0-1.733-.412-2.015-1.3H50.02z" fill="#9aecc8"/></svg>