<?xml version="1.0" encoding="UTF-8"?>
<svg width="60px" height="60px" viewBox="0 0 60 60" version="1.1" xmlns="http://www.w3.org/2000/svg" xmlns:xlink="http://www.w3.org/1999/xlink">
    <!-- Generator: sketchtool 53.2 (72643) - https://sketchapp.com -->
    <title>6C26F895-1AEF-43F0-B4AB-3518906B5066</title>
    <desc>Created with sketchtool.</desc>
    <g id="Changes" stroke="none" stroke-width="1" fill="none" fill-rule="evenodd">
        <g id="IExplorer" transform="translate(-290.000000, -299.000000)" fill="#F6F6F6" fill-rule="nonzero">
            <g id="icons8-chrome-filled" transform="translate(290.000000, 299.000000)">
                <path d="M30,0 C13.4569565,0 0,13.4569565 0,30 C0,46.5430435 13.4569565,60 30,60 C46.5430435,60 60,46.5430435 60,30 C60,13.4569565 46.5430435,0 30,0 Z M7.88213322,13.9096461 L17.017663,28.795007 C17.6280978,22.1663113 23.2147826,16.9565217 30,16.9565217 L54.0820317,16.9565217 C54.5398578,17.7991304 54.945917,18.6730435 55.3150474,19.5652174 L37.7929683,19.5652174 C40.9729683,21.9456522 43.0434783,25.7308696 43.0434783,30 C43.0434783,32.3308696 42.420347,34.5169774 41.34426,36.4121948 C41.3351296,36.4304557 41.3368617,36.4499791 41.326427,36.46824 L29.3962291,57.360733 C28.4218813,57.3385591 27.4619022,57.2641917 26.5149457,57.1441917 L35.18682,41.9633152 C33.595517,42.6559239 31.8430435,43.0434783 30,43.0434783 C25.3578261,43.0434783 21.2854891,40.5970513 18.9741848,36.9344426 C18.9441848,36.8966165 18.9085591,36.8666374 18.8824722,36.8248983 L6.30264939,16.3247283 C6.78656243,15.4886413 7.31474191,14.685733 7.88213322,13.9096461 Z M30,19.5652174 C24.2370287,19.5652174 19.5652174,24.2370287 19.5652174,30 C19.5652174,35.7629713 24.2370287,40.4347826 30,40.4347826 C35.7629713,40.4347826 40.4347826,35.7629713 40.4347826,30 C40.4347826,24.2370287 35.7629713,19.5652174 30,19.5652174 Z" id="Shape"></path>
            </g>
        </g>
    </g>
</svg>