<?xml version="1.0" encoding="UTF-8"?>
<svg width="55px" height="60px" viewBox="0 0 55 60" version="1.1" xmlns="http://www.w3.org/2000/svg" xmlns:xlink="http://www.w3.org/1999/xlink">
    <!-- Generator: sketchtool 53.2 (72643) - https://sketchapp.com -->
    <title>B457DE6D-45E0-4C8F-B8B2-FBE346B5387C</title>
    <desc>Created with sketchtool.</desc>
    <g id="Changes" stroke="none" stroke-width="1" fill="none" fill-rule="evenodd">
        <g id="IExplorer" transform="translate(-933.000000, -299.000000)" fill="#FFFFFF">
            <path d="M983.247969,310.694454 C983.181365,310.599314 983.113654,310.505314 983.043669,310.411283 C977.970767,303.484108 969.876052,299 960.755255,299 C946.005055,299 933.93578,310.72844 933,325.552394 C935.247458,321.391087 945.510641,310.402247 959.141045,310.402247 C972.77145,310.402247 971.501542,323.295044 971.501542,323.295044 L950.147801,323.295044 C950.542879,318.217455 954.193453,313.876043 954.193453,313.876043 C939.104608,320.029663 939.7819,335.546773 939.7819,335.546773 C940.149899,342.797921 942.518148,347.810962 945.666409,351.27455 C953.123358,359.479357 964.954432,358.994586 964.954432,358.994586 C975.608173,358.994586 982.789669,354.688301 982.789669,354.688301 L982.789669,344.743759 L982.789669,342.118304 C982.789669,342.118304 976.618457,346.476678 966.478309,346.646575 C949.574334,346.306782 950.39046,333.846667 950.39046,333.846667 L987.85129,333.846667 C987.852396,333.845526 987.852396,333.844416 987.852396,333.842134 L987.852396,327.169788 C987.852396,327.169788 988.186525,317.691883 983.247969,310.694454 L983.247969,310.694454 Z" id="edge"></path>
        </g>
    </g>
</svg>