<?xml version="1.0" encoding="UTF-8"?>
<svg width="60px" height="58px" viewBox="0 0 60 58" version="1.1" xmlns="http://www.w3.org/2000/svg" xmlns:xlink="http://www.w3.org/1999/xlink">
    <!-- Generator: sketchtool 53.2 (72643) - https://sketchapp.com -->
    <title>1638EEDD-CE35-48AA-A8AD-A6BF05609FB4</title>
    <desc>Created with sketchtool.</desc>
    <g id="Changes" stroke="none" stroke-width="1" fill="none" fill-rule="evenodd">
        <g id="IExplorer" transform="translate(-610.000000, -299.000000)" fill="#F6F6F6" fill-rule="nonzero">
            <g id="icons8-firefox-filled" transform="translate(610.000000, 299.000000)">
                <path d="M30.4809575,0 C22.207255,0 14.7370475,3.50089638 9.48242188,9.09423825 C9.17733888,8.14046238 8.866444,6.92587975 8.6083985,5.31738275 C8.6096485,5.31238288 8.61197262,5.30773437 8.61572263,5.30273438 C8.61572263,5.30023438 8.61572263,5.29916013 8.61572263,5.29541013 C8.54947262,4.83916013 8.22207037,4.46361325 7.77832025,4.32861325 C7.66457025,4.29486325 7.54664062,4.27734375 7.43164062,4.27734375 C7.09789062,4.27734375 6.77296875,4.41660163 6.54296875,4.6728515 C3.39921875,8.14410163 3.23087888,14.3408013 3.24462888,16.0083013 C0.542128875,19.9495513 0.0025,21.6057025 0,23.0957025 C0,24.1432038 0.1225,24.6342775 0.46875,24.9780275 C0.6225,25.1305275 0.807168,25.2343363 1.003418,25.2880863 C0.710918,26.5818363 0.458984375,28.2146488 0.458984375,30.0146487 C0.458984375,41.5421488 10.7179687,57.5122075 29.9804688,57.5122075 C42.5729688,57.5122075 49.9137888,50.051445 53.8525388,43.793945 C58.3312887,36.683945 60,28.6717775 60,25.2905275 C59.99875,22.9942775 59.6014063,21.3251175 59.4726562,20.7763675 C59.3439062,20.2351175 58.8594725,19.8413087 58.3032225,19.8413087 L58.2861325,19.8413087 C57.8111325,16.3963088 56.6752538,11.6683013 53.9477538,8.97705075 C53.7165038,8.74955075 53.4105275,8.6328125 53.1030275,8.6328125 C52.8780275,8.6328125 52.6559963,8.69455075 52.4584962,8.82080075 C52.3072462,8.91705075 52.1859763,9.04207025 52.0947263,9.18457025 C51.4222262,8.42832025 50.6320312,7.71072262 49.7070312,7.05322263 C49.3158337,6.79479775 48.8755387,6.53086675 48.4130862,6.26953125 C48.3703895,6.22723308 48.3246981,6.18806901 48.2763675,6.15234375 C43.3784537,2.30090375 37.1899437,0 30.4809575,0 Z M30.4809575,2.5 C33.2741913,2.5 35.9557425,2.95508325 38.4790038,3.75976562 C37.7640887,3.765 37.03391,3.77962825 36.2548825,3.82080075 C36.2686325,3.82080075 36.2777537,3.82324225 36.2915038,3.82324225 C39.9076125,3.8781935 42.58044,7.38761112 42.890625,8.36425775 C42.481875,8.28050775 42.0864263,8.24599612 41.7114263,8.23974612 C41.4001763,8.23474613 41.1038863,8.24755862 40.8276362,8.27880862 C40.1901363,8.35130863 39.6465625,8.4965625 39.2578125,8.6328125 C45.0440625,11.1003125 51.1895513,14.4633587 50.3833013,19.75586 C49.82183,18.80653 48.6851875,18.1139813 48.0932612,18.0932613 C48.0695113,18.0932613 48.0413287,18.0871287 48.0175775,18.0883788 C49.7063275,21.4608787 49.2630662,25.8234962 48.3618163,29.8022462 C48.0993163,27.8422462 46.5698238,26.0791013 46.5698238,26.0791013 C46.5698238,26.0791013 48.1847463,35.40791 43.3959962,40.13916 C44.1484963,38.27916 44.04541,35.5517575 44.04541,35.5517575 C44.04541,35.5517575 38.8486325,43.75 32.5048825,43.75 C26.1611325,43.75 22.3048825,39.74375 21.2548825,38.75 C21.6523825,38.7825 22.6009575,38.8305662 22.9809575,38.8305662 C22.9759575,38.8305662 22.9688675,38.828125 22.9638675,38.828125 C23.3276175,38.829375 23.68207,38.8140625 24.02832,38.7890625 C28.99582,38.4190625 31.8570112,35.5079688 32.1557613,35.2929688 C32.6020113,34.9729687 32.9071875,34.8559575 33.2421875,34.8559575 C33.4584375,34.8559575 33.6846675,34.9029687 33.9721675,34.9804688 C34.0484175,35.0017188 34.1385162,34.9929688 34.228515,34.9804688 C34.5960162,34.9317188 35.0048825,34.6311713 35.0048825,34.1699225 C35.0048825,33.3261713 33.2807612,31.2524413 30.7495113,31.2524413 C27.8445113,31.2524413 27.6855862,33.3007812 24.8193362,33.3007812 C21.9093362,33.3007812 18.3861912,28.9232612 18.2836913,28.5620113 C18.2836913,28.1020112 18.3663088,26.5767575 19.9975587,26.3330075 C22.1363088,26.6717575 23.6361325,27.0833012 24.0673825,27.1020513 C24.4623825,24.8908012 23.2795112,22.9396675 23.0932613,22.5659175 C23.9345112,21.4959175 26.7307613,19.7297662 26.9995113,19.541015 C27.4982612,19.1922662 28.0322263,18.319765 28.0322263,17.822265 C28.0322263,17.3922662 27.5732425,17.2851562 27.5732425,17.2851562 C27.5732425,17.2851562 26.9170513,17.25916 25.8520512,17.17041 C23.8708012,17.00416 23.7134762,16.6758988 22.7197263,15.7958988 C22.0084763,15.1671487 20.808105,13.8085938 20.808105,13.8085938 C20.808105,13.8085938 21.1132038,11.209375 25.1269525,7.578125 C21.8394537,7.578125 17.4072263,11.4379888 17.4072263,11.4379888 C17.4072263,11.4379888 16.4516212,10.9790038 15.0366212,10.9790038 C12.4753713,10.9790038 10.7543945,11.85791 10.7543945,11.85791 C10.7543945,11.85791 10.6685089,11.744975 10.5737305,11.6040038 C10.5836782,11.5935937 10.5934453,11.5830125 10.6030274,11.572265 C15.4275462,6.01368537 22.5361988,2.5 30.4809575,2.5 Z" id="Shape"></path>
            </g>
        </g>
    </g>
</svg>