<svg width="60" height="60" xmlns="http://www.w3.org/2000/svg"><g fill-rule="nonzero" fill="none"><path d="M58.368 31.825c0 7.225-2.98 14.154-8.286 19.263-5.306 5.108-12.501 7.979-20.004 7.979-7.503 0-14.699-2.87-20.004-7.98C4.768 45.98 1.788 39.05 1.788 31.826c0-15.045 12.666-27.241 28.29-27.241 7.503 0 14.698 2.87 20.004 7.978 5.305 5.11 8.286 12.038 8.286 19.263z" fill="#000" opacity=".53"/><path d="M59.445 29.42a29.367 29.367 0 0 1-29.367 29.368C13.858 58.788.71 45.639.71 29.42S13.86.053 30.078.053A29.367 29.367 0 0 1 59.445 29.42z" stroke="#CDCDCD" stroke-width=".093" fill="#FFF" stroke-linecap="round" stroke-linejoin="round"/><path d="M57.144 29.42c0 14.949-12.118 27.067-27.066 27.067-14.948 0-27.066-12.118-27.066-27.067 0-14.948 12.118-27.066 27.066-27.066 14.948 0 27.066 12.118 27.066 27.066z" fill="#FFF"/><path d="M30.078 3.766a.394.394 0 0 0-.395.394v4.552a.394.394 0 1 0 .79 0V4.16a.394.394 0 0 0-.395-.394zm-2.582.163a.394.394 0 0 0-.432.434l.2 1.904a.394.394 0 1 0 .784-.082L27.85 4.28a.394.394 0 0 0-.354-.352zm5.181.002a.394.394 0 0 0-.353.351l-.2 1.904a.394.394 0 1 0 .784.083l.2-1.904a.394.394 0 0 0-.43-.434zm-7.833.382a.394.394 0 0 0-.384.476l.943 4.454a.394.394 0 1 0 .772-.164l-.943-4.453a.394.394 0 0 0-.388-.313zm10.485.004a.393.393 0 0 0-.388.313l-.946 4.452a.394.394 0 1 0 .772.164l.946-4.452a.394.394 0 0 0-.384-.477zm-13.016.71a.394.394 0 0 0-.41.515l.593 1.821a.394.394 0 1 0 .75-.244l-.591-1.82a.394.394 0 0 0-.342-.272zm15.533 0a.394.394 0 0 0-.342.272l-.592 1.821a.394.394 0 1 0 .75.244l.593-1.82a.394.394 0 0 0-.41-.516zm-18.035.916a.394.394 0 0 0-.353.555l1.848 4.16a.394.394 0 1 0 .721-.321l-1.849-4.16a.394.394 0 0 0-.367-.234zm20.566.014a.394.394 0 0 0-.368.234l-1.855 4.157a.394.394 0 1 0 .721.321l1.854-4.156a.394.394 0 0 0-.352-.556zm-22.89 1.215a.394.394 0 0 0-.37.591l.959 1.658a.394.394 0 1 0 .683-.394l-.957-1.658a.394.394 0 0 0-.314-.197zm25.18 0a.393.393 0 0 0-.313.197l-.958 1.658a.394.394 0 1 0 .684.394l.957-1.658a.394.394 0 0 0-.37-.591zM15.233 8.579a.396.396 0 0 0-.306.626l2.673 3.685a.394.394 0 1 0 .639-.464l-2.673-3.684a.394.394 0 0 0-.333-.163zm29.72.02a.393.393 0 0 0-.333.162l-2.678 3.681a.394.394 0 1 0 .638.465l2.678-3.681a.394.394 0 0 0-.305-.627zm-31.736 1.67a.394.394 0 0 0-.314.658l1.28 1.424a.394.394 0 1 0 .587-.528L13.49 10.4a.393.393 0 0 0-.273-.13zm33.727.004c-.101.005-.2.049-.273.13l-1.281 1.423a.394.394 0 1 0 .586.528l1.282-1.423a.394.394 0 0 0-.314-.658zm-35.66 1.853a.395.395 0 0 0-.243.688l3.383 3.045a.394.394 0 1 0 .528-.586l-3.383-3.046a.394.394 0 0 0-.285-.1zm37.602.013a.393.393 0 0 0-.285.101l-3.385 3.043a.394.394 0 1 0 .527.587l3.385-3.043a.394.394 0 0 0-.242-.688zM9.676 14.193a.394.394 0 0 0-.246.714l1.55 1.125a.394.394 0 1 0 .464-.638l-1.55-1.126a.394.394 0 0 0-.218-.075zm40.814.014a.395.395 0 0 0-.218.075l-1.55 1.125a.394.394 0 1 0 .464.638l1.55-1.124a.394.394 0 0 0-.246-.714zm-42.316 2.19a.394.394 0 0 0-.17.736l3.942 2.275a.394.394 0 1 0 .395-.683L8.4 16.449a.394.394 0 0 0-.225-.052zm43.807 0a.39.39 0 0 0-.225.052l-3.942 2.276a.394.394 0 1 0 .395.683l3.942-2.275a.394.394 0 0 0-.17-.736zM7.04 18.747a.394.394 0 0 0-.168.755l1.748.78a.394.394 0 1 0 .321-.721l-1.748-.78a.394.394 0 0 0-.153-.035zm46.085.015a.395.395 0 0 0-.153.035l-1.749.779a.394.394 0 1 0 .321.72l1.75-.778a.394.394 0 0 0-.169-.756zm-47.097 2.44a.394.394 0 0 0-.089.769l4.328 1.41a.394.394 0 1 0 .245-.75L6.183 21.22a.395.395 0 0 0-.156-.018zm48.107.017a.382.382 0 0 0-.155.018l-4.33 1.407a.394.394 0 1 0 .245.75l4.329-1.407a.394.394 0 0 0-.089-.768zm-48.738 2.56a.394.394 0 0 0-.084.78l1.873.4a.394.394 0 1 0 .164-.773l-1.873-.398a.387.387 0 0 0-.08-.008zm49.364.004a.485.485 0 0 0-.08.009l-1.872.398a.394.394 0 1 0 .164.772l1.872-.398a.394.394 0 0 0-.084-.781zm-49.84 2.59a.394.394 0 0 0-.003.785l4.526.478a.394.394 0 1 0 .083-.785l-4.527-.478a.405.405 0 0 0-.08 0zm50.32.033a.362.362 0 0 0-.08 0l-4.527.473a.394.394 0 1 0 .082.785l4.527-.472a.394.394 0 0 0-.001-.786zm-50.398 2.62a.394.394 0 1 0 0 .79h1.915a.394.394 0 1 0 0-.79H4.842zm48.556 0a.394.394 0 1 0 0 .79h1.915a.394.394 0 1 0 0-.79h-1.915zM9.52 31.178a.36.36 0 0 0-.08 0l-4.527.472a.394.394 0 1 0 .082.785l4.527-.472a.394.394 0 0 0-.002-.785zm41.113.028a.394.394 0 0 0-.003.785l4.526.478a.394.394 0 1 0 .083-.785l-4.526-.478a.407.407 0 0 0-.08 0zM7.263 33.87a.403.403 0 0 0-.079.009l-1.873.398a.394.394 0 1 0 .164.772l1.873-.398a.394.394 0 0 0-.084-.78zm45.628.004a.394.394 0 0 0-.084.78l1.873.399a.394.394 0 1 0 .164-.772l-1.873-.398a.387.387 0 0 0-.08-.009zM10.418 35.43a.382.382 0 0 0-.156.019l-4.329 1.407a.394.394 0 1 0 .244.75l4.329-1.407a.394.394 0 0 0-.088-.769zm39.316.014a.394.394 0 0 0-.089.769l4.328 1.41a.394.394 0 1 0 .244-.75l-4.327-1.41a.395.395 0 0 0-.156-.019zM8.766 38.511a.393.393 0 0 0-.153.035l-1.75.778a.394.394 0 1 0 .321.721l1.75-.778a.394.394 0 0 0-.168-.756zm42.617.015a.394.394 0 0 0-.168.755l1.749.78a.394.394 0 1 0 .321-.72l-1.748-.78a.394.394 0 0 0-.154-.035zm-39.212.855a.39.39 0 0 0-.225.053L8.005 41.71a.394.394 0 1 0 .394.683l3.942-2.276a.394.394 0 0 0-.17-.735zm35.813 0a.394.394 0 0 0-.17.736l3.942 2.276a.394.394 0 1 0 .395-.683l-3.942-2.276a.394.394 0 0 0-.225-.053zm-36.796 3.34a.395.395 0 0 0-.218.076L9.42 43.92a.394.394 0 1 0 .464.639l1.55-1.124a.394.394 0 0 0-.246-.715zm37.77.014a.394.394 0 0 0-.246.714l1.55 1.125a.394.394 0 1 0 .464-.639l-1.55-1.125a.394.394 0 0 0-.218-.075zm-34.26.136a.392.392 0 0 0-.285.1l-3.385 3.044a.394.394 0 1 0 .528.587l3.385-3.043a.394.394 0 0 0-.243-.688zm30.75.01a.395.395 0 0 0-.243.688l3.383 3.046a.394.394 0 1 0 .528-.587l-3.383-3.045a.393.393 0 0 0-.285-.101zM17.91 45.774a.393.393 0 0 0-.333.162l-2.677 3.68a.394.394 0 1 0 .638.465l2.677-3.68a.394.394 0 0 0-.305-.627zm24.315.016a.395.395 0 0 0-.306.626l2.673 3.685a.394.394 0 1 0 .639-.464l-2.673-3.684a.394.394 0 0 0-.333-.163zm-27.771.569c-.101.005-.2.049-.273.13L12.9 47.911a.394.394 0 1 0 .586.528l1.282-1.423a.394.394 0 0 0-.314-.658zm31.247.001a.394.394 0 0 0-.314.658l1.281 1.424a.394.394 0 1 0 .587-.528l-1.281-1.423a.393.393 0 0 0-.273-.13zM21.65 47.938a.393.393 0 0 0-.368.234l-1.855 4.157a.394.394 0 1 0 .72.321l1.855-4.157a.394.394 0 0 0-.352-.555zm16.833.011a.394.394 0 0 0-.354.555l1.849 4.16a.394.394 0 1 0 .721-.32l-1.848-4.16a.394.394 0 0 0-.368-.235zM18.39 49.223a.393.393 0 0 0-.314.197l-.958 1.658a.394.394 0 1 0 .684.395l.957-1.659a.394.394 0 0 0-.37-.591zm23.376 0a.394.394 0 0 0-.37.591l.958 1.659a.394.394 0 1 0 .683-.395l-.957-1.658a.394.394 0 0 0-.314-.197zm-15.989.06a.393.393 0 0 0-.388.312l-.946 4.453a.394.394 0 1 0 .772.164l.946-4.453a.394.394 0 0 0-.384-.476zm8.587.002a.394.394 0 0 0-.384.476l.943 4.454a.394.394 0 1 0 .772-.164l-.942-4.453a.394.394 0 0 0-.389-.313zm-4.286.45a.394.394 0 0 0-.395.394v4.552a.394.394 0 1 0 .79 0v-4.552a.394.394 0 0 0-.395-.395zm-7.244 1.47a.394.394 0 0 0-.341.272l-.592 1.82a.394.394 0 1 0 .75.245l.592-1.821a.394.394 0 0 0-.409-.516zm14.484.001a.394.394 0 0 0-.41.515l.593 1.822a.394.394 0 1 0 .75-.244l-.591-1.821a.394.394 0 0 0-.342-.272zm-9.717 1.014a.394.394 0 0 0-.354.352l-.2 1.904a.394.394 0 1 0 .785.082l.2-1.904a.394.394 0 0 0-.431-.434zm4.938.002a.394.394 0 0 0-.432.434l.199 1.904a.394.394 0 1 0 .785-.082l-.199-1.904a.394.394 0 0 0-.353-.352z" fill="#32424A"/><path fill="#32424A" d="M48.574 13.636L26.984 26.18 13.333 47.67l19.97-14.791z"/></g></svg>