<svg xmlns="http://www.w3.org/2000/svg" xmlns:xlink="http://www.w3.org/1999/xlink" width="134" height="52" xmlns:v="https://vecta.io/nano"><defs><path id="A" d="M0 0h132.684v40.519H0z"/><path id="B" d="M118.128.137v.934h-2.77v6.116h-1.557V1.07h-2.758V.137h7.085"/></defs><g fill="none" fill-rule="evenodd"><path d="M30.989 11.365c-1.051 1.737-.915 4.204-.915 6.489 0 5.484-.228 11.197.366 16.68.229 2.056.411 4.157 1.417 5.986h-6.719c.822-2.285.822-5.666.822-8.225V17.123c0-.457 0-1.005-.32-1.005s-.457.32-.593.685L14.808 40.977 6.124 18.54c-.502-1.325-.822-2.422-1.234-2.422s-.411.822-.411 1.508l-.046 14.851c0 3.564 0 6.534 1.006 8.042H0l.411-.594c1.691-2.422 1.874-9.642 1.874-14.577V13.925c0-1.234-.046-1.874-1.143-2.56H6.81c.549 0 1.234.092 1.417.686l6.765 19.923c.228.686.366 1.463.731 1.463.411 0 .549-.458.823-1.097l7.907-19.056c.412-.959.732-1.919 1.875-1.919h4.662m29.887 13.983c0-8.133-4.205-14.714-13.804-14.714-9.507 0-14.535 7.219-14.535 15.901 0 8.135 4.205 14.715 13.803 14.715 9.507 0 14.535-7.22 14.535-15.902zm-4.754 1.279c0 6.58-2.834 12.612-9.416 12.612-7.359 0-9.416-7.951-9.416-13.983 0-6.58 2.834-12.611 9.416-12.611 7.359 0 9.416 7.951 9.416 13.982h0zm34.792-1.279c0-8.133-4.205-14.714-13.804-14.714-9.507 0-14.535 7.219-14.535 15.901 0 8.135 4.205 14.715 13.803 14.715 9.507 0 14.535-7.22 14.535-15.902zm-4.754 1.279c0 6.58-2.833 12.612-9.415 12.612-7.359 0-9.416-7.951-9.416-13.983 0-6.58 2.834-12.611 9.416-12.611 7.358 0 9.415 7.951 9.415 13.982h0zm16.999-1.325c3.291-1.325 6.765-4.067 6.765-8.27 0-3.565-2.423-6.124-7.085-6.124-3.565 0-7.221.457-11.061.457 1.006 1.554 1.006 3.931 1.006 5.987v16.907c0 1.965.091 4.158-1.234 6.26h6.353c-1.005-1.553-1.005-3.929-1.005-5.986v-8.225c2.651.228 2.97 1.005 4.89 3.747l5.576 7.951c1.006 1.462 1.874 2.513 3.84 2.513h3.747c-1.873-1.736-2.513-2.467-3.838-4.25l-7.953-10.967zM96.899 14.93c0-.732.046-1.509.091-2.194h2.148c4.068.091 6.673.639 6.673 5.208 0 4.341-2.422 6.718-6.856 6.718-.685 0-1.372-.046-2.056-.138V14.93h0z" fill="#c5cdcf"/><g transform="translate(1.098)"><mask id="C" fill="#fff"><use xlink:href="#A"/></mask><path d="M124.778 38.691c2.834 0 5.759-.685 7.907-2.604l-.822 4.204-4.388.228h-13.209c1.005-1.553 1.143-3.929 1.143-5.986V17.352c0-2.056 0-4.433-1.005-5.987h15.951l.183 3.52c-1.599-1.372-4.067-1.691-6.764-1.691h-4.251v10.921c3.52 0 7.222 0 10.742-.32-1.6 2.604-6.764 2.604-9.599 2.604h-1.143v12.292h5.257zM6.973 6.931c-.956.245-1.925.39-2.914.39C.578 7.32 0 4.974 0 3.784 0 1.504 1.846-.008 4.427-.008c1.078 0 1.991.278 2.035.3.122.045.122.089.134.222l.033.712c0 .055.011.078-.055.111l-.211.122c-.044.022-.044.022-.067.022-.033 0-.322-.189-.389-.222-.523-.256-1.09-.401-1.668-.401-1.357 0-2.614.779-2.614 2.736 0 .456.078 1.702.957 2.358.556.411 1.268.5 1.724.5a4.27 4.27 0 0 0 1.112-.156V3.684h1.557V6.93z" mask="url(#C)" fill="#c5cdcf"/></g><g fill="#c5cdcf"><path d="M12.053 3.562c0 1.823 1.202 2.891 2.547 2.891.878 0 2.335-.578 2.335-2.669 0-1.846-1.201-2.913-2.535-2.913-1.569 0-2.348 1.279-2.348 2.691zM17.326.848c.467.378 1.223 1.223 1.223 2.757 0 2.524-2.069 3.725-4.193 3.725-2.847 0-3.927-1.957-3.927-3.625 0-1.257.545-2.135 1.357-2.78.979-.778 1.98-.923 2.969-.923.268 0 1.613.055 2.57.845h0zm5.316 2.569c.812.021 1.068.033 1.468-.034.734-.122 1.035-.611 1.035-1.267 0-.734-.379-1.179-1.591-1.179h-.912v2.48zm0 3.769h-1.546V.137L23.71.081c1.212 0 1.857.078 2.424.556a1.75 1.75 0 0 1 .634 1.401c0 .834-.489 1.557-1.657 1.891.645 1.379 1.323 2.246 1.757 2.491.312.178.601.178.79.178l.022.056-.1.445c-.01.044-.022.078-.055.1-.112.067-.501.123-.812.123-1.502 0-2.169-1.101-3.137-3.114a5.26 5.26 0 0 1-.934.012v2.969h0zm8.509-.878h1.19c1.512 0 2.836-.301 2.836-2.714 0-1.645-.534-2.669-2.747-2.669l-1.279.022v5.36zM29.605.137l2.524-.078h.457c1.123 0 4.226 0 4.226 3.359 0 1.646-.79 2.68-1.646 3.18-1.001.589-2.714.589-3.292.589h-2.269V.137h0zM40.46 3.562c0 1.823 1.201 2.891 2.547 2.891.879 0 2.335-.578 2.335-2.669 0-1.846-1.201-2.913-2.535-2.913-1.569 0-2.347 1.279-2.347 2.691zM45.733.848c.467.378 1.223 1.223 1.223 2.757 0 2.524-2.069 3.725-4.193 3.725-2.847 0-3.927-1.957-3.927-3.625 0-1.257.546-2.135 1.357-2.78.979-.778 1.98-.923 2.97-.923.267 0 1.612.055 2.57.845h0zm4.894-.711l4.515 4.959-.089-4.959h1.113l-.011 6.972-.912.233-4.749-5.204.089 5.048H49.47l.033-7.05h1.124m16.159 4.115l-.99-2.669-1.079 2.669h2.069zm-.1-4.114l2.903 7.05h-1.702l-.778-2.101h-2.736l-.845 2.101H62.17l3.37-7.05h1.146 0zm6.206 0l4.516 4.959-.089-4.959h1.112l-.011 6.972-.912.233-4.75-5.204.089 5.048h-1.112l.034-7.05h1.123m10.166 6.172h1.19c1.513 0 2.836-.301 2.836-2.714 0-1.645-.534-2.669-2.747-2.669l-1.279.022v5.36zM81.512.137l2.525-.078h.456c1.124 0 4.226 0 4.226 3.359 0 1.646-.789 2.68-1.646 3.18-1.001.589-2.714.589-3.293.589h-2.269V.137h0zm16.184 6.204c1.057.011 1.479.011 1.813-.111.545-.2.745-.623.745-1.134 0-1.267-1.046-1.301-2.024-1.301h-.534v2.547zm0-3.358h.523c.746 0 1.579 0 1.579-1.079 0-.534-.211-1.001-1.146-1.001l-.956.012v2.068zM96.173.137l2.625-.056c.801 0 1.535.056 2.069.456.312.233.545.633.545 1.089 0 .967-.879 1.357-1.179 1.49.3.067.878.189 1.29.778a1.9 1.9 0 0 1 .345 1.123c0 .901-.568 1.435-.867 1.646-.312.233-1.079.523-2.08.523h-2.747V.137h0zm13.424 0v.867h-3.57v2.035h3.203v.879h-3.203v2.335h3.693v.934h-5.239V.137h5.117"/><use xlink:href="#B"/><use xlink:href="#B" x="7.897"/><path d="M129.017.137l1.768 3.003 1.724-3.003H134l-2.736 3.936v3.114h-1.546V4.118L127.17.137h1.847M6.353 44.067v1.028H2.288v2.265h3.429v1.028H2.288v3.441H.585v-7.762h5.769m7.947 3.771c0 2.008 1.323 3.183 2.804 3.183.967 0 2.572-.637 2.572-2.938 0-2.033-1.323-3.208-2.792-3.208-1.727 0-2.584 1.408-2.584 2.963zm5.804-2.988c.515.416 1.347 1.347 1.347 3.036 0 2.779-2.278 4.101-4.617 4.101-3.135 0-4.323-2.155-4.323-3.991 0-1.383.6-2.351 1.494-3.06 1.078-.857 2.18-1.016 3.269-1.016.294 0 1.776.061 2.829.931h0zm10.336-.783v4.628c0 .869 0 1.224.342 1.604.269.294.784.514 1.531.514.759 0 1.421-.232 1.8-.661.392-.428.392-1.003.392-2.007v-4.077h1.236l-.098 4.04c-.037 1.408-.11 2.289-.882 2.975-.992.894-2.376.894-2.866.894-.906 0-1.812-.135-2.486-.771-.612-.575-.673-1.286-.673-2.436v-4.701h1.702m14.292-.002l4.971 5.46-.098-5.46h1.225l-.012 7.677-1.004.256-5.228-5.729.098 5.558h-1.225l.037-7.762h1.237m15.674 6.795h1.31c1.665 0 3.122-.331 3.122-2.988 0-1.812-.588-2.938-3.024-2.938l-1.408.024v5.902zm-1.702-6.795l2.78-.086h.502c1.236 0 4.654 0 4.654 3.698 0 1.812-.87 2.951-1.812 3.501-1.102.649-2.988.649-3.625.649h-2.498v-7.762h0zm18.497 4.53l-1.09-2.938-1.188 2.938h2.278zm-.111-4.53l3.196 7.762h-1.874l-.857-2.314h-3.013l-.931 2.314h-1.494l3.711-7.762h1.261 0zm16.19 0v1.028h-3.049v6.734h-1.715v-6.734H85.48v-1.028h7.801m7.169 7.762h1.702v-7.762h-1.702zm10.764-3.991c0 2.008 1.322 3.183 2.804 3.183.968 0 2.572-.637 2.572-2.938 0-2.033-1.322-3.208-2.792-3.208-1.727 0-2.584 1.408-2.584 2.963zm5.805-2.988c.514.416 1.347 1.347 1.347 3.036 0 2.779-2.278 4.101-4.617 4.101-3.135 0-4.323-2.155-4.323-3.991 0-1.383.6-2.351 1.494-3.06 1.077-.857 2.18-1.016 3.27-1.016.294 0 1.775.061 2.829.931h0zm9.313-.783l4.971 5.46-.098-5.46h1.225l-.013 7.677-1.004.256-5.228-5.729.098 5.558h-1.225l.037-7.762h1.237"/></g></g></svg>