<svg xmlns="http://www.w3.org/2000/svg" width="172" height="59" fill="#c5cdcf" xmlns:v="https://vecta.io/nano"><path d="M69.211 46.195a.74.74 0 0 0-.569-.053l-1.234.381a28.8 28.8 0 0 0 5.736-17.27C73.155 13.27 60.207.305 44.223.295h-.018v.007h0V.295a28.93 28.93 0 0 0-7.631 1.025A28.95 28.95 0 0 0 28.958.295h-.019v.008h0V.295C17.262.295 7.201 7.216 2.628 17.18l-.237-1.217c-.038-.194-.151-.366-.315-.476s-.365-.152-.559-.114h0c-.25.049-.457.222-.55.459a.75.75 0 0 0-.039.415l.75 3.867c.049.25.222.458.459.551s.505.058.711-.092l3.186-2.313a.75.75 0 0 0 .164-1.041c-.116-.16-.292-.267-.487-.298s-.395.017-.555.134L4 17.895C8.325 8.429 17.876 1.832 28.94 1.831h.017a26.52 26.52 0 0 1 2.1.092C17.778 4.404 7.711 15.696 7.705 29.217c-.005 7.443 2.998 14.441 8.458 19.702a28.99 28.99 0 0 0 14.859 7.631 27.53 27.53 0 0 1-2.1.092c-7.268-.005-14.237-2.897-19.373-8.04s-8.02-12.116-8.014-19.385c.003-.984.058-1.967.166-2.945 0-.016.011-.028.013-.044.039-.395.092-.792.149-1.187l.075-.478.183-1.032a.77.77 0 0 0-.607-.884.77.77 0 0 0-.9.584c-.063.318-.115.642-.168.962H.438l-.047.305-.04.26C.119 26.233.002 27.723 0 29.216-.01 45.2 12.938 58.165 28.921 58.171h.019a28.94 28.94 0 0 0 7.631-1.025c2.481.678 5.041 1.023 7.613 1.025h.018c7.31 0 13.737-2.461 18.831-6.933l-.005-.006c.028-.025.058-.047.086-.072a.77.77 0 0 0-.249-1.308.77.77 0 0 0-.755.144 27.55 27.55 0 0 1-2.501 1.918l-.156.111a26.88 26.88 0 0 1-.648.418l-.372.231a25.18 25.18 0 0 1-.505.298l-.571.321-.359.193-.793.402-.176.085a27.5 27.5 0 0 1-11.843 2.66 27.7 27.7 0 0 1-2.144-.092c13.289-2.48 23.354-13.771 23.359-27.29.005-7.443-2.998-14.441-8.458-19.702-.183-.183-.382-.353-.574-.528l1.211.193a.75.75 0 0 0 .556-.132.74.74 0 0 0 .299-.487h0c.063-.406-.214-.787-.62-.852l-3.891-.619c-.252-.04-.506.052-.675.243s-.228.454-.158.699l1.083 3.785c.114.393.523.621.917.511.19-.054.351-.182.447-.355s.119-.377.065-.567l-.416-1.456c5.357 4.808 8.707 11.66 8.702 19.266-.008 12.704-9.369 23.297-21.81 25.763 9.375-4.785 15.795-14.519 15.795-25.76.007-11.255-6.42-21.004-15.796-25.798 1.984.392 3.92.998 5.773 1.809.4.178.799.367 1.192.559l.062.031a25.68 25.68 0 0 1 1.312.707.77.77 0 0 0 1.026-.296.77.77 0 0 0-.26-1.036c-.592-.34-1.208-.642-1.834-.936a29.34 29.34 0 0 0-.892-.409l-.165-.076c-.016-.006-.032-.01-.048-.016a29.34 29.34 0 0 0-6.161-1.871c.698-.053 1.401-.092 2.11-.092h.017c15.11.009 27.395 12.311 27.386 27.425a27.24 27.24 0 0 1-5.418 16.309l.183-1.344c.027-.196-.024-.395-.144-.553s-.297-.262-.493-.289h0a.74.74 0 0 0-.669.257c-.091.108-.15.24-.17.38l-.538 3.904c-.029.212.035.427.176.589a.75.75 0 0 0 .558.257.76.76 0 0 0 .221-.033l3.761-1.162c.29-.088.499-.343.527-.645s-.13-.591-.399-.731l.018.003zM56.343 29.252c-.008 12.458-8.38 22.993-19.797 26.3a27.47 27.47 0 0 1-18.675-18.701l.917.891c.139.143.332.22.531.213a.74.74 0 0 0 .524-.226h0c.286-.295.28-.766-.015-1.053l-2.82-2.752c-.183-.177-.443-.249-.691-.19a.75.75 0 0 0-.533.479l-1.301 3.719c-.099.285-.017.601.208.802s.549.246.821.115a.74.74 0 0 0 .38-.427l.459-1.32a29.01 29.01 0 0 0 14.73 17.922C18.594 52.582 9.2 41.954 9.208 29.216S18.61 5.881 31.084 3.445c-6.525 3.329-11.552 9.001-14.072 15.88h-.006c-.031.086-.058.174-.092.26l-.152.449a27.05 27.05 0 0 0-.305.966l-.158.54-.148.567-.127.519-.127.561-.116.588-.131.734-.118.77-.063.513-.068.626-.046.51-.017.195h.005a29.54 29.54 0 0 0-.083 2.117c0 .592.018 1.192.054 1.781.025.404.36.72.765.72h.047a.77.77 0 0 0 .528-.257c.135-.152.204-.352.191-.555a28.05 28.05 0 0 1-.051-1.689c0-.734.033-1.468.092-2.197h0c.917-11.488 8.956-20.999 19.685-24.117 11.417 3.313 19.781 13.86 19.773 26.327zM93.945 15.56h2.935v3.533c-.422.311-.894.547-1.396.698-.507.15-1.033.226-1.562.224a5.3 5.3 0 0 1-1.911-.328 4.29 4.29 0 0 1-1.462-.912 4.02 4.02 0 0 1-.937-1.39 4.56 4.56 0 0 1-.328-1.752 4.76 4.76 0 0 1 .313-1.764 3.93 3.93 0 0 1 .901-1.376 4.1 4.1 0 0 1 1.413-.902 5.04 5.04 0 0 1 1.855-.323 5.42 5.42 0 0 1 .991.086 4.8 4.8 0 0 1 .849.237 4.02 4.02 0 0 1 1.303.812l-.514.79c-.066.116-.177.2-.307.23a.56.56 0 0 1-.412-.092l-.416-.233a3.23 3.23 0 0 0-.433-.183c-.164-.054-.331-.093-.502-.118a4.22 4.22 0 0 0-.625-.042 2.72 2.72 0 0 0-1.08.206 2.31 2.31 0 0 0-.825.583c-.233.264-.411.573-.523.908-.126.382-.188.783-.183 1.186a3.7 3.7 0 0 0 .202 1.257 2.63 2.63 0 0 0 .566.941 2.41 2.41 0 0 0 .875.584c.607.22 1.264.261 1.893.116.224-.058.442-.136.652-.233V16.87h-.968c-.098.006-.195-.027-.269-.092-.064-.06-.1-.145-.097-.233l.003-.985zm12.887.085a4.72 4.72 0 0 1-.316 1.743 4.02 4.02 0 0 1-2.276 2.301 4.99 4.99 0 0 1-3.586 0 4.15 4.15 0 0 1-1.385-.917c-.389-.396-.693-.868-.892-1.387-.42-1.121-.42-2.356 0-3.477a4.06 4.06 0 0 1 .894-1.382 4.15 4.15 0 0 1 1.387-.917c1.154-.444 2.432-.444 3.586 0 1.047.418 1.871 1.255 2.273 2.308a4.69 4.69 0 0 1 .316 1.729zm-1.811 0a3.82 3.82 0 0 0-.177-1.206 2.55 2.55 0 0 0-.51-.909 2.19 2.19 0 0 0-.807-.572 3.04 3.04 0 0 0-2.156 0c-.311.126-.588.321-.812.571a2.55 2.55 0 0 0-.511.908 4.22 4.22 0 0 0 0 2.418c.105.334.279.642.51.905a2.2 2.2 0 0 0 .81.57 3.04 3.04 0 0 0 2.156 0 2.21 2.21 0 0 0 .808-.569 2.53 2.53 0 0 0 .511-.905 3.84 3.84 0 0 0 .177-1.212v.001zm11.731.006a4.72 4.72 0 0 1-.316 1.743c-.2.518-.503.989-.892 1.385a4.12 4.12 0 0 1-1.384.917c-1.154.444-2.432.444-3.586 0a4.14 4.14 0 0 1-1.385-.917 4.06 4.06 0 0 1-.892-1.387c-.42-1.121-.42-2.356 0-3.477a4.06 4.06 0 0 1 .894-1.382c.395-.396.867-.708 1.386-.917a4.99 4.99 0 0 1 3.586 0c1.047.418 1.871 1.255 2.273 2.308.213.551.321 1.137.316 1.728h0zm-1.811 0c.006-.409-.054-.816-.177-1.206-.106-.335-.279-.644-.51-.909a2.18 2.18 0 0 0-.807-.572 3.04 3.04 0 0 0-2.156 0 2.2 2.2 0 0 0-.812.571 2.56 2.56 0 0 0-.51.908 4.22 4.22 0 0 0 0 2.418 2.52 2.52 0 0 0 .509.905 2.2 2.2 0 0 0 .81.57 3.04 3.04 0 0 0 2.156 0 2.21 2.21 0 0 0 .808-.569 2.53 2.53 0 0 0 .511-.905 3.83 3.83 0 0 0 .178-1.212v.001zm10.9.005a4.6 4.6 0 0 1-.317 1.725 3.92 3.92 0 0 1-.892 1.353c-.396.385-.867.686-1.383.884a4.85 4.85 0 0 1-1.793.317h-3.291l.006-8.558h3.291a4.86 4.86 0 0 1 1.793.319c.517.199.987.501 1.382.889.387.385.689.846.89 1.354.214.547.321 1.13.315 1.717h0zm-1.817 0a3.85 3.85 0 0 0-.177-1.209c-.104-.335-.277-.644-.506-.909a2.21 2.21 0 0 0-.804-.572 2.74 2.74 0 0 0-1.077-.202h-1.51v5.786h1.51c.368.006.735-.061 1.077-.197.309-.126.584-.321.805-.571a2.58 2.58 0 0 0 .508-.911 3.87 3.87 0 0 0 .174-1.215h0zM93.937 28.222h2.935v3.533c-.422.311-.894.547-1.396.698-.508.149-1.036.223-1.566.22a5.3 5.3 0 0 1-1.911-.328 4.29 4.29 0 0 1-1.462-.912 4.02 4.02 0 0 1-.936-1.387 4.57 4.57 0 0 1-.329-1.752 4.77 4.77 0 0 1 .317-1.763c.2-.517.507-.986.9-1.376.404-.395.885-.702 1.413-.902a5.04 5.04 0 0 1 1.855-.323 5.42 5.42 0 0 1 .991.086 4.8 4.8 0 0 1 .849.237 4.02 4.02 0 0 1 1.303.812l-.514.79a.48.48 0 0 1-.307.23.56.56 0 0 1-.413-.092l-.415-.233a3.23 3.23 0 0 0-.433-.183c-.164-.054-.331-.093-.502-.118a4.22 4.22 0 0 0-.625-.042 2.72 2.72 0 0 0-1.08.206 2.31 2.31 0 0 0-.825.583 2.62 2.62 0 0 0-.523.908c-.126.382-.188.783-.183 1.186-.007.43.061.858.2 1.265a2.62 2.62 0 0 0 .566.941 2.41 2.41 0 0 0 .875.584c.607.22 1.264.261 1.893.116.224-.058.442-.136.652-.233V29.53h-.968c-.098.006-.195-.027-.269-.092-.064-.06-.1-.145-.097-.233l.005-.985zm11.321 4.366h-1.599c-.298 0-.515-.114-.648-.343l-1.625-2.626a.69.69 0 0 0-.221-.224.72.72 0 0 0-.357-.071h-.602v3.262h-1.769l.006-8.558h2.689c.517-.011 1.033.051 1.534.183a2.96 2.96 0 0 1 1.044.516 1.98 1.98 0 0 1 .595.788 2.6 2.6 0 0 1 .188 1.009 2.66 2.66 0 0 1-.122.805 2.39 2.39 0 0 1-.351.692 2.53 2.53 0 0 1-.567.55 2.91 2.91 0 0 1-.767.389 1.76 1.76 0 0 1 .318.227c.102.093.191.199.265.316l1.989 3.084zm-4.144-4.509c.252.006.503-.031.743-.108.191-.062.366-.164.514-.3a1.17 1.17 0 0 0 .295-.451c.063-.182.094-.373.092-.566 0-.405-.135-.719-.404-.944s-.679-.337-1.229-.338h-.917v2.707h.906zm13.24.233a4.72 4.72 0 0 1-.316 1.743 4.07 4.07 0 0 1-.892 1.385c-.394.397-.865.709-1.383.917a4.99 4.99 0 0 1-3.585 0 4.16 4.16 0 0 1-1.386-.917c-.389-.396-.693-.868-.892-1.387a4.94 4.94 0 0 1 0-3.477 4.06 4.06 0 0 1 .894-1.382 4.15 4.15 0 0 1 1.387-.917 4.99 4.99 0 0 1 3.585 0 4.04 4.04 0 0 1 2.273 2.308 4.68 4.68 0 0 1 .316 1.728zm-1.811 0a3.81 3.81 0 0 0-.176-1.206 2.56 2.56 0 0 0-.51-.909 2.2 2.2 0 0 0-.807-.572 3.04 3.04 0 0 0-2.155 0c-.311.126-.588.321-.812.571-.231.264-.405.573-.511.908a4.21 4.21 0 0 0 0 2.418c.105.334.279.642.51.905a2.2 2.2 0 0 0 .81.57 3.04 3.04 0 0 0 2.155 0 2.21 2.21 0 0 0 .808-.569 2.53 2.53 0 0 0 .511-.905c.123-.392.182-.802.175-1.213l.002.002zm14.555-4.268l-2.66 8.557h-1.599l-1.748-5.595-.083-.26-.076-.301-.077.301-.083.26-1.773 5.595h-1.604l-2.642-8.56h1.486a.67.67 0 0 1 .386.106.48.48 0 0 1 .203.283l1.324 4.825.097.434.096.493.113-.495.13-.43 1.548-4.824c.039-.108.111-.201.205-.268a.6.6 0 0 1 .38-.12h.519a.61.61 0 0 1 .374.109.66.66 0 0 1 .215.28l1.536 4.821a4.42 4.42 0 0 1 .129.41l.112.469.092-.469.092-.41 1.33-4.824c.033-.112.104-.209.201-.275a.63.63 0 0 1 .383-.117l1.394.006zm7.607 1.432h-2.501v7.13h-1.777v-7.13h-2.5v-1.432h6.777zm8.4-1.425l-.006 8.558h-1.781v-3.686h-3.769v3.686h-1.781l.006-8.558h1.781v3.633h3.769v-3.633zM92.657 36.684c.514-.01 1.026.06 1.518.207a2.9 2.9 0 0 1 1.053.576c.27.239.479.54.61.876a3 3 0 0 1 .196 1.101c.005.395-.065.787-.206 1.156a2.37 2.37 0 0 1-.626.902 2.9 2.9 0 0 1-1.057.586 4.79 4.79 0 0 1-1.492.208h-1.116v2.943h-1.776l.006-8.558 2.89.004zm0 4.259c.554 0 .96-.133 1.219-.4s.388-.633.387-1.101c.003-.198-.03-.394-.096-.581a1.17 1.17 0 0 0-.295-.449 1.32 1.32 0 0 0-.498-.286 2.27 2.27 0 0 0-.714-.101h-1.123v2.913l1.12.004zm11.755 4.307h-1.376a.6.6 0 0 1-.374-.109.66.66 0 0 1-.216-.28l-.576-1.641h-3.409l-.58 1.634a.67.67 0 0 1-.206.269.57.57 0 0 1-.371.12h-1.386l3.35-8.556h1.809l3.336 8.563zm-2.969-3.252l-.925-2.62-.173-.484-.173-.602-.174.611-.174.486-.922 2.607 2.542.002zm10.937 3.257h-1.599c-.298 0-.515-.114-.648-.342l-1.627-2.627a.69.69 0 0 0-.221-.224.72.72 0 0 0-.357-.071h-.602v3.262h-1.769l.006-8.558h2.689a5.52 5.52 0 0 1 1.534.183 2.95 2.95 0 0 1 1.044.516c.262.208.466.479.595.788a2.76 2.76 0 0 1 .066 1.811c-.078.248-.196.482-.35.692a2.54 2.54 0 0 1-.567.55 2.92 2.92 0 0 1-.767.389 1.72 1.72 0 0 1 .318.227 1.56 1.56 0 0 1 .264.316l1.991 3.087zm-4.143-4.511a2.27 2.27 0 0 0 .743-.108 1.4 1.4 0 0 0 .514-.301 1.18 1.18 0 0 0 .295-.451 1.65 1.65 0 0 0 .092-.566c0-.405-.135-.719-.404-.944s-.679-.337-1.229-.337h-.917v2.707h.906zm11.197-2.615h-2.501v7.13h-1.775v-7.13h-2.5v-1.432h6.777zm8.752-1.421l-.006 8.558h-.917a.8.8 0 0 1-.349-.068c-.107-.057-.201-.136-.275-.233l-4.26-5.429.027.407.008.367v4.953h-1.559l.006-8.558h.932c.064 0 .128.003.192.009.05.005.099.019.145.041a.56.56 0 0 1 .124.086c.047.044.09.091.129.141l4.284 5.449-.035-.434-.012-.398v-4.895l1.567.003zm3.927 1.388v2.201h2.854v1.339h-2.854v2.247h3.669v1.386h-5.45l.004-8.561h5.45v1.386zm12.164 7.179h-1.599c-.298 0-.515-.114-.648-.343l-1.626-2.629a.69.69 0 0 0-.221-.225.72.72 0 0 0-.357-.071h-.602v3.262h-1.771l.006-8.558h2.689a5.53 5.53 0 0 1 1.534.183 2.95 2.95 0 0 1 1.044.516 1.98 1.98 0 0 1 .595.788 2.76 2.76 0 0 1 .066 1.811 2.38 2.38 0 0 1-.35.692 2.54 2.54 0 0 1-.567.55 2.91 2.91 0 0 1-.768.389c.114.064.221.14.318.227.102.093.191.199.265.316l1.992 3.091zm-4.144-4.509c.252.006.503-.031.743-.108.191-.062.366-.164.514-.3a1.18 1.18 0 0 0 .295-.451 1.65 1.65 0 0 0 .092-.566c0-.405-.135-.719-.404-.944s-.679-.337-1.229-.337h-.917v2.707l.906-.001zm9.976-2.407c-.043.076-.1.143-.169.197-.065.044-.143.066-.221.062a.54.54 0 0 1-.28-.092l-.35-.198a3.42 3.42 0 0 0-.459-.198 1.82 1.82 0 0 0-.608-.092c-.409 0-.715.092-.917.275s-.316.444-.307.716a.67.67 0 0 0 .168.47 1.46 1.46 0 0 0 .442.322 4.08 4.08 0 0 0 .622.242l.714.234c.244.085.482.184.714.298a2.5 2.5 0 0 1 .622.431c.186.18.334.396.436.634a2.21 2.21 0 0 1 .168.912c.002.374-.067.746-.205 1.094a2.6 2.6 0 0 1-.587.89 2.72 2.72 0 0 1-.947.598 3.52 3.52 0 0 1-1.277.217 4.06 4.06 0 0 1-.811-.083 4.68 4.68 0 0 1-.779-.23 4.28 4.28 0 0 1-.704-.354 3.08 3.08 0 0 1-.578-.459l.52-.837c.045-.064.103-.117.172-.156s.145-.062.224-.061c.121.005.238.046.336.117l.406.26a3.34 3.34 0 0 0 .534.26 2.02 2.02 0 0 0 .728.118c.413 0 .732-.094.958-.283s.339-.469.339-.843c.009-.189-.051-.375-.168-.525-.122-.141-.271-.256-.439-.337a3.5 3.5 0 0 0-.619-.233l-.714-.216a5.83 5.83 0 0 1-.714-.283 2.2 2.2 0 0 1-.619-.437 2.07 2.07 0 0 1-.439-.673 2.59 2.59 0 0 1-.167-.997c0-.652.269-1.275.744-1.722a2.75 2.75 0 0 1 .9-.559 3.29 3.29 0 0 1 1.224-.212 4.17 4.17 0 0 1 1.43.24 3.21 3.21 0 0 1 1.112.664l-.434.826zm9.55-1.632l-.006 8.558h-1.781v-3.686h-3.769v3.686h-1.781l.006-8.558h1.781v3.633h3.769v-3.633zm3.922 8.561h-1.785l.006-8.558h1.781zm5.042-8.555a4.97 4.97 0 0 1 1.518.207 2.89 2.89 0 0 1 1.053.576 2.26 2.26 0 0 1 .61.876 3.01 3.01 0 0 1 .196 1.101 3.13 3.13 0 0 1-.206 1.159c-.135.346-.349.655-.626.903a2.92 2.92 0 0 1-1.057.586 4.78 4.78 0 0 1-1.492.208h-1.121v2.943h-1.769l.006-8.558 2.888-.001zm0 4.259c.554 0 .96-.133 1.219-.4s.388-.633.387-1.101a1.67 1.67 0 0 0-.096-.581 1.17 1.17 0 0 0-.295-.449 1.32 1.32 0 0 0-.498-.286 2.3 2.3 0 0 0-.714-.101h-1.121v2.913l1.118.004z"/></svg>