<svg xmlns="http://www.w3.org/2000/svg" xmlns:xlink="http://www.w3.org/1999/xlink" width="238" height="51" xmlns:v="https://vecta.io/nano"><defs><path id="A" d="M0 0h233.696v50.085H0z"/></defs><g fill-rule="evenodd"><path d="M148.009 14.741l-.012-3.464-.088-4.168h.013c.102.351.42 1.166 2.995 7.622l1.149-.004-.031-8.89-.914.003.012 3.4.092 3.977h-.012c-.115-.386-.463-1.221-2.942-7.368l-1.202.004.03 8.891.91-.004m7.688-.732c-.864.003-1.317-.853-1.323-2.658-.006-1.797.464-2.543 1.3-2.546.879-.003 1.303.831 1.308 2.53.006 1.801-.423 2.671-1.285 2.675zm.01-6.039c-1.425.005-2.32 1.077-2.312 3.381.008 2.357.759 3.493 2.295 3.488 1.499-.005 2.281-1.192 2.272-3.527-.008-2.227-.804-3.348-2.255-3.343h0zm3.512 6.734l.958-.003-.013-3.707c-.004-1.219.588-1.939 1.729-1.98l-.004-1.057c-.832.011-1.471.489-1.75 1.291l-.035-1.184-.922.003.021 2.262.015 4.376m5.873-.021l1.164-5.36h.013c.151 1.027.654 3.185 1.139 5.352l1.017-.003 1.606-6.643-.979.003-1.095 5.544h-.013c-.098-.726-.398-2.059-1.189-5.536l-.918.003-1.207 5.575h-.018c-.12-.911-.434-2.421-1.089-5.567l-1.021.003 1.542 6.632 1.048-.004m8.667-3.173l.001.361c.004 1.398-.309 2.085-1.279 2.088-.711.003-1.034-.56-1.037-1.171-.003-.739.478-1.306 1.658-1.31.31-.001.492.007.657.032zm-.718-.779c-1.74.006-2.558.918-2.554 2.133.003.922.466 1.917 1.742 1.913.825-.003 1.323-.335 1.566-.877.001.251.033.606.068.754l.877-.003-.056-1.172-.013-3.725c-.004-1.224-.623-1.848-1.912-1.844-1.55.006-2.001.984-2.024 1.933l.925-.003c.038-.446.097-1.142 1.07-1.146.899-.003 1 .653 1.001 1.171l.003.884c-.195-.021-.382-.02-.693-.019h0zm3.209 5.592c-.148.001-.347-.012-.439-.033l.003.852a2.43 2.43 0 0 0 .472.042c.942-.003 1.457-.265 1.989-2.211l1.918-6.979-.991.004-1.339 5.481h-.013c-.09-.711-.647-2.697-1.372-5.472l-1.048.004 1.968 6.768c-.263 1.068-.454 1.543-1.148 1.545m4.767-7.926l.721-.003.083-2.317-.003-1.087-.89.003.004 1.086.086 2.317m3.885 5.552c-.759.002-1.135-.532-1.18-1.242l-.952.003c.038 1.204.715 2.027 2.086 2.023 1.33-.004 2.086-.72 2.081-1.929-.004-1.137-.576-1.605-1.858-2.095-.921-.352-1.154-.611-1.156-1.144-.001-.526.282-.916.911-.917.917-.003.992.786 1.01 1.101l.938-.003c-.011-.882-.438-1.888-1.92-1.882-1.354.005-1.898.872-1.895 1.759.003.927.406 1.417 1.778 1.939.872.336 1.225.651 1.227 1.336.002.608-.346 1.049-1.07 1.051M147.15 29.58l.975-.004-.031-8.89-.975.003.03 8.891m5.781-4.56l.016 4.54.966-.003-.016-4.73c-.005-1.475-.754-2.019-1.715-2.016-.893.003-1.349.471-1.569.99l-.038-.87-.926.003.02 2.053.016 4.584.966-.004-.013-3.949c-.005-1.361.373-1.95 1.269-1.953.755-.003 1.021.545 1.024 1.355m4.751-2.114l-1.156.004-.006-1.768-.949.003.006 1.768-.936.003.003.821.937-.004.016 4.545c.004 1.045.459 1.361 1.239 1.358.223-.001.558-.024.783-.113l-.003-.736a2.48 2.48 0 0 1-.468.036c-.501.002-.601-.283-.603-.739l-.015-4.355 1.156-.004-.003-.821m1.501 2.742c.015-.455.071-2.034 1.284-2.038.968-.003 1.213.888 1.217 2.03l-2.501.009zm1.29-2.859c-1.559.005-2.274 1.334-2.267 3.434.006 1.652.284 3.442 2.239 3.435s2.134-1.849 2.15-2.021l-.938.003c-.034.202-.165 1.189-1.205 1.192-1.053.003-1.28-1.132-1.284-2.432l3.458-.012.016-.513c-.006-1.658-.423-3.093-2.169-3.087h0zm4.316 1.279l-.034-1.184-.922.003.021 2.262.015 4.376.958-.003-.013-3.707c-.004-1.219.588-1.939 1.729-1.98l-.004-1.057c-.832.011-1.471.489-1.751 1.291m4.844-.463c.755-.003 1.022.545 1.024 1.355l.016 4.54.966-.003-.016-4.729c-.005-1.475-.753-2.019-1.714-2.016-.893.003-1.349.471-1.568.99l-.038-.87-.926.003.02 2.052.016 4.584.966-.003-.014-3.949c-.005-1.361.373-1.951 1.269-1.953m5.12 5.181c-.71.002-1.034-.56-1.037-1.171-.003-.739.478-1.306 1.658-1.31a4.28 4.28 0 0 1 .658.032l.001.361c.005 1.399-.309 2.085-1.28 2.088zm2.19-4.206c-.004-1.224-.622-1.847-1.912-1.843-1.55.005-2.001.984-2.025 1.933l.926-.003c.038-.446.097-1.142 1.07-1.145.899-.003 1 .652 1.002 1.171l.003.884c-.195-.021-.382-.02-.692-.019-1.741.006-2.559.918-2.554 2.133.003.923.466 1.917 1.741 1.913.825-.003 1.323-.335 1.566-.877a4.33 4.33 0 0 0 .068.754l.877-.003-.057-1.172-.013-3.725h0zm2.637-3.518l-.949.003.006 1.768-.936.003.003.821.936-.004.016 4.546c.004 1.045.459 1.361 1.238 1.358.223-.001.559-.024.783-.113l-.002-.736c-.123.026-.311.035-.468.036-.501.002-.602-.283-.603-.739l-.015-4.355 1.157-.004-.003-.821-1.156.004-.006-1.768m2.105.453l.957-.003-.005-1.372-.957.003.005 1.372m0 1.309l.023 6.637.957-.003-.023-6.637-.958.003m5.807 3.24c.006 1.801-.423 2.671-1.286 2.674s-1.317-.852-1.323-2.658c-.006-1.797.464-2.543 1.3-2.546.879-.003 1.302.832 1.308 2.53zm-3.588.016c.008 2.356.759 3.494 2.295 3.488 1.499-.006 2.28-1.192 2.272-3.527-.008-2.227-.804-3.347-2.255-3.343-1.425.005-2.32 1.077-2.312 3.381h0zm8.322-3.406c-.894.003-1.349.471-1.569.99l-.038-.87-.926.003.02 2.052.016 4.584.966-.003-.013-3.949c-.005-1.361.373-1.951 1.269-1.953.754-.003 1.022.545 1.024 1.355l.015 4.54.966-.003-.016-4.73c-.005-1.475-.753-2.019-1.714-2.016m4.845 6.036c-.71.003-1.035-.56-1.037-1.171-.003-.739.478-1.306 1.658-1.31a4.28 4.28 0 0 1 .658.032l.001.361c.005 1.398-.309 2.085-1.279 2.088zm2.19-4.206c-.004-1.224-.622-1.848-1.912-1.844-1.55.005-2.001.984-2.025 1.933l.926-.003c.037-.446.097-1.142 1.07-1.145.899-.003.999.653 1.001 1.171l.003.885c-.195-.021-.382-.02-.692-.019-1.741.006-2.559.918-2.554 2.133.003.923.466 1.917 1.741 1.913.825-.003 1.323-.335 1.567-.877.001.251.033.606.068.754l.877-.003-.057-1.173-.013-3.724h0zm2.56 4.888l-.033-9.319-.958.003.032 9.319.958-.003m6.405-.751c-1.344.004-1.559-1.892-1.566-3.769-.006-1.731.203-3.646 1.604-3.65 1.246-.004 1.306 1.375 1.325 1.676l.983-.003c-.024-.543-.151-2.55-2.293-2.542-1.971.007-2.648 1.933-2.639 4.518.008 2.138.195 4.639 2.562 4.632 2.154-.008 2.372-2.085 2.41-2.601l-.988.003c-.038.449-.212 1.733-1.398 1.738m3.595-8.604l.032 9.319.957-.004-.032-9.319-.957.003m2.539 2.674l.023 6.637.958-.003-.023-6.637-.957.003m.957-1.313l-.005-1.373-.957.003.005 1.372.958-.003m6.989 1.177c-.865.003-1.369.458-1.604.993-.203-.689-.683-.985-1.378-.983a1.52 1.52 0 0 0-1.48.963l-.038-.849-.922.003.02 1.991.016 4.646.954-.004-.015-4.164c-.003-1.009.368-1.731 1.16-1.734.648-.003.923.441.926 1.262l.015 4.628.953-.003-.015-4.258c-.003-.892.288-1.642 1.13-1.644.743-.003.94.57.942 1.241l.016 4.654.949-.003-.017-4.819c-.005-1.527-.787-1.926-1.612-1.923m6.022 3.585l.001.361c.005 1.398-.309 2.085-1.279 2.088-.711.003-1.034-.56-1.037-1.171-.002-.739.478-1.306 1.658-1.31.31-.001.492.007.657.032zm-.717-.779c-1.741.006-2.558.918-2.554 2.133.003.923.466 1.917 1.741 1.912.825-.003 1.323-.335 1.566-.877a4.3 4.3 0 0 0 .068.754l.876-.003-.056-1.172-.013-3.725c-.004-1.224-.622-1.848-1.912-1.843-1.551.005-2.001.983-2.025 1.933l.926-.003c.038-.446.097-1.142 1.07-1.145.899-.003.999.652 1.002 1.171l.003.884c-.195-.021-.382-.02-.692-.019h0zm2.389-1.899l.936-.003.016 4.545c.003 1.045.458 1.361 1.238 1.359.223-.001.559-.024.783-.114l-.003-.736c-.123.027-.311.036-.468.037-.502.002-.602-.283-.604-.739l-.015-4.355 1.156-.004-.003-.821-1.157.004-.006-1.768-.949.003.006 1.768-.936.003.003.821m4.543 1.909c.015-.456.071-2.034 1.284-2.038.968-.004 1.213.888 1.217 2.029l-2.501.009zm3.458.228c-.006-1.658-.423-3.094-2.169-3.087-1.559.005-2.274 1.334-2.267 3.434.006 1.652.284 3.441 2.239 3.435s2.133-1.849 2.15-2.021l-.938.004c-.035.202-.165 1.189-1.206 1.192-1.053.003-1.28-1.132-1.284-2.432l3.458-.012.016-.512h0zM148.753 43.71c-.711.003-1.034-.56-1.037-1.171-.003-.739.478-1.306 1.658-1.31a4.28 4.28 0 0 1 .658.032l.001.36c.005 1.399-.309 2.085-1.28 2.088zm2.19-4.206c-.004-1.224-.623-1.847-1.912-1.843-1.551.005-2.002.984-2.025 1.933l.926-.003c.037-.446.097-1.142 1.07-1.145.899-.003.999.652 1.001 1.171l.003.884c-.195-.021-.382-.02-.692-.019-1.74.006-2.558.918-2.554 2.133.003.923.466 1.917 1.741 1.913.825-.003 1.323-.335 1.566-.877a4.36 4.36 0 0 0 .068.754l.877-.003-.057-1.173-.013-3.725h0zm4.099-1.868c-.893.003-1.349.471-1.568.99l-.038-.87-.927.003.02 2.053.016 4.584.967-.003-.014-3.949c-.005-1.361.374-1.95 1.269-1.953.755-.002 1.021.545 1.024 1.355l.016 4.54.966-.003-.016-4.73c-.005-1.475-.754-2.019-1.715-2.016m5.202 5.998c-.814.003-1.251-.725-1.258-2.64-.006-1.826.526-2.522 1.314-2.525.962-.003 1.233.545 1.24 2.481.006 1.799-.266 2.68-1.296 2.684zm2.215-8.592l-.958.003.011 3.264c-.148-.324-.487-.69-1.346-.687-1.395.005-2.172 1.248-2.164 3.366.008 2.332.6 3.504 1.98 3.499.933-.003 1.354-.437 1.556-1.014l.038.891.926-.003-.019-1.705-.026-7.614h0zm8.263.4l-4.093.014.031 8.89.971-.003-.014-4.192 2.927-.01-.003-.862-2.927.01-.011-2.965 3.123-.011-.003-.872m3.04 8.173c-.863.003-1.316-.852-1.323-2.657-.006-1.797.464-2.543 1.3-2.547.879-.003 1.303.832 1.309 2.53.006 1.801-.424 2.671-1.286 2.674zm.01-6.039c-1.425.005-2.32 1.077-2.312 3.381.008 2.356.759 3.493 2.295 3.488 1.498-.005 2.28-1.192 2.272-3.527-.008-2.227-.805-3.347-2.255-3.342h0zm4.432 1.278l-.035-1.184-.921.003.021 2.261.015 4.376.958-.003-.013-3.707c-.004-1.219.588-1.939 1.729-1.98l-.003-1.057c-.832.011-1.47.488-1.75 1.291m3.247 1.55c.016-.455.071-2.034 1.284-2.038.967-.004 1.213.888 1.217 2.03l-2.502.009zm1.29-2.86c-1.559.006-2.274 1.334-2.267 3.435.006 1.652.284 3.442 2.239 3.435s2.134-1.849 2.15-2.021l-.938.003c-.034.202-.164 1.189-1.205 1.193-1.053.003-1.279-1.132-1.284-2.432l3.458-.012.016-.513c-.006-1.658-.423-3.093-2.169-3.087h0zm5.291 2.824c-.922-.353-1.155-.611-1.157-1.144-.002-.526.283-.916.911-.918.917-.003.992.786 1.01 1.102l.938-.003c-.011-.882-.438-1.888-1.92-1.883-1.354.004-1.898.872-1.895 1.759.003.927.406 1.417 1.778 1.938.871.336 1.224.651 1.227 1.336.002.608-.345 1.049-1.07 1.051-.759.003-1.134-.532-1.179-1.242l-.952.003c.038 1.204.715 2.027 2.085 2.022 1.33-.004 2.086-.72 2.082-1.929-.004-1.137-.576-1.605-1.858-2.095m5.333-2.747l-1.157.004-.006-1.768-.949.003.006 1.768-.936.004.003.821.936-.003.016 4.545c.003 1.045.459 1.361 1.239 1.358.223-.001.559-.023.783-.113l-.002-.736c-.123.027-.311.036-.468.036-.502.002-.602-.283-.603-.739l-.015-4.355 1.156-.004-.003-.821m3.498-2.265l.03 8.89.976-.003-.031-8.89-.975.003m5.063 2.122c-.894.003-1.349.471-1.569.99l-.038-.871-.926.003.021 2.053.015 4.584.966-.003-.014-3.949c-.005-1.361.374-1.95 1.269-1.953.754-.003 1.021.545 1.024 1.356l.016 4.54.966-.004-.016-4.73c-.005-1.475-.753-2.019-1.714-2.016m4.236-1.21l-.005-1.373-.957.003.005 1.372.957-.003m-.957 1.313l.023 6.637.957-.003-.023-6.637-.957.003m4.885-.017l-1.156.004-.006-1.768-.949.003.006 1.768-.936.003.003.821.936-.003.015 4.545c.003 1.045.459 1.361 1.239 1.359.223-.001.558-.024.783-.113l-.003-.736a2.56 2.56 0 0 1-.468.037c-.501.002-.602-.283-.603-.739l-.015-4.355 1.156-.004-.003-.821m.945-.004l.023 6.637.957-.003-.023-6.637-.957.004m.958-1.313l-.005-1.372-.957.003.004 1.373.958-.003m3.181 7.235c-.711.003-1.034-.56-1.037-1.171-.003-.739.478-1.306 1.658-1.31.31-.001.492.007.658.033v.361c.005 1.397-.309 2.084-1.279 2.088zm2.19-4.206c-.004-1.224-.623-1.848-1.912-1.844-1.55.006-2.002.984-2.025 1.933l.926-.003c.037-.446.097-1.142 1.07-1.145.899-.003 1 .652 1.002 1.171l.003.884c-.195-.021-.382-.02-.693-.019-1.74.006-2.558.918-2.554 2.133.003.923.466 1.917 1.742 1.913.825-.003 1.323-.335 1.566-.877.001.251.033.606.068.754l.876-.003-.056-1.173-.013-3.724h0zm3.799-1.753l-1.156.004-.006-1.768-.95.003.006 1.768-.936.003.003.821.936-.003.015 4.545c.004 1.045.459 1.361 1.24 1.358.223 0 .558-.023.782-.113l-.002-.736a2.48 2.48 0 0 1-.468.036c-.501.002-.602-.283-.603-.739l-.015-4.355 1.156-.004-.003-.821m.945-.002l.023 6.637.957-.003-.023-6.637-.957.003m.958-1.312l-.005-1.373-.957.003.005 1.373.958-.003m3.284 6.857c-.135-.815-.803-3.406-1.355-5.555l-1.016.004 1.824 6.631 1.038-.004 1.875-6.644-.966.004-1.387 5.564h-.013z" fill="#c5cdcf"/><mask id="B" fill="#fff"><use xlink:href="#A"/></mask><g fill="#c5cdcf"><path d="M230.237 40.236c.016-.456.071-2.034 1.284-2.038.967-.003 1.213.888 1.217 2.03l-2.501.009zm1.29-2.86c-1.56.006-2.274 1.334-2.267 3.435.006 1.652.284 3.442 2.239 3.435s2.134-1.849 2.15-2.021l-.938.004c-.034.202-.164 1.189-1.206 1.192-1.053.004-1.279-1.132-1.283-2.432l3.458-.012.016-.512c-.006-1.658-.424-3.093-2.169-3.087h0zM47.747 22.375L38.55 26.13l5.681-13.521a23.16 23.16 0 0 1 3.516 9.766zm-1.389 11.084l-13.142 5.365 4.251-10.119 10.43-4.258c.092 3.041-.414 6.105-1.539 9.012zM29.851 47.604l-.082.019-.272.05 2.636-6.273 13.006-5.31a23.15 23.15 0 0 1-15.288 11.514zM25.002 27.63l5.31 13.006-2.636 6.273c-3.688-5.727-4.66-12.814-2.674-19.279zm.399 20.491l-.517.006-.43-.009-.778-.029-.167-.011a23.24 23.24 0 0 1-13.103-5.166l13.545 1.136c.584 1.404 1.296 2.762 2.139 4.054-.229.012-.458.015-.688.02zM3.65 33.774a23.13 23.13 0 0 1-.415-1.095l18.774 1.575a25.2 25.2 0 0 0 1.193 7.747L8.089 40.734a22.97 22.97 0 0 1-4.439-6.959zM2.043 22.95l21.795 1.827c-.849 1.915-1.325 4.484-1.506 5.618l-.086.58.005-.005a24.66 24.66 0 0 0-.148 1.308L2.629 30.646a22.9 22.9 0 0 1-.586-7.696zm3.005-9.44l14.694 1.233L23 22.724 2.311 20.989c.475-2.635 1.404-5.166 2.737-7.479zm2.755-3.824l.144-.163c.163-.179.332-.354.5-.528l.338-.345c.11-.109.223-.214.335-.321l.547-.507c.049-.044.1-.087.15-.13a23.18 23.18 0 0 1 5.574-3.601l3.512 8.6L6.257 11.63a23.01 23.01 0 0 1 1.545-1.943zM23.73 2.013l.187-.011c.252-.013.506-.017.759-.021l.451-.005c.165 0 .331.006.497.011l.713.027c.077.004.154.011.231.016a23.17 23.17 0 0 1 2.594.331l-8.378 9.711-3.563-8.728a23.2 23.2 0 0 1 6.509-1.33zm14.662 4.245l-7.698 8.922-.198.23-5.666 6.567-3.207-7.854 9.71-11.255a23.27 23.27 0 0 1 7.06 3.389zm3.97 3.575a25.01 25.01 0 0 0-6.228 2.067l3.822-4.43a22.89 22.89 0 0 1 2.406 2.363zM35.646 27.94l-4.252 10.118-5.365-13.141a22.59 22.59 0 0 1 .489-1.009c1.161-2.126 3.425-4.979 4.869-6.397l4.258 10.43zm-2.673-11.774c2.748-2.112 5.968-3.607 9.436-4.322l-5.681 13.52-3.755-9.198zM25.034 0C11.199 0-.017 11.216-.017 25.051s11.216 25.051 25.051 25.051 25.051-11.215 25.051-25.051S38.87 0 25.034 0h0z" mask="url(#B)"/><path d="M74.851 21.986c0 6.243.097 11.66.288 17.141h-.106c-.781-3.907-6.661-24.902-9.109-33.196h-3.515v38.497h2.752V28.464c0-6.964-.184-13.759-.424-18.379h.058c.965 4.066 6.753 25.303 9.378 34.343h3.421V5.931h-2.742v16.055m10.497 22.442h2.826V5.931h-2.826zm21.119-9.481c0 4.151-.528 7.382-4.124 7.382-3.333 0-4.413-2.948-4.413-7.741V14.854c0-3.921.779-6.815 4.259-6.815 3.722 0 4.114 3.282 4.114 6.67v1.384h2.923v-1.351c0-4.836-1.005-9.29-6.94-9.29-4.637 0-7.248 3.027-7.248 9.341v19.702c0 5.501.888 10.413 7.23 10.413 6.149 0 7.131-4.8 7.131-10.033v-1.169h-2.931v1.241m8.668 9.481h2.826V25.336h8.164V22.73h-8.164V8.537h8.76V5.931h-11.586v38.498m16.57-.001h2.826V5.931h-2.826z"/></g></g></svg>