<svg xmlns="http://www.w3.org/2000/svg" viewBox="0 0 241 113">
  <defs/>
  <g fill="#34444C" fill-rule="nonzero">
    <path d="M4.52481991 100.873118l.01231753 3.634745c.005891 1.545047.02891943 2.975488.09907583 4.252763h-.01445972c-.12210426-.41237-.49323696-1.307266-3.14418483-7.876797l-1.28477251.004285.03266825 9.504853.9730853-.003213-.01285308-3.70383c-.00589099-1.711066-.01927962-3.267896-.09372038-4.45627h.01338863c.10925118.375417.44878673 1.246749 3.2020237 8.149389l1.22800473-.004285-.03320379-9.505924-.97736966.004284M9.41541706 109.605197c-.92274407.003196-1.40741232-.91205-1.41437441-2.84269-.00642654-1.920464.4959147-2.718426 1.39081043-2.722192.93934602-.003197 1.39188152.889021 1.39830802 2.705055.0069621 1.925284-.4536066 2.856597-1.37474404 2.859827zm.01178199-6.457119c-1.52469668.005927-2.48118009 1.152529-2.47314692 3.614965.00910427 2.519203.81188626 3.734891 2.4538673 3.72957 1.60235067-.005926 2.43833647-1.274632 2.42976777-3.770807-.0085687-2.381033-.8595498-3.579048-2.41048815-3.573728zM14.1635592 104.514825c-.0026777-.751906-.0224928-1.081266-.0369526-1.265493l-.9854028.003749c.0160663.508232.0187441 1.285308.0219573 2.41745l.0171375 4.677986 1.0234265-.003749-.0133886-3.962498c-.0048199-1.304588.6271232-2.074166 1.8487014-2.117545l-.0037488-1.13c-.8906114.011782-1.5728957.522692-1.8717299 1.3801M22.5191327 109.14354h-.0133886c-.1044313-.77654-.4252228-2.201625-1.2713839-5.918308l-.981654.003749c-.8686541 3.923403-1.1546351 5.033052-1.2906635 5.95901h-.0187441c-.1279953-.973621-.4643176-2.58829-1.1648104-5.950977l-1.0903697.003213 1.647872 7.090617 1.1198247-.003749c.601417-2.592574 1.1139336-4.671559 1.2456777-5.731403h.0133886c.1622702 1.098403.6994218 3.406602 1.2178294 5.722299l1.0871564-.003214 1.7164218-7.101862-1.0459194.003213c-.8054597 3.878417-1.0668057 5.153014-1.171237 5.927412M27.35242643 109.55217933c-.75940285.00265998-1.10643602-.59822153-1.10807244-1.25212201-.00318349-.78939336.51093974-1.39616587 1.77161272-1.40045023.33150237-.00160664.52644076.00749763.70317062.03534597l.00160663.38452132c.00535545 1.49524171-.33043128 2.22893839-1.36831753 2.23270495zm2.34193839-4.49591822c-.00481991-1.30940758-.66621801-1.97562559-2.04471091-1.97085734-1.65751184.00594265-2.14003791 1.05186208-2.16467298 2.06618436l.98915166-.00321327c.04070142-.47663507.10389573-1.22104266 1.14445971-1.22425593.96076778-.00321327 1.06894787.69674408 1.07055451 1.25049763l.00321327.94630806c-.20832702-.02302844-.4091564-.02249289-.74065877-.02088626-1.86048341.00696209-2.73502844.98218958-2.730248 2.28142181.00325274.98647393.49863188 2.05006635 1.86212951 2.04422388.88150711-.00272625 1.41437441-.35832815 1.67464929-.93725232.00053555.26830806.03481043.64854502.07229858.80653081l.93666825-.00374882c-.01874408-.22385782-.05783886-.80920853-.0594455-1.25424645l-.01338862-3.98070616zM33.10525107 109.03910945h-.01445971c-.09532702-.75940284-.69192418-2.88283886-1.46685782-5.85029383l-1.11982465.00374881 2.10522749 7.23681991c-.28223223 1.14178199-.48627488 1.64840758-1.22854029 1.65054976-.15852132.00053554-.37006161-.01231754-.46860189-.03481043l.00321327.91042653c.13817062.0326683.35399526.0449858.50501896.0444826 1.00736019-.0032456 1.55897156-.28280012 2.12664929-2.36285699l2.05060188-7.46228437-1.05984359.00374882c-.66514692 2.6097109-1.29441232 5.04483412-1.43258294 5.86046919M36.380109 99.9691185l.0042844 1.1610615.0915782 2.476896.7701137-.003213.0889005-2.476896-.0032133-1.1621329-.9516635.0042844M40.8203128 106.078081c-.9854028-.377024-1.2344313-.653901-1.2365735-1.22265-.0016066-.562858.3020474-.978976.9741564-.981118.980583-.003213 1.0609147.84027 1.0801943 1.177663l1.0030759-.003749c-.0128531-.942559-.4686019-2.017933-2.0527441-2.012617-1.4486493.004859-2.0291801.933494-2.0265024 1.880873.0037488.992365.4337915 1.515593 1.9006493 2.072024.9313128.359351 1.3099431.69728 1.3120853 1.42937.0021422.651758-.369526 1.121431-1.1449952 1.123573-.8113507.002678-1.212474-.569284-1.260673-1.327616l-1.0180711.003213c.0407014 1.287986.7636872 2.167887 2.230545 2.162579 1.4218721-.004868 2.2294739-.769626 2.2252234-2.062432-.0043182-1.215687-.6164461-1.71535-1.9863703-2.239113M46.8066351 100.726915l.0326682 9.505388 1.0427062-.003213-.0321327-9.505924-1.0432417.003749M52.217782 102.995447c-.9554123.00325-1.4422228.50452-1.6767915 1.058809-.0016066-.477171-.0224929-.757261-.0412369-.930777l-.9902228.003748c.0064265.32829.0171374.74173.0219574 2.194664l.0166018 4.901308 1.0325309-.004284-.0149953-4.221702c-.0048199-1.455076.3995166-2.085948 1.3576066-2.089161.8065308-.002678 1.0919763.583744 1.0946541 1.449185l.0166019 4.85418 1.0330663-.004284-.0171374-5.05501c-.0053555-1.577715-.8049242-2.160388-1.8326351-2.156676M58.0953886 103.097773l-1.2365734.004284-.0064266-1.89101-1.0143222.003214.0064265 1.891009-1.0009337.003749.0026778.877223 1.0014692-.003749.0166019 4.860071c.0037488 1.117682.4905592 1.455076 1.3244028 1.451907.2383175-.00058.5965972-.02468.8370569-.121078l-.0032133-.786715c-.130673.028384-.3320379.038559-.4996635.038559-.5360806.002142-.6431896-.302583-.6447962-.789929l-.0160664-4.656564 1.2365735-.003749-.0032133-.877222M59.699346 106.026668c.0160663-.486275.0749763-2.173777 1.3731374-2.178613 1.0336019-.003197 1.296019.949002 1.3003033 2.169509l-2.6734407.009104zm1.3784929-3.056396c-1.6671517.005932-2.4313744 1.425662-2.4238768 3.671737.0064265 1.766228.303654 3.67973 2.3944218 3.672276 2.08809-.007005 2.2803507-1.977276 2.2990948-2.160967l-1.0036114.003748c-.0364171.215825-.1751232 1.270313-1.2885213 1.274062-1.1257157.003749-1.367782-1.209261-1.3726019-2.599l3.6974028-.013389c.0128531-.175123.0166019-.412905.0166019-.548398-.0064265-1.772118-.4525355-3.306455-2.3189099-3.300069zM65.6920948 104.337559c-.0026777-.752441-.0230284-1.081801-.0369526-1.265493l-.9859384.003214c.0160663.508767.0187441 1.285843.0224929 2.41745l.0160663 4.677986 1.0239621-.003214-.0133886-3.963568c-.0048199-1.303517.6281943-2.073631 1.8487014-2.11701l-.0037488-1.13c-.8900758.011247-1.5723602.522157-1.8711943 1.380635M71.1632227 102.930636c-.9554123.00326-1.4422227.503459-1.6767914 1.058283-.0021422-.476635-.0230285-.75726-.041237-.930777l-.9902227.003749c.005891.327754.0171374.742265.0219573 2.194664l.0166019 4.901308 1.0325308-.004285-.0149952-4.221701c-.00482-1.455612.3995165-2.085413 1.3576066-2.089161.8059952-.002678 1.0914407.584279 1.0941185 1.449184l.0171374 4.854181 1.0330664-.003749-.017673-5.056081c-.0053555-1.576644-.8043887-2.159853-1.8320996-2.155615M76.340872 109.383482c-.7594028.00266-1.1059004-.598221-1.1080631-1.252122-.0026572-.789393.511466-1.396166 1.772139-1.40045.3309668-.001607.5259052.007498.7037061.03481l.0005356.385057c.0053554 1.495242-.3304313 2.228939-1.3683176 2.232705zm2.3414029-4.496454c-.0037488-1.308872-.6651469-1.97509-2.0441754-1.970321-1.6575118.005407-2.1400379 1.051326-2.164673 2.065648l.9896872-.002677c.0401659-.477171.1033602-1.221043 1.1439242-1.224792.9607678-.003213 1.0689479.69728 1.0705545 1.251033l.0032133.946308c-.2077915-.022492-.4080853-.022492-.7406588-.021421-1.8604834.006962-2.7344929.982189-2.7302396 2.281957.0037799.985938.4986235 2.049531 1.8621211 2.044216.8815071-.002718 1.4143744-.35832 1.6741138-.937244.0016066.268308.035346.648545.0739052.80653l.9366682-.003748c-.0198151-.223858-.0583744-.809209-.0605165-1.254247l-.0139242-3.981242zM82.7427773 103.012621l-1.2365735.004284-.0064265-1.891009-1.0148579.003749.0069621 1.891009-1.0009336.003213.0026777.877759 1.0014692-.004285.0166019 4.860071c.0037488 1.117683.4905592 1.455076 1.3238673 1.451908.2383175 0 .5971327-.02468.8370569-.121078l-.0026778-.785645c-.130673.027848-.3320379.037488-.4996635.038024-.535545.001606-.6431896-.303119-.6447962-.790465l-.0160663-4.656564 1.2365734-.003748-.0032132-.877223M84.7692796 100.138351l-1.0244976.003749.0053554 1.467393 1.0239621-.003749-.0048199-1.467393M83.750673 103.009408l.0246351 7.095971 1.023962-.003749-.024635-7.095971-1.0239621.003749M88.5828957 109.332069c-.9232796.003196-1.4074123-.91205-1.4143744-2.842154-.0064265-1.920465.4953792-2.718962 1.3902749-2.722188.939346-.002665 1.3924171.889553 1.3993792 2.704515.0064265 1.925284-.4536067 2.856597-1.3752797 2.859827zm.0107109-6.456591c-1.5236256.005399-2.4811801 1.152001-2.4726113 3.614972.0091042 2.519204.8118862 3.734356 2.4538673 3.729035 1.6028862-.00539 2.4383365-1.274096 2.4297677-3.770807-.0085687-2.381033-.8590142-3.579048-2.4110237-3.5732zM95.0163981 102.848173c-.9554123.003249-1.4422227.504519-1.6767915 1.057737-.0021421-.4761-.0214218-.757261-.0412369-.929706l-.9902228.003749c.005891.327753.0171375.741729.0219574 2.194128l.0166019 4.901843 1.0330663-.003749-.0144597-4.223308c-.0048199-1.455076.398981-2.084876 1.3565355-2.08809.8059953-.002677 1.0925119.583744 1.0951896 1.449721l.0166019 4.852573 1.0336019-.002678-.017673-5.05608c-.0053554-1.57718-.8054597-2.159853-1.8331706-2.15614M100.194047 109.301538c-.7594025.00213-1.1064356-.598751-1.1080721-1.252116-.0031834-.790465.5109398-1.396702 1.7716131-1.401569.331502-.000488.52644.007545.703706.035929l.001071.385057c.005355 1.495242-.330431 2.228938-1.368318 2.232699zm2.341939-4.496983c-.00482-1.308337-.666754-1.974555-2.044711-1.970311-1.657512.005396-2.140038 1.051315-2.1646731 2.066173l.9891517-.003749c.0407014-.476635.1038957-1.219971 1.1449954-1.22372.960232-.003749 1.068412.697279 1.070019 1.251033l.003213.945773c-.208327-.023029-.408621-.022493-.740659-.021422-1.8604831.006962-2.7350282.982189-2.7302477 2.281422.0032527.987009.4986319 2.050066 1.8621295 2.044751.8815072-.002183 1.4143742-.35832 1.6746492-.937244.001071.268308.034811.648545.072834.805995l.936668-.003213c-.019279-.223858-.058374-.808673-.059981-1.253711l-.013388-3.981777zM104.212777 100.071408l.034275 9.963279 1.023962-.003749-.034275-9.963279-1.023962.003749M112.114744 109.228156c-1.436867.00482-1.666616-2.023289-1.673578-4.030511-.006962-1.849773.215825-3.896626 1.715351-3.902517 1.332436-.004284 1.396701 1.471142 1.415981 1.792469l1.052346-.003213c-.026778-.580531-.162806-2.725924-2.452261-2.718466-2.107905.007537-2.830356 2.066708-2.821787 4.830655.008033 2.286778.209398 4.960754 2.739313 4.952226 2.302844-.008074 2.535806-2.229515 2.576507-2.781662l-1.056095.003749c-.041237.48092-.227071 1.852986-1.495777 1.85727M115.95728 100.030706l.034275 9.963815 1.023962-.003748-.034275-9.963816-1.023962.003749M118.669815 102.88891l.024635 7.095972 1.023962-.003749-.024635-7.095972-1.023962.003749M119.693777 101.485246l-.004284-1.466857-1.023962.002677.004284 1.467929 1.023962-.003749M127.167308 102.74267c-.925957.002714-1.464716.49006-1.716422 1.060951-.217431-.736375-.729948-1.052882-1.472749-1.050204-.803853.002142-1.303516.411299-1.582535 1.029853-.001071-.326682-.012853-.701028-.041237-.906678l-.985403.002678c.014995.334716.016602.867583.021422 2.128792l.016602 4.96718 1.019678-.003214-.014996-4.452521c-.003749-1.077516.393626-1.850843 1.239787-1.854057.694066-.002142.985938.472886.988616 1.35118l.017673 4.947365 1.019142-.003213-.014995-4.552668c-.003749-.95327.306332-1.754981 1.207118-1.757659.794214-.003213 1.005754.60945 1.007896 1.326545l.017138 4.976284 1.014322-.003748-.018209-5.151944c-.005891-1.632341-.840805-2.058099-1.722848-2.054922M132.235171 109.191215c-.759403.002131-1.106436-.598751-1.108599-1.252115-.002657-.790465.511466-1.397237 1.772139-1.401522.331502-.001071.525905.007498.703706.035882l.001071.385057c.005356 1.495241-.330431 2.228938-1.368317 2.232698zm2.341402-4.496983c-.004284-1.308336-.666218-1.97509-2.044175-1.970321-1.657512.005407-2.140038 1.051326-2.164673 2.066184l.989152-.003749c.040701-.476635.103896-1.219972 1.144459-1.224256.960768-.003213 1.068948.697815 1.070019 1.251569l.003749.945772c-.207791-.022493-.408085-.022493-.740659-.021422-1.860483.006963-2.734492.98219-2.730239 2.281422.003244.98701.498623 2.050067 1.862121 2.044752.881507-.002719 1.414374-.357785 1.674649-.937245.000536.268308.034811.64801.072834.805996l.936133-.003214c-.018744-.223322-.057839-.809208-.059445-1.253711l-.013925-3.981777zM138.637076 102.819825l-1.236574.004284-.006426-1.891009-1.014322.003748.006426 1.89101-1.000934.003749.002678.876687 1.001469-.003213.016602 4.860606c.003749 1.117147.49056 1.454005 1.324403 1.451359.238318 0 .596597-.025202.837057-.121601l-.003213-.786715c-.130673.028919-.332038.038559-.499664.039095-.53608.001606-.643189-.303119-.644796-.790465l-.016066-4.656028 1.236573-.004285-.003213-.877222M140.241033 105.749256c.017138-.486275.076048-2.174313 1.373138-2.179144 1.034137-.002667 1.29709.949533 1.301374 2.169504l-2.674512.00964zm1.379029-3.056931c-1.667152.005931-2.430839 1.426196-2.423342 3.671737.005891 1.766227.302583 3.679194 2.393351 3.6728 2.088626-.00753 2.281422-1.9778 2.299095-2.161492l-1.00254.003748c-.036417.215825-.176195 1.270313-1.289593 1.274598-1.125715.003213-1.367246-1.209797-1.371531-2.600071l3.696332-.012854c.013389-.175123.017673-.412369.017219-.548398-.005972-1.772118-.453688-3.306455-2.318991-3.300068zM149.689654 109.130177c-.759403.003188-1.1059-.597694-1.108591-1.25213-.002129-.788857.511458-1.396165 1.772131-1.399914.331503-.002142.526441.006962.703706.03481l.001072.384521c.005355 1.495242-.330432 2.228939-1.368318 2.232713zm2.341403-4.495926c-.004284-1.309407-.665683-1.975625-2.044175-1.970334-1.657512.005419-2.140038 1.051339-2.164673 2.065126l.989151-.002678c.040702-.476635.103896-1.221043 1.14446-1.224792.960768-.002677 1.068948.69728 1.070554 1.251034l.003214.946843c-.207792-.023028-.408086-.022493-.740659-.020886-1.860484.006427-2.734493.981654-2.73024 2.280886.003245.986474.498624 2.050067 1.862657 2.044751.880972-.003253 1.413839-.358319 1.674114-.937244.001071.268308.03481.648545.072834.805996l.936668-.003214c-.01928-.223857-.058374-.809744-.059981-1.254782l-.013924-3.980706zM156.41128 102.636097c-.955413.003785-1.441688.505055-1.676792 1.058808-.001606-.47717-.021422-.75726-.041237-.930241l-.989687.003213c.005891.328289.016066.74173.021422 2.194128l.017137 4.901843 1.033067-.003748-.014996-4.222237c-.00482-1.455612.399517-2.085948 1.356536-2.089162.806531-.002677 1.092512.583744 1.095189 1.449185l.016602 4.853645 1.033602-.003749-.017673-5.055009c-.005355-1.577716-.805459-2.160389-1.83317-2.156676M161.970773 109.050375c-.871332.003194-1.338328-.775489-1.34529-2.822342-.006962-1.952061.561787-2.696469 1.404735-2.699718 1.028782-.003713 1.318512.582709 1.325474 2.652055.006962 1.924213-.283839 2.865701-1.384919 2.870005zm2.367644-9.1862233l-1.023962.0032132.012318 3.4896111c-.159593-.346497-.52055-.737445-1.43901-.734232-1.491493.00482-2.322123 1.334043-2.31409 3.598863.008569 2.492962.642118 3.745602 2.117545 3.740809.997185-.003776 1.448114-.468629 1.663938-1.085577.000536.304725.021958.771185.041237.953806l.989688-.003749c-.014996-.419868-.017138-1.133749-.01928-1.82246l-.028384-8.1402843zM173.17009 100.290981l-4.375938.015531.032132 9.505388 1.038422-.003213-.015531-4.481976 3.129725-.010711-.003213-.922209-3.129725.011247-.010711-3.169891 3.338052-.011782-.003213-.932384M176.419242 109.028951c-.922209.003196-1.407413-.912051-1.413839-2.842155-.006962-1.921.495915-2.718962 1.39081-2.722192.939346-.003196 1.391882.889557 1.398308 2.705055.006427 1.925284-.453606 2.856061-1.375279 2.859292zm.011246-6.457113c-1.523625.00592-2.480109 1.152522-2.47154 3.614958.008569 2.519204.811351 3.734891 2.453332 3.729571 1.60235-.005926 2.437801-1.274097 2.429232-3.770808-.008033-2.381033-.860085-3.578512-2.411024-3.573721zM181.167384 103.939114c-.002678-.751905-.021957-1.082337-.036953-1.265493l-.984867.002678c.015531.509303.018744 1.286914.021957 2.418521l.016602 4.676915 1.023962-.002678-.013924-3.963033c-.00482-1.304052.627659-2.073095 1.848702-2.11701l-.003749-1.13c-.890612.011247-1.572896.522157-1.87173 1.3801M184.638787 105.59609c.015531-.487346.074976-2.174313 1.373137-2.179155 1.033067-.003726 1.295484.949544 1.299768 2.170051l-2.672905.009104zm1.377957-3.056402c-1.667152.004867-2.431374 1.425667-2.423877 3.671743.006962 1.766228.303654 3.679195 2.394958 3.671741 2.08809-.007006 2.279815-1.977276 2.299094-2.161504l-1.003611.004285c-.036953.215824-.175659 1.270312-1.289057 1.274597-1.125715.003749-1.367782-1.209796-1.372602-2.599536l3.697939-.013388c.012853-.175124.016066-.41237.016066-.547863-.006427-1.772654-.453071-3.30699-2.31891-3.300075zM191.672635 105.557531c-.985938-.377024-1.234431-.653365-1.236573-1.222649-.001607-.562323.302047-.978441.974156-.981119.980583-.003213 1.06145.840806 1.080194 1.177664l1.003612-.002678c-.012318-.943095-.469138-2.019005-2.053815-2.013162-1.448114.004868-2.028645.932968-2.025967 1.880882.003749.99183.434862 1.515593 1.901185 2.072559.931848.358816 1.308872.696209 1.311014 1.428835.002677.651222-.368455 1.120895-1.143389 1.123037-.811351.002678-1.213009-.568748-1.261208-1.32708l-1.018071.003213c.040701 1.287986.763687 2.167351 2.229473 2.163098 1.421872-.005387 2.23001-.770681 2.22576-2.063486-.004319-1.215152-.615911-1.715351-1.986371-2.239114M197.372976 102.617389l-1.236573.004284-.006427-1.891009-1.014322.003748.006427 1.89101-1.000934.003213.002678.877223 1.001469-.003749.016602 4.860607c.003749 1.117682.490559 1.454004 1.324403 1.451358.238317 0 .596597-.024666.837056-.121065l-.003213-.786715c-.130673.028919-.332038.038559-.499663.039095-.536081.001606-.642654-.303119-.644797-.790465l-.016066-4.656564 1.236574-.003749-.003214-.877222M201.110545 100.195118l.032668 9.505389 1.043778-.003213-.032669-9.505924-1.043777.003748M206.521692 102.463651c-.955412.003249-1.441687.503984-1.676256 1.058273-.002142-.476635-.022493-.75726-.041772-.930242l-.990223.003749c.005891.327754.016602.74173.021957 2.194128l.017138 4.901844 1.031995-.004285-.01446-4.222236c-.005355-1.455076.398981-2.085413 1.357607-2.088626.805995-.002678 1.090905.583208 1.094118 1.449185l.016602 4.853644 1.033066-.003749-.017673-5.055545c-.004819-1.57718-.804388-2.159853-1.832099-2.15614M211.049725 101.170346l-.00482-1.4673934-1.023962.0032133.00482 1.4679291 1.023962-.003749M210.025763 102.573474l.024635 7.095971 1.023427-.003748-.0241-7.095972-1.023962.003749M215.247327 102.555801l-1.236038.004284-.006426-1.891009-1.014858.003749.006962 1.891009-1.000934.003213.002142.877223 1.002005-.003749.016066 4.860071c.004285 1.117683.49056 1.455076 1.323868 1.451908.238317-.000581.597668-.02468.837592-.121078l-.002678-.786716c-.131208.028384-.332573.038559-.500199.039095-.535545.001607-.643189-.303119-.644796-.791l-.015531-4.656028 1.236574-.003214-.003749-.877758M216.255758 102.552052l.024635 7.095972 1.022891-.003749-.024099-7.095972-1.023427.003749M217.274365 99.6815308l-1.025033.0037488.005355 1.4673934 1.024498-.003749-.00482-1.4673932M220.67936 108.885426c-.758867.002659-1.1059-.597687-1.108591-1.252123-.002129-.789393.511458-1.39563 1.773203-1.400985.330431-.001072.525369.008033.702635.035881l.001071.384521c.005355 1.495242-.330432 2.228939-1.368318 2.232706zm2.341403-4.495919c-.004284-1.309407-.665682-1.975625-2.044175-1.970334-1.657512.005419-2.140038 1.051339-2.164673 2.065126l.989151-.002678c.040702-.476635.103896-1.221043 1.14446-1.224792.960768-.002677 1.069483.69728 1.070555 1.251034l.003213.946843c-.207792-.022493-.40755-.022493-.740123-.021422-1.861019.006962-2.735029.98219-2.730776 2.281422.003245.985939.49916 2.050067 1.862657 2.044224.880972-.002726 1.413839-.357793 1.674114-.937252.001071.268843.03481.64908.072834.806531l.936668-.003749c-.019279-.223323-.058374-.809209-.059981-1.254247l-.013924-3.980706zM227.081801 102.5151l-1.237109.004284-.006427-1.891545-1.014322.004284.006427 1.890474-1.000934.003213.002678.877759 1.001469-.003749.016602 4.859535c.003749 1.118218.491095 1.455612 1.324403 1.451924.238317-.000597.596597-.024696.837057-.120559l-.003214-.786715c-.130673.028919-.332038.038559-.499663.039095-.536081.001606-.642654-.303119-.644796-.790465l-.016067-4.657099 1.236574-.003749-.002678-.876687M228.088626 102.511351l.024635 7.095971 1.023962-.003749-.024635-7.095971-1.023962.003749M229.108303 99.6408294l-1.025033.0032133.00482 1.4679293 1.024498-.003749-.004285-1.4673936M232.638081 108.439834h-.013389c-.143526-.872403-.857943-3.642242-1.449185-5.939194l-1.086085.004284 1.95099 7.088474 1.109114-.003213 2.005081-7.103469-1.033602.004284c-.338465 1.448114-1.38974 5.164796-1.482924 5.948834M236.777308 105.416682c.016602-.487346.076583-2.174848 1.372602-2.179684 1.035208-.003197 1.29709.950073 1.301374 2.169509l-2.673976.010175zm3.697484.243138c-.005437-1.77319-.452617-3.306991-2.318456-3.300076-1.667151.005403-2.431374 1.426204-2.423341 3.671209.005891 1.766763.302048 3.679194 2.393351 3.6728 2.088626-.006995 2.280886-1.9778 2.299095-2.162028l-1.003076.004284c-.035882.215825-.176194 1.270313-1.289592 1.274062-1.125181.004284-1.366711-1.209261-1.370996-2.599l3.696332-.013389c.012853-.175123.017137-.411834.016683-.547862zM53.3563507 85.26091c-.0487346.0107109-.0969336.0224928-.1462038.0326682-.1601279.035346-.3240047.0573033-.4852038.0905071l4.7090474-11.2057441 23.2335498-9.486109C75.0046872 75.1219716 65.0092749 82.6678009 53.3563507 85.26091zm-8.6619052-35.6839005l9.486109 23.2340853-4.7095829 11.2073507c-6.5872038-10.2321232-8.3250474-22.891872-4.7765261-34.441436zm.713346 36.6066445c-.3079384.0048199-.6158768.0133887-.9232797.0101754-.2559905-.0016067-.5125165-.0101754-.7685071-.0166019-.4643175-.0123175-.9280995-.0240995-1.3908104-.0524834-.0985403-.0053555-.1976161-.0144597-.297763-.0208863-8.5655071-.5741042-16.7716635-3.8173649-23.4076019-9.2274407l24.1964597 2.0297156c1.0443128 2.5074218 2.3151611 4.9355829 3.8205782 7.2427109-.4086209.0203507-.8188483.0267773-1.2290758.0348104zM6.55025118 60.5546114c-.26509478-.6490806-.51198104-1.3008389-.74065876-1.9552749l33.53797158 2.813218c-.0198152 4.686019.7053128 9.3586493 2.1314692 13.8395545l-26.9984313-2.2648199c-3.2839621-3.5367393-6.00078199-7.7064929-7.93035072-12.4326777zM3.67919431 41.2171517l38.93572989 3.2657535c-1.5171991 3.4199905-2.367109 8.0101469-2.6900427 10.0355782-.0005355.005891-.0016066.011782-.0026777.0187441-.1006825.6346208-.1504882 1.0175355-.1504882 1.0175355l.0091043-.0080331c-.1065735.7776113-.1997583 1.5568293-.2645592 2.3371184L4.72672038 54.9667346c-1.14767299-4.5783744-1.46953555-9.2199431-1.04752607-13.7495829zm5.36830332-16.8627062l26.24866827 2.2021611 5.8213744 14.2588863-36.95956874-3.0997346c.84883887-4.7063697 2.50849289-9.2295829 4.88952607-13.3613128zm4.92112327-6.8319479c.0862227-.0963981.1708388-.1954739.2575971-.2908009.290801-.3202559.5923128-.6324787.8938247-.9441659.2002938-.2061848.398981-.4155829.6030237-.6169479.1960094-.1949384.3984454-.3818436.5987393-.5730331.3229336-.3068673.6458673-.6126635.9779052-.9072133.0872938-.0787251.178872-.1547725.267237-.2324265 3.0081564-2.6241707 6.3670948-4.78563038 9.9584597-6.43296687L33.798782 22.8886588l-22.5908957-1.8947583c.8563364-1.2017631 1.7742606-2.3622891 2.7607346-3.4714029zM42.4215924 3.81522275c.1113934-.00642654.2227867-.01553081.3336446-.02088626.4509289-.02195734.9034644-.02945497 1.3554644-.0369526.2683081-.00321327.5371517-.0107109.8054597-.00856872.2956209.00053554.5912417.01124644.8884692.01874407.4246872.01124645.8493744.02249289 1.2735261.04819905.1376351.00749763.2752701.01981517.4134408.02891944 1.5600426.10818009 3.1056255.30954502 4.6346066.5912417L37.159327 21.7832938 30.7938389 6.19036493c3.7220379-1.33832702 7.6384786-2.14592891 11.6277535-2.37514218zM68.614564 11.3996114l-13.7527962 15.938891-.3539953.4112985L44.385436 39.4814502l-5.7287251-14.0302085L56.0024787 5.34527488c4.5071469 1.28905687 8.7765118 3.33430332 12.6120853 6.05433652zm7.0911516 6.3869099c-3.8918056.7438721-7.6277677 1.9959763-11.1259478 3.6931185l6.8276635-7.9137488c1.5257678 1.2922701 2.9631706 2.7007535 4.2982843 4.2206303zM65.6422891 45.5325735L58.9335166 29.100981c4.9093412-3.7734502 10.6621659-6.4436777 16.8573507-7.7220237L65.6422891 45.5325735zm13.4025498-22.7874408c3.4226682 5.3201043 5.5418199 11.2978578 6.2814075 17.4453791l-16.4305213 6.708237 10.1491138-24.1536161zM56.113872 68.2091564l-9.5846493-23.4761517c.2763413-.6094502.5692844-1.2097962.8740095-1.8026445 2.0741659-3.7980853 6.1186019-8.8954029 8.6988578-11.4285308l7.6068816 18.6316114-7.5950996 18.0757156zm26.7301233-8.2174028l-23.4766872 9.5846492 7.5945639-18.0757156 18.632147-7.606346c.1649478 5.4314977-.7401233 10.9058389-2.7500237 16.0974124zm6.6600379-15.0204313c0-24.7154029-20.036346-44.7512133-44.7522844-44.7512133C20.036346.220109 0 20.2559194 0 44.9713223c0 24.7154028 20.036346 44.7512132 44.7517488 44.7512132 24.7159384 0 44.7522844-20.0358104 44.7522844-44.7512132zM133.745408 39.49591c0 11.1521895.172981 20.8289526.514123 30.6219289h-.189583c-1.396166-6.9797583-11.900346-44.4850474-16.272536-59.3035782h-6.279265v68.7725497h4.915232V51.0690379c0-12.4407109-.328824-24.5793744-.756725-32.8321232h.10336c1.724455 7.2625261 12.064223 45.2016066 16.75292 61.3498957h6.110568V10.8142607h-4.898094V39.49591M152.499123 79.5868104h5.049119V10.8142607h-5.049119zM195.462152 62.5211327v-2.08809h-5.235488v2.2155497c0 7.415692-.943631 13.1877962-7.367493 13.1877962-5.953654 0-7.883759-5.2654786-7.883759-13.8288436V26.7552938c0-7.0038578 1.391346-12.174545 7.607953-12.174545 6.649862 0 7.349284 5.8615403 7.349284 11.9153412v2.4715403h5.221029v-2.4142369c0-8.6394124-1.795683-16.59546923-12.397332-16.59546923-8.282739 0-12.948408 5.40739813-12.948408 16.68651183v35.1965545c0 9.8267157 1.586285 18.6021564 12.91574 18.6021564 10.985099 0 12.738474-8.5746114 12.738474-17.9220142M210.761602 45.4811611h14.583962v-4.6554929h-14.583962V15.4697536h15.650232v-4.6554929h-20.698815v68.7725497h5.048583V45.4811611M235.314199 79.5868104h5.049119V10.8142607h-5.049119z"/>
  </g>
</svg>
