<svg width="24" height="23" xmlns="http://www.w3.org/2000/svg"><g fill-rule="evenodd"><path d="M22.55 21.16h-.197c-.786.033-.524 0-1.342 0a.224.224 0 0 1-.23-.23V10.744c0-.197.164-.361.36-.361h.459a.812.812 0 0 0 .818-.822V5.586c0-.46-.36-.822-.818-.822h-3.96a.759.759 0 0 0-.622.296.31.31 0 0 1-.425.066L7.036.13a.658.658 0 0 0-.36-.098C6.644 0 6.611 0 6.546 0c-.033 0-.066 0-.099.033-.36.033-.72.263-.883.624-.23.493 0 1.117.49 1.38l1.211.723c.099.23.131.493.131.821-.032.625-.032 1.249-.032 1.873v2.497a.364.364 0 0 1-.36.362H5.367a.728.728 0 0 0-.72.723v3.713c0 .394.328.722.72.722h4.844c.393 0 .72-.328.72-.722V9.036a.728.728 0 0 0-.72-.723H8.64a.364.364 0 0 1-.36-.362V3.844c0-.197.23-.328.393-.23l7.985 4.797a.345.345 0 0 1 .164.296v.854c0 .46.36.822.818.822h.23c.195 0 .36.164.36.361V20.93c0 .131-.1.23-.23.23H1.08h-.033c-1.21 0-1.21 1.84 0 1.84H22.55c1.146-.099 1.113-1.807 0-1.84z"/><path d="M16.167 19.714c.393 0 .72-.328.72-.723V15.28a.728.728 0 0 0-.72-.723h-4.843a.728.728 0 0 0-.72.723v3.712c0 .395.327.723.72.723h4.843zM3.24 19.714h4.844c.392 0 .72-.328.72-.723V15.28a.728.728 0 0 0-.72-.723H3.24a.728.728 0 0 0-.72.723v3.712c.033.428.327.723.72.723z"/></g></svg>