<svg width="21" height="24" xmlns="http://www.w3.org/2000/svg"><g fill-rule="evenodd"><path d="M20.2 21.886h-1.3V8.473h-5.177l-3.796 5.062h-1.94V5.689H5.794v7.846h-1.35V5.689H2.25v7.846h-.927v8.351H.039v1.519H20.2zM2.904 5.078c.37.003.641.063.966-.132.256-.155.37-.093.426-.396.046-.248.119-.351.362-.457.219-.096.567-.154.652-.403.032-.094-.026-.213.013-.305.035-.08.136-.162.196-.222.152-.153.262-.27.358-.448.117-.218.306-.34.46-.531.259-.323-.054-.8-.46-.734-.193.031-.281.18-.444.314-.168.137-.334.24-.526.355-.225.136-.514.216-.722.364-.216.153-.22.441-.396.633-.132.144-.348.198-.464.332-.14.164-.027.34-.02.535.01.301-.107.352-.317.525-.196.161-.326.338-.127.57h.043zM6.677 2.115c.199.002.346.034.52-.072.14-.083.202-.05.231-.213.025-.134.064-.19.196-.247.118-.052.306-.083.352-.218.018-.05-.013-.114.007-.164.019-.043.073-.088.106-.12a.985.985 0 0 0 .193-.242c.063-.118.165-.183.249-.287C8.67.378 8.5.12 8.28.156c-.103.016-.15.097-.239.169-.091.075-.18.13-.284.192-.121.073-.277.117-.39.197-.117.082-.118.238-.213.342-.072.078-.188.107-.251.18-.076.088-.015.183-.011.288.006.163-.058.19-.171.284-.105.087-.176.182-.069.307h.024zM10.376 2.622c.168.001.292.028.439-.06.116-.07.168-.042.194-.18.02-.112.054-.159.164-.207.099-.043.257-.07.295-.183.015-.042-.011-.096.007-.138.015-.036.061-.074.088-.1a.813.813 0 0 0 .162-.204c.054-.1.14-.153.21-.241.116-.146-.025-.363-.21-.333-.087.014-.127.082-.201.142a2.006 2.006 0 0 1-.238.162c-.103.061-.234.098-.329.165-.098.07-.098.2-.18.287-.06.066-.157.09-.21.152-.063.073-.012.154-.009.242.005.137-.048.16-.144.239-.088.073-.147.152-.057.258h.02zM6.573 5.078c.37.003.642.063.966-.132.256-.155.37-.093.427-.396.045-.248.118-.351.361-.457.218-.096.567-.154.652-.403.032-.094-.026-.213.014-.305.033-.08.135-.162.195-.222.152-.153.262-.27.357-.448.117-.218.307-.34.461-.531.259-.323-.054-.8-.46-.734-.193.031-.281.18-.444.314-.168.137-.334.24-.526.355-.225.136-.513.216-.722.364-.216.153-.219.441-.395.633-.132.144-.348.198-.465.332-.14.164-.027.34-.02.535.01.301-.107.352-.317.525-.195.161-.325.338-.126.57h.042z"/></g></svg>