<svg width="22" height="21" xmlns="http://www.w3.org/2000/svg"><path d="M16.954 12.838c.08-.007.158-.017.237-.028.846-.107 1.698-.377 2.43-.92 1.788-1.326 2.256-3.84 2.372-5.224a1.756 1.756 0 0 0-1.364-1.862c-.871-.195-2.23-.382-3.567-.137l-.12.016.81-2.184c.306-.817.01-1.72-.719-2.198a1.816 1.816 0 0 0-2.286.232l-1.984 1.959-.223.221-.058.06a1.351 1.351 0 0 0-.148.165H9.663a1.642 1.642 0 0 0-.145-.166l-.058-.059-.227-.221L7.25.532A1.816 1.816 0 0 0 4.964.302a1.85 1.85 0 0 0-.719 2.198l.532 1.427.279.76c-1.374-.28-2.792-.082-3.688.118A1.754 1.754 0 0 0 .007 6.666c.116 1.385.58 3.898 2.368 5.224.732.543 1.585.813 2.43.92a5.889 5.889 0 0 0 .468.045c.186.793.375 1.52.478 1.918a4.556 4.556 0 0 0-.175.8c-.007.041-.021.141-.031.29a7.737 7.737 0 0 0 .051 1.849c.059.367.151.737.303 1.08a2.85 2.85 0 0 0 .443.727c.031.065.062.124.103.183.416.63 1.29 1.014 2.702 1.18a12.782 12.782 0 0 0 1.85.118c.587 0 1.22-.024 1.835-.114.007-.004.014-.004.02-.004 1.41-.166 2.287-.55 2.703-1.18a1.18 1.18 0 0 0 .1-.183c.068-.084.137-.17.195-.264.1-.145.18-.3.252-.463.147-.343.244-.713.298-1.077.12-.744.09-1.46.052-1.855a5.661 5.661 0 0 0-.093-.65 4.537 4.537 0 0 0-.113-.437c.103-.402.292-1.125.478-1.918.075-.003.154-.01.23-.017zm-8.546 3.447A.794.794 0 0 1 9 16c.334 0 .627.235.807.605.121.246.192.555.192.893 0 .068-.003.136-.009.196v.007a2.11 2.11 0 0 1-.153.633c-.03.065-.063.129-.098.186-.024.039-.05.074-.074.11a1.038 1.038 0 0 1-.189.192.745.745 0 0 1-.476.178.738.738 0 0 1-.407-.128C8.239 18.644 8 18.12 8 17.498c0-.505.16-.943.408-1.213zm4.998 2.587A.73.73 0 0 1 13 19c-.03 0-.059-.004-.088-.007a.726.726 0 0 1-.28-.096.896.896 0 0 1-.193-.15 1.205 1.205 0 0 1-.165-.21 1.425 1.425 0 0 1-.155-.32v-.003a2.122 2.122 0 0 1-.118-.715c0-.339.07-.648.192-.894.18-.37.473-.605.807-.605.224 0 .43.103.593.285a.835.835 0 0 1 .068.082c.045.053.086.117.121.185.018.032.033.067.05.103.107.238.169.527.169.843 0 .623-.24 1.146-.594 1.374z" fill-rule="nonzero"/></svg>
