<svg width="24" height="21" xmlns="http://www.w3.org/2000/svg"><g fill-rule="nonzero"><path d="M7.65 20.993h7.888l-3.944-3.596-3.944 3.596zm7.476-8.018H8.062l3.532 3.222 3.532-3.222zM9.201 5.949h4.787v2.997H9.201V5.949z"/><path d="M11.551 1.666L4.638 4.592l-3.085 7.544c.01.043.018.086.018.13v8.22c0 .279.227.507.504.507h4.436V12.57c0-.225.18-.406.404-.406h9.36c.222 0 .403.181.403.406v8.424h4.435a.508.508 0 0 0 .505-.508v-8.237c0-.015.003-.032.005-.047L18.47 4.58l-6.919-2.915v.001zm3.244 7.686c0 .225-.18.407-.403.407H8.797a.405.405 0 0 1-.404-.407v-3.81c0-.224.18-.406.404-.406h5.594c.223 0 .404.182.404.407v3.81-.001z"/><path d="M15.87 20.097v-6.6l-3.618 3.3 3.618 3.3zm-8.552-.001l3.619-3.3-3.619-3.3v6.6zm15.837-8.652l-3.08-7.508c-.15-.365-.535-.754-.897-.906L12.222.12a1.83 1.83 0 0 0-1.272.002l-6.952 2.92c-.362.152-.747.542-.896.906L.033 11.462a.445.445 0 0 0 .409.613.44.44 0 0 0 .322-.143.444.444 0 0 0 .087-.132l.075-.185L3.92 4.286a.991.991 0 0 1 .42-.424l6.95-2.92a.976.976 0 0 1 .593 0l5.54 2.317 1.44.607c.093.046.2.14.283.24.002.003.005.005.006.009L22.25 11.6l.013-.002.077.185a.44.44 0 0 0 .576.241.445.445 0 0 0 .24-.58h-.001z"/></g></svg>
