<svg width="26" height="17" xmlns="http://www.w3.org/2000/svg" xmlns:xlink="http://www.w3.org/1999/xlink"><defs><path id="a" d="M.027.034H4.32v16.502H.027z"/><path id="c" d="M0 .05h4.321v14.845H0z"/></defs><g fill-rule="evenodd"><path d="M25.962 3.43c0-.195-.06-.303-.277-.342-1.062-.189-2.12-.396-3.18-.595C18.476 1.735 14.45.978 10.422.223c-.38-.072-.422-.031-.422.373V16.33c0 .343.06.395.388.333a23112.2 23112.2 0 0 0 8.687-1.632c2.192-.413 4.383-.827 6.575-1.235.208-.039.313-.125.312-.347-.002-3.34-.002-6.68 0-10.02" /><g transform="translate(4.945 .15)"><mask id="b" fill="#fff"><use xlink:href="#a"/></mask><path d="M1.843 8.578c-.202.017-.407.004-.61.004v.002c-.186 0-.372.003-.558-.001C.447 8.578.306 8.466.29 8.23c-.013-.21.128-.37.358-.377.398-.012.797-.012 1.195 0 .215.007.347.139.346.36-.002.219-.135.347-.347.364M4.319.352C4.32.07 4.25.004 4 .045 2.767.245 1.538.45.306.639.09.672.027.761.027.967c.004 4.88.004 9.759 0 14.639 0 .205.074.301.284.334 1.179.183 2.356.38 3.535.566.451.071.474.044.474-.427V8.27.352" mask="url(#b)"/></g><g transform="translate(0 .947)"><mask id="d" fill="#fff"><use xlink:href="#c"/></mask><path d="M3.432 7.774c-.414.02-.831.02-1.246.003-.202-.008-.314-.146-.313-.358.001-.211.113-.34.316-.357.21-.018.424-.004.636-.004v-.005c.195 0 .39-.007.584.002.214.011.354.129.36.347.007.218-.129.363-.337.372M4.321.375c0-.298-.052-.355-.31-.314C2.778.253 1.546.453.313.64.083.678 0 .782 0 1.012c.005 4.312.005 8.625 0 12.938 0 .232.086.33.312.365 1.199.181 2.396.373 3.594.56.368.057.415.015.415-.365V7.495.375" mask="url(#d)"/></g></g></svg>