<?xml version="1.0" encoding="UTF-8"?>
<svg width="450px" height="450px" viewBox="0 0 450 450" version="1.1" xmlns="http://www.w3.org/2000/svg" xmlns:xlink="http://www.w3.org/1999/xlink">
    <title>~Icon / New / Finance (Blue)</title>
    <g id="~Icon-/-New-/-Finance-(Blue)" stroke="none" stroke-width="1" fill="none" fill-rule="evenodd" opacity="0.900000036">
        <path d="M140.5,72 C150.441102,72 159.1037,77.4739269 163.63808,85.5720663 L186.58,85.88 C198.357971,85.9574508 208.339168,94.5702579 210.14,106.21 L210.14,106.21 L230.91,237.21 C231.751298,239.553206 233.004302,241.727336 234.61,243.63 L234.61,243.63 L238.518,246 L246.79,246 L327.826206,152.079946 C324.180962,147.540475 322,141.774933 322,135.5 C322,120.864454 333.864454,109 348.5,109 C363.135546,109 375,120.864454 375,135.5 C374.983467,150.128692 363.128692,161.983467 348.5,162 C345.228126,162 342.094744,161.407043 339.201453,160.322728 L265.28,246 L361.802961,246.000231 C364.700961,234.507112 375.107009,226 387.5,226 C402.135546,226 414,237.864454 414,252.5 C413.983467,267.128692 402.128692,278.983467 387.5,279 C375.469654,279 365.311668,270.983475 362.076515,260.000899 L253.957,260 L304.26,383 C306.089394,387.482224 310.843189,390.013299 315.562458,389.060101 L315.84,389 L335.53859,384.841674 C335.185454,383.116278 335,381.329797 335,379.5 C335,364.864454 346.864454,353 361.5,353 C376.135546,353 388,364.864454 388,379.5 C387.983467,394.128692 376.128692,405.983467 361.5,406 C353.962694,406 347.160351,402.85325 342.33504,397.801821 L318.79,402.78 C307.322644,405.367224 295.669102,399.267422 291.26,388.37 L291.26,388.37 L240.268,263.586 L214.433944,327.365287 C222.528782,331.900586 228,340.561357 228,350.5 C227.983467,365.128692 216.128692,376.983467 201.5,377 C186.864454,377 175,365.135546 175,350.5 C175,336.138703 186.423975,324.445618 200.680233,324.012438 L226.61,260 L225.88,260 L111.990701,289.179402 C111.614648,303.493989 99.901545,314.983724 85.5,315 C70.8644541,315 59,303.135546 59,288.5 C59,273.864454 70.8644541,262 85.5,262 C95.4460218,262 104.112274,267.479346 108.644809,275.584091 L215.228,248.278 L114.63,187.38 C110.50576,184.843666 105.175243,185.606588 101.926287,189.159023 L101.73,189.38 L88.7891564,204.4162 C94.4292591,209.275889 98,216.470949 98,224.5 C97.9834673,239.128692 86.1286923,250.983467 71.5,251 C56.8644541,251 45,239.135546 45,224.5 C45,209.864454 56.8644541,198 71.5,198 C72.8835979,198 74.24243,198.106035 75.5688133,198.310422 L91.12,180.25 C98.7770258,171.281366 111.815309,169.204396 121.88,175.35 L121.88,175.35 L215.08,231.77 C214.385812,227.766771 214.024576,223.712898 214,219.65 L214,219.65 L196.31,108.4 C195.553545,103.516301 191.361873,99.9052741 186.42,99.88 L186.42,99.88 L166.975524,99.6198396 C166.373608,113.728942 154.753537,124.983891 140.5,125 C125.864454,125 114,113.135546 114,98.5 C114,83.8644541 125.864454,72 140.5,72 Z M361.5,368 C355.148725,368 350,373.148725 350,379.5 C350,385.851275 355.148725,391 361.5,391 C367.851275,391 373,385.851275 373,379.5 C372.994486,373.151011 367.848989,368.005514 361.5,368 Z M201.5,339 C195.148725,339 190,344.148725 190,350.5 C190,356.851275 195.148725,362 201.5,362 C207.851275,362 213,356.851275 213,350.5 C212.994486,344.151011 207.848989,339.005514 201.5,339 Z M85.5,277 C79.1487254,277 74,282.148725 74,288.5 C74,294.851275 79.1487254,300 85.5,300 C91.8512746,300 97,294.851275 97,288.5 C96.9944863,282.151011 91.8489894,277.005514 85.5,277 Z M387.5,241 C381.148725,241 376,246.148725 376,252.5 C376,258.851275 381.148725,264 387.5,264 C393.851275,264 399,258.851275 399,252.5 C398.994486,246.151011 393.848989,241.005514 387.5,241 Z M71.5,213 C65.1487254,213 60,218.148725 60,224.5 C60,230.851275 65.1487254,236 71.5,236 C77.8512746,236 83,230.851275 83,224.5 C82.9944863,218.151011 77.8489894,213.005514 71.5,213 Z M348.5,124 C342.148725,124 337,129.148725 337,135.5 C337,141.851275 342.148725,147 348.5,147 C354.851275,147 360,141.851275 360,135.5 C359.994486,129.151011 354.848989,124.005514 348.5,124 Z M140.5,87 C134.148725,87 129,92.1487254 129,98.5 C129,104.851275 134.148725,110 140.5,110 C146.851275,110 152,104.851275 152,98.5 C151.994486,92.1510106 146.848989,87.0055137 140.5,87 Z" id="Combined-Shape" fill="#1F434E" fill-rule="nonzero"></path>
    </g>
</svg>