<?xml version="1.0" encoding="UTF-8"?>
<svg width="450px" height="450px" viewBox="0 0 450 450" version="1.1" xmlns="http://www.w3.org/2000/svg" xmlns:xlink="http://www.w3.org/1999/xlink">
    <title>~Icon / New / Insights (Green)</title>
    <g id="~Icon-/-New-/-Insights-(Green)" stroke="none" stroke-width="1" fill="none" fill-rule="evenodd" opacity="0.900000036">
        <path d="M260.4,42 L260.400991,88.4430353 C313.913648,112.886655 351.1,166.875658 351.1,229.55 C351.1,248.392759 347.73881,266.45047 341.583296,283.156269 L497.650241,356.279336 L490.649759,371.220664 L335.053805,298.318601 C309.709687,349.449242 256.984793,384.6 196.05,384.6 C110.41825,384.6 41,315.18175 41,229.55 C41,143.91825 110.41825,74.5 196.05,74.5 C212.748561,74.5 228.830576,77.1397457 243.901513,82.0247045 L243.9,42 L260.4,42 Z M196.05,89.3 C118.592064,89.3 55.8,152.092064 55.8,229.55 C55.8,307.007936 118.592064,369.8 196.05,369.8 C273.507936,369.8 336.3,307.007936 336.3,229.55 C336.3,175.288278 305.48515,128.223749 260.40036,104.901327 L260.4,323.6 L243.9,323.6 L243.90096,97.6748363 C228.968529,92.2554188 212.854402,89.3 196.05,89.3 Z M202.1,163 L202.1,323.6 L185.6,323.6 L185.6,163 L202.1,163 Z M143.8,248.8 L143.8,323.6 L127.3,323.6 L127.3,248.8 L143.8,248.8 Z" id="Combined-Shape" fill="#05D19A" fill-rule="nonzero"></path>
    </g>
</svg>