<?xml version="1.0" encoding="UTF-8"?>
<svg width="450px" height="450px" viewBox="0 0 450 450" version="1.1" xmlns="http://www.w3.org/2000/svg" xmlns:xlink="http://www.w3.org/1999/xlink">
    <title>~Icon / New / Supply Chain (Green)</title>
    <g id="~Icon-/-New-/-Supply-Chain-(Green)" stroke="none" stroke-width="1" fill="none" fill-rule="evenodd" opacity="0.900000036">
        <path d="M224.566229,64.0002538 C246.024356,63.9619741 267.269656,68.2549562 287.030362,76.6224745 C368.67888,111.132325 406.901938,205.320046 372.40395,286.996639 C337.905963,368.673233 243.750616,406.909434 162.102096,372.399586 C91.7373076,342.704159 52.0459649,267.512258 67.2114037,192.637173 C82.3768425,117.762087 148.195988,63.9553151 224.566229,64.0002538 Z M224.566229,78.5923763 C144.005281,78.5923763 78.6977297,143.922383 78.6977297,224.51103 C78.6977297,305.099677 144.005281,370.429684 224.566229,370.429684 C305.127176,370.429684 370.434728,305.099677 370.434728,224.51103 C370.434728,143.922383 305.127176,78.5923763 224.566229,78.5923763 Z M215.891896,84.5669656 L216.705598,84.5968003 C217.249122,84.6175227 217.794331,84.6398603 218.338668,84.6635121 L219.154199,84.6999379 C226.618035,85.0421867 233.675056,85.6044612 233.675056,85.6044612 L247.852027,95.0557757 L240.763541,103.719481 L228.161789,103.719481 L222.648522,100.569043 L214.772426,100.569043 L188.387507,114.375838 L199.807845,123.409719 L216.347646,111.595576 L237.613103,111.595576 L244.701589,131.285815 L196.657407,162.002587 L180.905216,176.967168 L180.905216,190.356531 L157.27693,180.905216 L143.099958,188.781312 L147.825615,206.108722 L162.002587,200.595455 L180.905216,227.374179 L198.232626,219.498084 L238.400713,239.975932 L269.117485,266.754656 L258.090951,297.471429 L226.58657,332.913858 L216.74145,357.723559 L204.927307,350.635073 L200.989259,294.714795 L174.210535,264.785633 L178.148583,232.493641 L148.21942,213.591012 L127.741572,205.714917 L107.657528,165.153025 L112.296549,137.988372 C134.734672,109.108242 167.472218,90.0245109 203.659256,84.7302146 C206.133374,84.3659452 210.885807,84.3909195 215.891896,84.5669656 Z M335.662616,137.36616 C366.99488,177.250892 374.671678,230.820356 355.801792,277.899331 L355.801792,277.899331 L348.666049,272.267923 L345.515611,242.338761 L319.524496,237.613103 L303.772305,198.232626 L328.97581,167.515854 L321.887325,150.188444 Z" id="Combined-Shape" fill="#05D19A" fill-rule="nonzero"></path>
    </g>
</svg>