<?xml version="1.0" encoding="UTF-8"?>
<svg width="450px" height="450px" viewBox="0 0 450 450" version="1.1" xmlns="http://www.w3.org/2000/svg" xmlns:xlink="http://www.w3.org/1999/xlink">
    <title>~Icon / New / Supply Chain (Blue)</title>
    <g id="~Icon-/-New-/-Supply-Chain-(Blue)" stroke="none" stroke-width="1" fill="none" fill-rule="evenodd" opacity="0.600000024">
        <g id="Globe" transform="translate(64.000000, 64.000000)" fill="#1F434E" fill-rule="nonzero">
            <g id="globe-1-copy">
                <path d="M160.566229,14.5923763 C241.127176,14.5923763 306.434728,79.9223829 306.434728,160.51103 C306.434728,241.099677 241.127176,306.429684 160.566229,306.429684 C80.0052812,306.429684 14.6977297,241.099677 14.6977297,160.51103 C14.6977297,79.9223829 80.0052812,14.5923763 160.566229,14.5923763 M160.566229,0.00025375863 C84.1959881,-0.0446848874 18.3768425,53.7620869 3.21140368,128.637173 C-11.9540351,203.512258 27.7373076,278.704159 98.1020959,308.399586 C179.750616,342.909434 273.905963,304.673233 308.40395,222.996639 C342.901938,141.320046 304.67888,47.132325 223.030362,12.6224745 C203.269656,4.25495619 182.024356,-0.0380258978 160.566229,0.00025375863 Z" id="Shape"></path>
                <g id="Group-9" transform="translate(43.454023, 19.454023)">
                    <path d="M126.221033,2.15043818 L140.398004,11.6017527 L133.309518,20.2654577 L120.707766,20.2654577 L115.194499,17.1150195 L107.318404,17.1150195 L80.9334838,30.9218148 L92.3538222,39.9556963 L108.893623,28.1415532 L130.15908,28.1415532 L137.247566,47.8317918 L89.203384,78.548564 L73.4511931,93.5131454 L73.4511931,106.902508 L49.8229067,97.4511931 L35.6459349,105.327289 L40.3715922,122.654699 L54.548564,117.141432 L73.4511931,143.920156 L90.7786031,136.044061 L130.94669,156.521909 L161.663462,183.300633 L150.636928,214.017406 L119.132547,249.459835 L109.287427,274.269536 L97.4732842,267.18105 L93.5352365,211.260772 L66.756512,181.33161 L70.6945597,149.039618 L40.765397,130.136989 L20.2875488,122.260894 L0.20350543,81.6990022 L4.84252565,54.534349 C27.2806494,25.654219 60.0181946,6.57048787 96.2052328,1.27619158 C102.892038,0.291679653 126.221033,2.15043818 126.221033,2.15043818 Z M248.347769,194.445309 C267.217655,147.366333 259.540857,93.7968687 228.208593,53.9121375 L214.433302,66.7344208 L221.521787,84.0618308 L196.318282,114.778603 L212.070473,154.15908 L238.061588,158.884738 L241.212026,188.8139 L248.347769,194.445309 Z" id="Mask"></path>
                </g>
            </g>
            <g id="globe-1-copy-2">
                <path d="M160.566229,14.5923763 C241.127176,14.5923763 306.434728,79.9223829 306.434728,160.51103 C306.434728,241.099677 241.127176,306.429684 160.566229,306.429684 C80.0052812,306.429684 14.6977297,241.099677 14.6977297,160.51103 C14.6977297,79.9223829 80.0052812,14.5923763 160.566229,14.5923763 M160.566229,0.00025375863 C84.1959881,-0.0446848874 18.3768425,53.7620869 3.21140368,128.637173 C-11.9540351,203.512258 27.7373076,278.704159 98.1020959,308.399586 C179.750616,342.909434 273.905963,304.673233 308.40395,222.996639 C342.901938,141.320046 304.67888,47.132325 223.030362,12.6224745 C203.269656,4.25495619 182.024356,-0.0380258978 160.566229,0.00025375863 Z" id="Shape"></path>
                <g id="Group-9" transform="translate(43.454023, 19.454023)">
                    <path d="M126.221033,2.15043818 L140.398004,11.6017527 L133.309518,20.2654577 L120.707766,20.2654577 L115.194499,17.1150195 L107.318404,17.1150195 L80.9334838,30.9218148 L92.3538222,39.9556963 L108.893623,28.1415532 L130.15908,28.1415532 L137.247566,47.8317918 L89.203384,78.548564 L73.4511931,93.5131454 L73.4511931,106.902508 L49.8229067,97.4511931 L35.6459349,105.327289 L40.3715922,122.654699 L54.548564,117.141432 L73.4511931,143.920156 L90.7786031,136.044061 L130.94669,156.521909 L161.663462,183.300633 L150.636928,214.017406 L119.132547,249.459835 L109.287427,274.269536 L97.4732842,267.18105 L93.5352365,211.260772 L66.756512,181.33161 L70.6945597,149.039618 L40.765397,130.136989 L20.2875488,122.260894 L0.20350543,81.6990022 L4.84252565,54.534349 C27.2806494,25.654219 60.0181946,6.57048787 96.2052328,1.27619158 C102.892038,0.291679653 126.221033,2.15043818 126.221033,2.15043818 Z M248.347769,194.445309 C267.217655,147.366333 259.540857,93.7968687 228.208593,53.9121375 L214.433302,66.7344208 L221.521787,84.0618308 L196.318282,114.778603 L212.070473,154.15908 L238.061588,158.884738 L241.212026,188.8139 L248.347769,194.445309 Z" id="Mask"></path>
                </g>
            </g>
        </g>
    </g>
</svg>