<svg width="90" height="83" viewBox="0 0 90 83" fill="none" xmlns="http://www.w3.org/2000/svg">
<path fill-rule="evenodd" clip-rule="evenodd" d="M5.88785 12.4813V72.2009C5.88785 74.5236 7.77077 76.4065 10.0935 76.4065H79.9065C82.2292 76.4065 84.1122 74.5236 84.1122 72.2009V12.4813H5.88785ZM0 10.7991C0 5.2246 4.519 0.705608 10.0935 0.705608H79.9065C85.481 0.705608 90 5.2246 90 10.7991V72.2009C90 77.7754 85.481 82.2944 79.9065 82.2944H10.0935C4.519 82.2944 0 77.7754 0 72.2009V10.7991Z" fill="#19404C" fill-opacity="0.12"/>
<path fill-rule="evenodd" clip-rule="evenodd" d="M45.421 60.4249C54.7118 60.4249 62.2434 52.8932 62.2434 43.6024C62.2434 34.3117 54.7118 26.78 45.421 26.78C36.1302 26.78 28.5986 34.3117 28.5986 43.6024C28.5986 52.8932 36.1302 60.4249 45.421 60.4249ZM39.2664 51.9864L45.8747 45.378L52.4832 51.9865L53.8049 50.6648L47.1964 44.0563L53.805 37.4477L52.4833 36.126L45.8747 42.7346L39.2663 36.1262L37.9446 37.4479L44.553 44.0563L37.9447 50.6647L39.2664 51.9864Z" fill="#19404C" fill-opacity="0.12"/>
</svg>
