<?xml version="1.0" encoding="UTF-8"?>
<svg width="88px" height="68px" viewBox="0 0 88 68" version="1.1" xmlns="http://www.w3.org/2000/svg" xmlns:xlink="http://www.w3.org/1999/xlink">
    <!-- Generator: Sketch 43.1 (39012) - http://www.bohemiancoding.com/sketch -->
    <title>Group 20</title>
    <desc>Created with Sketch.</desc>
    <defs></defs>
    <g id="Desktop" stroke="none" stroke-width="1" fill="none" fill-rule="evenodd">
        <g id="2-Factsheets---1-Place" transform="translate(-824.000000, -632.000000)">
            <rect id="Rectangle-8" x="0" y="0" width="1280" height="3659"></rect>
            <g id="Group-20" transform="translate(120.000000, 632.000000)">
                <rect id="Rectangle-3" stroke-opacity="0.3" stroke="#34444C" stroke-linecap="square" x="703.5" y="-0.5" width="337" height="69"></rect>
                <g id="Group-19" transform="translate(721.000000, 17.000000)" fill-rule="nonzero" fill="#34444C">
                    <path d="M1.5,17 L5.86363636,17 L5.86363636,13.0625 L1.5,13.0625 L1.5,17 Z M0,11.5625 L7.36363636,11.5625 L7.36363636,18.5 L0,18.5 L0,11.5625 Z" id="Rectangle-4"></path>
                    <path d="M24.8181818,8.90625 L29.1818182,8.90625 L29.1818182,7.28125 L24.8181818,7.28125 L24.8181818,8.90625 Z M23.3181818,5.78125 L30.6818182,5.78125 L30.6818182,10.40625 L23.3181818,10.40625 L23.3181818,5.78125 Z" id="Rectangle-4"></path>
                    <path d="M24.8181818,13.0625 L24.8181818,14.6875 L29.1818182,14.6875 L29.1818182,13.0625 L24.8181818,13.0625 Z M23.3181818,11.5625 L30.6818182,11.5625 L30.6818182,16.1875 L23.3181818,16.1875 L23.3181818,11.5625 Z" id="Rectangle-4"></path>
                    <path d="M1,9.40625 L6.36363636,9.40625 L6.36363636,1 L1,1 L1,9.40625 Z M0,0 L7.36363636,0 L7.36363636,10.40625 L0,10.40625 L0,0 Z" id="Rectangle-4" opacity="0.300000012"></path>
                    <path d="M24.3181818,3.625 L29.6818182,3.625 L29.6818182,1 L24.3181818,1 L24.3181818,3.625 Z M23.3181818,0 L30.6818182,0 L30.6818182,4.625 L23.3181818,4.625 L23.3181818,0 Z" id="Rectangle-4" opacity="0.300000012"></path>
                    <path d="M1,23.28125 L6.36363636,23.28125 L6.36363636,20.65625 L1,20.65625 L1,23.28125 Z M0,19.65625 L7.36363636,19.65625 L7.36363636,24.28125 L0,24.28125 L0,19.65625 Z" id="Rectangle-4" opacity="0.300000012"></path>
                    <path d="M24.3181818,18.34375 L24.3181818,19.8125 L29.6818182,19.8125 L29.6818182,18.34375 L24.3181818,18.34375 Z M23.3181818,17.34375 L30.6818182,17.34375 L30.6818182,20.8125 L23.3181818,20.8125 L23.3181818,17.34375 Z" id="Rectangle-4" opacity="0.300000012"></path>
                    <path d="M1,27.90625 L6.36363636,27.90625 L6.36363636,26.4375 L1,26.4375 L1,27.90625 Z M0,25.4375 L7.36363636,25.4375 L7.36363636,28.90625 L0,28.90625 L0,25.4375 Z" id="Rectangle-4" opacity="0.300000012"></path>
                    <path d="M24.8181818,23.9375 L29.1818182,23.9375 L29.1818182,23.46875 L24.8181818,23.46875 L24.8181818,23.9375 Z M23.3181818,21.96875 L30.6818182,21.96875 L30.6818182,25.4375 L23.3181818,25.4375 L23.3181818,21.96875 Z" id="Rectangle-4"></path>
                    <path d="M1,31.3125 L6.36363636,31.3125 L6.36363636,31 L1,31 L1,31.3125 Z M0,30 L7.36363636,30 L7.36363636,32.3125 L0,32.3125 L0,30 Z" id="Rectangle-4" opacity="0.300000012"></path>
                    <path d="M24.3243038,31.3783001 L29.6879402,31.3783001 L29.6879402,31.0658001 L24.3243038,31.0658001 L24.3243038,31.3783001 Z M23.3243038,30.0658001 L30.6879402,30.0658001 L30.6879402,32.3783001 L23.3243038,32.3783001 L23.3243038,30.0658001 Z" id="Rectangle-4" opacity="0.300000012"></path>
                    <path d="M24.3181818,27.90625 L29.6818182,27.90625 L29.6818182,27.59375 L24.3181818,27.59375 L24.3181818,27.90625 Z M23.3181818,26.59375 L30.6818182,26.59375 L30.6818182,28.90625 L23.3181818,28.90625 L23.3181818,26.59375 Z" id="Rectangle-4" opacity="0.300000012"></path>
                    <polygon id="Rectangle-4" opacity="0.300000012" points="0 33.53125 7.36363636 33.53125 7.36363636 34.6875 0 34.6875"></polygon>
                    <polygon id="Rectangle-4" opacity="0.300000012" points="23.3147886 33.5116717 30.6784249 33.5116717 30.6784249 34.6679217 23.3147886 34.6679217"></polygon>
                    <polygon id="Rectangle-4" opacity="0.300000012" points="23.3147886 35.8552328 30.6784249 35.8552328 30.6784249 37.0114828 23.3147886 37.0114828"></polygon>
                    <polygon id="Rectangle-4" opacity="0.300000012" points="0 35.8551777 7.36363636 35.8551777 7.36363636 37.0114277 0 37.0114277"></polygon>
                    <path d="M48.1363636,19.3125 L52.5,19.3125 L52.5,13.0625 L48.1363636,13.0625 L48.1363636,19.3125 Z M46.6363636,11.5625 L54,11.5625 L54,20.8125 L46.6363636,20.8125 L46.6363636,11.5625 Z" id="Rectangle-4"></path>
                    <path d="M48.1363636,8.90625 L52.5,8.90625 L52.5,1.5 L48.1363636,1.5 L48.1363636,8.90625 Z M46.6363636,0 L54,0 L54,10.40625 L46.6363636,10.40625 L46.6363636,0 Z" id="Rectangle-4"></path>
                    <path d="M47.6363636,27.90625 L53,27.90625 L53,22.96875 L47.6363636,22.96875 L47.6363636,27.90625 Z M46.6363636,21.96875 L54,21.96875 L54,28.90625 L46.6363636,28.90625 L46.6363636,21.96875 Z" id="Rectangle-4" opacity="0.300000012"></path>
                    <path d="M47.6363636,31.5625 L53.0747071,31.5625 L53.0747071,30.875 L47.6363636,30.875 L47.6363636,31.5625 Z M46.6363636,30.0625 L54,30.0625 L54,32.375 L46.6363636,32.375 L46.6363636,30.0625 Z" id="Rectangle-4"></path>
                    <polygon id="Rectangle-4" opacity="0.300000012" points="46.6409461 35.8482198 54.0045825 35.8482198 54.0045825 37.0044698 46.6409461 37.0044698"></polygon>
                    <polygon id="Rectangle-4" opacity="0.300000012" points="46.6409461 33.516761 54.0045825 33.516761 54.0045825 34.673011 46.6409461 34.673011"></polygon>
                    <g id="Group-11" opacity="0.300000012" transform="translate(6.000000, 4.000000)">
                        <path d="M1.36363636,11.78125 C3.5706377,11.78125 4.43261363,11.3382901 9.43299875,8.19761616 C13.168674,5.85128927 15.604592,4.84375 18.5454545,4.84375 L18.5454545,3.34375 C15.2476807,3.34375 12.591878,4.44223752 8.63518307,6.92738384 C3.97079546,9.85702235 3.14527139,10.28125 1.36363636,10.28125 L1.36363636,11.78125 Z" id="Path-21"></path>
                        <path d="M32.5421551,3.37400259 C36.331595,2.38229603 38.8218414,1.953125 41.8636364,1.953125 L41.8636364,0.453125 C38.6667949,0.453125 36.0653206,0.901465127 32.1623904,1.92287241 C27.4086113,3.16694912 26.5829034,3.34375 24.6818182,3.34375 L24.6818182,4.84375 C26.7693693,4.84375 27.6311615,4.65922275 32.5421551,3.37400259 Z" id="Path-21"></path>
                        <path d="M31.9533649,8.77574116 C35.9100598,11.2608875 38.5658625,12.359375 41.8636364,12.359375 L41.8636364,10.859375 C38.9227738,10.859375 36.4868558,9.85183573 32.7511806,7.50550884 C27.7507954,4.36483485 26.8888195,3.921875 24.6818182,3.921875 L24.6818182,5.421875 C26.4634532,5.421875 27.2889773,5.84610265 31.9533649,8.77574116 Z" id="Path-21"></path>
                        <path d="M32.1985833,11.7653342 C36.091027,12.5802645 38.6820815,12.9375 41.8636364,12.9375 L41.8636364,11.4375 C38.8065549,11.4375 36.3058886,11.0927266 32.5059622,10.2971658 C27.6100163,9.27214013 26.7510361,9.125 24.6818182,9.125 L24.6818182,10.625 C26.6012367,10.625 27.4297564,10.7669224 32.1985833,11.7653342 Z" id="Path-21"></path>
                        <path d="M31.7196675,18.9497529 C35.7156148,25.2242536 38.3697519,27.96875 41.8636364,27.96875 L41.8636364,26.46875 C39.1188844,26.46875 36.6813007,23.9481795 32.984878,18.1439971 C32.8574914,17.9439727 31.3862915,15.609164 30.9638828,14.9555739 C30.2027602,13.7778941 29.5851738,12.883996 28.9938305,12.124284 C27.4585353,10.1518561 26.1194774,9.125 24.6818182,9.125 L24.6818182,10.625 C26.2476865,10.625 27.1844475,11.8284777 31.7196675,18.9497529 Z" id="Path-21"></path>
                        <path d="M31.9303592,24.0810092 C35.8919869,26.7766075 38.5525082,27.96875 41.8636364,27.96875 L41.8636364,26.46875 C38.9361281,26.46875 36.5049287,25.3793635 32.7741863,22.8408658 C27.7633867,19.4313826 26.9043126,18.953125 24.6818182,18.953125 L24.6818182,20.453125 C26.4479601,20.453125 27.2763861,20.9143205 31.9303592,24.0810092 Z" id="Path-21"></path>
                        <path d="M0.75,11.78125 C2.78198133,11.78125 3.63390047,11.7082847 8.49853869,11.1990492 C12.3209873,10.7989112 14.8437674,10.625 17.9318182,10.625 L17.9318182,9.125 C14.7812326,9.125 12.212292,9.3020933 8.34237041,9.70720083 C3.5422359,10.209684 2.70665503,10.28125 0.75,10.28125 L0.75,11.78125 Z" id="Path-21"></path>
                        <path d="M0.75,11.78125 C2.48646156,11.78125 3.32260359,12.3183551 7.95730954,15.9571 C11.9271591,19.0738607 14.5948664,20.453125 17.9318182,20.453125 L17.9318182,18.953125 C15.0301336,18.953125 12.6061201,17.6998558 8.88359955,14.777275 C3.85353278,10.8281293 3.0021748,10.28125 0.75,10.28125 L0.75,11.78125 Z" id="Path-21"></path>
                    </g>
                </g>
            </g>
        </g>
    </g>
</svg>