<svg xmlns="http://www.w3.org/2000/svg" viewBox="0 0 73 51">
  <defs/>
  <g fill="#34444C" fill-rule="evenodd">
    <path d="M11.1061998 3.9597c0-1.21.983-2.194 2.193-2.194h46.071c1.21 0 2.194.984 2.194 2.194v25.909l1.462.364V3.9597c0-2.017-1.64-3.656-3.656-3.656h-46.071c-2.015 0-3.65600002 1.639-3.65600002 3.656v26.271l1.46300002-.364V3.9597zM61.5641998 44.9337834V46.3741c0 1.209-.984 2.193-2.194 2.193h-46.071c-1.21 0-2.193-.984-2.193-2.193v-1.35l-1.46300002.363v.987c0 2.015 1.64100002 3.656 3.65600002 3.656h46.071c2.016 0 3.656-1.641 3.656-3.656v-1.0773166l-1.462-.363z" opacity=".30000001"/>
    <path d="M14.7624998 20.0476h11.7c.404 0 .732.327.732.731 0 .404-.328.732-.732.732h-11.7c-.404 0-.731-.328-.731-.732 0-.404.327-.731.731-.731M14.7624998 22.9724h6.581c.404 0 .731.327.731.731 0 .405-.327.732-.731.732h-6.581c-.404 0-.731-.327-.731-.732 0-.404.327-.731.731-.731M40.3571998 20.0476h11.7c.404 0 .732.327.732.731 0 .404-.328.732-.732.732h-11.7c-.404 0-.731-.328-.731-.732 0-.404.327-.731.731-.731M40.3571998 22.9724h6.581c.404 0 .731.327.731.731 0 .405-.327.732-.731.732h-6.581c-.404 0-.731-.327-.731-.732 0-.404.327-.731.731-.731M57.6041998 26.6287h-16.944c-.572 0-1.035.463-1.035 1.034v16.945c0 .572.463 1.035 1.035 1.035h16.944c.571 0 1.034-.463 1.034-1.035v-16.945c0-.571-.463-1.034-1.034-1.034m0 1l.034.034-.034 16.98-16.979-.035.035-16.979h16.944"/>
    <path d="M7.91669978 43.5505l-2.698 1.182c-.006 0-.056-.001-.077-.05l-3.814-8.669c-.016-.036.007-.094.042-.109l4.187-1.842-.245-.985-4.344 1.911c-.548.241-.796.88-.556 1.427l3.815 8.669c.178.406.575.648.992.648.145 0 .293-.03.435-.092l2.508-1.104-.245-.986z" opacity=".2"/>
    <path d="M14.0309998 43.2625l-4.85700002 1.198-3.053-12.323 7.91000002-1.968v-1.031l-8.15100002 2.028c-.543.136-.874.685-.739 1.228l3.062 12.307c.115.461.528.769.982.769.081 0 .163-.01.245-.03l4.60100002-1.145v-1.033z" opacity=".30000001"/>
    <path d="M65.1002998 43.5505l2.699 1.182c.005 0 .055-.001.076-.05l3.815-8.669c.015-.036-.007-.094-.043-.109l-4.186-1.842.244-.985 4.344 1.911c.548.241.797.88.556 1.427l-3.815 8.669c-.177.406-.575.648-.991.648-.146 0-.294-.03-.436-.092l-2.508-1.104.245-.986z" opacity=".2"/>
    <path d="M67.1374998 31.1667l-8.499-2.114v1.03l8.258 2.055-3.053 12.323-5.205-1.284v1.033l4.948 1.23c.082.021.164.031.245.031.454 0 .868-.308.983-.769l3.061-12.307c.136-.543-.195-1.092-.738-1.228M56.5905998 4.8406h-40.512c-1.131 0-2.048.916-2.048 2.048v7.131c0 1.131.917 2.048 2.048 2.048h40.512c1.131 0 2.048-.917 2.048-2.048v-7.131c0-1.132-.917-2.048-2.048-2.048" opacity=".30000001"/>
    <path d="M46.9381998 40.8884c0 .606-.491 1.098-1.097 1.098s-1.096-.492-1.096-1.098v-4.388c0-.605.49-1.096 1.096-1.096.606 0 1.097.491 1.097 1.096v4.388zM50.5944998 40.8884c0 .606-.491 1.098-1.097 1.098-.605 0-1.096-.492-1.096-1.098v-8.774c0-.607.491-1.098 1.096-1.098.606 0 1.097.491 1.097 1.098v8.774zM54.2506998 40.8884c0 .606-.491 1.098-1.097 1.098-.605 0-1.096-.492-1.096-1.098v-2.193c0-.606.491-1.097 1.096-1.097.606 0 1.097.491 1.097 1.097v2.193zM22.0749998 36.8669v-3.583c-1.682.365-2.925 1.828-2.925 3.583 0 2.048 1.609 3.656 3.656 3.656.951 0 1.829-.365 2.487-1.023l-2.926-2.048c-.146-.147-.292-.366-.292-.585"/>
    <path d="M28.1442998 40.6697c-.146.146-.585.438-1.023.146l-.659-.439c-1.359 1.586-3.77 2.119-6.148 1.057-.711-.319-1.321-.856-1.726-1.522-2.265-3.733.053-7.586 3.487-8.091v-1.497c3.989-.421 7.312 2.646 7.312 6.543 0 1.39-.438 2.706-1.243 3.803m3.865-14.041h-16.944c-.571 0-1.034.463-1.034 1.034v16.945c0 .572.463 1.035 1.034 1.035h16.944c.572 0 1.034-.463 1.034-1.035v-16.945c0-.571-.462-1.034-1.034-1.034"/>
  </g>
</svg>
