<?xml version="1.0" encoding="UTF-8"?>
<svg width="52px" height="52px" viewBox="0 0 52 52" version="1.1" xmlns="http://www.w3.org/2000/svg" xmlns:xlink="http://www.w3.org/1999/xlink">
    <title>Group + Oval 225</title>
    <g stroke="none" stroke-width="1" fill="none" fill-rule="evenodd">
        <g transform="translate(-357.000000, -2908.000000)">
            <g transform="translate(357.000000, 2908.000000)">
                <mask id="mask" fill="white">
                    <path d="M26,0 C40.3594035,0 52,11.6405965 52,26 C52,40.3594035 40.3594035,52 26,52 C11.6405965,52 0,40.3594035 0,26 C0,11.6405965 11.6405965,0 26,0 Z M25.840869,8.18722078 C15.9169692,8.18722078 7.87205892,16.2186848 7.87205892,26.1259978 C7.87205892,36.0333108 15.9169692,44.0647749 25.840869,44.0647749 C35.7647688,44.0647749 43.8096791,36.0333108 43.8096791,26.1259978 C43.8096791,16.2186848 35.7647688,8.18722078 25.840869,8.18722078 Z"></path>
                </mask>
                <path d="M26,0 C40.3594035,0 52,11.6405965 52,26 C52,40.3594035 40.3594035,52 26,52 C11.6405965,52 0,40.3594035 0,26 C0,11.6405965 11.6405965,0 26,0 Z M25.840869,8.18722078 C15.9169692,8.18722078 7.87205892,16.2186848 7.87205892,26.1259978 C7.87205892,36.0333108 15.9169692,44.0647749 25.840869,44.0647749 C35.7647688,44.0647749 43.8096791,36.0333108 43.8096791,26.1259978 C43.8096791,16.2186848 35.7647688,8.18722078 25.840869,8.18722078 Z" fill-opacity="0" fill="#34444C" opacity="0.302690607"></path>
                <polygon fill="#989C90" mask="url(#mask)" points="0.0401071014 26 0 -3 28 -3 28 26"></polygon>
                <polygon fill="#000000" mask="url(#mask)" points="25.7128906 25.8848387 50.6943359 54.6289062 53 25.8848387"></polygon>
                <polygon fill="#505050" mask="url(#mask)" points="24.8568052 24.2822266 1.58398438 52.2822266 49.5839844 52.2822266"></polygon>
                <polygon fill="#7A7879" mask="url(#mask)" points="24.9955838 26 -4.81445312 60.6293945 -15.1479492 26"></polygon>
            </g>
        </g>
    </g>
</svg>