<?xml version="1.0" encoding="UTF-8"?>
<svg width="88px" height="68px" viewBox="0 0 88 68" version="1.1" xmlns="http://www.w3.org/2000/svg" xmlns:xlink="http://www.w3.org/1999/xlink">
    <!-- Generator: Sketch 43.1 (39012) - http://www.bohemiancoding.com/sketch -->
    <title>Group 20</title>
    <desc>Created with Sketch.</desc>
    <defs></defs>
    <g id="Desktop" stroke="none" stroke-width="1" fill="none" fill-rule="evenodd">
        <g id="2-Factsheets---1-Place" transform="translate(-472.000000, -632.000000)">
            <rect id="Rectangle-8" x="0" y="0" width="1280" height="3659"></rect>
            <g id="Group-20" transform="translate(120.000000, 632.000000)">
                <rect id="Rectangle-3" stroke-opacity="0.3" stroke="#34444C" stroke-linecap="square" x="351.5" y="-0.5" width="337" height="69"></rect>
                <g id="Group-18" transform="translate(368.000000, 9.000000)">
                    <path d="M15.3837635,38.6443446 L16.1685268,38.399638 L16.877344,38.536697 L17.3476271,38.5010942 L17.9451252,38.3435942 L18.3011476,38.1982004 L17.9486681,37.8548307 L18.2000847,37.6020961 L18.9189202,37.6223797 L18.3814122,37.3173677 L18.2221066,37.1059923 L17.8447692,36.8398423 L17.3583526,36.6894671 L17.3536122,36.4010154 L17.199765,35.9248273 L16.9918857,34.7792019 L16.6783391,34.333589 L15.5748809,34.333589 L15.0604441,33.9980509 C15.0604441,33.9980509 14.0150252,33.903928 13.6384744,33.8723031 L12.5177357,34.0188608 L12.021792,34.4602681 C11.9888785,34.5908088 11.5536832,35.1662686 11.5536832,35.1662686 L11.5536832,35.5709283 L11.2369723,35.9192965 L11.1594691,37.1264965 L10.8484603,37.8674582 L11.4082985,37.7560001 L11.8558084,38.6179447 C11.8558084,38.6179447 13.5879933,38.9332173 13.9203311,39.0403236 C14.2526689,39.1474308 15.3837635,38.6443446 15.3837635,38.6443446 Z" id="path5284" stroke="#34444C" opacity="0.300000012" stroke-linecap="round" stroke-linejoin="round"></path>
                    <path d="M35.0632811,47.5029357 L35.8689485,46.9589223 L37.3076711,46.6174203 C37.3076711,46.6174203 37.830946,46.2675182 37.9633977,46.2074443 L38.2568853,45.4791552 C38.3360955,45.4003055 38.1150989,44.9187079 38.1150989,44.9187079 L37.2513338,45.1158758 L36.353354,45.4144187 C36.353354,45.4144187 36.0004898,44.9416471 35.9257028,44.7926624 L35.8542481,43.9753131 L35.6376324,43.3312862 L35.2397646,42.8551141 L35.2143297,42.3066908 L35.0632811,41.4545386 L34.6100932,41.6049138 L33.3008837,41.6951389 L32.9477949,41.7853641 L32.5367686,41.5555687 L31.8334784,41.2569777 L31.1313534,41.0967389 L30.7657757,41.2299182 C30.595933,41.3534594 29.5922779,42.4851891 29.5922779,42.4851891 C29.4718155,42.7212221 29.3732552,43.2089159 29.3732552,43.2089159 C29.3732552,43.2089159 29.11209,43.4135705 28.9900113,43.6637036 C28.9900113,43.6637036 28.0640457,44.5526596 28.0640457,44.5779447 C28.0640457,44.6032298 30.0435745,44.7295991 30.3299852,44.8802018 L31.1356526,45.0448256 L31.9664971,45.364819 L32.1930911,46.0576456 L32.6904023,47.2186854 L32.5743752,47.5196714 L33.5023006,47.8198815 L33.7288945,48.148745 L34.1065511,48.173986 C34.1896356,48.1041126 35.0632811,47.5029357 35.0632811,47.5029357 Z" id="path5270" stroke="#34444C" opacity="0.300000012" stroke-linecap="round" stroke-linejoin="round"></path>
                    <path d="M25.3722247,45.0423334 L26.7654412,43.5713663 L29.3171872,39.9451106 C29.3171872,39.9451106 27.3650853,38.5690733 27.1544093,38.472758 L26.6713855,37.9415927 L26.3832325,37.4233236 C26.3300001,37.4233236 25.6582286,36.6664351 25.6239958,36.7215727 L24.4152661,36.9224409 L22.9414376,36.4965432 L20.3750082,40.5444409 L20.3942738,41.2518439 L20.5502671,42.2854548 C20.5379424,42.5611427 21.2168481,43.2818108 21.4923843,43.3055621 L22.4684896,43.1680109 C22.5977187,43.2484305 23.5522654,44.5410827 23.5522654,44.5410827 L23.7649193,45.5510777 L24.1425759,45.6809949 C24.2926807,45.6453018 25.3722247,45.0423334 25.3722247,45.0423334 Z" id="path5246" stroke="#34444C" opacity="0.300000012" stroke-linecap="round" stroke-linejoin="round"></path>
                    <path d="M10.2441785,32.8149981 C10.9490116,32.618172 11.0552882,32.1646826 11.1009202,31.9298306 L10.805486,31.4425929 L10.1731519,30.9100502 L10.0763781,30.9695877 C10.0231527,31.0023324 8.31386892,31.0206271 8.31386892,31.0206271 L7.47522858,31.1954533 L6,31.9298306 C5.6676622,32.015365 6.74249523,32.9082097 6.74249523,32.9082097 C6.91051113,32.9082097 7.18296266,33.04258 7.18296266,33.04258 C7.18296266,33.04258 6.88792122,33.6665167 7.15388008,33.5248282 L7.48980713,33.5151701 C7.56990759,33.565616 8.0786231,33.6099596 8.0786231,33.6099596 L8.26511496,33.2782339 L8.60493943,33.4080428 L8.485893,33.5997882 C8.485893,33.5997882 9.68669091,33.6442431 9.73200869,33.6248838 L10.2441785,32.8149981 Z" id="path5200" stroke="#34444C" opacity="0.300000012" stroke-linecap="round" stroke-linejoin="round"></path>
                    <path d="M40.4472163,43.9244883 L43.615456,43.2214011 L44.6563471,42.1257965 L45.9024527,40.6968983 L46.2058096,38.9923775 L46.2779168,38.45952 L46.8493808,37.7931433 L47.0766172,37.0560182 L47.9834523,35.3270704 C47.8838909,35.2546005 46.1356299,34.3305921 46.1356299,34.3305921 L43.7037441,33.3828695 L42.8172894,32.7463453 L41.8486103,33.0109455 C41.5923789,33.2419178 39.9273141,33.5668225 39.8457735,33.4994584 L39.0876526,33.6976388 L38.80552,34.8624421 L38.3799312,35.6023913 L38.3970587,36.5067437 L38.4475055,37.3575746 C38.4264565,37.6090991 36.7966185,38.2227121 36.7966185,38.2227121 L35.1674745,38.4688402 C34.8896813,38.4828241 34.2536492,38.8729395 34.2536492,38.8729395 C34.2536492,38.8729395 33.4681296,40.0668694 33.4860819,40.084741 C33.5040351,40.1026116 35.1348479,40.0417136 35.1348479,40.0417136 L36.091578,40.4598358 C36.3269839,40.4155955 37.4091795,40.2139012 37.4091795,40.2139012 L38.4071225,40.6074341 L38.5728241,41.1313774 L38.5791264,42.1186537 L39.103632,42.7754043 C39.0394535,42.9156141 40.4472163,43.9244883 40.4472163,43.9244883 Z" id="path5192" stroke="#34444C" opacity="0.300000012" stroke-linecap="round" stroke-linejoin="round"></path>
                    <path d="M32.0800918,37.7026967 L32.0800918,37.580586 C32.0800918,37.580586 32.704484,37.2432634 33.0368218,37.2031864 L33.7128281,37.0151823 L34.5184955,36.9186184 C34.9221469,36.9288349 35.7758553,36.9804797 35.7758553,36.9804797 L36.1799851,36.578189 L36.3065877,36.0760592 L35.9117593,35.7203707 L36.4168483,35.1228378 C36.4168483,35.1228378 36.2422773,34.6410357 36.1898233,34.5756375 L36.202149,34.2564151 C36.2613817,34.1462402 36.3237,33.6891226 36.353835,33.7191205 L37.0220485,32.4803517 L37.3169308,32.3145059 C37.3169308,32.2395729 37.9136796,32.2627307 37.9136796,32.2627307 L38.2233066,31.7425268 L36.0700991,30.8992558 L35.6428668,31.1356626 L34.9149221,30.8506365 L34.0597666,30.3336616 L32.5836349,30.1076677 L31.7791105,30.8477232 C31.7158455,31.0887957 30.7205311,32.5892895 30.7205311,32.5892895 L29.7121245,33.7210132 L28.5605035,35.6161787 L28.6964116,36.5028189 L29.0353508,37.2509205 C29.0353508,37.2509205 29.6192683,37.3794502 29.9385684,37.5365431 C30.5692489,37.8468313 32.0800918,37.7026967 32.0800918,37.7026967 Z" id="path5168" stroke="#34444C" opacity="0.300000012" stroke-linecap="round" stroke-linejoin="round"></path>
                    <path d="M49.4247967,33.5415796 L49.6721043,29.5704193 L49.8283313,28.9401909 L50.4000631,28.9742819 C50.4000631,29.081303 51.2057305,28.4429533 51.2057305,28.3845826 C51.2057305,28.326212 51.6665138,27.4764528 51.6665138,27.4764528 L51.1018195,26.9779851 C51.1000571,26.8937479 50.9539594,26.0366975 50.9539594,26.0366975 L51.4279235,25.842488 L50.6500355,23.7009618 L50.2778051,23.4664476 L49.2832419,23.2707734 C49.1774286,23.3271451 48.1844778,24.1833203 48.1844778,24.1833203 L47.9576854,24.2928866 L47.4210505,23.8003517 L47.1443934,23.2731684 L45.6027378,24.0576216 C45.2479007,24.173577 44.5589745,24.0907052 44.5589745,24.0907052 L43.6536803,24.4748376 L42.5782845,25.7587811 C42.3106176,25.8271978 41.1348881,25.7383201 41.1348881,25.7383201 L40.4743153,25.5327542 C39.8810088,26.164332 40.2820096,27.0757791 40.2820096,27.0757791 L40.255623,28.2848829 L40.360968,28.6879515 L40.0174929,29.8643056 C40.0174929,29.8643056 41.5367812,30.9958709 41.7295894,30.8065896 C41.9386773,30.6013265 43.249765,30.8918744 43.249765,31.0028142 L47.626399,32.8027121 L48.3858946,33.2276302 L49.4247967,33.5415796 Z" id="path5140" stroke="#34444C" opacity="0.300000012" stroke-linecap="round" stroke-linejoin="round"></path>
                    <path d="M38.0497457,27.0609471 L37.9484613,25.9581957 L37.7973483,25.6641581 L37.7518825,24.9874697 C37.8825224,24.7770116 38.4920692,24.1742878 38.4920692,24.1742878 L37.6372229,23.5473525 C37.5832643,23.4469891 37.5336987,22.9005668 37.5336987,22.9005668 L36.9691806,22.2230493 L37.2873457,21.3384031 L37.7506105,21.2221861 L37.3032224,20.8639483 L36.4565012,20.244605 L36.3306157,20.1364923 C36.3306157,20.0774169 36.2340454,19.4577708 36.2340454,19.4577708 L36.4528767,18.407363 L36.2737698,17.4360075 L35.6004262,17.0985675 L35.52334,17.9430024 L35.2075657,18.5328581 C35.1051785,18.6422581 34.6185725,19.1680049 34.6185725,19.1680049 L34.1147584,20.2938609 C34.1147584,20.2938609 34.1469338,21.0157691 34.0628382,21.216122 L33.4800295,22.0399655 L32.9147924,22.8504066 C32.8403608,23.0433881 32.3405157,24.319071 32.2499546,24.705034 L32.1521527,26.2987003 C32.1889213,26.7892532 32.3636293,27.5797897 32.3636293,27.5797897 C32.3636293,27.5797897 32.6648532,27.2614123 32.7085919,27.2614123 L32.8548356,27.6545201 L33.9056404,28.2209714 L34.8144977,28.1890107 L34.9343971,28.565061 L35.4914869,28.629218 C35.5295053,28.7315574 36.1432547,28.5251724 36.1432547,28.5251724 L36.3289933,28.6406395 L38.0497457,27.0609471 Z" id="path5096" stroke="#34444C" opacity="0.300000012" stroke-linecap="round" stroke-linejoin="round"></path>
                    <path d="M13.9992558,28.5341458 L14.2115079,27.278537 L14.1377531,26.5840422 C14.2831357,26.3136285 13.608057,26.0755324 13.608057,26.0755324 L12.5922443,25.8661801 L12.1669416,25.3528002 L12.1225,24.6000901 L12.1687332,23.559594 L11.9151,22.9677784 C11.812596,22.9677784 10.8686317,22.6327565 10.8686317,22.6327565 L10.2043308,21.9652771 L9.4587138,21.9711518 L8.8228539,22.5472763 L8.47799804,23.2706982 L7.9524461,23.4020028 L6.94735689,24.1206519 L6.63090483,24.4452939 L7.08323773,25.3681124 C7.07819224,25.7296234 7.08596693,26.8427727 7.08596693,26.8427727 L8.59729523,28.2043269 L8.92729659,28.1546419 L10.0629643,28.3105258 L10.3881136,28.5915841 L11.0681603,28.9389197 L11.6493869,29.2409132 L12.634134,29.4497031 C13.0512643,29.4348922 13.441172,29.3928633 13.500595,29.3563051 C13.5600191,29.3197489 13.7844155,28.9497758 13.9992558,28.5341458 Z" id="path5076" stroke="#34444C" opacity="0.300000012" stroke-linecap="round" stroke-linejoin="round"></path>
                    <path d="M43.4756983,22.5902526 C43.4757658,22.462568 43.5973813,21.7280022 43.5973813,21.7280022 L44.9271021,22.0475816 C44.9271021,22.0475816 47.2050632,20.667028 47.2883098,20.667028 C47.3367092,20.667028 47.6928716,19.5102017 47.6928716,19.5102017 L47.6121327,18.0103996 L47.2307337,16.8996192 L47.1320153,15.4950347 C47.1320153,15.4950347 47.006019,14.403397 46.9399674,13.8750818 L47.0509934,13.3487686 L46.4488799,13.4423161 L45.2561477,14.4425667 L44.8858348,16.6202441 L44.9590528,18.1469012 L43.013354,18.6945887 L41.4168143,19.4210032 L40.7588166,21.5770416 L40.5306375,22.972781 L41.4815708,23.6745319 C41.4815708,23.6745319 42.1112049,23.60802 42.4247324,23.5267281 L43.4756983,22.5902526 Z" id="path5032" stroke="#34444C" opacity="0.300000012" stroke-linecap="round" stroke-linejoin="round"></path>
                    <path d="M40.3053439,18.5401853 L40.2788045,17.3158246 L40.2830999,16.9212018 C40.2830999,16.9212018 40.7419688,16.5936976 40.8980788,16.5564921 C41.3265422,16.4543776 42.467489,15.5664815 42.467489,15.5664815 C42.467489,15.5664815 43.2348673,15.7017828 43.3156519,15.7234031 L43.6366984,15.6359386 L43.642534,15.0704073 L43.6492856,14.1842866 C43.745579,13.9382372 43.7552947,13.3154614 43.7445098,13.0305621 L44.0460634,12.0263461 L44.5784071,11.4873665 C44.7936781,11.4335832 45.1236721,10.958567 45.0267968,10.958567 C44.9299206,10.958567 43.5986823,10.3934775 43.5986823,10.3934775 L43.2272463,10.3934775 L43.1103,10.5818406 L42.5649613,10.5818406 L41.9086406,11.1255472 L41.7968933,10.9742643 L41.6948711,10.2476457 L41.6495992,9.95745341 C41.6495992,9.95745341 41.4199736,9.31451711 41.3115065,9.25673199 L40.9170873,9.34797512 L39.9992663,8.79239036 C39.9992663,8.79239036 39.8203462,9.05101302 39.8166894,9.19444123 C39.8166894,9.19444123 39.2423653,10.5843402 39.2423653,10.6700992 C39.2423653,10.6700992 38.5838335,11.882463 38.5825024,11.9181155 C38.5811683,11.9537688 38.1075853,12.7309412 38.1075853,12.7309412 L37.7902486,13.8936365 L38.0597135,14.1741244 L38.0553235,14.9915217 L38.050924,15.8089191 L37.8069713,16.2505083 C37.8069713,16.2505083 38.229548,16.7559442 38.2925682,16.8774225 L38.4071491,17.0982915 L38.7135638,18.2398214 L38.6219301,18.5401853 L38.9824403,19.4533302 L39.3107757,19.6489755 L39.5,19.5 C39.5837951,19.2826374 40.3053439,18.5401853 40.3053439,18.5401853 Z" id="path5020" stroke="#34444C" opacity="0.300000012" stroke-linecap="round" stroke-linejoin="round"></path>
                    <path d="M9.84057959,19.2735333 C9.99771293,19.1171141 10.1450141,18.9388473 10.1679162,18.8773829 L10.823375,18.722698 L11.5902394,18.9452192 L12.2352749,19.451743 L15.0183824,19.7260825 L17.3110399,19.4754571 C17.3118455,19.3193156 17.496861,18.9016164 17.496861,18.9016164 L17.293577,18.523506 L17.5882811,18.2893127 L17.6955748,17.6878119 L17.3070931,17.0587724 C17.3070931,17.0587724 19.9681672,11.139299 19.9922909,11.0998777 L19.4912967,10.6680833 L18.4552718,10.2611801 C18.1851306,10.2354479 17.6116243,10.1054154 17.6116243,10.1054154 L17.4102074,9.71792665 C17.2994282,9.63844433 17.097829,9.20091768 16.96221,9.00224499 L16.6471105,8.12684683 L15.9520139,7.61267394 L15.0082592,8.1205852 C14.83381,8.3999372 14.1934656,9.13561876 14.1934656,9.13561876 L13.6568327,8.71542536 L13.220737,8.71542536 L12.9790368,9.22852657 C12.9790368,9.37840252 12.8567788,9.81817677 12.8567788,9.81817677 L12.482503,9.81817677 L11.5826923,9.216676 L11.4468568,8.79064403 L11.6317565,8.45225273 C11.5989618,8.34887881 11.3761192,6.37301393 11.3761192,6.37301393 C11.3761192,6.37301393 10.4885205,5.11736302 10.4586191,5.13126651 C10.4287178,5.14517 9.45459441,5.71744626 9.45459441,5.71744626 L9.27795184,6.02781565 C9.18101998,6.11057413 8.09462785,6.64682711 8.09462785,6.64682711 C8.09462785,6.64682711 7.2386566,7.48187559 7.2386566,7.26771425 C7.2386566,7.18826201 7.05868662,7.01253457 7.05868662,7.01253457 L5.88069515,6.99986195 L5.30844672,6.71042278 L5.06079967,6.3035446 L4.63601254,5.45729617 L4.02326925,6.03923815 L3.76364495,5.82474999 L3.37323968,6.10892201 L1.49827642,6.30122281 C1.49827642,6.4069887 1.37601841,6.81067291 1.37601841,6.81067291 L2.16295202,6.81067291 L2.40465224,7.05127322 L2.40465224,7.59596525 L1.99010918,7.60277524 L1.51174416,7.63829988 L1.19615115,8.16636242 L1.54471207,8.91214418 L1.8473711,9.32237673 L2.10128624,9.96855197 C2.10128624,9.96855197 1.41093604,14.4497768 1.34638999,14.5140281 C1.32231665,14.5379929 1.09810949,14.5006016 0.848153192,14.4309368 L0.164507147,15.5 L0,16.5 L0.164507147,17.3732921 L0.95765749,19.4170434 L2.31058151,20.0469841 C3.65531189,20.6731093 5.56607599,21.4381301 5.80005489,21.4440799 C5.86736538,21.4457942 6.07903938,21.3103182 6.27044279,21.1430288 L9.84057959,19.2735333 Z" id="path5000" stroke="#34444C" opacity="0.300000012" stroke-linecap="round" stroke-linejoin="round"></path>
                    <path d="M31.6892226,20.5737606 L32.1938504,20.0241302 L32.8351234,19.0885599 L32.912695,17.7677886 L33.1796227,17.1236805 C33.2634856,17.0271897 33.8907742,16.5921763 34.1739462,16.0309591 L34.3579667,15.4439184 L33.8988128,15.3442407 L33.7735053,15.0191807 C33.7735053,15.0191807 34.7307047,14.2616085 34.9396626,14.1558847 L35.6499329,13.5261364 C36.1275859,12.893517 36.9889732,10.9482725 37.0663072,10.7828598 C37.2322193,10.4279814 37.1179777,9.39873036 36.8534499,9.32752871 C36.5889221,9.25632706 35.8740001,9.00050277 35.3347226,8.98049284 L34.6023981,9.21136588 C34.4934437,9.3492479 34.2861324,9.93073374 34.2861324,9.93073374 C34.2861324,9.93073374 33.9610697,10.0822367 33.7750522,10.2674068 C33.5890357,10.4525768 33.1181533,10.8850287 32.9563592,11.132429 L32.620133,11.456655 L32.7352549,10.8718709 L32.7190015,10.4914588 C32.6236145,10.5347879 31.7399031,10.5823646 31.7399031,10.5823646 L31.4523856,10.7665652 L30.9136338,10.1241634 L30.6679466,9.30786465 L29.0099324,9.42948309 L28.3098437,8.4941514 L28.0092875,8.10599292 L27.7214769,7.78819801 C27.6898434,7.67085925 27.452527,6.6985162 27.452527,6.6985162 L27.1051856,6.24654151 L26.833712,5.92072859 C26.7606591,5.92072859 25.9845748,5.43619566 25.9845748,5.43619566 L25.3952724,5.36935288 L23.799063,5.40698177 L22.8281835,5.42538368 L21.8508696,5.39071518 C21.7785691,5.41833208 21.5935294,5.62337668 21.5935294,5.62337668 C21.5242924,5.62525136 20.6657742,6.00416577 20.6657742,6.00416577 L20.496003,5.89971917 L19.7052465,6.41568352 C19.7052465,6.41568352 19.7704058,7.19542301 19.8483118,7.71189864 L20.4175853,9.27867282 L22.086902,10.1112171 L23.2300343,10.8391433 L23.2300343,10.9931204 C23.2300343,11.0778077 22.6355464,12.4736254 21.9089492,14.0949376 L20.5878641,17.0427776 C20.5878641,17.0427776 20.751613,17.366784 20.8012008,17.4494904 C20.8507887,17.5321967 21.4003686,18.6023669 21.4003686,18.6023669 C21.4003686,18.6023669 21.6045348,19.5058712 21.6826785,19.6299307 L22.0663947,19.8554935 L22.7768463,20.6456119 L26.3519954,20.8386615 C28.3183274,20.9448394 30.2961119,21.0377382 30.7470712,21.0451036 L31.5669979,21.058495 L31.6892226,20.5737606 Z" id="path4978" stroke="#34444C" opacity="0.300000012" stroke-linecap="round" stroke-linejoin="round"></path>
                    <path d="M16.9987584,42.7988986 L17.2247189,42.7213712 L18.0058427,42.0220423 L17.5984962,41.2595388 L16.2152318,41.2201596 L15.227544,41.5535494 L15.0852984,41.9932264 L15.3874237,42.5052028 C15.3874237,42.5052028 15.2648686,42.998645 15.3176075,43.054775 L15.9040025,43.1641469 L16.3945079,43.0889553 L16.9987584,42.7988986 Z" id="path4938" stroke="#34444C" opacity="0.300000012" stroke-linecap="round" stroke-linejoin="round"></path>
                    <path d="M22.3714339,33.27279 L23.251969,33.3929307 L23.8427457,33.6970435 C23.8427457,33.6970435 24.4551164,33.6655008 24.4938438,33.6269486 L25.4286053,33.6097647 L25.6880121,33.2986214 L25.9999796,33.472412 L26.3589165,34.17858 L26.4337811,33.8809714 L26.6970944,33.0514648 C26.8774773,32.7839302 27.5194834,31.8128493 27.6231355,31.6988369 L28.173785,31.4915407 C28.173785,31.4915407 28.6590828,30.5379113 28.7788906,30.4138518 L29.2591207,30.188289 C29.2591207,30.188289 29.7300212,28.4939866 29.8649967,28.1998267 L29.9386347,25.9165979 L30.1761938,24.0773339 C30.2941475,23.7213066 21.7153649,22.8667253 21.7153649,22.8667253 L21.1391959,22.2904455 L20.9573869,22.1000685 C20.8604551,22.0660145 20.3279593,21.4104398 20.3279593,21.4104398 C20.3279532,21.1198338 19.5057495,21.9374869 19.5057495,21.9374869 L19.3969149,22.0680286 L15.3932405,22.0680286 C15.3932405,22.0680286 15.4397083,22.412479 15.4857754,22.6496818 L15.4253463,23.5705875 L15.8218203,24.8734913 L16.8644022,24.8495656 L16.4887699,28.6537934 L16.9306099,29.1475814 C16.9306099,29.1475814 17.0151365,29.9978238 17.0241882,30.1938799 L17.0947385,31.0292352 L17.3067066,31.7204789 L18.5403848,32.2152684 L19.7807298,32.3937918 C19.7843956,32.4764982 19.60959,32.9068018 19.60959,32.9068018 L19.7406751,33.5009091 L20.4266153,33.78621 L20.7494945,34.4602116 L21.2185078,34.0294338 L21.687522,33.598656 L22.3714339,33.27279 Z" id="path5126" stroke="#34444C" stroke-width="1.5" stroke-linecap="round" stroke-linejoin="round"></path>
                    <polygon id="Line" fill="#34444C" fill-rule="nonzero" points="57 0 57 7.71428571 58.5 7.71428571 58.5 0"></polygon>
                    <polygon id="Line" fill="#34444C" fill-rule="nonzero" points="54 4.5 61.7142857 4.5 61.7142857 3 54 3"></polygon>
                    <polygon id="Line" fill="#34444C" fill-rule="nonzero" points="54 14.5 61.7142857 14.5 61.7142857 13 54 13"></polygon>
                </g>
            </g>
        </g>
    </g>
</svg>