<svg width="88" height="68" xmlns="http://www.w3.org/2000/svg"><g fill="none" fill-rule="evenodd"><path d="M-472-632H808v3659H-472z"/><path stroke-opacity=".3" stroke="#34444C" stroke-linecap="square" d="M-.5-.5h337v69H-.5z"/><path d="M31.384 47.644l.785-.244.708.137.47-.036.598-.157.356-.146-.352-.343.251-.253.719.02-.538-.305-.159-.211-.377-.266-.487-.15-.004-.289-.154-.476-.208-1.146-.314-.445h-1.103l-.515-.336s-1.045-.094-1.422-.126l-1.12.147-.496.441c-.033.13-.468.706-.468.706v.405l-.317.348-.078 1.207-.31.741.56-.111.447.862s1.732.315 2.064.422c.333.107 1.464-.396 1.464-.396zM51.063 56.503l.806-.544 1.439-.342s.523-.35.655-.41l.294-.728c.08-.079-.142-.56-.142-.56l-.864.197-.898.298s-.353-.472-.427-.621l-.072-.818-.216-.644-.398-.476-.026-.548-.15-.852-.454.15-1.31.09-.352.09-.411-.23-.704-.298-.702-.16-.365.133c-.17.123-1.174 1.255-1.174 1.255-.12.236-.219.724-.219.724s-.26.205-.383.455c0 0-.926.889-.926.914 0 .025 1.98.152 2.266.302l.806.165.83.32.227.693.497 1.16-.116.302.928.3.227.329.378.025c.083-.07.956-.671.956-.671zM41.372 54.042l1.393-1.47 2.552-3.627s-1.952-1.376-2.163-1.472l-.483-.531-.288-.519c-.053 0-.725-.757-.759-.701l-1.209.2-1.474-.425-2.566 4.047.02.708.155 1.033c-.012.276.667.997.942 1.02l.976-.137c.13.08 1.084 1.373 1.084 1.373l.213 1.01.378.13c.15-.036 1.23-.639 1.23-.639zM26.244 41.815c.705-.197.811-.65.857-.885l-.296-.487-.632-.533-.097.06c-.053.032-1.762.05-1.762.05l-.839.175L22 40.93c-.332.085.742.978.742.978.169 0 .441.135.441.135s-.295.624-.03.482l.337-.01c.08.05.589.095.589.095l.186-.332.34.13-.12.192s1.202.044 1.247.025l.512-.81zM56.447 52.924l3.168-.703 1.041-1.095 1.246-1.43.304-1.704.072-.532.571-.667.228-.737.906-1.729c-.1-.072-1.847-.996-1.847-.996l-2.432-.948-.887-.637-.968.265c-.257.23-1.922.556-2.003.488l-.758.199-.282 1.164-.426.74.017.905.05.85c-.02.252-1.65.866-1.65.866l-1.63.246c-.277.014-.913.404-.913.404s-.786 1.194-.768 1.212c.018.018 1.649-.043 1.649-.043l.957.418 1.317-.246.998.393.166.524.006.988.525.656c-.065.14 1.343 1.15 1.343 1.15zM48.08 46.703v-.122s.624-.338.957-.378l.676-.188.805-.096c.404.01 1.258.061 1.258.061l.404-.402.127-.502-.395-.356.505-.597s-.175-.482-.227-.547l.012-.32c.06-.11.122-.567.152-.537l.668-1.239.295-.165c0-.075.597-.052.597-.052l.31-.52-2.154-.844-.427.237-.728-.285-.855-.517-1.476-.226-.805.74c-.063.24-1.058 1.741-1.058 1.741l-1.009 1.132-1.151 1.895.135.887.34.748s.583.128.903.286c.63.31 2.141.166 2.141.166zM65.425 42.542l.247-3.972.156-.63.572.034c0 .107.806-.531.806-.59 0-.058.46-.908.46-.908l-.564-.498a26.595 26.595 0 0 0-.148-.941l.474-.195-.778-2.141-.372-.235-.995-.195c-.106.056-1.099.912-1.099.912l-.226.11-.537-.493-.277-.527-1.541.785c-.355.116-1.044.033-1.044.033l-.905.384-1.076 1.284c-.267.068-1.443-.02-1.443-.02l-.66-.206c-.594.631-.193 1.543-.193 1.543l-.026 1.209.105.403-.344 1.176s1.52 1.132 1.713.943c.209-.206 1.52.085 1.52.196l4.376 1.8.76.425 1.039.314zM54.05 36.06l-.102-1.102-.15-.294-.046-.677c.13-.21.74-.813.74-.813l-.855-.627c-.054-.1-.103-.646-.103-.646l-.565-.678.318-.885.464-.116-.448-.358-.846-.62-.126-.108c0-.059-.097-.678-.097-.678l.219-1.05-.18-.972-.673-.337-.077.844-.315.59-.59.635-.503 1.126s.032.722-.052.922l-.583.824-.565.81c-.075.193-.574 1.47-.665 1.855l-.098 1.594c.037.49.212 1.28.212 1.28s.3-.318.345-.318l.146.394 1.05.566.91-.032.12.376.556.064c.039.103.652-.104.652-.104l.186.116 1.72-1.58zM30 37.534l.212-1.255-.074-.695c.145-.27-.53-.508-.53-.508l-1.016-.21-.425-.513-.045-.753.047-1.04-.254-.592c-.102 0-1.046-.335-1.046-.335l-.665-.668-.745.006-.636.576-.345.724-.526.131-1.005.719-.316.324.452.923c-.005.362.003 1.475.003 1.475l1.511 1.361.33-.05 1.136.157.325.28.68.348.581.302.985.209c.417-.015.807-.057.867-.094.059-.036.283-.406.498-.822zM59.476 31.59c0-.127.121-.862.121-.862l1.33.32s2.278-1.381 2.361-1.381c.049 0 .405-1.157.405-1.157l-.08-1.5-.382-1.11-.099-1.405s-.126-1.092-.192-1.62l.111-.526-.602.093-1.193 1-.37 2.178.073 1.527-1.946.548-1.596.726-.658 2.156-.228 1.396.95.702s.63-.067.944-.148l1.05-.937zM56.305 27.54l-.026-1.224.004-.395s.459-.327.615-.365c.429-.102 1.57-.99 1.57-.99s.767.136.848.157l.32-.087.007-.566.006-.886c.097-.246.106-.869.096-1.153l.301-1.005.532-.539c.216-.053.546-.528.449-.528-.097 0-1.428-.566-1.428-.566h-.372l-.117.189h-.545l-.656.544-.112-.152-.102-.726-.045-.29s-.23-.643-.338-.701l-.395.091-.918-.556s-.179.259-.182.402c0 0-.575 1.39-.575 1.476 0 0-.658 1.212-.66 1.248 0 .036-.474.813-.474.813l-.318 1.163.27.28-.005.818-.004.817-.244.442s.423.505.486.626l.114.221.307 1.142-.092.3.36.913.329.196.189-.149c.084-.217.805-.96.805-.96zM25.84 28.274c.158-.157.305-.335.328-.397l.655-.154.767.222.645.507 2.783.274 2.293-.25c0-.157.186-.574.186-.574l-.203-.378.294-.235.108-.601-.389-.63s2.661-5.919 2.685-5.958l-.5-.432-1.037-.407c-.27-.026-.843-.156-.843-.156l-.202-.387c-.11-.08-.312-.517-.448-.716l-.315-.875-.695-.514-.944.508c-.174.279-.815 1.015-.815 1.015l-.536-.42h-.436l-.242.513c0 .15-.122.59-.122.59h-.374l-.9-.602-.136-.426.185-.339c-.033-.103-.256-2.079-.256-2.079s-.887-1.256-.917-1.242c-.03.014-1.004.586-1.004.586l-.177.31c-.097.084-1.183.62-1.183.62s-.856.835-.856.62c0-.079-.18-.254-.18-.254L21.88 16l-.573-.29-.247-.406-.425-.847-.613.582-.26-.214-.39.284-1.875.192c0 .106-.122.51-.122.51h.787l.242.24v.545l-.415.007-.478.035-.316.528.349.746.302.41.254.647s-.69 4.48-.755 4.545c-.024.024-.248-.013-.498-.083l-.683 1.069-.165 1 .165.873.793 2.044 1.353.63c1.344.626 3.255 1.391 3.49 1.397.066.002.278-.134.47-.301l3.57-1.87zM47.69 29.574l.504-.55.641-.935.078-1.321.267-.644c.083-.097.71-.532.994-1.093l.184-.587-.46-.1-.124-.325s.957-.757 1.166-.863l.71-.63c.478-.632 1.339-2.578 1.416-2.743.166-.355.052-1.384-.213-1.455-.264-.072-.979-.327-1.518-.348l-.733.231c-.109.138-.316.72-.316.72s-.325.151-.51.336c-.187.186-.658.618-.82.865l-.336.325.115-.585-.016-.38c-.095.043-.98.09-.98.09l-.287.185-.538-.643-.246-.816-1.658.121-.7-.935-.3-.388-.289-.318c-.031-.117-.268-1.09-.268-1.09l-.348-.451-.271-.326c-.073 0-.85-.485-.85-.485l-.589-.067-1.596.038-.97.018-.978-.034c-.072.027-.257.232-.257.232-.07.002-.928.381-.928.381l-.17-.104-.79.516s.064.78.142 1.296l.57 1.567 1.669.832 1.143.728v.154c0 .085-.594 1.48-1.321 3.102l-1.321 2.948s.164.324.213.406c.05.083.6 1.153.6 1.153s.204.904.282 1.028l.383.225.71.79 3.576.194c1.966.106 3.944.199 4.395.206l.82.013.122-.484zM32.999 51.799l.226-.078.78-.699-.407-.762-1.383-.04-.987.334-.143.44.302.511s-.122.494-.07.55l.587.11.49-.076.605-.29z" stroke="#34444C" opacity=".3" stroke-linecap="round" stroke-linejoin="round"/><path d="M38.371 42.273l.881.12.59.304s.613-.031.652-.07l.935-.017.259-.311.312.173.359.707.075-.298.263-.83c.18-.267.822-1.238.926-1.352l.55-.207s.486-.954.606-1.078l.48-.226s.471-1.694.606-1.988l.074-2.283.237-1.84c.118-.356-8.46-1.21-8.46-1.21l-.577-.577-.182-.19c-.097-.034-.629-.69-.629-.69 0-.29-.822.527-.822.527l-.11.131h-4.003s.047.344.093.582l-.06.92.396 1.303 1.042-.023-.375 3.804.442.494s.084.85.093 1.046l.07.835.213.691 1.233.495 1.24.179c.004.082-.17.513-.17.513l.13.594.687.285.322.674.47-.43.469-.431.683-.326z" stroke="#34444C" stroke-width="1.5" stroke-linecap="round" stroke-linejoin="round"/><path fill="#34444C" fill-rule="nonzero" d="M73 9v7.714h1.5V9z"/><path fill="#34444C" fill-rule="nonzero" d="M70 13.5h7.714V12H70zM70 23.5h7.714V22H70z"/></g></svg>