<svg width="88" height="68" xmlns="http://www.w3.org/2000/svg"><g fill="none" fill-rule="evenodd"><path d="M-824-632H456v3659H-824z"/><path stroke-opacity=".3" stroke="#34444C" stroke-linecap="square" d="M-.5-.5h337v69H-.5z"/><g fill-rule="nonzero" fill="#34444C"><path d="M18.5 34h4.364v-3.938H18.5V34zM17 28.562h7.364V35.5H17v-6.938zM41.818 25.906h4.364v-1.625h-4.364v1.625zm-1.5-3.125h7.364v4.625h-7.364v-4.625zM41.818 30.063v1.625h4.364v-1.625h-4.364zm-1.5-1.5h7.364v4.625h-7.364v-4.626z"/><path d="M18 26.406h5.364V18H18v8.406zM17 17h7.364v10.406H17V17zM41.318 20.625h5.364V18h-5.364v2.625zm-1-3.625h7.364v4.625h-7.364V17zM18 40.281h5.364v-2.625H18v2.625zm-1-3.625h7.364v4.625H17v-4.625zM41.318 35.344v1.468h5.364v-1.468h-5.364zm-1-1h7.364v3.468h-7.364v-3.468zM18 44.906h5.364v-1.468H18v1.468zm-1-2.468h7.364v3.468H17v-3.468z" opacity=".3"/><path d="M41.818 40.938h4.364v-.47h-4.364v.47zm-1.5-1.97h7.364v3.47h-7.364v-3.47z"/><path d="M18 48.313h5.364V48H18v.313zM17 47h7.364v2.313H17V47zM41.324 48.378h5.364v-.312h-5.364v.312zm-1-1.312h7.364v2.312h-7.364v-2.312zM41.318 44.906h5.364v-.312h-5.364v.312zm-1-1.312h7.364v2.312h-7.364v-2.312zM17 50.531h7.364v1.157H17zM40.315 50.512h7.363v1.156h-7.363zM40.315 52.855h7.363v1.156h-7.363zM17 52.855h7.364v1.156H17z" opacity=".3"/><path d="M65.136 36.313H69.5v-6.25h-4.364v6.25zm-1.5-7.75H71v9.25h-7.364v-9.25zM65.136 25.906H69.5V18.5h-4.364v7.406zM63.636 17H71v10.406h-7.364V17z"/><path d="M64.636 44.906H70V39.97h-5.364v4.937zm-1-5.937H71v6.937h-7.364V38.97z" opacity=".3"/><path d="M64.636 48.563h5.439v-.688h-5.439v.688zm-1-1.5H71v2.312h-7.364v-2.313z"/><path opacity=".3" d="M63.64 52.848h7.365v1.156H63.64zM63.64 50.517h7.365v1.156H63.64z"/><g opacity=".3"><path d="M24.364 32.781c2.207 0 3.069-.443 8.069-3.583 3.736-2.347 6.172-3.354 9.112-3.354v-1.5c-3.297 0-5.953 1.098-9.91 3.583-4.664 2.93-5.49 3.354-7.271 3.354v1.5zM55.542 24.374c3.79-.992 6.28-1.42 9.322-1.42v-1.5c-3.197 0-5.799.447-9.702 1.469-4.753 1.244-5.58 1.42-7.48 1.42v1.5c2.087 0 2.95-.184 7.86-1.469z"/><path d="M54.953 29.776c3.957 2.485 6.613 3.583 9.91 3.583v-1.5c-2.94 0-5.376-1.007-9.112-3.353-5-3.141-5.862-3.584-8.07-3.584v1.5c1.782 0 2.608.424 7.272 3.354z"/><path d="M55.199 32.765c3.892.815 6.483 1.172 9.665 1.172v-1.5c-3.057 0-5.558-.344-9.358-1.14-4.896-1.025-5.755-1.172-7.824-1.172v1.5c1.92 0 2.748.142 7.517 1.14z"/><path d="M54.72 39.95c3.996 6.274 6.65 9.019 10.144 9.019v-1.5c-2.745 0-5.183-2.52-8.88-8.325-.127-.2-1.598-2.535-2.02-3.188-.761-1.178-1.379-2.072-1.97-2.832-1.535-1.972-2.875-2.999-4.312-2.999v1.5c1.566 0 2.502 1.203 7.038 8.325z"/><path d="M54.93 45.081c3.962 2.696 6.623 3.888 9.934 3.888v-1.5c-2.928 0-5.36-1.09-9.09-3.628-5.01-3.41-5.87-3.888-8.092-3.888v1.5c1.766 0 2.594.461 7.248 3.628zM23.75 32.781c2.032 0 2.884-.073 7.749-.582 3.822-.4 6.345-.574 9.433-.574v-1.5c-3.15 0-5.72.177-9.59.582-4.8.503-5.635.574-7.592.574v1.5z"/><path d="M23.75 32.781c1.736 0 2.573.537 7.207 4.176 3.97 3.117 6.638 4.496 9.975 4.496v-1.5c-2.902 0-5.326-1.253-9.048-4.176-5.03-3.949-5.882-4.496-8.134-4.496v1.5z"/></g></g></g></svg>