<?xml version="1.0" encoding="UTF-8"?>
<svg width="88px" height="68px" viewBox="0 0 88 68" version="1.1" xmlns="http://www.w3.org/2000/svg" xmlns:xlink="http://www.w3.org/1999/xlink">
    <!-- Generator: Sketch 43.1 (39012) - http://www.bohemiancoding.com/sketch -->
    <title>Group 20</title>
    <desc>Created with Sketch.</desc>
    <defs></defs>
    <g id="Desktop" stroke="none" stroke-width="1" fill="none" fill-rule="evenodd">
        <g id="2-Factsheets---1-Place" transform="translate(-120.000000, -632.000000)">
            <rect id="Rectangle-8" x="0" y="0" width="1280" height="3659"></rect>
            <g id="Group-20" transform="translate(120.000000, 632.000000)">
                <rect id="Rectangle-3" stroke-opacity="0.3" stroke="#34444C" stroke-linecap="square" x="-0.5" y="-0.5" width="337" height="69"></rect>
                <g id="Group-14" transform="translate(13.000000, 16.000000)" fill-rule="nonzero" fill="#34444C">
                    <polygon id="Line" opacity="0.300000012" points="44 29.5 61 29.5 61 28 44 28"></polygon>
                    <polygon id="Line" opacity="0.300000012" points="44 19.5 58.9209675 19.5 58.9209675 18 44 18"></polygon>
                    <polygon id="Line" opacity="0.300000012" points="44 9.5 64.9209675 9.5 64.9209675 8 44 8"></polygon>
                    <polygon id="Line" opacity="0.300000012" points="44 24.5 49 24.5 49 23 44 23"></polygon>
                    <polygon id="Line" opacity="0.300000012" points="44 14.5 54.9209675 14.5 54.9209675 13 44 13"></polygon>
                    <polygon id="Line" opacity="0.300000012" points="40 29.5 42 29.5 42 28 40 28"></polygon>
                    <polygon id="Line" opacity="0.300000012" points="40 19.5 42 19.5 42 18 40 18"></polygon>
                    <polygon id="Line" opacity="0.300000012" points="40 9.5 42 9.5 42 8 40 8"></polygon>
                    <polygon id="Line" opacity="0.300000012" points="40 24.5 42 24.5 42 23 40 23"></polygon>
                    <polygon id="Line" opacity="0.300000012" points="40 14.5 42 14.5 42 13 40 13"></polygon>
                    <path d="M29.0303301,27.9696699 C28.2346221,27.1739619 27.5626518,26.5441927 26.5589796,25.7056817 C25.065182,24.4576989 23.38891,23.2450766 21.5137263,22.1086016 C16.4297903,19.0274283 10.6150666,16.9303148 4.07717436,16.2539812 L3.92282564,17.7460188 C10.2277905,18.3982566 15.8333676,20.4199401 20.7362737,23.3913984 C22.5441257,24.4870663 24.1594274,25.6555824 25.5972704,26.8568183 C26.5608833,27.661862 27.2028779,28.2635381 27.9696699,29.0303301 L29.0303301,27.9696699 Z" id="Path-20"></path>
                    <path d="M28.4696699,28.5303301 C28.5686838,28.629344 27.1574129,27.3592929 26.4177011,26.6200819 C25.1062998,25.3095686 23.8522903,23.8436324 22.673685,22.159777 C18.9627091,16.857962 16.75,10.5057476 16.75,3 L18.25,3 C18.25,10.181018 20.3600304,16.2384639 23.902565,21.2996293 C25.0279726,22.9074821 26.225606,24.3075147 27.478002,25.5590626 C28.1489867,26.2295929 29.4663572,27.4181464 29.5299124,27.4700876 L28.4696699,28.5303301 Z" id="Path-20"></path>
                    <path d="M30.3387974,26.6756069 C30.1856881,26.5224976 29.6645025,25.7759961 29.2033086,24.9614198 C28.5063755,23.7304729 27.9406132,22.3921914 27.5985742,21.0240353 C26.6620476,17.2779291 27.5092189,13.9466792 30.7814118,11.2880225 L29.8355228,10.1238515 C26.0747785,13.1794563 25.0745451,17.1125774 26.1433604,21.3878387 C26.8071423,24.0429662 28.4023551,26.860485 29.2781372,27.7362671 L30.3387974,26.6756069 Z" id="Path-20"></path>
                    <path d="M28.5644325,28.5061215 C24.2757587,23.60478 14.785415,25.2552745 13.2666482,32.3428532 L14.7333518,32.6571468 C15.9774882,26.8511771 23.9152791,25.4706917 27.4355675,29.4938785 L28.5644325,28.5061215 Z" id="Path-20"></path>
                    <path d="M35.4154332,16.2444094 C35.2707935,14.7966373 34.9456289,13.3787575 34.4501483,12.019249 C33.3181923,8.91336839 31.321964,6.18113343 28.7095379,4.15630795 L28.0969293,4.94669439 C30.5604634,6.85611749 32.443274,9.43311767 33.5106024,12.3616719 C33.9776224,13.6430896 34.2840695,14.979352 34.4203866,16.3438196 L35.4154332,16.2444094 Z" id="Path" opacity="0.300000012"></path>
                    <path d="M26.3777895,2.63049926 C24.4581662,1.58343499 22.3493558,0.902611797 20.1327135,0.630442346 C15.9402031,0.115666803 11.7936161,1.12014825 8.34378833,3.40483484 L8.89594299,4.23857655 C12.1490033,2.08420139 16.0569981,1.13751724 20.0108442,1.6229885 C22.1018109,1.87972694 24.0895658,2.52146772 25.8989384,3.50839541 L26.3777895,2.63049926 Z" id="Path" opacity="0.300000012"></path>
                    <path d="M5.99174613,5.2694296 C3.04236049,8.04851464 1.13465938,11.7607683 0.630442346,15.8672865 C0.0460245732,20.6269873 1.42346111,25.3180056 4.37240283,28.9790259 L5.15117893,28.3517239 C2.37014134,24.8991514 1.07186277,20.4777147 1.6229885,15.9891558 C2.09850558,12.11638 3.89642291,8.61775792 6.67752849,5.99723628 L5.99174613,5.2694296 Z" id="Path" opacity="0.300000012"></path>
                    <path d="M6.89461802,31.5276071 C7.51479997,32.0376948 8.16949596,32.5046659 8.85435062,32.9248877 C10.9708728,34.2235702 13.3487175,35.0603163 15.8672865,35.3695577 C16.8461663,35.489749 17.8249488,35.5276846 18.796515,35.4845596 C19.25103,35.4643849 19.703595,35.4264839 20.1534098,35.3710583 L20.0311159,34.3785643 C19.6071655,34.430803 19.1806036,34.4665263 18.7521715,34.4855432 C17.8360368,34.5262078 16.912851,34.490427 15.9891558,34.3770115 C13.61351,34.0853189 11.3723467,33.29667 9.37733977,32.0725484 C8.73176294,31.6764272 8.11456075,31.236199 7.52984254,30.7552795 L6.89461802,31.5276071 Z" id="Path" opacity="0.300000012"></path>
                    <path d="M23.9577026,34.724233 C27.4578988,33.4743965 30.4917412,31.1471012 32.6066237,28.091178 C34.2258264,25.7514929 35.263333,23.0492211 35.6176942,20.1631808 L34.128875,19.9803768 C33.8042799,22.6239912 32.8550468,25.0963476 31.3731925,27.2375695 C29.4368134,30.0355622 26.6579025,32.1672966 23.4532816,33.3115903 L23.9577026,34.724233 Z" id="Path"></path>
                </g>
            </g>
        </g>
    </g>
</svg>