<svg xmlns="http://www.w3.org/2000/svg" xmlns:xlink="http://www.w3.org/1999/xlink" viewBox="0 0 52 52">
  <defs/>
  <defs>
    <path id="a" d="M26 0c14.3594035 0 26 11.6405965 26 26S40.3594035 52 26 52 0 40.3594035 0 26 11.6405965 0 26 0zm-.159131 8.18722078c-9.9238998 0-17.96881008 8.03146402-17.96881008 17.93877702S15.9169692 44.0647749 25.840869 44.0647749c9.9238998 0 17.9688101-8.0314641 17.9688101-17.9387771 0-9.907313-8.0449103-17.93877702-17.9688101-17.93877702z"/>
  </defs>
  <g fill="none" fill-rule="evenodd">
    <mask id="b" fill="#fff">
      <use xlink:href="#a"/>
    </mask>
    <use fill="#34444C" fill-opacity="0" opacity=".30269061" xlink:href="#a"/>
    <path fill="#989C90" d="M.0401071 26L0-3h28v29z" mask="url(#b)"/>
    <path fill="#000" d="M25.7128906 25.8848387l24.9814453 28.7440675L53 25.8848387z" mask="url(#b)"/>
    <path fill="#505050" d="M24.8568052 24.2822266l-23.27282082 28H49.5839844z" mask="url(#b)"/>
    <path fill="#7A7879" d="M24.9955838 26L-4.81445312 60.6293945-15.1479492 26z" mask="url(#b)"/>
  </g>
</svg>
