<svg xmlns="http://www.w3.org/2000/svg" width="522" height="54" viewBox="0 0 522 54">
  <defs>
    <linearGradient id="a" x1="0%" x2="97.04%" y1="50%" y2="50%">
      <stop stop-color="#EB6A6A" offset="0%"/>
      <stop stop-color="#EB6A6A" stop-opacity="0" offset="100%"/>
    </linearGradient>
    <linearGradient id="b" x1="0%" y1="50%" y2="50%">
      <stop stop-color="#EB6A6A" stop-opacity="0" offset="0%"/>
      <stop stop-color="#EB696A" offset="100%"/>
    </linearGradient>
  </defs>
  <g fill="none" fill-rule="evenodd">
    <path fill="#6E6E6E" d="M319,53.6741116 L320,53.6741116 L320,0 L319,0 L319,53.6741116 Z M161.471157,20.1651132 L155,20.1651132 L155,15.4347722 L161.471157,15.4347722 L161.471157,8.83899827 L166.973358,8.83899827 L166.973358,15.4347722 L173.431799,15.4347722 L173.431799,20.1651132 L166.973358,20.1651132 L166.973358,31.9464599 C166.973358,34.0840145 168.064388,34.9487005 169.931093,34.9487005 C171.156912,34.9487005 172.251757,34.6753072 173.344059,34.129792 L173.344059,38.6337888 C171.978364,39.4069198 170.432102,39.8621516 168.384831,39.8621516 C164.336066,39.8621516 161.471157,38.0870021 161.471157,32.8111459 L161.471157,20.1651132 Z M187.936398,15.4343907 L193.438599,15.4343907 L193.438599,20.8475794 C194.942898,17.2540461 197.71498,14.7973206 201.945583,14.979159 L201.945583,20.8018019 L201.628955,20.8018019 C196.805788,20.8018019 193.438599,23.9401034 193.438599,30.3082614 L193.438599,39.4523158 L187.936398,39.4523158 L187.936398,15.4343907 Z M228.399379,39.4515529 L228.399379,36.4950897 C226.764106,38.450806 224.261603,39.9525621 220.622292,39.9525621 C216.072518,39.9525621 212.06953,37.3597757 212.06953,32.5378797 L212.06953,32.4463247 C212.06953,27.124691 216.211122,24.5776821 221.806149,24.5776821 C224.716834,24.5776821 226.579724,24.9871364 228.445157,25.578429 L228.445157,25.1231973 C228.445157,21.8030574 226.352108,19.983402 222.530959,19.983402 C219.846618,19.983402 217.845124,20.5746946 215.663063,21.4838865 L214.162579,17.0727163 C216.801143,15.8888595 219.391386,15.0712226 223.305362,15.0712226 C230.400873,15.0712226 233.859617,18.8008167 233.859617,25.2134807 L233.859617,39.4515529 L228.399379,39.4515529 Z M228.537983,29.3995782 C227.126511,28.8527914 225.172066,28.4446088 223.031968,28.4446088 C219.577039,28.4446088 217.529768,29.8535383 217.529768,32.1742029 L217.529768,32.2644863 C217.529768,34.5393735 219.577039,35.8135137 222.168554,35.8135137 C225.807865,35.8135137 228.537983,33.7662424 228.537983,30.7640018 L228.537983,29.3995782 Z M247.956924,32.5836572 C250.547167,34.5393735 253.370112,35.5401203 255.826838,35.5401203 C258.190737,35.5401203 259.55516,34.5393735 259.55516,32.9473339 L259.55516,32.855779 C259.55516,30.9916177 257.009423,30.3545476 254.187749,29.4898616 C250.639993,28.4891147 246.684055,27.0344077 246.684055,22.4401275 L246.684055,22.3485725 C246.684055,17.8000699 250.459427,15.0241735 255.236817,15.0241735 C258.236514,15.0241735 261.51342,16.0719695 264.059157,17.7542924 L261.875825,21.6669965 C259.55516,20.2555238 257.098435,19.3921094 255.098213,19.3921094 C252.96193,19.3921094 251.731024,20.3915846 251.731024,21.8030574 L251.731024,21.8933408 C251.731024,23.6227128 254.326353,24.3500663 257.145484,25.2605298 C260.64619,26.35156 264.605944,27.9435995 264.605944,32.2644863 L264.605944,32.3560413 C264.605944,37.4055532 260.69324,39.9067846 255.690777,39.9067846 C252.279082,39.9067846 248.50371,38.6784219 245.500198,36.3132513 L247.956924,32.5836572 Z M273.214147,27.4428446 C273.214147,20.5749489 278.080549,14.9341444 284.950988,14.9341444 C292.593286,14.9341444 296.45767,20.9386257 296.45767,27.8522989 C296.45767,28.3533081 296.414435,28.8530458 296.368658,29.3998325 L278.720162,29.3998325 C279.310183,33.311265 282.08608,35.4945972 285.633836,35.4945972 C288.316905,35.4945972 290.226844,34.4938503 292.139326,32.6284174 L295.366639,35.4945972 C293.091752,38.2234444 289.952179,39.9973223 285.541009,39.9973223 C278.581558,39.9973223 273.214147,34.9478104 273.214147,27.5343996 L273.214147,27.4428446 Z M291.001247,25.7605217 C290.635027,22.2127659 288.544521,19.4381412 284.90521,19.4381412 C281.539293,19.4381412 279.175394,22.029656 278.674385,25.7605217 L291.001247,25.7605217 Z M345.385545,24.3618921 C345.385545,24.4394595 345.35757,24.5081258 345.299077,24.5653477 C345.240583,24.6238411 345.159201,24.6518163 345.052387,24.6518163 L344.501785,24.6518163 C344.396243,24.6518163 344.313589,24.6238411 344.256367,24.5653477 C344.197874,24.5081258 344.168627,24.4394595 344.168627,24.3618921 L344.168627,15.6539955 L342.271404,15.6539955 C342.193837,15.6539955 342.12517,15.6260204 342.066677,15.5675269 C342.010727,15.510305 341.98148,15.4276512 341.98148,15.3221087 L341.98148,14.8427166 C341.98148,14.737174 342.010727,14.6545202 342.066677,14.5972984 C342.12517,14.5388049 342.193837,14.5108298 342.271404,14.5108298 L347.28404,14.5108298 C347.360335,14.5108298 347.42773,14.5388049 347.486224,14.5972984 C347.544717,14.6545202 347.573964,14.737174 347.573964,14.8427166 L347.573964,15.3221087 C347.573964,15.4276512 347.544717,15.510305 347.486224,15.5675269 C347.42773,15.6260204 347.360335,15.6539955 347.28404,15.6539955 L345.385545,15.6539955 L345.385545,24.3618921 Z M356.112356,24.2897926 C356.150504,24.3864339 356.169578,24.4500138 356.169578,24.4779889 C356.169578,24.5937043 356.088196,24.6521977 355.92416,24.6521977 L355.213337,24.6521977 C355.030227,24.6521977 354.900524,24.5606427 354.821685,24.3775328 L353.402583,20.9569367 L352.05469,20.9569367 L352.05469,24.3622736 C352.05469,24.439841 352.026715,24.5072357 351.968222,24.5657291 C351.909728,24.6242226 351.828346,24.6521977 351.721532,24.6521977 L351.17093,24.6521977 C351.065388,24.6521977 350.982734,24.6242226 350.925512,24.5657291 C350.867019,24.5072357 350.839043,24.439841 350.839043,24.3622736 L350.839043,14.8011354 C350.839043,14.7222964 350.867019,14.6549017 350.925512,14.5964082 C350.982734,14.5391864 351.065388,14.5099396 351.17093,14.5099396 L353.604767,14.5099396 C354.253282,14.5099396 354.80134,14.7299259 355.250214,15.1698985 C355.699087,15.6085995 355.92416,16.1426703 355.92416,16.7695676 L355.92416,18.6973087 C355.92416,19.1601701 355.807173,19.5747107 355.575743,19.9371159 C355.344312,20.299521 355.020055,20.5703712 354.605514,20.7547528 L356.112356,24.2897926 Z M354.691983,16.75558 C354.691983,16.4567547 354.581354,16.1973489 354.358824,15.9811774 C354.137566,15.7637343 353.870531,15.654377 353.562804,15.654377 L352.05469,15.654377 L352.05469,19.8277585 L353.562804,19.8277585 C353.870531,19.8277585 354.137566,19.7209444 354.358824,19.5085877 C354.581354,19.2962309 354.691983,19.0406399 354.691983,18.740543 L354.691983,16.75558 Z M364.867302,20.0438029 C364.925796,20.2180117 364.953771,20.3922204 364.953771,20.5664292 L364.953771,24.3621464 C364.953771,24.4397139 364.925796,24.5071085 364.867302,24.565602 C364.81008,24.6240954 364.727427,24.6520706 364.621884,24.6520706 L364.070011,24.6520706 C363.964468,24.6520706 363.881814,24.6240954 363.824593,24.565602 C363.766099,24.5071085 363.738124,24.4397139 363.738124,24.3621464 L363.738124,21.4222141 L360.593464,21.4222141 L360.593464,24.3621464 C360.593464,24.4397139 360.564218,24.5071085 360.505724,24.565602 C360.448502,24.6240954 360.365849,24.6520706 360.260306,24.6520706 L359.708433,24.6520706 C359.60289,24.6520706 359.520237,24.6240954 359.463015,24.565602 C359.405793,24.5071085 359.376546,24.4397139 359.376546,24.3621464 L359.376546,20.5664292 C359.376546,20.3922204 359.405793,20.2141969 359.463015,20.0298153 L361.042338,14.8010082 C361.100832,14.6064539 361.216547,14.5098125 361.390756,14.5098125 L362.940833,14.5098125 C363.115041,14.5098125 363.229485,14.6064539 363.287979,14.8010082 L364.867302,20.0438029 Z M362.302491,15.6542498 L362.027826,15.6542498 L360.651958,20.2904927 L363.693618,20.2904927 L362.302491,15.6542498 Z M373.651749,24.3618921 C373.651749,24.4394595 373.623774,24.5081258 373.56528,24.5653477 C373.506787,24.6238411 373.425405,24.6518163 373.318591,24.6518163 L372.493324,24.6518163 C372.348362,24.6518163 372.237733,24.5564465 372.160166,24.3618921 L369.538132,17.5817366 L369.203702,16.4372993 L369.117234,16.4372993 L369.291443,18.117079 L369.291443,24.3618921 C369.291443,24.4394595 369.262196,24.5081258 369.203702,24.5653477 C369.145209,24.6238411 369.063827,24.6518163 368.957013,24.6518163 L368.406411,24.6518163 C368.300869,24.6518163 368.218215,24.6238411 368.160993,24.5653477 C368.103771,24.5081258 368.074524,24.4394595 368.074524,24.3618921 L368.074524,14.8007539 C368.074524,14.7231865 368.103771,14.6545202 368.160993,14.5972984 C368.218215,14.5388049 368.300869,14.5108298 368.406411,14.5108298 L369.232949,14.5108298 C369.377911,14.5108298 369.489812,14.6061995 369.566108,14.8007539 L372.2034,21.6241437 L372.522571,22.7253467 L372.609039,22.7253467 L372.436102,21.1167764 L372.436102,14.8007539 C372.436102,14.7231865 372.464077,14.6545202 372.522571,14.5972984 C372.579793,14.5388049 372.662446,14.5108298 372.767989,14.5108298 L373.318591,14.5108298 C373.425405,14.5108298 373.506787,14.5388049 373.56528,14.5972984 C373.623774,14.6545202 373.651749,14.7231865 373.651749,14.8007539 L373.651749,24.3618921 Z M376.686034,22.0297831 C376.686034,21.9522157 376.714009,21.8848211 376.772502,21.8263276 C376.829724,21.7678341 376.912378,21.739859 377.017921,21.739859 L377.568522,21.739859 C377.675336,21.739859 377.756719,21.7678341 377.815212,21.8263276 C377.873705,21.8848211 377.901681,21.9522157 377.901681,22.0297831 C377.901681,22.4926445 378.049186,22.87921 378.344196,23.188208 C378.639207,23.4984777 379.04739,23.652341 379.567473,23.652341 C380.05068,23.652341 380.442332,23.5150085 380.741157,23.2390719 C381.041254,22.964407 381.191302,22.6337917 381.191302,22.2472262 C381.191302,21.7538466 381.041254,21.3367627 380.741157,20.9947031 C380.442332,20.6513719 380.079926,20.3716206 379.655213,20.1529059 C379.2305,19.9367344 378.803243,19.7091185 378.373443,19.4726015 C377.942372,19.2360844 377.578695,18.9118272 377.278598,18.5023729 C376.979773,18.0916471 376.829724,17.5969958 376.829724,17.015876 C376.829724,16.2630905 377.098031,15.63365 377.634645,15.1262827 C378.169988,14.6189155 378.819774,14.3658677 379.584004,14.3658677 C380.394011,14.3658677 381.051427,14.6303599 381.552436,15.1618875 C382.054717,15.693415 382.306493,16.2287574 382.306493,16.7691861 C382.306493,16.8480251 382.277246,16.9154198 382.218753,16.9739133 C382.161531,17.0311351 382.078877,17.0603819 381.973334,17.0603819 L381.422733,17.0603819 C381.219277,17.0603819 381.10992,16.9637405 381.089574,16.7691861 C381.060328,16.4805336 380.903921,16.2033254 380.617812,15.9375617 C380.334246,15.6717979 379.988371,15.5395518 379.584004,15.5395518 C379.156747,15.5395518 378.798157,15.6743411 378.503146,15.9439196 C378.209407,16.2147698 378.061902,16.5491998 378.061902,16.9433949 C378.061902,17.3299604 378.21195,17.665662 378.510776,17.9517714 C378.810872,18.2366091 379.174549,18.4871137 379.604349,18.7045568 C380.03542,18.9219999 380.463949,19.158517 380.893748,19.414108 C381.323548,19.6709706 381.688497,20.0282894 381.987322,20.4873359 C382.287419,20.9463824 382.437467,21.4931692 382.437467,22.1302393 C382.437467,22.8359757 382.178061,23.4577866 381.661793,23.9918574 C381.144253,24.5284713 380.447418,24.7967783 379.567473,24.7967783 C378.669725,24.7967783 377.96526,24.5322861 377.452807,23.999487 C376.940353,23.469231 376.686034,22.8118153 376.686034,22.0297831 Z M387.179634,24.3622736 C387.179634,24.439841 387.150387,24.5072357 387.091894,24.5657291 C387.033401,24.6242226 386.967277,24.6521977 386.88971,24.6521977 L386.294603,24.6521977 C386.18906,24.6521977 386.106406,24.6242226 386.049184,24.5657291 C385.991963,24.5072357 385.962716,24.439841 385.962716,24.3622736 L385.962716,14.8011354 C385.962716,14.7222964 385.991963,14.6549017 386.049184,14.5964082 C386.106406,14.5391864 386.18906,14.5099396 386.294603,14.5099396 L388.729711,14.5099396 C389.376954,14.5099396 389.925012,14.7299259 390.373886,15.1698985 C390.824031,15.6085995 391.047832,16.1426703 391.047832,16.7695676 L391.047832,18.8562584 C391.047832,19.4946001 390.824031,20.0324856 390.373886,20.4711866 C389.925012,20.9124308 389.376954,21.1311455 388.729711,21.1311455 L387.179634,21.1311455 L387.179634,24.3622736 Z M389.815655,16.75558 C389.815655,16.446582 389.705026,16.1859046 389.482496,15.9735479 C389.261239,15.7611911 388.990388,15.654377 388.671218,15.654377 L387.179634,15.654377 L387.179634,19.9879797 L388.671218,19.9879797 C388.990388,19.9879797 389.261239,19.879894 389.482496,19.6675373 C389.705026,19.4551806 389.815655,19.1995896 389.815655,18.9007643 L389.815655,16.75558 Z M399.656926,20.0438029 C399.715419,20.2180117 399.743395,20.3922204 399.743395,20.5664292 L399.743395,24.3621464 C399.743395,24.4397139 399.715419,24.5071085 399.656926,24.565602 C399.599704,24.6240954 399.51705,24.6520706 399.411508,24.6520706 L398.859635,24.6520706 C398.754092,24.6520706 398.671438,24.6240954 398.614216,24.565602 C398.555723,24.5071085 398.527748,24.4397139 398.527748,24.3621464 L398.527748,21.4222141 L395.383088,21.4222141 L395.383088,24.3621464 C395.383088,24.4397139 395.353842,24.5071085 395.295348,24.565602 C395.238126,24.6240954 395.155472,24.6520706 395.04993,24.6520706 L394.498057,24.6520706 C394.392514,24.6520706 394.30986,24.6240954 394.252638,24.565602 C394.195417,24.5071085 394.16617,24.4397139 394.16617,24.3621464 L394.16617,20.5664292 C394.16617,20.3922204 394.195417,20.2141969 394.252638,20.0298153 L395.831962,14.8010082 C395.890455,14.6064539 396.006171,14.5098125 396.18038,14.5098125 L397.730456,14.5098125 C397.904665,14.5098125 398.019109,14.6064539 398.077602,14.8010082 L399.656926,20.0438029 Z M397.092115,15.6542498 L396.81745,15.6542498 L395.441582,20.2904927 L398.483242,20.2904927 L397.092115,15.6542498 Z M408.297428,24.2897926 C408.335576,24.3864339 408.35465,24.4500138 408.35465,24.4779889 C408.35465,24.5937043 408.273268,24.6521977 408.109232,24.6521977 L407.398409,24.6521977 C407.215299,24.6521977 407.085596,24.5606427 407.006757,24.3775328 L405.587655,20.9569367 L404.239762,20.9569367 L404.239762,24.3622736 C404.239762,24.439841 404.211787,24.5072357 404.153293,24.5657291 C404.0948,24.6242226 404.013417,24.6521977 403.906603,24.6521977 L403.356002,24.6521977 C403.250459,24.6521977 403.167805,24.6242226 403.110584,24.5657291 C403.05209,24.5072357 403.024115,24.439841 403.024115,24.3622736 L403.024115,14.8011354 C403.024115,14.7222964 403.05209,14.6549017 403.110584,14.5964082 C403.167805,14.5391864 403.250459,14.5099396 403.356002,14.5099396 L405.789839,14.5099396 C406.438353,14.5099396 406.986411,14.7299259 407.435285,15.1698985 C407.884159,15.6085995 408.109232,16.1426703 408.109232,16.7695676 L408.109232,18.6973087 C408.109232,19.1601701 407.992245,19.5747107 407.760814,19.9371159 C407.529383,20.299521 407.205126,20.5703712 406.790585,20.7547528 L408.297428,24.2897926 Z M406.877054,16.75558 C406.877054,16.4567547 406.766425,16.1973489 406.543896,15.9811774 C406.322638,15.7637343 406.055602,15.654377 405.747876,15.654377 L404.239762,15.654377 L404.239762,19.8277585 L405.747876,19.8277585 C406.055602,19.8277585 406.322638,19.7209444 406.543896,19.5085877 C406.766425,19.2962309 406.877054,19.0406399 406.877054,18.740543 L406.877054,16.75558 Z M412.155962,24.6520706 C412.050419,24.6520706 411.967766,24.6240954 411.909272,24.565602 C411.85205,24.5071085 411.821532,24.4397139 411.821532,24.3621464 L411.821532,14.8010082 C411.821532,14.7221692 411.85205,14.6547745 411.909272,14.5962811 C411.967766,14.5390592 412.050419,14.5098125 412.155962,14.5098125 L416.488293,14.5098125 C416.564589,14.5098125 416.631984,14.5390592 416.690477,14.5962811 C416.748971,14.6547745 416.776946,14.7374284 416.776946,14.8429709 L416.776946,15.3210914 C416.776946,15.4279056 416.748971,15.5092878 416.690477,15.5677812 C416.631984,15.6262747 416.564589,15.6542498 416.488293,15.6542498 L413.039722,15.6542498 L413.039722,18.7404159 L416.139876,18.7404159 C416.217443,18.7404159 416.283566,18.7696626 416.342059,18.8281561 C416.400553,18.8866495 416.4298,18.9680317 416.4298,19.0748459 L416.4298,19.5377072 C416.4298,19.6432498 416.400553,19.7259036 416.342059,19.7831255 C416.283566,19.8416189 416.217443,19.8708657 416.139876,19.8708657 L413.039722,19.8708657 L413.039722,23.5063616 L416.604008,23.5063616 C416.680304,23.5063616 416.748971,23.53688 416.806192,23.5941018 C416.864686,23.6525953 416.892661,23.7352491 416.892661,23.8407917 L416.892661,24.3189121 C416.892661,24.4257263 416.864686,24.5071085 416.806192,24.565602 C416.748971,24.6240954 416.680304,24.6520706 416.604008,24.6520706 L412.155962,24.6520706 Z M425.83682,24.3618921 C425.83682,24.4394595 425.808845,24.5081258 425.750352,24.5653477 C425.691858,24.6238411 425.610476,24.6518163 425.503662,24.6518163 L424.678395,24.6518163 C424.533433,24.6518163 424.422804,24.5564465 424.345237,24.3618921 L421.723204,17.5817366 L421.388774,16.4372993 L421.302305,16.4372993 L421.476514,18.117079 L421.476514,24.3618921 C421.476514,24.4394595 421.447267,24.5081258 421.388774,24.5653477 C421.33028,24.6238411 421.248898,24.6518163 421.142084,24.6518163 L420.591483,24.6518163 C420.48594,24.6518163 420.403286,24.6238411 420.346064,24.5653477 C420.288842,24.5081258 420.259596,24.4394595 420.259596,24.3618921 L420.259596,14.8007539 C420.259596,14.7231865 420.288842,14.6545202 420.346064,14.5972984 C420.403286,14.5388049 420.48594,14.5108298 420.591483,14.5108298 L421.418021,14.5108298 C421.562983,14.5108298 421.674883,14.6061995 421.751179,14.8007539 L424.388471,21.6241437 L424.707642,22.7253467 L424.794111,22.7253467 L424.621174,21.1167764 L424.621174,14.8007539 C424.621174,14.7231865 424.649149,14.6545202 424.707642,14.5972984 C424.764864,14.5388049 424.847518,14.5108298 424.95306,14.5108298 L425.503662,14.5108298 C425.610476,14.5108298 425.691858,14.5388049 425.750352,14.5972984 C425.808845,14.6545202 425.83682,14.7231865 425.83682,14.8007539 L425.83682,24.3618921 Z M431.898269,24.7966512 C431.106064,24.7966512 430.442291,24.5359738 429.905677,24.014619 C429.370334,23.4932642 429.100756,22.8600088 429.100756,22.1161246 L429.100756,17.0322796 C429.100756,16.2871237 429.370334,15.6576831 429.905677,15.1401431 C430.442291,14.6238747 431.106064,14.3657405 431.898269,14.3657405 C432.719721,14.3657405 433.380951,14.6289611 433.883232,15.1541307 C434.385513,15.6818435 434.636018,16.2146427 434.636018,16.7550714 C434.636018,16.8339104 434.606771,16.9013051 434.549549,16.9597985 C434.492327,17.0157488 434.409673,17.0462671 434.304131,17.0462671 L433.753529,17.0462671 C433.548802,17.0462671 433.439445,16.9496257 433.419099,16.7550714 C433.391124,16.4664189 433.230903,16.1866675 432.94225,15.9158173 C432.652326,15.6462388 432.303909,15.5101779 431.898269,15.5101779 C431.454482,15.5101779 431.081904,15.6538684 430.783079,15.9450641 C430.482982,16.2349882 430.332933,16.5910354 430.332933,17.0157488 L430.332933,22.1313837 C430.332933,22.5560972 430.482982,22.9172307 430.783079,23.2109696 C431.081904,23.5059802 431.454482,23.6522138 431.898269,23.6522138 C432.322983,23.6522138 432.686659,23.5059802 432.991843,23.2109696 C433.295754,22.9172307 433.448346,22.5560972 433.448346,22.1313837 C433.448346,22.0550879 433.477593,21.9864217 433.534815,21.9279282 C433.593308,21.8707063 433.67469,21.8427312 433.781504,21.8427312 L434.332106,21.8427312 C434.43892,21.8427312 434.520302,21.8707063 434.578796,21.9279282 C434.636018,21.9864217 434.665264,22.0550879 434.665264,22.1313837 C434.665264,22.875268 434.399501,23.5059802 433.869245,24.0222486 C433.336445,24.538517 432.680301,24.7966512 431.898269,24.7966512 Z M441.059236,24.3618921 C441.059236,24.4394595 441.031261,24.5081258 440.972767,24.5653477 C440.914274,24.6238411 440.832892,24.6518163 440.726077,24.6518163 L440.175476,24.6518163 C440.069933,24.6518163 439.98728,24.6238411 439.930058,24.5653477 C439.871564,24.5081258 439.842317,24.4394595 439.842317,24.3618921 L439.842317,19.8553522 L437.363975,14.8732349 C437.325827,14.7943959 437.306753,14.7320876 437.306753,14.6850386 C437.306753,14.5680516 437.388135,14.5108298 437.552171,14.5108298 L438.262994,14.5108298 C438.447375,14.5108298 438.582165,14.6061995 438.668633,14.8007539 L440.450141,18.4934717 L442.23292,14.8007539 C442.32066,14.6061995 442.455449,14.5108298 442.638559,14.5108298 L443.348111,14.5108298 C443.512147,14.5108298 443.5948,14.5680516 443.5948,14.6850386 C443.5948,14.7320876 443.575726,14.7943959 443.536307,14.8732349 L441.059236,19.8553522 L441.059236,24.3618921 Z M456.03547,24.6520706 C455.929928,24.6520706 455.847274,24.6240954 455.78878,24.565602 C455.731558,24.5071085 455.702312,24.4397139 455.702312,24.3621464 L455.702312,14.8010082 C455.702312,14.7221692 455.731558,14.6547745 455.78878,14.5962811 C455.847274,14.5390592 455.929928,14.5098125 456.03547,14.5098125 L460.367801,14.5098125 C460.445369,14.5098125 460.511492,14.5390592 460.569985,14.5962811 C460.628479,14.6547745 460.657725,14.7374284 460.657725,14.8429709 L460.657725,15.3210914 C460.657725,15.4279056 460.628479,15.5092878 460.569985,15.5677812 C460.511492,15.6262747 460.445369,15.6542498 460.367801,15.6542498 L456.91923,15.6542498 L456.91923,18.7404159 L460.019384,18.7404159 C460.096951,18.7404159 460.164346,18.7696626 460.222839,18.8281561 C460.281333,18.8866495 460.309308,18.9680317 460.309308,19.0748459 L460.309308,19.5377072 C460.309308,19.6432498 460.281333,19.7259036 460.222839,19.7831255 C460.164346,19.8416189 460.096951,19.8708657 460.019384,19.8708657 L456.91923,19.8708657 L456.91923,24.3621464 C456.91923,24.4397139 456.889983,24.5071085 456.832761,24.565602 C456.774268,24.6240954 456.706873,24.6520706 456.630578,24.6520706 L456.03547,24.6520706 Z M469.428057,22.1304936 C469.428057,22.83623 469.164837,23.4567693 468.637124,23.9921117 C468.110683,24.5287257 467.418934,24.7970326 466.559334,24.7970326 C465.680661,24.7970326 464.980011,24.5287257 464.458656,23.9921117 C463.93603,23.4567693 463.675352,22.8311436 463.675352,22.1165061 L463.675352,17.0313894 C463.675352,16.3167519 463.93603,15.6936693 464.458656,15.1621418 C464.980011,14.6306142 465.680661,14.366122 466.559334,14.366122 C467.418934,14.366122 468.110683,14.6331574 468.637124,15.1697714 C469.164837,15.7051137 469.428057,16.3269247 469.428057,17.0313894 L469.428057,22.1304936 Z M468.19588,17.0161303 C468.19588,16.6117624 468.048375,16.2582584 467.754636,15.9581615 C467.459625,15.6593362 467.060344,15.5092878 466.559334,15.5092878 C466.046881,15.5092878 465.643785,15.6593362 465.348774,15.9581615 C465.055035,16.2582584 464.90753,16.6117624 464.90753,17.0161303 L464.90753,22.1304936 C464.90753,22.5475775 465.055035,22.9036246 465.348774,23.2037215 C465.643785,23.5025468 466.046881,23.6525953 466.559334,23.6525953 C467.060344,23.6525953 467.459625,23.5025468 467.754636,23.2037215 C468.048375,22.9036246 468.19588,22.5513922 468.19588,22.1444812 L468.19588,17.0161303 Z M477.879346,24.2897926 C477.917494,24.3864339 477.936568,24.4500138 477.936568,24.4779889 C477.936568,24.5937043 477.855185,24.6521977 477.691149,24.6521977 L476.980327,24.6521977 C476.797217,24.6521977 476.667514,24.5606427 476.588675,24.3775328 L475.169572,20.9569367 L473.82168,20.9569367 L473.82168,24.3622736 C473.82168,24.439841 473.793704,24.5072357 473.735211,24.5657291 C473.676718,24.6242226 473.595335,24.6521977 473.488521,24.6521977 L472.93792,24.6521977 C472.832377,24.6521977 472.749723,24.6242226 472.692501,24.5657291 C472.634008,24.5072357 472.606033,24.439841 472.606033,24.3622736 L472.606033,14.8011354 C472.606033,14.7222964 472.634008,14.6549017 472.692501,14.5964082 C472.749723,14.5391864 472.832377,14.5099396 472.93792,14.5099396 L475.371756,14.5099396 C476.020271,14.5099396 476.568329,14.7299259 477.017203,15.1698985 C477.466077,15.6085995 477.691149,16.1426703 477.691149,16.7695676 L477.691149,18.6973087 C477.691149,19.1601701 477.574162,19.5747107 477.342732,19.9371159 C477.111301,20.299521 476.787044,20.5703712 476.372503,20.7547528 L477.879346,24.2897926 Z M476.458972,16.75558 C476.458972,16.4567547 476.348343,16.1973489 476.125813,15.9811774 C475.904556,15.7637343 475.63752,15.654377 475.329794,15.654377 L473.82168,15.654377 L473.82168,19.8277585 L475.329794,19.8277585 C475.63752,19.8277585 475.904556,19.7209444 476.125813,19.5085877 C476.348343,19.2962309 476.458972,19.0406399 476.458972,18.740543 L476.458972,16.75558 Z M341.895011,36.5261167 C341.895011,36.4485493 341.922986,36.3811546 341.98148,36.3226612 C342.038702,36.2641677 342.121356,36.2361926 342.226898,36.2361926 L342.7775,36.2361926 C342.884314,36.2361926 342.965696,36.2641677 343.024189,36.3226612 C343.082683,36.3811546 343.110658,36.4485493 343.110658,36.5261167 C343.110658,36.988978 343.258163,37.3755435 343.553174,37.6845416 C343.848184,37.9948113 344.256367,38.1486745 344.77645,38.1486745 C345.259657,38.1486745 345.651309,38.011342 345.950134,37.7354055 C346.250231,37.4607405 346.40028,37.1301253 346.40028,36.7435598 C346.40028,36.2501801 346.250231,35.8330963 345.950134,35.4910367 C345.651309,35.1477055 345.288904,34.8679541 344.86419,34.6492394 C344.439477,34.4330679 344.01222,34.2054521 343.582421,33.968935 C343.151349,33.732418 342.787672,33.4081607 342.487576,32.9987065 C342.18875,32.5879806 342.038702,32.0933294 342.038702,31.5122095 C342.038702,30.7594241 342.307009,30.1299835 342.842351,29.6226163 C343.378965,29.1152491 344.028751,28.8622013 344.791709,28.8622013 C345.602988,28.8622013 346.260404,29.1266934 346.761413,29.658221 C347.263694,30.1897486 347.51547,30.7250909 347.51547,31.2655197 C347.51547,31.3443587 347.486224,31.4117533 347.42773,31.4702468 C347.370508,31.5274687 347.287854,31.5567154 347.182312,31.5567154 L346.63171,31.5567154 C346.428255,31.5567154 346.318897,31.460074 346.298552,31.2655197 C346.269305,30.9768672 346.112899,30.699659 345.826789,30.4338952 C345.543223,30.1681314 345.197349,30.0358853 344.791709,30.0358853 C344.365724,30.0358853 344.007134,30.1706746 343.712124,30.4402532 C343.417113,30.7111034 343.270879,31.0455334 343.270879,31.4397285 C343.270879,31.826294 343.420928,32.1619956 343.719753,32.4481049 C344.01985,32.7329427 344.383527,32.9834473 344.813327,33.2008904 C345.244398,33.4183335 345.672926,33.6548505 346.102726,33.9104416 C346.532526,34.1673042 346.897474,34.5246229 347.196299,34.9836695 C347.496396,35.442716 347.646445,35.9895027 347.646445,36.6265729 C347.646445,37.3323092 347.387039,37.9541202 346.870771,38.4881909 C346.353231,39.0248049 345.656395,39.2931119 344.77645,39.2931119 C343.878703,39.2931119 343.174238,39.0286197 342.661784,38.4958205 C342.149331,37.9655646 341.895011,37.3081489 341.895011,36.5261167 Z M356.314286,36.6270815 C356.314286,37.3620646 356.053609,37.9889619 355.532254,38.5115883 C355.010899,39.0316715 354.325508,39.2923489 353.47481,39.2923489 C352.61521,39.2923489 351.923461,39.0316715 351.395749,38.5115883 C350.869308,37.9889619 350.606087,37.3557066 350.606087,36.6130939 L350.606087,29.2963245 C350.606087,29.2187571 350.635334,29.1513624 350.692556,29.092869 C350.751049,29.0343755 350.832431,29.0064004 350.939245,29.0064004 L351.489847,29.0064004 C351.595389,29.0064004 351.678043,29.0343755 351.736537,29.092869 C351.793759,29.1513624 351.824277,29.2187571 351.824277,29.2963245 L351.824277,36.6270815 C351.824277,37.0339926 351.967967,37.3887681 352.257891,37.6914082 C352.547816,37.9965915 352.953455,38.1491832 353.47481,38.1491832 C353.977091,38.1491832 354.373829,37.9965915 354.663753,37.6914082 C354.952406,37.3887681 355.098639,37.0378073 355.098639,36.6410691 L355.098639,29.2963245 C355.098639,29.2187571 355.126614,29.1513624 355.185108,29.092869 C355.24233,29.0343755 355.324984,29.0064004 355.430526,29.0064004 L355.981128,29.0064004 C356.087942,29.0064004 356.169324,29.0343755 356.227817,29.092869 C356.286311,29.1513624 356.314286,29.2187571 356.314286,29.2963245 L356.314286,36.6270815 Z M359.290459,36.5261167 C359.290459,36.4485493 359.318434,36.3811546 359.376928,36.3226612 C359.434149,36.2641677 359.516803,36.2361926 359.622346,36.2361926 L360.172947,36.2361926 C360.279761,36.2361926 360.361144,36.2641677 360.419637,36.3226612 C360.478131,36.3811546 360.506106,36.4485493 360.506106,36.5261167 C360.506106,36.988978 360.653611,37.3755435 360.948622,37.6845416 C361.243632,37.9948113 361.651815,38.1486745 362.171898,38.1486745 C362.655105,38.1486745 363.046757,38.011342 363.345582,37.7354055 C363.645679,37.4607405 363.795727,37.1301253 363.795727,36.7435598 C363.795727,36.2501801 363.645679,35.8330963 363.345582,35.4910367 C363.046757,35.1477055 362.684352,34.8679541 362.259638,34.6492394 C361.834925,34.4330679 361.407668,34.2054521 360.977868,33.968935 C360.546797,33.732418 360.18312,33.4081607 359.883023,32.9987065 C359.584198,32.5879806 359.434149,32.0933294 359.434149,31.5122095 C359.434149,30.7594241 359.702456,30.1299835 360.23907,29.6226163 C360.774413,29.1152491 361.424199,28.8622013 362.188429,28.8622013 C362.998436,28.8622013 363.655852,29.1266934 364.156861,29.658221 C364.659142,30.1897486 364.910918,30.7250909 364.910918,31.2655197 C364.910918,31.3443587 364.881671,31.4117533 364.823178,31.4702468 C364.765956,31.5274687 364.683302,31.5567154 364.57776,31.5567154 L364.027158,31.5567154 C363.823702,31.5567154 363.714345,31.460074 363.694,31.2655197 C363.664753,30.9768672 363.508346,30.699659 363.222237,30.4338952 C362.938671,30.1681314 362.592797,30.0358853 362.188429,30.0358853 C361.761172,30.0358853 361.402582,30.1706746 361.107571,30.4402532 C360.813832,30.7111034 360.666327,31.0455334 360.666327,31.4397285 C360.666327,31.826294 360.816375,32.1619956 361.115201,32.4481049 C361.415298,32.7329427 361.778974,32.9834473 362.208774,33.2008904 C362.639846,33.4183335 363.068374,33.6548505 363.498174,33.9104416 C363.927973,34.1673042 364.292922,34.5246229 364.591747,34.9836695 C364.891844,35.442716 365.041892,35.9895027 365.041892,36.6265729 C365.041892,37.3323092 364.782487,37.9541202 364.266218,38.4881909 C363.748678,39.0248049 363.051843,39.2931119 362.171898,39.2931119 C361.27415,39.2931119 360.569686,39.0286197 360.057232,38.4958205 C359.544778,37.9655646 359.290459,37.3081489 359.290459,36.5261167 Z M371.478717,38.8582257 C371.478717,38.9357931 371.450742,39.0044593 371.392248,39.0616812 C371.333755,39.1201747 371.252372,39.1481498 371.145558,39.1481498 L370.594957,39.1481498 C370.489414,39.1481498 370.40676,39.1201747 370.349539,39.0616812 C370.291045,39.0044593 370.261798,38.9357931 370.261798,38.8582257 L370.261798,30.1503291 L368.364576,30.1503291 C368.287008,30.1503291 368.218342,30.1223539 368.159848,30.0638605 C368.103898,30.0066386 368.074651,29.9239848 368.074651,29.8184422 L368.074651,29.3390501 C368.074651,29.2335076 368.103898,29.1508538 368.159848,29.0936319 C368.218342,29.0351385 368.287008,29.0071633 368.364576,29.0071633 L373.377211,29.0071633 C373.453507,29.0071633 373.520902,29.0351385 373.579395,29.0936319 C373.637889,29.1508538 373.667135,29.2335076 373.667135,29.3390501 L373.667135,29.8184422 C373.667135,29.9239848 373.637889,30.0066386 373.579395,30.0638605 C373.520902,30.1223539 373.453507,30.1503291 373.377211,30.1503291 L371.478717,30.1503291 L371.478717,38.8582257 Z M382.26275,34.5401364 C382.321243,34.7143452 382.349218,34.888554 382.349218,35.0627628 L382.349218,38.85848 C382.349218,38.9360474 382.321243,39.0034421 382.26275,39.0619355 C382.205528,39.120429 382.122874,39.1484041 382.017332,39.1484041 L381.46673,39.1484041 C381.359916,39.1484041 381.277262,39.120429 381.22004,39.0619355 C381.161547,39.0034421 381.133572,38.9360474 381.133572,38.85848 L381.133572,35.9185476 L377.988912,35.9185476 L377.988912,38.85848 C377.988912,38.9360474 377.959665,39.0034421 377.901172,39.0619355 C377.84395,39.120429 377.761296,39.1484041 377.655754,39.1484041 L377.103881,39.1484041 C376.998338,39.1484041 376.915684,39.120429 376.858462,39.0619355 C376.801241,39.0034421 376.771994,38.9360474 376.771994,38.85848 L376.771994,35.0627628 C376.771994,34.888554 376.801241,34.7105304 376.858462,34.5261488 L378.437786,29.2973418 C378.496279,29.1027874 378.611995,29.006146 378.786204,29.006146 L380.33628,29.006146 C380.510489,29.006146 380.624933,29.1027874 380.683426,29.2973418 L382.26275,34.5401364 Z M379.697939,30.1505834 L379.423274,30.1505834 L378.047406,34.7868262 L381.089066,34.7868262 L379.697939,30.1505834 Z M385.759769,39.1484041 C385.682201,39.1484041 385.613535,39.120429 385.556313,39.0619355 C385.499092,39.0034421 385.469845,38.9220599 385.469845,38.8152457 L385.469845,38.3371252 C385.469845,38.2315827 385.499092,38.1489288 385.556313,38.0904354 C385.613535,38.0332135 385.682201,38.0026952 385.759769,38.0026952 L387.656992,38.0026952 L387.656992,30.1505834 L385.759769,30.1505834 C385.682201,30.1505834 385.613535,30.1226083 385.556313,30.0641148 C385.499092,30.0056213 385.469845,29.9242391 385.469845,29.817425 L385.469845,29.3393045 C385.469845,29.2337619 385.499092,29.1511081 385.556313,29.0926146 C385.613535,29.0353928 385.682201,29.006146 385.759769,29.006146 L390.772404,29.006146 C390.8487,29.006146 390.917367,29.0353928 390.974588,29.0926146 C391.033082,29.1511081 391.062329,29.2337619 391.062329,29.3393045 L391.062329,29.817425 C391.062329,29.9242391 391.033082,30.0056213 390.974588,30.0641148 C390.917367,30.1226083 390.8487,30.1505834 390.772404,30.1505834 L388.87391,30.1505834 L388.87391,38.0026952 L390.772404,38.0026952 C390.8487,38.0026952 390.917367,38.0332135 390.974588,38.0904354 C391.033082,38.1489288 391.062329,38.2315827 391.062329,38.3371252 L391.062329,38.8152457 C391.062329,38.9220599 391.033082,39.0034421 390.974588,39.0619355 C390.917367,39.120429 390.8487,39.1484041 390.772404,39.1484041 L385.759769,39.1484041 Z M399.743522,38.8582257 C399.743522,38.9357931 399.715547,39.0044593 399.657053,39.0616812 C399.59856,39.1201747 399.517177,39.1481498 399.410363,39.1481498 L398.585097,39.1481498 C398.440135,39.1481498 398.329506,39.05278 398.251938,38.8582257 L395.629905,32.0780702 L395.295475,30.9336329 L395.209007,30.9336329 L395.383215,32.6134126 L395.383215,38.8582257 C395.383215,38.9357931 395.353969,39.0044593 395.295475,39.0616812 C395.236982,39.1201747 395.1556,39.1481498 395.048785,39.1481498 L394.498184,39.1481498 C394.392641,39.1481498 394.309987,39.1201747 394.252766,39.0616812 C394.195544,39.0044593 394.166297,38.9357931 394.166297,38.8582257 L394.166297,29.2970874 C394.166297,29.21952 394.195544,29.1508538 394.252766,29.0936319 C394.309987,29.0351385 394.392641,29.0071633 394.498184,29.0071633 L395.324722,29.0071633 C395.469684,29.0071633 395.581585,29.1025331 395.65788,29.2970874 L398.295173,36.1204772 L398.614344,37.2216803 L398.700812,37.2216803 L398.527875,35.61311 L398.527875,29.2970874 C398.527875,29.21952 398.55585,29.1508538 398.614344,29.0936319 C398.671565,29.0351385 398.754219,29.0071633 398.859762,29.0071633 L399.410363,29.0071633 C399.517177,29.0071633 399.59856,29.0351385 399.657053,29.0936319 C399.715547,29.1508538 399.743522,29.21952 399.743522,29.2970874 L399.743522,38.8582257 Z M408.35465,34.5401364 C408.413143,34.7143452 408.441118,34.888554 408.441118,35.0627628 L408.441118,38.85848 C408.441118,38.9360474 408.413143,39.0034421 408.35465,39.0619355 C408.297428,39.120429 408.214774,39.1484041 408.109232,39.1484041 L407.55863,39.1484041 C407.451816,39.1484041 407.369162,39.120429 407.31194,39.0619355 C407.253447,39.0034421 407.225472,38.9360474 407.225472,38.85848 L407.225472,35.9185476 L404.080812,35.9185476 L404.080812,38.85848 C404.080812,38.9360474 404.051565,39.0034421 403.993072,39.0619355 C403.93585,39.120429 403.853196,39.1484041 403.747654,39.1484041 L403.195781,39.1484041 C403.090238,39.1484041 403.007584,39.120429 402.950362,39.0619355 C402.89314,39.0034421 402.863894,38.9360474 402.863894,38.85848 L402.863894,35.0627628 C402.863894,34.888554 402.89314,34.7105304 402.950362,34.5261488 L404.529686,29.2973418 C404.588179,29.1027874 404.703895,29.006146 404.878103,29.006146 L406.42818,29.006146 C406.602389,29.006146 406.716833,29.1027874 406.775326,29.2973418 L408.35465,34.5401364 Z M405.789839,30.1505834 L405.515174,30.1505834 L404.139306,34.7868262 L407.180966,34.7868262 L405.789839,30.1505834 Z M414.50333,29.0065275 C415.188721,29.0065275 415.758396,29.2265138 416.212357,29.6664864 C416.666317,30.1051874 416.892661,30.6392581 416.892661,31.2661555 L416.892661,32.0634468 C416.892661,32.7119613 416.617996,33.28418 416.067395,33.7877324 C416.686662,34.2900133 416.994389,34.9181822 416.994389,35.6709677 L416.994389,36.7149488 C416.994389,37.4105124 416.743884,37.9890891 416.241603,38.453222 C415.739322,38.9160833 415.144215,39.1487856 414.458824,39.1487856 L412.183937,39.1487856 C412.078395,39.1487856 411.995741,39.1195389 411.938519,39.062317 C411.880025,39.0038235 411.85205,38.9364289 411.85205,38.8575899 L411.85205,29.2964516 C411.85205,29.2188842 411.880025,29.1514896 411.938519,29.0929961 C411.995741,29.0345027 412.078395,29.0065275 412.183937,29.0065275 L414.50333,29.0065275 Z M413.067697,38.0030767 L414.458824,38.0030767 C414.835217,38.0030767 415.150573,37.875917 415.401078,37.6190544 C415.652854,37.3634633 415.77747,37.0620948 415.77747,36.7149488 L415.77747,35.6709677 C415.77747,35.3810435 415.664298,35.0911194 415.437954,34.8024669 C415.209067,34.5125428 414.883538,34.3675807 414.458824,34.3675807 L413.067697,34.3675807 L413.067697,38.0030767 Z M413.067697,30.1509649 L413.067697,33.2663776 L414.531305,33.2663776 C414.859377,33.2663776 415.1404,33.1544771 415.371831,32.9319476 C415.603262,32.7119613 415.718977,32.4398396 415.718977,32.1206687 L415.718977,31.2814146 C415.718977,30.971145 415.603262,30.7066528 415.371831,30.4841233 C415.1404,30.2628654 414.859377,30.1509649 414.531305,30.1509649 L413.067697,30.1509649 Z M421.084481,39.1484041 C420.978938,39.1484041 420.896284,39.120429 420.837791,39.0619355 C420.781841,39.0034421 420.751322,38.9360474 420.751322,38.85848 L420.751322,29.2973418 C420.751322,29.2185027 420.781841,29.1511081 420.837791,29.0926146 C420.896284,29.0353928 420.978938,29.006146 421.084481,29.006146 L421.650341,29.006146 C421.757156,29.006146 421.838538,29.0353928 421.897031,29.0926146 C421.955525,29.1511081 421.9835,29.2185027 421.9835,29.2973418 L421.9835,38.0026952 L425.474034,38.0026952 C425.552873,38.0026952 425.620267,38.0332135 425.678761,38.0904354 C425.735983,38.1489288 425.765229,38.2315827 425.765229,38.3371252 L425.765229,38.8152457 C425.765229,38.9220599 425.735983,39.0034421 425.678761,39.0619355 C425.620267,39.120429 425.552873,39.1484041 425.474034,39.1484041 L421.084481,39.1484041 Z M429.551537,39.1484041 C429.445994,39.1484041 429.36334,39.120429 429.304847,39.0619355 C429.247625,39.0034421 429.217107,38.9360474 429.217107,38.85848 L429.217107,29.2973418 C429.217107,29.2185027 429.247625,29.1511081 429.304847,29.0926146 C429.36334,29.0353928 429.445994,29.006146 429.551537,29.006146 L433.883868,29.006146 C433.960164,29.006146 434.027558,29.0353928 434.086052,29.0926146 C434.143274,29.1511081 434.172521,29.2337619 434.172521,29.3393045 L434.172521,29.817425 C434.172521,29.9242391 434.143274,30.0056213 434.086052,30.0641148 C434.027558,30.1226083 433.960164,30.1505834 433.883868,30.1505834 L430.435297,30.1505834 L430.435297,33.2367494 L433.53545,33.2367494 C433.613018,33.2367494 433.679141,33.2659962 433.737634,33.3244896 C433.796128,33.3829831 433.825375,33.4643653 433.825375,33.5711795 L433.825375,34.0340408 C433.825375,34.1395833 433.796128,34.2222371 433.737634,34.279459 C433.679141,34.3379525 433.613018,34.3671992 433.53545,34.3671992 L430.435297,34.3671992 L430.435297,38.0026952 L433.999583,38.0026952 C434.075879,38.0026952 434.143274,38.0332135 434.201767,38.0904354 C434.260261,38.1489288 434.288236,38.2315827 434.288236,38.3371252 L434.288236,38.8152457 C434.288236,38.9220599 434.260261,39.0034421 434.201767,39.0619355 C434.143274,39.120429 434.075879,39.1484041 433.999583,39.1484041 L429.551537,39.1484041 Z M446.946985,39.1484041 C446.841442,39.1484041 446.758788,39.120429 446.700295,39.0619355 C446.643073,39.0034421 446.612554,38.9360474 446.612554,38.85848 L446.612554,29.2973418 C446.612554,29.2185027 446.643073,29.1511081 446.700295,29.0926146 C446.758788,29.0353928 446.841442,29.006146 446.946985,29.006146 L451.279316,29.006146 C451.355611,29.006146 451.423006,29.0353928 451.4815,29.0926146 C451.538721,29.1511081 451.567968,29.2337619 451.567968,29.3393045 L451.567968,29.817425 C451.567968,29.9242391 451.538721,30.0056213 451.4815,30.0641148 C451.423006,30.1226083 451.355611,30.1505834 451.279316,30.1505834 L447.830744,30.1505834 L447.830744,33.2367494 L450.930898,33.2367494 C451.008465,33.2367494 451.074589,33.2659962 451.133082,33.3244896 C451.191575,33.3829831 451.220822,33.4643653 451.220822,33.5711795 L451.220822,34.0340408 C451.220822,34.1395833 451.191575,34.2222371 451.133082,34.279459 C451.074589,34.3379525 451.008465,34.3671992 450.930898,34.3671992 L447.830744,34.3671992 L447.830744,38.0026952 L451.395031,38.0026952 C451.471327,38.0026952 451.538721,38.0332135 451.597215,38.0904354 C451.655708,38.1489288 451.683684,38.2315827 451.683684,38.3371252 L451.683684,38.8152457 C451.683684,38.9220599 451.655708,39.0034421 451.597215,39.0619355 C451.538721,39.120429 451.471327,39.1484041 451.395031,39.1484041 L446.946985,39.1484041 Z M457.991441,39.2928576 C457.199236,39.2928576 456.535462,39.0321802 455.998848,38.5108254 C455.463506,37.9894706 455.193927,37.3562152 455.193927,36.612331 L455.193927,31.528486 C455.193927,30.7833301 455.463506,30.1538895 455.998848,29.6363495 C456.535462,29.1200811 457.199236,28.8619469 457.991441,28.8619469 C458.812892,28.8619469 459.474123,29.1251675 459.976404,29.6503371 C460.478685,30.1780499 460.729189,30.710849 460.729189,31.2512778 C460.729189,31.3301168 460.699942,31.3975115 460.642721,31.4560049 C460.585499,31.5119552 460.502845,31.5424735 460.397302,31.5424735 L459.846701,31.5424735 C459.641974,31.5424735 459.532616,31.4458321 459.512271,31.2512778 C459.484296,30.9626253 459.324074,30.6828739 459.035422,30.4120237 C458.745498,30.1424452 458.39708,30.0063843 457.991441,30.0063843 C457.547653,30.0063843 457.175075,30.1500747 456.87625,30.4412705 C456.576153,30.7311946 456.426105,31.0872418 456.426105,31.5119552 L456.426105,36.6275901 C456.426105,37.0523035 456.576153,37.4134371 456.87625,37.707176 C457.175075,38.0021865 457.547653,38.1484202 457.991441,38.1484202 C458.416154,38.1484202 458.779831,38.0021865 459.085014,37.707176 C459.388926,37.4134371 459.541518,37.0523035 459.541518,36.6275901 C459.541518,36.5512943 459.570764,36.4826281 459.627986,36.4241346 C459.68648,36.3669127 459.767862,36.3389376 459.874676,36.3389376 L460.425277,36.3389376 C460.532092,36.3389376 460.613474,36.3669127 460.671967,36.4241346 C460.729189,36.4826281 460.758436,36.5512943 460.758436,36.6275901 C460.758436,37.3714744 460.492672,38.0021865 459.962416,38.5184549 C459.429617,39.0347234 458.773473,39.2928576 457.991441,39.2928576 Z M469.428057,36.6267 C469.428057,37.3324364 469.164837,37.9529757 468.637124,38.4883181 C468.110683,39.0249321 467.418934,39.293239 466.559334,39.293239 C465.680661,39.293239 464.980011,39.0249321 464.458656,38.4883181 C463.93603,37.9529757 463.675352,37.32735 463.675352,36.6127124 L463.675352,31.5275958 C463.675352,30.8129583 463.93603,30.1898757 464.458656,29.6583482 C464.980011,29.1268206 465.680661,28.8623284 466.559334,28.8623284 C467.418934,28.8623284 468.110683,29.1293638 468.637124,29.6659778 C469.164837,30.2013201 469.428057,30.8231311 469.428057,31.5275958 L469.428057,36.6267 Z M468.19588,31.5123367 C468.19588,31.1079688 468.048375,30.7544648 467.754636,30.4543679 C467.459625,30.1555426 467.060344,30.0054942 466.559334,30.0054942 C466.046881,30.0054942 465.643785,30.1555426 465.348774,30.4543679 C465.055035,30.7544648 464.90753,31.1079688 464.90753,31.5123367 L464.90753,36.6267 C464.90753,37.0437838 465.055035,37.399831 465.348774,37.6999279 C465.643785,37.9987532 466.046881,38.1488017 466.559334,38.1488017 C467.060344,38.1488017 467.459625,37.9987532 467.754636,37.6999279 C468.048375,37.399831 468.19588,37.0475986 468.19588,36.6406876 L468.19588,31.5123367 Z M478.023291,38.8582257 C478.023291,38.9357931 477.995315,39.0044593 477.936822,39.0616812 C477.878328,39.1201747 477.796946,39.1481498 477.690132,39.1481498 L476.864866,39.1481498 C476.719904,39.1481498 476.609275,39.05278 476.531707,38.8582257 L473.909674,32.0780702 L473.575244,30.9336329 L473.488775,30.9336329 L473.662984,32.6134126 L473.662984,38.8582257 C473.662984,38.9357931 473.633738,39.0044593 473.575244,39.0616812 C473.516751,39.1201747 473.435368,39.1481498 473.328554,39.1481498 L472.777953,39.1481498 C472.67241,39.1481498 472.589756,39.1201747 472.532534,39.0616812 C472.475313,39.0044593 472.446066,38.9357931 472.446066,38.8582257 L472.446066,29.2970874 C472.446066,29.21952 472.475313,29.1508538 472.532534,29.0936319 C472.589756,29.0351385 472.67241,29.0071633 472.777953,29.0071633 L473.604491,29.0071633 C473.749453,29.0071633 473.861353,29.1025331 473.937649,29.2970874 L476.574942,36.1204772 L476.894112,37.2216803 L476.980581,37.2216803 L476.807644,35.61311 L476.807644,29.2970874 C476.807644,29.21952 476.835619,29.1508538 476.894112,29.0936319 C476.951334,29.0351385 477.033988,29.0071633 477.139531,29.0071633 L477.690132,29.0071633 C477.796946,29.0071633 477.878328,29.0351385 477.936822,29.0936319 C477.995315,29.1508538 478.023291,29.21952 478.023291,29.2970874 L478.023291,38.8582257 Z M486.822106,36.6267 C486.822106,37.3324364 486.557614,37.9529757 486.031173,38.4883181 C485.504732,39.0249321 484.812983,39.293239 483.953383,39.293239 C483.07471,39.293239 482.37406,39.0249321 481.852705,38.4883181 C481.330079,37.9529757 481.069401,37.32735 481.069401,36.6127124 L481.069401,31.5275958 C481.069401,30.8129583 481.330079,30.1898757 481.852705,29.6583482 C482.37406,29.1268206 483.07471,28.8623284 483.953383,28.8623284 C484.812983,28.8623284 485.504732,29.1293638 486.031173,29.6659778 C486.557614,30.2013201 486.822106,30.8231311 486.822106,31.5275958 L486.822106,36.6267 Z M485.589929,31.5123367 C485.589929,31.1079688 485.442424,30.7544648 485.148685,30.4543679 C484.853674,30.1555426 484.454393,30.0054942 483.953383,30.0054942 C483.44093,30.0054942 483.037834,30.1555426 482.742823,30.4543679 C482.449084,30.7544648 482.301579,31.1079688 482.301579,31.5123367 L482.301579,36.6267 C482.301579,37.0437838 482.449084,37.399831 482.742823,37.6999279 C483.037834,37.9987532 483.44093,38.1488017 483.953383,38.1488017 C484.454393,38.1488017 484.853674,37.9987532 485.148685,37.6999279 C485.442424,37.399831 485.589929,37.0475986 485.589929,36.6406876 L485.589929,31.5123367 Z M493.288177,34.0634147 C493.21061,34.2554258 493.099981,34.3520672 492.953747,34.3520672 L492.316677,34.3520672 C492.172987,34.3520672 492.061086,34.2554258 491.98479,34.0634147 L491.115018,31.7592808 L490.868328,30.7165712 L490.780588,30.7305588 L490.897575,32.4255977 L490.897575,38.8586072 C490.897575,38.9361746 490.868328,39.0035692 490.811106,39.0620627 C490.752613,39.1205562 490.671231,39.1485313 490.564416,39.1485313 L490.013815,39.1485313 C489.907001,39.1485313 489.825619,39.1205562 489.767125,39.0620627 C489.709903,39.0035692 489.679385,38.9361746 489.679385,38.8586072 L489.679385,29.2974689 C489.679385,29.2186299 489.709903,29.1512353 489.767125,29.0927418 C489.825619,29.0355199 489.907001,29.0062732 490.013815,29.0062732 L491.027278,29.0062732 C491.191314,29.0062732 491.303214,29.1029146 491.361708,29.2974689 L492.607873,33.1211613 L492.665095,33.1211613 L493.91126,29.2974689 C493.968482,29.1029146 494.079111,29.0062732 494.243147,29.0062732 L495.259153,29.0062732 C495.364695,29.0062732 495.447349,29.0355199 495.504571,29.0927418 C495.563064,29.1512353 495.59104,29.2186299 495.59104,29.2974689 L495.59104,38.8586072 C495.59104,38.9361746 495.563064,39.0035692 495.504571,39.0620627 C495.447349,39.1205562 495.364695,39.1485313 495.259153,39.1485313 L494.708551,39.1485313 C494.601737,39.1485313 494.520355,39.1205562 494.461861,39.0620627 C494.403368,39.0035692 494.374121,38.9361746 494.374121,38.8586072 L494.374121,32.4255977 L494.489837,30.7305588 L494.403368,30.7165712 L494.15795,31.7440217 L493.288177,34.0634147 Z M498.827636,39.1484041 C498.750068,39.1484041 498.681402,39.120429 498.62418,39.0619355 C498.566958,39.0034421 498.537711,38.9220599 498.537711,38.8152457 L498.537711,38.3371252 C498.537711,38.2315827 498.566958,38.1489288 498.62418,38.0904354 C498.681402,38.0332135 498.750068,38.0026952 498.827636,38.0026952 L500.724858,38.0026952 L500.724858,30.1505834 L498.827636,30.1505834 C498.750068,30.1505834 498.681402,30.1226083 498.62418,30.0641148 C498.566958,30.0056213 498.537711,29.9242391 498.537711,29.817425 L498.537711,29.3393045 C498.537711,29.2337619 498.566958,29.1511081 498.62418,29.0926146 C498.681402,29.0353928 498.750068,29.006146 498.827636,29.006146 L503.840271,29.006146 C503.916567,29.006146 503.985233,29.0353928 504.042455,29.0926146 C504.100949,29.1511081 504.130195,29.2337619 504.130195,29.3393045 L504.130195,29.817425 C504.130195,29.9242391 504.100949,30.0056213 504.042455,30.0641148 C503.985233,30.1226083 503.916567,30.1505834 503.840271,30.1505834 L501.941777,30.1505834 L501.941777,38.0026952 L503.840271,38.0026952 C503.916567,38.0026952 503.985233,38.0332135 504.042455,38.0904354 C504.100949,38.1489288 504.130195,38.2315827 504.130195,38.3371252 L504.130195,38.8152457 C504.130195,38.9220599 504.100949,39.0034421 504.042455,39.0619355 C503.985233,39.120429 503.916567,39.1484041 503.840271,39.1484041 L498.827636,39.1484041 Z M507.82978,39.1484041 C507.724237,39.1484041 507.641583,39.120429 507.58309,39.0619355 C507.525868,39.0034421 507.49535,38.9360474 507.49535,38.85848 L507.49535,29.2973418 C507.49535,29.2185027 507.525868,29.1511081 507.58309,29.0926146 C507.641583,29.0353928 507.724237,29.006146 507.82978,29.006146 L512.162111,29.006146 C512.238407,29.006146 512.305801,29.0353928 512.364295,29.0926146 C512.422788,29.1511081 512.450763,29.2337619 512.450763,29.3393045 L512.450763,29.817425 C512.450763,29.9242391 512.422788,30.0056213 512.364295,30.0641148 C512.305801,30.1226083 512.238407,30.1505834 512.162111,30.1505834 L508.71354,30.1505834 L508.71354,33.2367494 L511.813693,33.2367494 C511.891261,33.2367494 511.957384,33.2659962 512.015877,33.3244896 C512.074371,33.3829831 512.103617,33.4643653 512.103617,33.5711795 L512.103617,34.0340408 C512.103617,34.1395833 512.074371,34.2222371 512.015877,34.279459 C511.957384,34.3379525 511.891261,34.3671992 511.813693,34.3671992 L508.71354,34.3671992 L508.71354,38.0026952 L512.277826,38.0026952 C512.354122,38.0026952 512.422788,38.0332135 512.48001,38.0904354 C512.538504,38.1489288 512.566479,38.2315827 512.566479,38.3371252 L512.566479,38.8152457 C512.566479,38.9220599 512.538504,39.0034421 512.48001,39.0619355 C512.422788,39.120429 512.354122,39.1484041 512.277826,39.1484041 L507.82978,39.1484041 Z M515.847072,36.5261167 C515.847072,36.4485493 515.875047,36.3811546 515.933541,36.3226612 C515.990762,36.2641677 516.073416,36.2361926 516.178959,36.2361926 L516.72956,36.2361926 C516.836375,36.2361926 516.917757,36.2641677 516.97625,36.3226612 C517.034744,36.3811546 517.062719,36.4485493 517.062719,36.5261167 C517.062719,36.988978 517.210224,37.3755435 517.505235,37.6845416 C517.800245,37.9948113 518.208428,38.1486745 518.728511,38.1486745 C519.211718,38.1486745 519.60337,38.011342 519.902195,37.7354055 C520.202292,37.4607405 520.35234,37.1301253 520.35234,36.7435598 C520.35234,36.2501801 520.202292,35.8330963 519.902195,35.4910367 C519.60337,35.1477055 519.240965,34.8679541 518.816251,34.6492394 C518.391538,34.4330679 517.964281,34.2054521 517.534481,33.968935 C517.10341,33.732418 516.739733,33.4081607 516.439636,32.9987065 C516.140811,32.5879806 515.990762,32.0933294 515.990762,31.5122095 C515.990762,30.7594241 516.259069,30.1299835 516.795683,29.6226163 C517.331026,29.1152491 517.980812,28.8622013 518.745042,28.8622013 C519.555049,28.8622013 520.212465,29.1266934 520.713474,29.658221 C521.215755,30.1897486 521.467531,30.7250909 521.467531,31.2655197 C521.467531,31.3443587 521.438284,31.4117533 521.379791,31.4702468 C521.322569,31.5274687 521.239915,31.5567154 521.134373,31.5567154 L520.583771,31.5567154 C520.380316,31.5567154 520.270958,31.460074 520.250613,31.2655197 C520.221366,30.9768672 520.064959,30.699659 519.77885,30.4338952 C519.495284,30.1681314 519.14941,30.0358853 518.745042,30.0358853 C518.317785,30.0358853 517.959195,30.1706746 517.664184,30.4402532 C517.370445,30.7111034 517.22294,31.0455334 517.22294,31.4397285 C517.22294,31.826294 517.372988,32.1619956 517.671814,32.4481049 C517.971911,32.7329427 518.335587,32.9834473 518.765387,33.2008904 C519.196459,33.4183335 519.624987,33.6548505 520.054787,33.9104416 C520.484586,34.1673042 520.849535,34.5246229 521.14836,34.9836695 C521.448457,35.442716 521.598505,35.9895027 521.598505,36.6265729 C521.598505,37.3323092 521.3391,37.9541202 520.822831,38.4881909 C520.305291,39.0248049 519.608456,39.2931119 518.728511,39.2931119 C517.830763,39.2931119 517.126299,39.0286197 516.613845,38.4958205 C516.101391,37.9655646 515.847072,37.3081489 515.847072,36.5261167 Z"/>
    <g transform="translate(0 3)">
      <path fill="url(#a)" d="M5.69654733,19.33155 L0.313559671,19.33155 L0.313559671,31.208175 L5.69654733,31.208175 C13.0504815,31.208175 20.2495556,27.449475 28.5851235,23.099175 C38.3937819,17.9775 49.5129918,12.1737 62.3740576,12.1737 C75.2364033,12.1737 86.3530535,17.9775 96.1629918,23.099175 C96.4816708,23.264925 96.7965103,23.4294 97.1113498,23.5926 C102.115506,20.985225 106.721634,18.644325 111.213856,17.26605 C108.322708,16.0344 105.125679,14.3667 101.69828,12.5766 C91.216428,7.1043 78.1710658,0.2958 62.3740576,0.2958 C46.5770494,0.2958 33.5316872,7.1043 23.0498354,12.5766 C16.1105679,16.201425 10.1158189,19.33155 5.69654733,19.33155 Z"/>
      <path fill="url(#b)" d="M119.051568,19.33155 C111.697634,19.33155 104.49856,23.088975 96.1629918,27.44055 C86.3530535,32.562225 75.2364033,38.366025 62.3740576,38.366025 C49.5129918,38.366025 38.3937819,32.562225 28.5851235,27.44055 C28.2651646,27.2748 27.9516049,27.110325 27.6367654,26.94585 C22.6326091,29.5545 18.0264815,31.8954 13.5342593,33.273675 C16.4254074,34.50405 19.6224362,36.17175 23.0498354,37.96185 C33.5316872,43.43415 46.5770494,50.243925 62.3740576,50.243925 C78.1710658,50.243925 91.216428,43.43415 101.69828,37.96185 C108.637547,34.3383 114.632296,31.208175 119.051568,31.208175 L124.434556,31.208175 L124.434556,19.33155 L119.051568,19.33155 L119.051568,19.33155 Z"/>
    </g>
  </g>
</svg>
