<svg width="148" height="32" viewBox="0 0 148 32" xmlns="http://www.w3.org/2000/svg"><title>Group 10</title><defs><linearGradient x1="0%" y1="50%" x2="97.04%" y2="50%" id="a"><stop stop-color="#EB6A6A" offset="0%"/><stop stop-color="#EB6A6A" stop-opacity="0" offset="100%"/></linearGradient><linearGradient x1="0%" y1="50%" y2="50%" id="b"><stop stop-color="#EB6A6A" stop-opacity="0" offset="0%"/><stop stop-color="#EB696A" offset="100%"/></linearGradient></defs><g fill="none" fill-rule="evenodd"><path d="M77.138 11.507h-3.372V9.043h3.372V5.606h2.867v3.437h3.366v2.464h-3.366v6.14c0 1.113.569 1.564 1.541 1.564.64 0 1.21-.143 1.779-.427v2.347c-.712.403-1.517.64-2.584.64-2.11 0-3.603-.925-3.603-3.674v-6.59zm13.79-2.465h2.868v2.821c.783-1.872 2.228-3.153 4.432-3.058v3.034h-.165c-2.513 0-4.267 1.636-4.267 4.954v4.765h-2.867V9.042zm21.085 12.515v-1.54c-.852 1.019-2.156 1.801-4.053 1.801-2.37 0-4.456-1.35-4.456-3.863v-.048c0-2.773 2.158-4.1 5.073-4.1 1.517 0 2.488.213 3.46.521v-.237c0-1.73-1.091-2.678-3.082-2.678-1.399 0-2.442.308-3.579.782l-.782-2.299c1.375-.617 2.725-1.043 4.764-1.043 3.698 0 5.5 1.944 5.5 5.285v7.42h-2.845zm.072-5.238c-.736-.285-1.754-.497-2.87-.497-1.8 0-2.866.734-2.866 1.943v.047c0 1.186 1.067 1.85 2.417 1.85 1.896 0 3.319-1.067 3.319-2.632v-.71zm10.119 1.66c1.35 1.019 2.82 1.54 4.1 1.54 1.232 0 1.943-.521 1.943-1.351v-.048c0-.971-1.326-1.303-2.797-1.754-1.848-.521-3.91-1.28-3.91-3.673v-.048c0-2.37 1.968-3.816 4.457-3.816 1.563 0 3.27.546 4.597 1.422l-1.138 2.04c-1.209-.736-2.489-1.186-3.531-1.186-1.113 0-1.755.52-1.755 1.256v.047c0 .901 1.353 1.28 2.822 1.755 1.824.568 3.887 1.398 3.887 3.65v.047c0 2.631-2.039 3.934-4.645 3.934-1.778 0-3.745-.64-5.31-1.872l1.28-1.944zm13.16-2.68c0-3.578 2.536-6.517 6.116-6.517 3.982 0 5.996 3.129 5.996 6.731 0 .261-.023.522-.046.806h-9.197c.308 2.039 1.754 3.176 3.603 3.176 1.398 0 2.393-.521 3.39-1.493l1.682 1.493c-1.186 1.422-2.822 2.347-5.12 2.347-3.627 0-6.424-2.632-6.424-6.495V15.3zm9.269-.876c-.191-1.849-1.28-3.294-3.177-3.294-1.754 0-2.985 1.35-3.246 3.294h6.423z" fill="#6E6E6E"/><path d="M2.968 10.073H.163v6.189h2.805c3.832 0 7.583-1.959 11.927-4.226C20.006 9.368 25.8 6.343 32.5 6.343c6.703 0 12.495 3.025 17.607 5.693l.494.257c2.608-1.358 5.008-2.578 7.349-3.296-1.507-.642-3.173-1.51-4.959-2.444C47.53 3.702 40.732.154 32.502.154c-8.232 0-15.03 3.548-20.491 6.4-3.616 1.888-6.74 3.52-9.043 3.52z" fill="url(#a)" transform="translate(0 .563)"/><path d="M62.035 10.073c-3.832 0-7.584 1.958-11.927 4.226-5.112 2.668-10.904 5.692-17.607 5.692-6.701 0-12.495-3.024-17.606-5.692l-.494-.258c-2.608 1.359-5.008 2.579-7.349 3.297 1.507.641 3.173 1.51 4.959 2.443 5.461 2.851 12.259 6.4 20.49 6.4 8.232 0 15.03-3.549 20.491-6.4 3.616-1.888 6.74-3.52 9.043-3.52h2.804v-6.188h-2.804z" fill="url(#b)" transform="translate(0 .563)"/><path d="M129.12 25.79c.227 0 .42.077.58.23.16.153.24.337.24.55v.58c0 .22-.08.407-.24.56a.808.808 0 0 1-.58.23h-1.01v-2.15h1.01zm-1.01 2.91h.96c.293 0 .518.1.675.3.157.2.235.4.235.6v.72c0 .24-.087.448-.26.625a.873.873 0 0 1-.65.265h-.96V28.7zm-.61-3.7c-.073 0-.13.02-.17.06a.192.192 0 0 0-.06.14v6.6c0 .053.02.1.06.14.04.04.097.06.17.06h1.57c.473 0 .883-.16 1.23-.48.347-.32.52-.72.52-1.2v-.72c0-.52-.213-.953-.64-1.3.38-.347.57-.743.57-1.19v-.55a1.48 1.48 0 0 0-.47-1.105c-.313-.303-.707-.455-1.18-.455h-1.6zm8.55 7c.053 0 .1-.02.14-.06.04-.04.06-.097.06-.17v-.33c0-.073-.02-.13-.06-.17a.192.192 0 0 0-.14-.06h-2.46V28.7h2.14c.053 0 .1-.02.14-.06.04-.04.06-.097.06-.17v-.32c0-.073-.02-.13-.06-.17a.192.192 0 0 0-.14-.06h-2.14v-2.13h2.38c.053 0 .1-.02.14-.06.04-.04.06-.097.06-.17v-.33c0-.073-.02-.13-.06-.17a.192.192 0 0 0-.14-.06h-2.99c-.073 0-.13.02-.17.06a.192.192 0 0 0-.06.14v6.6c0 .053.02.1.06.14.04.04.097.06.17.06h3.07zm4.37-6.21h1.31c.053 0 .1-.02.14-.06.04-.04.06-.097.06-.17v-.33c0-.073-.02-.13-.06-.17a.192.192 0 0 0-.14-.06h-3.46c-.053 0-.1.02-.14.06-.04.04-.06.097-.06.17v.33c0 .073.02.13.06.17.04.04.087.06.14.06h1.31v6.01c0 .053.02.1.06.14.04.04.097.06.17.06h.38c.073 0 .13-.02.17-.06.04-.04.06-.087.06-.14v-6.01zm6.13 3.2h-2.1l.95-3.2h.19l.96 3.2zm-.28-3.79c-.04-.133-.12-.2-.24-.2h-1.07c-.12 0-.2.067-.24.2l-1.09 3.61c-.04.127-.06.25-.06.37v2.62c0 .053.02.1.06.14.04.04.097.06.17.06h.38c.073 0 .13-.02.17-.06.04-.04.06-.087.06-.14v-2.03h2.17v2.03c0 .053.02.1.06.14.04.04.097.06.17.06h.38c.073 0 .13-.02.17-.06.04-.04.06-.087.06-.14v-2.62c0-.12-.02-.24-.06-.36l-1.09-3.62z" fill="#34444C" opacity=".6"/></g></svg>