<svg xmlns="http://www.w3.org/2000/svg" width="522" height="54"><defs><linearGradient id="a" x1="0%" x2="97.04%" y1="50%" y2="50%"><stop stop-color="#EB6A6A" offset="0%"/><stop stop-color="#EB6A6A" stop-opacity="0" offset="100%"/></linearGradient><linearGradient id="b" x1="0%" y1="50%" y2="50%"><stop stop-color="#EB6A6A" stop-opacity="0" offset="0%"/><stop stop-color="#EB696A" offset="100%"/></linearGradient></defs><g fill="none" fill-rule="evenodd"><path fill="#6E6E6E" d="M319 53.674h1V0h-1v53.674zM161.471 20.165H155v-4.73h6.471V8.839h5.502v6.596h6.459v4.73h-6.459v11.781c0 2.138 1.091 3.003 2.958 3.003 1.226 0 2.32-.274 3.413-.82v4.505c-1.366.773-2.912 1.228-4.96 1.228-4.048 0-6.913-1.775-6.913-7.05V20.164zm26.465-4.73h5.503v5.413c1.504-3.594 4.276-6.05 8.507-5.869v5.823h-.317c-4.823 0-8.19 3.138-8.19 9.506v9.144h-5.503V15.434zM228.4 39.451v-2.957c-1.635 1.956-4.137 3.458-7.777 3.458-4.55 0-8.552-2.593-8.552-7.415v-.092c0-5.321 4.141-7.868 9.736-7.868 2.91 0 4.774.41 6.64 1v-.455c0-3.32-2.094-5.14-5.915-5.14-2.684 0-4.686.592-6.868 1.5l-1.5-4.41c2.638-1.184 5.228-2.002 9.142-2.002 7.096 0 10.555 3.73 10.555 10.142v14.239h-5.46zm.139-10.052c-1.411-.547-3.366-.955-5.506-.955-3.455 0-5.502 1.409-5.502 3.73v.09c0 2.274 2.047 3.549 4.639 3.549 3.639 0 6.369-2.048 6.369-5.05V29.4zm19.419 3.184c2.59 1.955 5.413 2.956 7.87 2.956 2.364 0 3.728-1 3.728-2.593v-.091c0-1.864-2.546-2.501-5.367-3.366-3.548-1-7.504-2.456-7.504-7.05v-.091c0-4.549 3.775-7.325 8.553-7.325 3 0 6.276 1.048 8.822 2.73l-2.183 3.913c-2.32-1.411-4.778-2.275-6.778-2.275-2.136 0-3.367 1-3.367 2.411v.09c0 1.73 2.595 2.457 5.414 3.368 3.501 1.09 7.46 2.683 7.46 7.003v.092c0 5.05-3.912 7.55-8.914 7.55-3.412 0-7.187-1.228-10.19-3.593l2.456-3.73zm25.257-5.141c0-6.868 4.867-12.509 11.737-12.509 7.642 0 11.507 6.005 11.507 12.918 0 .501-.044 1.001-.09 1.548H278.72c.59 3.911 3.366 6.095 6.914 6.095 2.683 0 4.593-1.001 6.505-2.867l3.228 2.867c-2.275 2.728-5.415 4.502-9.826 4.502-6.96 0-12.327-5.05-12.327-12.463v-.091zm17.787-1.682c-.366-3.548-2.456-6.323-6.096-6.323-3.366 0-5.73 2.592-6.23 6.323H291zm54.385-1.4a.275.275 0 0 1-.087.204c-.058.059-.14.087-.247.087h-.55c-.106 0-.188-.028-.246-.087a.276.276 0 0 1-.087-.203v-8.708h-1.898a.28.28 0 0 1-.204-.086.338.338 0 0 1-.086-.246v-.48c0-.105.03-.187.086-.245a.28.28 0 0 1 .204-.086h5.013c.076 0 .144.028.202.086.059.058.088.14.088.246v.48c0 .105-.03.187-.088.245a.276.276 0 0 1-.202.086h-1.898v8.708zm10.726-.071c.039.096.058.16.058.188 0 .116-.082.174-.246.174h-.71c-.184 0-.313-.091-.392-.274l-1.42-3.421h-1.347v3.405a.277.277 0 0 1-.087.204c-.058.058-.14.086-.246.086h-.551c-.106 0-.188-.028-.245-.086a.277.277 0 0 1-.087-.204v-9.56c0-.08.028-.147.087-.206a.334.334 0 0 1 .245-.086h2.434c.648 0 1.196.22 1.645.66.45.439.674.973.674 1.6v1.927c0 .463-.117.878-.348 1.24a2.159 2.159 0 0 1-.97.818l1.506 3.535zm-1.42-7.534c0-.3-.11-.559-.333-.775a1.099 1.099 0 0 0-.796-.327h-1.508v4.174h1.508c.308 0 .575-.107.796-.32.222-.212.333-.467.333-.767v-1.985zm10.175 3.288c.059.174.087.348.087.522v3.796a.277.277 0 0 1-.087.204c-.057.058-.14.086-.245.086h-.552c-.106 0-.188-.028-.245-.086a.277.277 0 0 1-.087-.204v-2.94h-3.145v2.94c0 .078-.029.145-.087.204-.057.058-.14.086-.246.086h-.552c-.105 0-.188-.028-.245-.086a.282.282 0 0 1-.086-.204v-3.796c0-.174.029-.352.086-.536l1.58-5.229c.058-.195.174-.291.348-.291h1.55c.174 0 .288.096.347.291l1.58 5.243zm-2.565-4.39h-.274l-1.376 4.636h3.042l-1.392-4.636zm11.35 8.708a.275.275 0 0 1-.087.203c-.058.059-.14.087-.246.087h-.826c-.145 0-.255-.096-.333-.29l-2.622-6.78-.334-1.145h-.087l.174 1.68v6.245c0 .077-.029.146-.087.203-.059.059-.14.087-.247.087h-.55c-.106 0-.189-.028-.246-.087a.28.28 0 0 1-.086-.203V14.8a.28.28 0 0 1 .086-.204c.057-.058.14-.086.245-.086h.827c.145 0 .257.095.333.29l2.637 6.823.32 1.101h.086l-.173-1.608V14.8c0-.078.028-.146.087-.204.057-.058.14-.086.245-.086h.55c.107 0 .189.028.247.086a.275.275 0 0 1 .087.204v9.56zm3.034-2.332c0-.078.028-.145.087-.204.057-.058.14-.086.245-.086h.55c.107 0 .189.028.247.086a.277.277 0 0 1 .087.204c0 .463.147.85.442 1.158.295.31.703.464 1.223.464.484 0 .875-.137 1.174-.413.3-.275.45-.605.45-.992 0-.493-.15-.91-.45-1.252a3.616 3.616 0 0 0-1.086-.842 45.035 45.035 0 0 1-1.282-.68 3.338 3.338 0 0 1-1.094-.97c-.3-.411-.45-.906-.45-1.487 0-.753.269-1.382.806-1.89.535-.507 1.185-.76 1.949-.76.81 0 1.467.264 1.968.796.503.531.754 1.067.754 1.607a.28.28 0 0 1-.087.205.334.334 0 0 1-.246.086h-.55c-.204 0-.313-.096-.333-.29-.03-.29-.186-.567-.472-.832a1.458 1.458 0 0 0-1.034-.398c-.427 0-.786.134-1.08.404-.295.27-.442.605-.442 1 0 .386.15.722.449 1.008.3.285.664.535 1.093.753.431.217.86.454 1.29.71.43.256.794.613 1.093 1.072.3.46.45 1.006.45 1.643 0 .706-.259 1.328-.775 1.862-.518.536-1.215.805-2.095.805-.897 0-1.602-.265-2.114-.798-.513-.53-.767-1.187-.767-1.97zm10.494 2.332c0 .078-.03.145-.088.204a.274.274 0 0 1-.202.086h-.595c-.106 0-.189-.028-.246-.086a.282.282 0 0 1-.086-.204v-9.56c0-.08.029-.147.086-.206a.334.334 0 0 1 .246-.086h2.435c.647 0 1.195.22 1.644.66.45.439.674.973.674 1.6v2.086c0 .639-.224 1.176-.674 1.615-.449.441-.997.66-1.644.66h-1.55v3.231zm2.636-7.606c0-.31-.111-.57-.334-.782a1.129 1.129 0 0 0-.81-.32h-1.492v4.334h1.491c.32 0 .59-.108.811-.32.223-.213.334-.468.334-.767v-2.145zm9.84 3.288c.06.174.087.348.087.522v3.796a.277.277 0 0 1-.086.204c-.057.058-.14.086-.245.086h-.552c-.106 0-.189-.028-.246-.086a.277.277 0 0 1-.086-.204v-2.94h-3.145v2.94c0 .078-.03.145-.088.204-.057.058-.14.086-.245.086h-.552c-.105 0-.188-.028-.245-.086a.282.282 0 0 1-.087-.204v-3.796c0-.174.03-.352.087-.536l1.579-5.229c.058-.195.174-.291.348-.291h1.55c.175 0 .29.096.348.291l1.579 5.243zm-2.564-4.39h-.275l-1.375 4.636h3.041l-1.39-4.636zm11.205 8.636c.039.096.058.16.058.188 0 .116-.082.174-.246.174h-.71c-.184 0-.313-.091-.392-.274l-1.42-3.421h-1.347v3.405a.277.277 0 0 1-.087.204c-.058.058-.14.086-.246.086h-.551c-.106 0-.188-.028-.245-.086a.277.277 0 0 1-.087-.204v-9.56c0-.08.028-.147.087-.206a.334.334 0 0 1 .245-.086h2.434c.648 0 1.196.22 1.645.66.45.439.674.973.674 1.6v1.927c0 .463-.117.878-.348 1.24a2.159 2.159 0 0 1-.97.818l1.506 3.535zm-1.42-7.534c0-.3-.11-.559-.333-.775a1.099 1.099 0 0 0-.796-.327h-1.508v4.174h1.508c.308 0 .575-.107.796-.32.222-.212.333-.467.333-.767v-1.985zm5.279 7.896c-.106 0-.188-.028-.247-.086a.283.283 0 0 1-.087-.204v-9.561c0-.079.03-.146.087-.205a.339.339 0 0 1 .247-.086h4.332c.077 0 .144.03.202.086.059.059.087.141.087.247v.478c0 .107-.028.188-.087.247a.276.276 0 0 1-.202.086h-3.448v3.086h3.1c.077 0 .144.03.202.088.059.059.088.14.088.247v.463c0 .105-.03.188-.088.245a.276.276 0 0 1-.202.088h-3.1v3.635h3.564a.28.28 0 0 1 .202.088c.059.059.087.141.087.247v.478c0 .107-.028.188-.087.247a.274.274 0 0 1-.202.086h-4.448zm13.68-.29a.275.275 0 0 1-.086.203c-.058.059-.14.087-.246.087h-.826c-.145 0-.255-.096-.333-.29l-2.622-6.78-.334-1.145h-.087l.175 1.68v6.245c0 .077-.03.146-.088.203-.059.059-.14.087-.247.087h-.55c-.106 0-.189-.028-.246-.087a.28.28 0 0 1-.086-.203V14.8a.28.28 0 0 1 .086-.204c.057-.058.14-.086.245-.086h.827c.145 0 .257.095.333.29l2.637 6.823.32 1.101h.086l-.173-1.608V14.8c0-.078.028-.146.087-.204.057-.058.14-.086.245-.086h.55c.107 0 .189.028.247.086a.275.275 0 0 1 .087.204v9.56zm6.062.435c-.792 0-1.456-.261-1.992-.782a2.554 2.554 0 0 1-.805-1.899v-5.084c0-.745.27-1.374.805-1.892.536-.516 1.2-.774 1.992-.774.822 0 1.483.263 1.985.788.503.528.753 1.06.753 1.601 0 .079-.03.146-.086.205a.339.339 0 0 1-.246.086h-.55c-.205 0-.315-.096-.335-.29-.028-.29-.188-.57-.477-.84a1.481 1.481 0 0 0-1.044-.406c-.444 0-.816.144-1.115.435-.3.29-.45.646-.45 1.07v5.116c0 .425.15.786.45 1.08.299.295.671.441 1.115.441.425 0 .789-.146 1.094-.441.304-.294.456-.655.456-1.08 0-.076.03-.145.087-.203.058-.057.14-.085.247-.085h.55c.107 0 .188.028.247.085a.284.284 0 0 1 .086.203 2.54 2.54 0 0 1-.796 1.891c-.533.517-1.189.775-1.97.775zm9.161-.435a.275.275 0 0 1-.086.203c-.059.059-.14.087-.247.087h-.55c-.106 0-.189-.028-.246-.087a.276.276 0 0 1-.088-.203v-4.507l-2.478-4.982a.467.467 0 0 1-.057-.188c0-.117.081-.174.245-.174h.711c.184 0 .32.095.406.29l1.781 3.692 1.783-3.692c.088-.195.222-.29.406-.29h.71c.163 0 .246.057.246.174 0 .047-.02.11-.059.188l-2.477 4.982v4.507zm14.976.29c-.105 0-.188-.028-.246-.086a.282.282 0 0 1-.087-.204v-9.561c0-.079.03-.146.087-.205a.339.339 0 0 1 .246-.086h4.333a.28.28 0 0 1 .202.086.334.334 0 0 1 .088.247v.478c0 .107-.03.188-.088.247a.274.274 0 0 1-.202.086h-3.449v3.086h3.1c.078 0 .145.03.204.088.058.059.086.14.086.247v.463c0 .105-.028.188-.086.245a.279.279 0 0 1-.204.088h-3.1v4.491c0 .078-.029.145-.086.204a.276.276 0 0 1-.202.086h-.596zm13.393-2.522c0 .706-.263 1.327-.79 1.862-.527.537-1.22.805-2.079.805-.878 0-1.579-.268-2.1-.805-.523-.535-.784-1.16-.784-1.875V17.03c0-.714.261-1.337.784-1.869.521-.531 1.222-.796 2.1-.796.86 0 1.552.267 2.078.804.528.535.791 1.157.791 1.861v5.1zm-1.232-5.114c0-.404-.148-.758-.441-1.058-.295-.299-.695-.449-1.196-.449-.512 0-.915.15-1.21.45-.294.3-.441.653-.441 1.057v5.114c0 .418.147.774.44 1.074.296.299.699.449 1.211.449.501 0 .9-.15 1.196-.45.293-.3.44-.652.44-1.059v-5.128zm9.683 7.274c.038.096.058.16.058.188 0 .116-.082.174-.246.174h-.71c-.184 0-.313-.091-.392-.274l-1.42-3.421h-1.347v3.405a.277.277 0 0 1-.087.204c-.058.058-.14.086-.246.086h-.551c-.106 0-.188-.028-.245-.086a.277.277 0 0 1-.087-.204v-9.56c0-.08.028-.147.087-.206a.334.334 0 0 1 .245-.086h2.434c.648 0 1.196.22 1.645.66.45.439.674.973.674 1.6v1.927c0 .463-.117.878-.348 1.24a2.159 2.159 0 0 1-.97.818l1.506 3.535zm-1.42-7.534c0-.3-.11-.559-.333-.775a1.099 1.099 0 0 0-.796-.327h-1.508v4.174h1.508c.308 0 .575-.107.796-.32.222-.212.333-.467.333-.767v-1.985zm-134.564 19.77c0-.077.028-.145.086-.203.058-.059.14-.087.246-.087h.55c.107 0 .189.028.247.087a.277.277 0 0 1 .087.203c0 .463.147.85.442 1.159.295.31.703.464 1.223.464.484 0 .875-.138 1.174-.414.3-.274.45-.605.45-.991 0-.494-.15-.91-.45-1.253a3.616 3.616 0 0 0-1.086-.842 45.033 45.033 0 0 1-1.282-.68 3.338 3.338 0 0 1-1.094-.97c-.3-.411-.45-.906-.45-1.487 0-.753.269-1.382.804-1.89.537-.507 1.187-.76 1.95-.76.811 0 1.468.265 1.97.796.502.532.753 1.067.753 1.608a.28.28 0 0 1-.087.204.334.334 0 0 1-.246.087h-.55c-.204 0-.313-.097-.333-.291-.03-.29-.186-.566-.472-.832a1.459 1.459 0 0 0-1.035-.398 1.54 1.54 0 0 0-1.08.404c-.295.271-.441.606-.441 1 0 .386.15.722.449 1.008.3.285.664.535 1.093.753.431.217.86.454 1.29.71.43.256.794.614 1.093 1.073.3.459.45 1.006.45 1.643 0 .705-.259 1.327-.775 1.861-.518.537-1.215.805-2.095.805-.897 0-1.602-.264-2.114-.797-.513-.53-.767-1.188-.767-1.97zm14.42.101a2.57 2.57 0 0 1-.783 1.885c-.521.52-1.206.78-2.057.78-.86 0-1.552-.26-2.08-.78a2.577 2.577 0 0 1-.789-1.899v-7.317c0-.077.03-.145.087-.203.058-.059.14-.087.246-.087h.55c.106 0 .189.028.248.087a.283.283 0 0 1 .087.203v7.331c0 .407.144.762.434 1.064.29.306.695.458 1.217.458.502 0 .899-.152 1.189-.458a1.48 1.48 0 0 0 .435-1.05v-7.345c0-.077.028-.145.086-.203.057-.059.14-.087.246-.087h.55c.107 0 .188.028.247.087a.277.277 0 0 1 .086.203v7.331zm2.975-.1c0-.078.028-.146.087-.204.057-.059.14-.087.245-.087h.55c.108 0 .19.028.248.087a.277.277 0 0 1 .086.203c0 .463.148.85.443 1.159.295.31.703.464 1.223.464.483 0 .875-.138 1.174-.414.3-.274.45-.605.45-.991 0-.494-.15-.91-.45-1.253a3.616 3.616 0 0 0-1.086-.842 45.035 45.035 0 0 1-1.282-.68 3.338 3.338 0 0 1-1.095-.97c-.299-.411-.449-.906-.449-1.487 0-.753.268-1.382.805-1.89.535-.507 1.185-.76 1.95-.76.81 0 1.467.265 1.968.796.502.532.754 1.067.754 1.608a.28.28 0 0 1-.088.204.334.334 0 0 1-.245.087h-.55c-.204 0-.314-.097-.334-.291-.03-.29-.186-.566-.472-.832a1.458 1.458 0 0 0-1.034-.398c-.427 0-.785.135-1.08.404-.294.271-.442.606-.442 1 0 .386.15.722.45 1.008.3.285.663.535 1.093.753.43.217.86.454 1.29.71.429.256.794.614 1.093 1.073.3.459.45 1.006.45 1.643 0 .705-.26 1.327-.776 1.861-.517.537-1.214.805-2.094.805-.898 0-1.602-.264-2.115-.797-.512-.53-.767-1.188-.767-1.97zm12.189 2.331a.275.275 0 0 1-.087.204c-.058.058-.14.086-.246.086h-.551c-.106 0-.188-.028-.245-.086a.276.276 0 0 1-.088-.204V30.15h-1.897a.28.28 0 0 1-.205-.086.338.338 0 0 1-.085-.246v-.479c0-.105.029-.188.085-.245a.28.28 0 0 1 .205-.087h5.012c.077 0 .144.028.202.087.059.057.088.14.088.245v.48c0 .105-.03.188-.088.245a.276.276 0 0 1-.202.086h-1.898v8.708zm10.784-4.318c.058.174.086.349.086.523v3.795a.277.277 0 0 1-.086.204c-.057.058-.14.086-.246.086h-.55c-.107 0-.19-.028-.247-.086a.277.277 0 0 1-.086-.204v-2.94h-3.145v2.94c0 .078-.03.145-.088.204-.057.058-.14.086-.245.086h-.552c-.106 0-.188-.028-.246-.086a.282.282 0 0 1-.086-.204v-3.795c0-.174.03-.352.086-.537l1.58-5.229c.058-.194.174-.29.348-.29h1.55c.174 0 .289.096.347.29l1.58 5.243zm-2.565-4.39h-.275l-1.376 4.637h3.042l-1.391-4.636zm6.062 8.998a.275.275 0 0 1-.204-.086.337.337 0 0 1-.086-.247v-.478c0-.105.03-.188.086-.247a.281.281 0 0 1 .204-.087h1.897V30.15h-1.897a.275.275 0 0 1-.204-.087.337.337 0 0 1-.086-.247v-.478c0-.105.03-.188.086-.246a.28.28 0 0 1 .204-.087h5.012a.28.28 0 0 1 .203.087.334.334 0 0 1 .087.246v.478c0 .107-.029.189-.087.247a.274.274 0 0 1-.203.087h-1.898v7.852h1.898a.28.28 0 0 1 .203.087.334.334 0 0 1 .087.247v.478c0 .107-.029.188-.087.247a.274.274 0 0 1-.203.086h-5.012zm13.984-.29a.275.275 0 0 1-.087.204c-.058.058-.14.086-.247.086h-.825c-.145 0-.255-.095-.333-.29l-2.622-6.78-.335-1.144h-.086l.174 1.68v6.244c0 .078-.029.146-.088.204-.058.058-.14.086-.246.086h-.55c-.106 0-.189-.028-.246-.086a.28.28 0 0 1-.087-.204v-9.56a.28.28 0 0 1 .087-.204c.057-.059.14-.087.245-.087h.827c.145 0 .257.096.333.29l2.637 6.823.32 1.102h.086l-.173-1.609v-6.316c0-.077.028-.146.086-.203.058-.059.14-.087.246-.087h.55c.107 0 .189.028.247.087a.275.275 0 0 1 .087.203v9.561zm8.61-4.318c.06.174.087.349.087.523v3.795a.277.277 0 0 1-.086.204c-.058.058-.14.086-.246.086h-.55c-.107 0-.19-.028-.247-.086a.277.277 0 0 1-.087-.204v-2.94h-3.144v2.94c0 .078-.03.145-.088.204-.057.058-.14.086-.245.086h-.552c-.106 0-.188-.028-.246-.086a.282.282 0 0 1-.086-.204v-3.795c0-.174.03-.352.086-.537l1.58-5.229c.058-.194.174-.29.348-.29h1.55c.174 0 .289.096.347.29l1.58 5.243zm-2.564-4.39h-.275l-1.376 4.637h3.042l-1.391-4.636zm8.713-1.143c.686 0 1.255.22 1.71.66.453.438.68.972.68 1.6v.796c0 .649-.275 1.221-.826 1.725.62.502.927 1.13.927 1.883v1.044c0 .696-.25 1.274-.752 1.738a2.546 2.546 0 0 1-1.783.696h-2.275a.334.334 0 0 1-.245-.087.278.278 0 0 1-.087-.204v-9.562c0-.077.028-.145.087-.203.057-.058.14-.086.245-.086h2.32zm-1.435 8.996h1.39c.377 0 .693-.127.943-.384.252-.256.376-.557.376-.904V35.67c0-.29-.113-.58-.339-.869-.229-.29-.554-.434-.98-.434h-1.39v3.635zm0-7.852v3.115h1.463c.328 0 .61-.112.84-.334.232-.22.348-.492.348-.811v-.84c0-.31-.116-.574-.347-.797a1.174 1.174 0 0 0-.84-.333h-1.464zm8.016 8.997c-.105 0-.188-.028-.246-.086a.287.287 0 0 1-.087-.204v-9.56c0-.08.03-.147.087-.205a.339.339 0 0 1 .246-.087h.566c.107 0 .189.03.247.087a.278.278 0 0 1 .087.204v8.706h3.49c.079 0 .146.03.205.087a.339.339 0 0 1 .086.247v.478c0 .107-.029.188-.086.247a.278.278 0 0 1-.205.086h-4.39zm8.468 0c-.106 0-.189-.028-.247-.086a.283.283 0 0 1-.088-.204v-9.56c0-.08.03-.147.088-.205a.339.339 0 0 1 .247-.087h4.332c.076 0 .144.03.202.087a.339.339 0 0 1 .087.246v.478c0 .107-.03.189-.087.247a.276.276 0 0 1-.202.087h-3.449v3.086h3.1c.078 0 .144.029.203.087.058.059.087.14.087.247v.463c0 .106-.029.188-.087.245a.276.276 0 0 1-.203.088h-3.1v3.636H434c.076 0 .143.03.202.087.058.059.086.142.086.247v.478c0 .107-.028.188-.086.247a.276.276 0 0 1-.202.086h-4.448zm17.395 0c-.106 0-.188-.028-.247-.086a.283.283 0 0 1-.087-.204v-9.56c0-.08.03-.147.087-.205a.339.339 0 0 1 .247-.087h4.332c.077 0 .144.03.202.087a.339.339 0 0 1 .087.246v.478c0 .107-.03.189-.087.247a.276.276 0 0 1-.202.087h-3.448v3.086h3.1c.077 0 .144.029.202.087.059.059.088.14.088.247v.463c0 .106-.03.188-.088.245a.276.276 0 0 1-.202.088h-3.1v3.636h3.564c.076 0 .144.03.202.087.059.059.087.142.087.247v.478c0 .107-.028.188-.087.247a.276.276 0 0 1-.202.086h-4.448zm11.044.145c-.792 0-1.456-.26-1.992-.782a2.554 2.554 0 0 1-.805-1.899v-5.084c0-.745.27-1.374.805-1.892.536-.516 1.2-.774 1.992-.774.822 0 1.483.263 1.985.788.503.528.753 1.06.753 1.601 0 .08-.03.147-.086.205a.339.339 0 0 1-.246.086h-.55c-.205 0-.314-.096-.335-.29-.028-.29-.188-.57-.477-.84a1.481 1.481 0 0 0-1.044-.406c-.443 0-.816.144-1.115.435-.3.29-.45.646-.45 1.071v5.116c0 .424.15.785.45 1.08.3.294.672.44 1.115.44.425 0 .789-.146 1.094-.44.304-.295.457-.656.457-1.08 0-.077.029-.145.086-.204.058-.057.14-.085.247-.085h.55c.107 0 .188.028.247.085a.284.284 0 0 1 .086.204 2.54 2.54 0 0 1-.796 1.89c-.532.517-1.189.775-1.97.775zm11.437-2.666c0 .705-.263 1.326-.79 1.861-.527.537-1.22.805-2.079.805-.878 0-1.579-.268-2.1-.805-.523-.535-.784-1.16-.784-1.875v-5.085c0-.715.261-1.338.784-1.87.521-.531 1.222-.796 2.1-.796.86 0 1.552.267 2.078.804.528.535.791 1.157.791 1.862v5.099zm-1.232-5.115c0-.404-.148-.758-.441-1.058-.295-.298-.695-.449-1.196-.449-.512 0-.915.15-1.21.45-.294.3-.441.653-.441 1.057v5.115c0 .417.147.773.44 1.073.296.299.699.449 1.211.449.501 0 .9-.15 1.196-.45.293-.3.44-.651.44-1.058v-5.129zm9.827 7.346a.275.275 0 0 1-.086.204c-.059.058-.14.086-.247.086h-.825c-.145 0-.256-.095-.333-.29l-2.622-6.78-.335-1.144h-.086l.174 1.68v6.244c0 .078-.03.146-.088.204-.058.058-.14.086-.246.086h-.551c-.106 0-.188-.028-.245-.086a.28.28 0 0 1-.087-.204v-9.56a.28.28 0 0 1 .087-.204c.057-.059.14-.087.245-.087h.826c.145 0 .257.096.334.29l2.637 6.823.32 1.102h.086l-.173-1.609v-6.316c0-.077.028-.146.086-.203.057-.059.14-.087.246-.087h.55c.107 0 .188.028.247.087a.275.275 0 0 1 .086.203v9.561zm8.8-2.231c0 .705-.265 1.326-.792 1.861-.526.537-1.218.805-2.078.805-.878 0-1.579-.268-2.1-.805-.523-.535-.784-1.16-.784-1.875v-5.085c0-.715.261-1.338.784-1.87.521-.531 1.222-.796 2.1-.796.86 0 1.552.267 2.078.804.527.535.791 1.157.791 1.862v5.099zm-1.233-5.115c0-.404-.148-.758-.441-1.058-.295-.298-.695-.449-1.196-.449-.512 0-.915.15-1.21.45-.294.3-.441.653-.441 1.057v5.115c0 .417.147.773.44 1.073.296.299.699.449 1.211.449.501 0 .9-.15 1.196-.45.293-.3.44-.651.44-1.058v-5.129zm7.698 2.551c-.077.192-.188.29-.334.29h-.637c-.144 0-.256-.098-.332-.29l-.87-2.304-.247-1.042-.087.014.117 1.695v6.433c0 .077-.03.145-.087.203-.058.059-.14.087-.247.087h-.55c-.107 0-.188-.028-.247-.087a.283.283 0 0 1-.088-.203v-9.562c0-.078.03-.146.088-.204a.337.337 0 0 1 .247-.087h1.013c.164 0 .276.097.335.291l1.246 3.824h.057l1.246-3.824c.057-.194.168-.29.332-.29h1.016c.106 0 .188.029.246.086a.278.278 0 0 1 .086.204v9.562a.277.277 0 0 1-.086.203c-.058.059-.14.087-.246.087h-.55c-.107 0-.189-.028-.247-.087a.279.279 0 0 1-.088-.203v-6.433l.116-1.695-.087-.014-.245 1.027-.87 2.32zm5.54 5.085a.275.275 0 0 1-.204-.086.337.337 0 0 1-.086-.247v-.478c0-.105.029-.188.086-.247a.281.281 0 0 1 .204-.087h1.897V30.15h-1.897a.275.275 0 0 1-.204-.087.337.337 0 0 1-.086-.247v-.478c0-.105.029-.188.086-.246a.28.28 0 0 1 .204-.087h5.012a.28.28 0 0 1 .202.087.334.334 0 0 1 .088.246v.478c0 .107-.03.189-.088.247a.274.274 0 0 1-.202.087h-1.898v7.852h1.898a.28.28 0 0 1 .202.087.334.334 0 0 1 .088.247v.478c0 .107-.03.188-.088.247a.274.274 0 0 1-.202.086h-5.012zm9.002 0c-.106 0-.188-.028-.247-.086a.283.283 0 0 1-.088-.204v-9.56c0-.08.03-.147.088-.205a.339.339 0 0 1 .247-.087h4.332c.076 0 .144.03.202.087.059.058.087.14.087.246v.478c0 .107-.028.189-.087.247a.276.276 0 0 1-.202.087h-3.448v3.086h3.1c.077 0 .143.029.202.087.058.059.088.14.088.247v.463c0 .106-.03.188-.088.245a.276.276 0 0 1-.202.088h-3.1v3.636h3.564a.28.28 0 0 1 .202.087c.059.059.086.142.086.247v.478c0 .107-.027.188-.086.247a.274.274 0 0 1-.202.086h-4.448zm8.017-2.622c0-.077.028-.145.087-.203.057-.059.14-.087.245-.087h.55c.107 0 .189.028.247.087a.277.277 0 0 1 .087.203c0 .463.147.85.442 1.159.295.31.703.464 1.224.464.483 0 .874-.138 1.173-.414.3-.274.45-.605.45-.991 0-.494-.15-.91-.45-1.253a3.616 3.616 0 0 0-1.086-.842 45.035 45.035 0 0 1-1.282-.68 3.338 3.338 0 0 1-1.094-.97c-.3-.411-.45-.906-.45-1.487 0-.753.27-1.382.806-1.89.535-.507 1.185-.76 1.949-.76.81 0 1.467.265 1.968.796.503.532.755 1.067.755 1.608a.28.28 0 0 1-.088.204.334.334 0 0 1-.246.087h-.55c-.204 0-.313-.097-.333-.291-.03-.29-.186-.566-.472-.832a1.458 1.458 0 0 0-1.034-.398c-.427 0-.786.135-1.08.404-.295.271-.442.606-.442 1 0 .386.15.722.449 1.008.3.285.664.535 1.093.753.431.217.86.454 1.29.71.43.256.795.614 1.093 1.073.3.459.45 1.006.45 1.643 0 .705-.259 1.327-.775 1.861-.518.537-1.215.805-2.094.805-.898 0-1.603-.264-2.115-.797-.513-.53-.767-1.188-.767-1.97z"/><path fill="url(#a)" d="M5.697 19.332H.314v11.876h5.383c7.353 0 14.553-3.759 22.888-8.109 9.809-5.122 20.928-10.925 33.79-10.925 12.861 0 23.978 5.803 33.788 10.925l.948.494c5.005-2.608 9.61-4.949 14.103-6.327-2.891-1.232-6.088-2.9-9.516-4.69C91.216 7.105 78.171.297 62.374.297c-15.797 0-28.842 6.808-39.324 12.28-6.94 3.625-12.934 6.756-17.353 6.756z" transform="translate(0 3)"/><path fill="url(#b)" d="M119.052 19.332c-7.354 0-14.553 3.757-22.889 8.109-9.81 5.121-20.927 10.925-33.789 10.925-12.861 0-23.98-5.804-33.789-10.925l-.948-.495c-5.004 2.608-9.61 4.95-14.103 6.328 2.891 1.23 6.088 2.898 9.516 4.688 10.482 5.472 23.527 12.282 39.324 12.282 15.797 0 28.842-6.81 39.324-12.282 6.94-3.624 12.934-6.754 17.354-6.754h5.383V19.332h-5.383z" transform="translate(0 3)"/></g></svg>