<svg xmlns="http://www.w3.org/2000/svg" width="71" height="32"><defs><linearGradient id="a" x1="0%" x2="97.04%" y1="50%" y2="50%"><stop stop-color="#EB6A6A" offset="0%"/><stop stop-color="#EB6A6A" stop-opacity="0" offset="100%"/></linearGradient><linearGradient id="b" x1="0%" y1="50%" y2="50%"><stop stop-color="#EB6A6A" stop-opacity="0" offset="0%"/><stop stop-color="#EB696A" offset="100%"/></linearGradient></defs><g fill="none" fill-rule="evenodd"><path fill="url(#a)" d="M2.968 10.073H.163v6.189h2.805c3.832 0 7.583-1.959 11.927-4.226C20.006 9.368 25.8 6.343 32.5 6.343c6.703 0 12.495 3.025 17.607 5.693l.494.257c2.608-1.358 5.008-2.578 7.349-3.296-1.507-.642-3.173-1.51-4.959-2.444C47.53 3.702 40.732.154 32.502.154c-8.232 0-15.03 3.548-20.491 6.4-3.616 1.888-6.74 3.52-9.043 3.52z" transform="translate(0 .563)"/><path fill="url(#b)" d="M62.035 10.073c-3.832 0-7.584 1.958-11.927 4.226-5.112 2.668-10.904 5.692-17.607 5.692-6.701 0-12.495-3.024-17.606-5.692l-.494-.258c-2.608 1.359-5.008 2.579-7.349 3.297 1.507.641 3.173 1.51 4.959 2.443 5.461 2.851 12.259 6.4 20.49 6.4 8.232 0 15.03-3.549 20.491-6.4 3.616-1.888 6.74-3.52 9.043-3.52h2.804v-6.188h-2.804z" transform="translate(0 .563)"/><path fill="#34444C" d="M52.12 25.79c.227 0 .42.077.58.23.16.153.24.337.24.55v.58c0 .22-.08.407-.24.56a.808.808 0 0 1-.58.23h-1.01v-2.15h1.01zm-1.01 2.91h.96c.293 0 .518.1.675.3.157.2.235.4.235.6v.72c0 .24-.087.448-.26.625a.873.873 0 0 1-.65.265h-.96V28.7zM50.5 25c-.073 0-.13.02-.17.06a.192.192 0 0 0-.06.14v6.6c0 .053.02.1.06.14.04.04.097.06.17.06h1.57c.473 0 .883-.16 1.23-.48.347-.32.52-.72.52-1.2v-.72c0-.52-.213-.953-.64-1.3.38-.347.57-.743.57-1.19v-.55a1.48 1.48 0 0 0-.47-1.105c-.313-.303-.707-.455-1.18-.455h-1.6zm8.55 7c.053 0 .1-.02.14-.06.04-.04.06-.097.06-.17v-.33c0-.073-.02-.13-.06-.17a.192.192 0 0 0-.14-.06h-2.46V28.7h2.14c.053 0 .1-.02.14-.06.04-.04.06-.097.06-.17v-.32c0-.073-.02-.13-.06-.17a.192.192 0 0 0-.14-.06h-2.14v-2.13h2.38c.053 0 .1-.02.14-.06.04-.04.06-.097.06-.17v-.33c0-.073-.02-.13-.06-.17a.192.192 0 0 0-.14-.06h-2.99c-.073 0-.13.02-.17.06a.192.192 0 0 0-.06.14v6.6c0 .053.02.1.06.14.04.04.097.06.17.06h3.07zm4.37-6.21h1.31c.053 0 .1-.02.14-.06.04-.04.06-.097.06-.17v-.33c0-.073-.02-.13-.06-.17a.192.192 0 0 0-.14-.06h-3.46c-.053 0-.1.02-.14.06-.04.04-.06.097-.06.17v.33c0 .073.02.13.06.17.04.04.087.06.14.06h1.31v6.01c0 .053.02.1.06.14.04.04.097.06.17.06h.38c.073 0 .13-.02.17-.06.04-.04.06-.087.06-.14v-6.01zm6.13 3.2h-2.1l.95-3.2h.19l.96 3.2zm-.28-3.79c-.04-.133-.12-.2-.24-.2h-1.07c-.12 0-.2.067-.24.2l-1.09 3.61c-.04.127-.06.25-.06.37v2.62c0 .053.02.1.06.14.04.04.097.06.17.06h.38c.073 0 .13-.02.17-.06.04-.04.06-.087.06-.14v-2.03h2.17v2.03c0 .053.02.1.06.14.04.04.097.06.17.06h.38c.073 0 .13-.02.17-.06.04-.04.06-.087.06-.14v-2.62c0-.12-.02-.24-.06-.36l-1.09-3.62z" opacity=".6"/></g></svg>