<svg xmlns="http://www.w3.org/2000/svg" width="67" height="27" viewBox="0 0 67 27">
  <defs>
    <linearGradient id="a" x1="0%" x2="98.029%" y1="50%" y2="50%">
      <stop stop-color="#EB6A6A" offset="0%"/>
      <stop stop-color="#FFFFFF" offset="100%"/>
    </linearGradient>
    <linearGradient id="b" x1="0%" y1="50%" y2="50%">
      <stop stop-color="#FFFFFF" offset="0%"/>
      <stop stop-color="#EB6A6A" offset="100%"/>
    </linearGradient>
  </defs>
  <g fill="none" fill-rule="evenodd">
    <path fill="url(#a)" d="M12.2290123,6.6582 C8.54740741,8.577225 5.36691358,10.23435 3.02228395,10.23435 L0.166358025,10.23435 L0.166358025,16.521975 L3.02228395,16.521975 C6.92388889,16.521975 10.7433333,14.532075 15.1657407,12.228975 C20.3696914,9.5175 26.2689506,6.4449 33.0923457,6.4449 C39.9164198,6.4449 45.814321,9.5175 51.0189506,12.228975 C51.1880247,12.316725 51.3550617,12.4038 51.5220988,12.4902 C54.177037,11.109825 56.6208025,9.870525 59.0041358,9.14085 C57.4702469,8.4888 55.7740741,7.6059 53.955679,6.6582 C48.3945679,3.7611 41.4733951,0.1566 33.0923457,0.1566 C24.7112963,0.1566 17.7901235,3.7611 12.2290123,6.6582 L12.2290123,6.6582 Z"/>
    <path fill="url(#b)" d="M63.1624074,10.23435 C59.2608025,10.23435 55.441358,12.223575 51.0189506,14.52735 C45.814321,17.238825 39.9164198,20.311425 33.0923457,20.311425 C26.2689506,20.311425 20.3696914,17.238825 15.1657407,14.52735 C14.9959877,14.4396 14.8296296,14.352525 14.6625926,14.26545 C12.0076543,15.6465 9.56388889,16.8858 7.18055556,17.615475 C8.71444444,18.26685 10.4106173,19.14975 12.2290123,20.09745 C17.7901235,22.99455 24.7112963,26.599725 33.0923457,26.599725 C41.4733951,26.599725 48.3945679,22.99455 53.955679,20.09745 C57.637284,18.1791 60.8177778,16.521975 63.1624074,16.521975 L66.0183333,16.521975 L66.0183333,10.23435 L63.1624074,10.23435 L63.1624074,10.23435 Z"/>
  </g>
</svg>
