<svg xmlns="http://www.w3.org/2000/svg" viewBox="0 0 132 24">
  <defs/>
  <defs>
    <linearGradient id="a" x1="0%" x2="97.04%" y1="50%" y2="50%">
      <stop offset="0%" stop-color="#EB6A6A"/>
      <stop offset="100%" stop-color="#EB6A6A" stop-opacity="0"/>
    </linearGradient>
    <linearGradient id="b" x1="0%" x2="100%" y1="50%" y2="50%">
      <stop offset="0%" stop-color="#EB6A6A" stop-opacity="0"/>
      <stop offset="100%" stop-color="#EB696A"/>
    </linearGradient>
  </defs>
  <g fill="none" fill-rule="nonzero">
    <path fill="url(#a)" d="M2.57256613 9.23695612H0V15h2.57256613c3.51449476 0 6.9549809-1.8238812 10.93860497-3.9348319 4.6876241-2.4852547 10.0015695-5.30150546 16.1479597-5.30150546 6.1470018 0 11.4597239 2.81625076 16.1479597 5.30150546.1522987.0804289.3027627.1602392.4532267.2394309C48.6518372 10.0393896 50.8531367 8.90348532 53 8.23468762c-1.3816993-.59764901-2.9095808-1.40688806-4.5475581-2.27552075C43.4430942 3.30377399 37.2086276 0 29.6591308 0c-7.5494969 0-13.7839634 3.30377399-18.7933112 5.95916687-3.31632277 1.75891938-6.18125375 3.27778925-8.29325347 3.27778925z"/>
    <path fill="url(#b)" d="M56.4274339 9c-3.5144948 0-6.9549809 1.8232625-10.938605 3.9348319-4.6882357 2.4852547-10.0009579 5.3015055-16.1479596 5.3015055-6.1463903 0-11.4603357-2.8162508-16.1479598-5.3015055-.1529104-.0804289-.3027627-.1602392-.4532266-.2400495C10.3481627 13.9606104 8.14686331 15.0965148 6 15.7653124c1.3816992.5970303 2.90958081 1.4062693 4.5475581 2.2749021C15.5569058 20.6956073 21.7913724 24 29.3408693 24c7.5494968 0 13.7839634-3.3043927 18.7933111-5.9597855 3.3163227-1.7583007 6.1812538-3.2771706 8.2932535-3.2771706H59V9h-2.5725661z"/>
    <path fill="#FFF" d="M70.9277598 9.0890288H68v-2.125428h2.9277598V4h2.4893724v2.9636008h2.9220064v2.125428h-2.9220064v5.2935727c0 .9604421.4936175 1.3489612 1.3381747 1.3489612.5545996 0 1.0499431-.1228406 1.5441352-.3679504v2.0237274c-.6178843.3473818-1.317463.5519256-2.2437139.5519256-1.8317915 0-3.1279684-.7976068-3.1279684-3.1681447V9.0890288zm11.9737264-2.1255994h2.4893724v2.43224387c.6805931-1.61463967 1.9347721-2.718491 3.8488333-2.63678774V9.3751046h-.1432525c-2.1821565 0-3.7055808 1.4100957-3.7055808 4.2714247v4.1085894h-2.4893724V6.9634294zM101.20824 17.7547759v-1.3283925c-.73985.8787388-1.8720632 1.553505-3.5186044 1.553505-2.0584643 0-3.8695442-1.1649859-3.8695442-3.3315513v-.0411372c0-2.3911066 1.8737887-3.5355238 4.4051589-3.5355238 1.3168884 0 2.1597197.1839752 3.0037017.4496537v-.2045439c0-1.49179903-.946963-2.30940323-2.6757736-2.30940323-1.2144825 0-2.1200231.26567853-3.1072574.67419493l-.6788671-1.98201873c1.1937708-.5319284 2.3656801-.89930747 4.1364889-.89930747 3.2102372 0 4.7750852 1.67577427 4.7750852 4.5571005v6.397424h-2.470388zm.062709-4.5165345c-.638595-.2456812-1.522849-.4290851-2.4910984-.4290851-1.5631209 0-2.4893724.6330576-2.4893724 1.6757743v.0405659c0 1.0221481.9262515 1.5946424 2.0987362 1.5946424 1.6465416 0 2.8817346-.9198761 2.8817346-2.2688372v-.6130603zm8.785753 1.4306644c1.17191.8787388 2.449101 1.3283925 3.560602 1.3283925 1.069504 0 1.686813-.4496537 1.686813-1.1649859v-.0411373c0-.8376015-1.151773-1.1238486-2.428389-1.5123678-1.605119-.4496537-3.394912-1.1032799-3.394912-3.1675733v-.0411373c0-2.04372477 1.708099-3.2909853 3.869544-3.2909853 1.35716 0 2.839737.47079373 3.991511 1.22669187l-.98781 1.75804893c-1.049944-.63420027-2.161445-1.022148-3.06641-1.022148-.966523 0-1.523424.44908233-1.523424 1.08328267v.04056593c0 .7770382 1.17421 1.1038513 2.449676 1.5129391 1.583832.4902196 3.375352 1.2055519 3.375352 3.1470046v.0411374c0 2.2688372-1.770234 3.3926858-4.033509 3.3926858-1.54356 0-3.25166-.5519256-4.610545-1.6146396l1.111501-1.6757743zm11.427181-2.3098603c0-3.08587003 2.201717-5.62038583 5.310124-5.62038583C130.251629 6.73865967 132 9.436582 132 12.5430207c0 .2251126-.019561.4496538-.040272.695335h-7.984747c.266945 1.7574775 1.522849 2.7384882 3.127969 2.7384882 1.213906 0 2.078024-.4496537 2.943292-1.2878265l1.460141 1.2878265C130.477151 17.2029645 129.056707 18 127.060952 18c-3.14868 0-5.577069-2.2688373-5.577069-5.5998172v-.0411373zm8.047456-.7558982c-.16569-1.594071-1.111502-2.84076017-2.758043-2.84076017-1.522849 0-2.592353 1.16441454-2.819026 2.84076017h5.577069z"/>
  </g>
</svg>
