<svg xmlns="http://www.w3.org/2000/svg" width="210" height="38">
  <defs>
    <linearGradient id="a" x1="50%" x2="97.04%" y1="50%" y2="50%">
      <stop offset="0%" stop-color="#FFF"/>
      <stop offset="100%" stop-color="#FFF" stop-opacity="0"/>
    </linearGradient>
    <linearGradient id="b" x1="53.95%" x2="0%" y1="50%" y2="50%">
      <stop offset="0%" stop-color="#FFF"/>
      <stop offset="100%" stop-color="#FFF" stop-opacity="0"/>
    </linearGradient>
  </defs>
  <g fill="none">
    <path fill="#FFF" d="M109.78 13.53H105v-3.52h4.78V5.1h4.07V10h4.78v3.52h-4.78v8.78c0 1.6.8 2.24 2.2 2.24.9 0 1.7-.2 2.51-.61v3.36a7.09 7.09 0 0 1-3.66.91c-3 0-5.11-1.32-5.11-5.25v-9.43zm19.57-3.52h4.07v4.03c1.11-2.67 3.16-4.5 6.3-4.37v4.34h-.24c-3.57 0-6.06 2.34-6.06 7.08v6.82h-4.07V10zm29.92 17.9v-2.2a7.15 7.15 0 0 1-5.75 2.57c-3.36 0-6.32-1.93-6.32-5.53v-.07c0-3.96 3.06-5.86 7.2-5.86 2.15 0 3.53.3 4.91.75v-.34c0-2.48-1.55-3.83-4.37-3.83-1.99 0-3.47.44-5.08 1.12l-1.11-3.29c1.95-.88 3.86-1.5 6.76-1.5 5.25 0 7.8 2.79 7.8 7.57v10.6h-4.03zm.1-7.5c-1.04-.4-2.48-.7-4.06-.7-2.56 0-4.07 1.04-4.07 2.77v.07c0 1.7 1.51 2.64 3.43 2.64 2.69 0 4.7-1.52 4.7-3.76v-1.01zm14.37 2.38c1.91 1.45 4 2.2 5.82 2.2 1.74 0 2.75-.75 2.75-1.93v-.07c0-1.39-1.88-1.86-3.97-2.5-2.62-.75-5.55-1.84-5.55-5.26v-.07c0-3.39 2.8-5.46 6.33-5.46 2.22 0 4.64.78 6.52 2.04l-1.61 2.91c-1.72-1.05-3.53-1.7-5.01-1.7-1.58 0-2.5.75-2.5 1.8v.07c0 1.29 1.92 1.83 4 2.51 2.6.81 5.53 2 5.53 5.22v.07c0 3.76-2.9 5.62-6.6 5.62-2.52 0-5.31-.91-7.53-2.67l1.82-2.78zm18.67-3.83c0-5.12 3.6-9.32 8.68-9.32 5.65 0 8.51 4.47 8.51 9.62 0 .38-.03.75-.07 1.16h-13.05c.44 2.91 2.5 4.54 5.11 4.54 1.99 0 3.4-.75 4.81-2.14l2.4 2.14a8.96 8.96 0 0 1-7.27 3.35c-5.15 0-9.12-3.76-9.12-9.28v-.07zm13.15-1.26c-.27-2.64-1.81-4.7-4.5-4.7-2.5 0-4.24 1.92-4.6 4.7h9.1z"/>
    <path fill="url(#a)" d="M4.21 14.4H.23v8.85h3.98c5.44 0 10.76-2.8 16.93-6.04 7.25-3.81 15.47-8.14 24.98-8.14s17.73 4.32 24.99 8.14l.7.37c3.7-1.94 7.1-3.69 10.43-4.72-2.14-.91-4.5-2.16-7.04-3.49C67.45 5.29 57.8.22 46.12.22S24.8 5.3 17.04 9.37c-5.13 2.7-9.56 5.03-12.83 5.03z"/>
    <path fill="url(#b)" d="M88.03 14.4c-5.44 0-10.76 2.8-16.92 6.05-7.26 3.81-15.48 8.14-24.99 8.14-9.5 0-17.73-4.33-24.98-8.14l-.7-.37c-3.7 1.94-7.11 3.69-10.43 4.71 2.13.92 4.5 2.16 7.03 3.5 7.75 4.07 17.4 9.15 29.08 9.15s21.33-5.08 29.08-9.15c5.13-2.7 9.56-5.04 12.83-5.04h3.98V14.4h-3.98z"/>
  </g>
</svg>
