<svg width="297" height="51" viewBox="0 0 297 51" xmlns="http://www.w3.org/2000/svg"><defs><linearGradient x1="50%" y1="50%" x2="97.04%" y2="50%" id="a"><stop stop-color="#fff" offset="0%"/><stop stop-color="#fff" stop-opacity="0" offset="100%"/></linearGradient><linearGradient x1="53.947%" y1="50%" x2="0%" y2="50%" id="b"><stop stop-color="#fff" offset="0%"/><stop stop-color="#fff" stop-opacity="0" offset="100%"/></linearGradient></defs><g fill="none" fill-rule="evenodd"><path d="M161.47 17.165H155v-4.73h6.47V5.84h5.503v6.595h6.46v4.73h-6.46v11.78c0 2.14 1.09 3.004 2.958 3.004 1.227 0 2.32-.275 3.414-.82v4.504c-1.366.773-2.912 1.228-4.96 1.228-4.048 0-6.913-1.775-6.913-7.05V17.164zm26.466-4.73h5.503v5.413c1.503-3.594 4.275-6.05 8.506-5.87v5.824h-.317c-4.824 0-8.19 3.138-8.19 9.506v9.144h-5.504V12.434zM228.4 36.45v-2.956c-1.635 1.956-4.137 3.458-7.777 3.458-4.55 0-8.552-2.593-8.552-7.415v-.092c0-5.32 4.142-7.868 9.737-7.868 2.91 0 4.774.41 6.64 1v-.455c0-3.32-2.094-5.14-5.915-5.14-2.684 0-4.686.592-6.868 1.5l-1.5-4.41c2.638-1.184 5.228-2.002 9.142-2.002 7.096 0 10.555 3.73 10.555 10.142v14.24h-5.46zm.14-10.05c-1.412-.548-3.367-.956-5.507-.956-3.455 0-5.502 1.41-5.502 3.73v.09c0 2.274 2.048 3.55 4.64 3.55 3.64 0 6.37-2.05 6.37-5.05V26.4zm19.418 3.183c2.59 1.955 5.413 2.956 7.87 2.956 2.364 0 3.728-1 3.728-2.594v-.09c0-1.865-2.546-2.502-5.367-3.367-3.55-1-7.505-2.457-7.505-7.05v-.092c0-4.55 3.775-7.325 8.553-7.325 3 0 6.276 1.048 8.822 2.73l-2.183 3.913c-2.32-1.41-4.778-2.275-6.778-2.275-2.137 0-3.368 1-3.368 2.412v.09c0 1.73 2.595 2.457 5.414 3.368 3.5 1.09 7.46 2.683 7.46 7.003v.092c0 5.05-3.912 7.55-8.914 7.55-3.412 0-7.187-1.228-10.19-3.593l2.456-3.73zm25.257-5.14c0-6.87 4.867-12.51 11.737-12.51 7.642 0 11.507 6.005 11.507 12.918 0 .502-.045 1.002-.09 1.55h-17.65c.59 3.91 3.366 6.094 6.914 6.094 2.683 0 4.593-1 6.505-2.867l3.227 2.867c-2.275 2.728-5.415 4.502-9.826 4.502-6.96 0-12.326-5.05-12.326-12.463v-.09zm17.787-1.683c-.366-3.548-2.456-6.323-6.096-6.323-3.366 0-5.73 2.592-6.23 6.323H291z" fill="#fff" fill-rule="nonzero"/><path d="M5.697 19.332H.314v11.876h5.383c7.353 0 14.553-3.76 22.888-8.11 9.81-5.12 20.928-10.924 33.79-10.924 12.86 0 23.978 5.803 33.788 10.925l.948.493c5.006-2.608 9.61-4.95 14.104-6.327-2.89-1.232-6.088-2.9-9.516-4.69C91.216 7.106 78.17.296 62.374.296c-15.797 0-28.842 6.81-39.324 12.28-6.94 3.626-12.934 6.757-17.353 6.757z" fill="url(#a)"/><path d="M119.052 19.332c-7.354 0-14.553 3.757-22.89 8.11-9.81 5.12-20.926 10.924-33.788 10.924-12.86 0-23.98-5.804-33.79-10.925l-.947-.494c-5.004 2.608-9.61 4.95-14.103 6.328 2.89 1.23 6.088 2.898 9.516 4.688 10.482 5.472 23.527 12.282 39.324 12.282 15.797 0 28.842-6.81 39.324-12.282 6.94-3.624 12.934-6.754 17.354-6.754h5.383V19.332h-5.383z" fill="url(#b)"/></g></svg>
