<?xml version="1.0" encoding="UTF-8" standalone="no"?>
<svg width="90px" height="37px" viewBox="0 0 90 37" version="1.1" xmlns="http://www.w3.org/2000/svg" xmlns:xlink="http://www.w3.org/1999/xlink">
    <!-- Generator: Sketch 50.2 (55047) - http://www.bohemiancoding.com/sketch -->
    <title>logo</title>
    <desc>Created with Sketch.</desc>
    <defs>
        <linearGradient x1="0%" y1="50%" x2="97.04%" y2="50%" id="linearGradient-1">
            <stop stop-color="#FFFFFF" offset="0%"></stop>
            <stop stop-color="#999999" stop-opacity="0" offset="100%"></stop>
        </linearGradient>
        <linearGradient x1="0%" y1="50%" x2="100%" y2="50%" id="linearGradient-2">
            <stop stop-color="#999999" stop-opacity="0" offset="0%"></stop>
            <stop stop-color="#FFFFFF" offset="100%"></stop>
        </linearGradient>
    </defs>
    <g id="Page-1" stroke="none" stroke-width="1" fill="none" fill-rule="evenodd">
        <g id="logo" transform="translate(0.000000, -1.000000)" fill-rule="nonzero">
            <path d="M4.10997579,14.8146303 L0.226228728,14.8146303 L0.226228728,23.4344467 L4.10997579,23.4344467 C9.415732,23.4344467 14.609759,20.7064576 20.6237495,17.549097 C27.7005535,13.8318879 35.7229012,9.61960616 45.0019727,9.61960616 C54.2819674,9.61960616 62.3024683,13.8318879 69.3801957,17.549097 C69.6101178,17.669395 69.83727,17.7887677 70.0644222,17.9072151 C73.6748479,16.0148345 76.9981018,14.3158562 80.2391746,13.3155318 C78.1532533,12.4216249 75.8466438,11.2112416 73.3738252,9.91202291 C65.8113221,5.94033719 56.3992836,0.998864285 45.0019727,0.998864285 C33.6046616,0.998864285 24.1926232,5.94033719 16.63012,9.91202291 C11.6235397,12.5428483 7.29841578,14.8146303 4.10997579,14.8146303 Z" id="Shape" fill="url(#linearGradient-1)"></path>
            <path d="M85.8939695,14.8146303 C80.5882132,14.8146303 75.3941863,17.5416941 69.3801957,20.69998 C62.3024683,24.4171892 54.2819674,28.629471 45.0019727,28.629471 C35.7229012,28.629471 27.7005535,24.4171892 20.6237495,20.69998 C20.3929039,20.579682 20.1666752,20.4603094 19.9395231,20.3409367 C16.3290972,22.2342426 13.0058434,23.933221 9.76477061,24.9335453 C11.8506918,25.8265268 14.1573014,27.03691 16.63012,28.3361289 C24.1926232,32.3078145 33.6046616,37.2502128 45.0019727,37.2502128 C56.3992836,37.2502128 65.8113221,32.3078145 73.3738252,28.3361289 C78.3804054,25.7062288 82.7055295,23.4344468 85.8939695,23.4344468 L89.7777165,23.4344468 L89.7777165,14.8146303 L85.8939695,14.8146303 Z" id="Shape" fill="url(#linearGradient-2)"></path>
        </g>
    </g>
</svg>