<?xml version="1.0" encoding="UTF-8"?>
<svg width="314px" height="31px" viewBox="0 0 314 31" version="1.1" xmlns="http://www.w3.org/2000/svg" xmlns:xlink="http://www.w3.org/1999/xlink">
    <title>on-white</title>
    <defs>
        <linearGradient x1="0%" y1="50%" x2="100%" y2="50%" id="linearGradient-1">
            <stop stop-color="#F0615F" offset="0%"></stop>
            <stop stop-color="#F06361" stop-opacity="0.99" offset="17%"></stop>
            <stop stop-color="#F16A68" stop-opacity="0.95" offset="30%"></stop>
            <stop stop-color="#F27573" stop-opacity="0.88" offset="43%"></stop>
            <stop stop-color="#F38483" stop-opacity="0.78" offset="54%"></stop>
            <stop stop-color="#F59897" stop-opacity="0.65" offset="65%"></stop>
            <stop stop-color="#F8B1B0" stop-opacity="0.49" offset="76%"></stop>
            <stop stop-color="#FACECD" stop-opacity="0.31" offset="86%"></stop>
            <stop stop-color="#FDEFEF" stop-opacity="0.1" offset="96%"></stop>
            <stop stop-color="#FFFFFF" stop-opacity="0" offset="100%"></stop>
        </linearGradient>
        <linearGradient x1="0%" y1="50%" x2="100%" y2="50%" id="linearGradient-2">
            <stop stop-color="#FFFFFF" stop-opacity="0" offset="0%"></stop>
            <stop stop-color="#FDEFEF" stop-opacity="0.1" offset="4%"></stop>
            <stop stop-color="#FACECD" stop-opacity="0.31" offset="14%"></stop>
            <stop stop-color="#F8B1B0" stop-opacity="0.49" offset="24%"></stop>
            <stop stop-color="#F59897" stop-opacity="0.65" offset="35%"></stop>
            <stop stop-color="#F38483" stop-opacity="0.78" offset="46%"></stop>
            <stop stop-color="#F27573" stop-opacity="0.88" offset="57%"></stop>
            <stop stop-color="#F16A68" stop-opacity="0.95" offset="70%"></stop>
            <stop stop-color="#F06361" stop-opacity="0.99" offset="83%"></stop>
            <stop stop-color="#F0615F" offset="100%"></stop>
        </linearGradient>
    </defs>
    <g id="Flow/data" stroke="none" stroke-width="1" fill="none" fill-rule="evenodd">
        <g id="Home-01" transform="translate(-110.000000, -13.000000)">
            <g id="on-white" transform="translate(110.000000, 13.000000)">
                <g id="Group" transform="translate(0.000000, 6.000000)" fill-rule="nonzero">
                    <path d="M45.243,10.806 L45.693,11.04 C48.053,9.804 50.227,8.694 52.347,8.041 C50.984,7.457 49.475,6.666 47.857,5.818 C42.909,3.226 36.754,0 29.296,0 C21.838,0 15.68,3.226 10.752,5.818 C7.476,7.538 4.646,9.02 2.562,9.02 L0,9.02 L0,14.646 L2.542,14.646 C5.998,14.646 9.412,12.868 13.344,10.806 C17.975,8.379 23.224,5.629 29.295,5.629 C35.366,5.629 40.612,8.379 45.243,10.806 Z" id="Path" fill="url(#linearGradient-1)"></path>
                    <path d="M56.064,9.02 C52.608,9.02 49.194,10.802 45.258,12.86 C40.612,15.287 35.366,18.048 29.295,18.048 C23.225,18.048 17.975,15.287 13.344,12.86 C13.194,12.783 13.044,12.707 12.899,12.626 C10.537,13.862 8.359,14.976 6.24,15.625 C7.607,16.209 9.116,17 10.733,17.848 C15.679,20.44 21.838,23.666 29.295,23.666 C36.753,23.666 42.908,20.44 47.858,17.848 C51.133,16.132 53.964,14.646 56.048,14.646 L58.587,14.646 L58.587,9.02 L56.064,9.02 Z" id="Path" fill="url(#linearGradient-2)"></path>
                </g>
                <g id="Group" transform="translate(70.103000, 0.000000)">
                    <path d="M6.075,24.048 C5.015,24.102 3.97,23.786 3.118,23.153 C2.376,22.552 2.006,21.487 2.008,19.958 L2.008,14.832 L0,14.832 L0,12.313 L2.008,12.313 L2.362,9.168 L5.05,9.168 L5.05,12.313 L8.221,12.313 L8.221,14.832 L5.05,14.832 L5.05,19.974 C5.01,20.394 5.149,20.814 5.434,21.126 C5.805,21.375 6.252,21.487 6.697,21.444 L8.164,21.444 L8.164,24.048 L6.074,24.048 L6.075,24.048 Z M12.841,24.048 L12.841,12.313 L15.529,12.313 L15.813,14.513 C16.228,13.77 16.827,13.145 17.553,12.701 C18.334,12.24 19.23,12.007 20.137,12.029 L20.137,15.216 L19.285,15.216 C18.68,15.206 18.08,15.311 17.515,15.523 C16.996,15.728 16.565,16.107 16.297,16.595 C15.973,17.247 15.824,17.972 15.863,18.699 L15.863,24.048 L12.841,24.048 Z M27.157,24.324 C26.302,24.356 25.452,24.191 24.672,23.841 C24.076,23.561 23.574,23.114 23.228,22.554 C22.914,22.016 22.75,21.404 22.756,20.78 C22.73,19.743 23.206,18.756 24.035,18.13 C24.887,17.452 26.167,17.113 27.875,17.113 L30.855,17.113 L30.855,16.829 C30.909,16.163 30.656,15.509 30.167,15.055 C29.685,14.67 29.082,14.47 28.466,14.49 C27.899,14.475 27.34,14.626 26.857,14.924 C26.402,15.213 26.092,15.682 26.005,16.214 L23.048,16.214 C23.112,15.404 23.412,14.632 23.912,13.991 C24.42,13.353 25.08,12.852 25.832,12.536 C26.672,12.188 27.572,12.016 28.482,12.029 C30.15,12.029 31.466,12.446 32.429,13.281 C33.391,14.115 33.873,15.298 33.873,16.829 L33.873,24.048 L31.295,24.048 L31.011,22.158 C30.661,22.79 30.161,23.326 29.556,23.718 C28.833,24.152 27.998,24.363 27.156,24.324 L27.157,24.324 Z M27.84,21.959 C28.61,22.003 29.356,21.689 29.864,21.11 C30.358,20.508 30.674,19.779 30.774,19.006 L28.201,19.006 C27.395,19.006 26.819,19.152 26.473,19.444 C26.143,19.703 25.952,20.1 25.955,20.519 C25.936,20.939 26.131,21.339 26.473,21.583 C26.877,21.851 27.356,21.983 27.84,21.959 Z M42.651,24.324 C41.712,24.344 40.779,24.171 39.909,23.818 C39.169,23.518 38.518,23.034 38.016,22.412 C37.543,21.812 37.248,21.091 37.164,20.331 L40.236,20.331 C40.341,20.796 40.615,21.206 41.004,21.483 C41.472,21.825 42.044,21.998 42.624,21.971 C43.141,22.014 43.655,21.871 44.076,21.567 C44.36,21.345 44.529,21.007 44.536,20.646 C44.571,20.194 44.301,19.773 43.876,19.616 C43.276,19.39 42.66,19.212 42.033,19.083 C41.526,18.975 41.015,18.841 40.497,18.699 C40,18.549 39.521,18.347 39.068,18.096 C38.639,17.865 38.271,17.536 37.993,17.136 C37.713,16.713 37.573,16.214 37.59,15.708 C37.58,14.688 38.037,13.721 38.83,13.081 C39.66,12.371 40.823,12.017 42.32,12.017 C43.708,12.017 44.815,12.341 45.642,12.989 C46.48,13.647 47.014,14.617 47.121,15.677 L44.26,15.677 C44.083,14.814 43.43,14.381 42.298,14.379 C41.836,14.349 41.377,14.464 40.984,14.709 C40.7,14.888 40.526,15.199 40.524,15.535 C40.524,15.885 40.75,16.161 41.207,16.365 C41.795,16.61 42.404,16.801 43.027,16.932 C43.849,17.122 44.603,17.331 45.289,17.558 C45.915,17.752 46.48,18.102 46.933,18.576 C47.371,19.116 47.59,19.802 47.547,20.496 C47.571,21.194 47.372,21.881 46.979,22.458 C46.552,23.067 45.963,23.542 45.277,23.829 C44.447,24.177 43.551,24.345 42.651,24.324 L42.651,24.324 Z M56.659,24.324 C55.562,24.344 54.479,24.079 53.514,23.556 C52.611,23.064 51.866,22.326 51.364,21.429 C50.834,20.459 50.568,19.366 50.596,18.261 C50.574,17.133 50.838,16.018 51.364,15.021 C51.853,14.099 52.59,13.333 53.491,12.808 C54.469,12.263 55.575,11.99 56.694,12.018 C57.761,12 58.814,12.265 59.747,12.785 C60.613,13.273 61.329,13.989 61.817,14.855 C62.317,15.745 62.573,16.752 62.561,17.773 L62.561,18.319 C62.561,18.507 62.538,18.703 62.523,18.91 L53.587,18.91 C53.607,19.727 53.951,20.502 54.543,21.064 C55.118,21.578 55.866,21.852 56.636,21.832 C57.178,21.849 57.713,21.705 58.172,21.418 C58.579,21.154 58.904,20.782 59.109,20.342 L62.181,20.342 C61.96,21.085 61.586,21.772 61.083,22.362 C60.565,22.973 59.919,23.462 59.19,23.795 C58.395,24.153 57.531,24.335 56.66,24.325 L56.659,24.324 Z M56.682,14.49 C55.977,14.478 55.288,14.698 54.72,15.116 C54.118,15.587 53.728,16.278 53.633,17.036 L59.474,17.036 C59.459,16.33 59.15,15.662 58.621,15.193 C58.086,14.723 57.394,14.473 56.682,14.49 L56.682,14.49 Z" id="Shape" fill="#31464E" fill-rule="nonzero"></path>
                    <text id="supply-chains" font-family="DMSans-Regular, DM Sans" font-size="24" font-weight="normal" letter-spacing="1.5" fill="#FF615F">
                        <tspan x="70.897" y="24">supply chains</tspan>
                    </text>
                </g>
            </g>
        </g>
    </g>
</svg>