<svg id="Layer_1" data-name="Layer 1" xmlns="http://www.w3.org/2000/svg" xmlns:xlink="http://www.w3.org/1999/xlink" viewBox="0 0 605.8 106.68"><defs><style>.cls-1{fill:#ff615f;}.cls-2{fill:url(#linear-gradient);}.cls-3{fill:url(#linear-gradient-2);}.cls-4{fill:#1f444d;}</style><linearGradient id="linear-gradient" x1="17.87" y1="-397.97" x2="116.52" y2="-397.97" gradientTransform="matrix(1, 0, 0, -1, 0, -353.16)" gradientUnits="userSpaceOnUse"><stop offset="0" stop-color="#ff615f"/><stop offset="0.17" stop-color="#ff6361" stop-opacity="0.99"/><stop offset="0.3" stop-color="#ff6967" stop-opacity="0.95"/><stop offset="0.42" stop-color="#ff7372" stop-opacity="0.88"/><stop offset="0.53" stop-color="#ff8280" stop-opacity="0.79"/><stop offset="0.63" stop-color="#ff9594" stop-opacity="0.67"/><stop offset="0.74" stop-color="#ffacab" stop-opacity="0.52"/><stop offset="0.84" stop-color="#ffc8c7" stop-opacity="0.35"/><stop offset="0.93" stop-color="#ffe7e6" stop-opacity="0.15"/><stop offset="1" stop-color="#fff" stop-opacity="0"/></linearGradient><linearGradient id="linear-gradient-2" x1="29.68" y1="-415.01" x2="128.38" y2="-415.01" gradientTransform="matrix(1, 0, 0, -1, 0, -353.16)" gradientUnits="userSpaceOnUse"><stop offset="0" stop-color="#fff" stop-opacity="0"/><stop offset="0.07" stop-color="#ffe7e6" stop-opacity="0.15"/><stop offset="0.16" stop-color="#ffc8c7" stop-opacity="0.35"/><stop offset="0.26" stop-color="#ffacab" stop-opacity="0.52"/><stop offset="0.37" stop-color="#ff9594" stop-opacity="0.67"/><stop offset="0.47" stop-color="#ff8280" stop-opacity="0.79"/><stop offset="0.58" stop-color="#ff7372" stop-opacity="0.88"/><stop offset="0.7" stop-color="#ff6967" stop-opacity="0.95"/><stop offset="0.83" stop-color="#ff6361" stop-opacity="0.99"/><stop offset="1" stop-color="#ff615f"/></linearGradient></defs><path class="cls-1" d="M292.19,65.5a10.42,10.42,0,0,1-6.51-2,7.75,7.75,0,0,1-3-5.37h3.79a5.16,5.16,0,0,0,1.82,3,6,6,0,0,0,4,1.26,5,5,0,0,0,3.43-1,3.09,3.09,0,0,0,1.1-2.36,2.62,2.62,0,0,0-1.43-2.64,19.16,19.16,0,0,0-4-1.18,23.34,23.34,0,0,1-3.52-1,8.06,8.06,0,0,1-3-1.87,4.35,4.35,0,0,1-1.18-3.19,5.89,5.89,0,0,1,2.13-4.68,8.59,8.59,0,0,1,5.79-1.83,9,9,0,0,1,5.69,1.74,7,7,0,0,1,2.58,5H296.2a3.86,3.86,0,0,0-1.43-2.62,5.14,5.14,0,0,0-3.24-.94,5,5,0,0,0-3.06.83,2.64,2.64,0,0,0-1.07,2.2,2.29,2.29,0,0,0,1.38,2.07,15.26,15.26,0,0,0,3.76,1.28,32.72,32.72,0,0,1,3.85,1.07,7.33,7.33,0,0,1,3,1.9,5.16,5.16,0,0,1,1.16,3.63,6,6,0,0,1-2.22,4.86A9.24,9.24,0,0,1,292.19,65.5Z"/><path class="cls-1" d="M313.8,65.5a8.17,8.17,0,0,1-6.16-2.35q-2.29-2.35-2.29-7.24V43.15H309V55.51q0,6.83,5.59,6.82a6.14,6.14,0,0,0,4.73-2,8.34,8.34,0,0,0,1.87-5.83V43.15h3.7V65h-3.35l-.26-3.91a7.62,7.62,0,0,1-3,3.25A8.61,8.61,0,0,1,313.8,65.5Z"/><path class="cls-1" d="M331,74.65V43.15h3.34l.36,3.61a10.12,10.12,0,0,1,3-2.86,9,9,0,0,1,5-1.28,10.56,10.56,0,0,1,5.68,1.5,10.24,10.24,0,0,1,3.76,4.09,12.6,12.6,0,0,1,1.34,5.9A12.45,12.45,0,0,1,352.14,60,10,10,0,0,1,348.36,64a10.85,10.85,0,0,1-5.7,1.47,10,10,0,0,1-4.77-1.1,7.53,7.53,0,0,1-3.19-3.08V74.65Zm11.26-12.36a7.23,7.23,0,0,0,3.88-1,7.32,7.32,0,0,0,2.64-2.89,10.16,10.16,0,0,0,0-8.62,7.36,7.36,0,0,0-2.64-2.88,7.74,7.74,0,0,0-7.75,0,7.36,7.36,0,0,0-2.64,2.88,10.06,10.06,0,0,0,0,8.62,7.32,7.32,0,0,0,2.64,2.89A7.22,7.22,0,0,0,342.26,62.29Z"/><path class="cls-1" d="M358.63,74.65V43.15H362l.35,3.61a10.24,10.24,0,0,1,3-2.86,9,9,0,0,1,5-1.28,10.53,10.53,0,0,1,5.67,1.5,10.24,10.24,0,0,1,3.76,4.09,12.6,12.6,0,0,1,1.34,5.9A12.45,12.45,0,0,1,379.77,60,10,10,0,0,1,376,64a10.85,10.85,0,0,1-5.7,1.47,10,10,0,0,1-4.77-1.1,7.53,7.53,0,0,1-3.19-3.08V74.65ZM369.9,62.29a7.22,7.22,0,0,0,3.87-1,7.32,7.32,0,0,0,2.64-2.89,10.06,10.06,0,0,0,0-8.62,7.36,7.36,0,0,0-2.64-2.88,7.74,7.74,0,0,0-7.75,0,7.36,7.36,0,0,0-2.64,2.88,10.16,10.16,0,0,0,0,8.62A7.32,7.32,0,0,0,366,61.26,7.23,7.23,0,0,0,369.9,62.29Z"/><path class="cls-1" d="M386.26,65V33.29H390V65Z"/><path class="cls-1" d="M398.41,74.65l5.41-11.79h-1.28l-8.67-19.71h4l7.21,17,7.66-17h3.83l-14.3,31.5Z"/><path class="cls-1" d="M440.19,65.5a10.94,10.94,0,0,1-5.61-1.43,10.26,10.26,0,0,1-3.92-4,12.22,12.22,0,0,1-1.43-6,12.16,12.16,0,0,1,1.43-6,10.28,10.28,0,0,1,3.92-4,11,11,0,0,1,5.61-1.43,10.46,10.46,0,0,1,6.53,2,8.84,8.84,0,0,1,3.37,5.41H446.3a4.86,4.86,0,0,0-2.15-3.15,7.16,7.16,0,0,0-4-1.12,7,7,0,0,0-3.47.92A6.83,6.83,0,0,0,434,49.49a9.33,9.33,0,0,0-1,4.57,9.37,9.37,0,0,0,1,4.58,7,7,0,0,0,2.64,2.79,6.79,6.79,0,0,0,3.47,1,7.24,7.24,0,0,0,4-1.12,4.86,4.86,0,0,0,2.15-3.19h3.79a8.7,8.7,0,0,1-3.35,5.36A10.4,10.4,0,0,1,440.19,65.5Z"/><path class="cls-1" d="M455.24,65V33.29h3.69v13.6a7.78,7.78,0,0,1,3.13-3.15,9,9,0,0,1,4.39-1.12A8.1,8.1,0,0,1,472.53,45c1.52,1.57,2.29,4,2.29,7.23V65h-3.66V52.61q0-6.82-5.5-6.82a6.32,6.32,0,0,0-4.79,2.05,8.14,8.14,0,0,0-1.94,5.83V65Z"/><path class="cls-1" d="M487.66,65.5a10,10,0,0,1-4.53-.92,6.26,6.26,0,0,1-2.68-2.47,6.57,6.57,0,0,1-.88-3.34,5.94,5.94,0,0,1,2.55-5.15,11.87,11.87,0,0,1,6.95-1.8H495v-.27a5.81,5.81,0,0,0-1.5-4.33,5.46,5.46,0,0,0-4-1.47,6.44,6.44,0,0,0-3.72,1.07,4.76,4.76,0,0,0-2,3.15H480a7,7,0,0,1,1.6-4,9,9,0,0,1,3.46-2.49,11.39,11.39,0,0,1,4.4-.86c3,0,5.34.82,6.88,2.44a9.07,9.07,0,0,1,2.31,6.49V65h-3.3l-.22-3.91a8.61,8.61,0,0,1-2.7,3.14A7.92,7.92,0,0,1,487.66,65.5Zm.58-3.12a6,6,0,0,0,3.62-1.1,6.89,6.89,0,0,0,2.31-2.86,8.89,8.89,0,0,0,.8-3.7v0h-5.59c-2.17,0-3.7.37-4.6,1.12a3.51,3.51,0,0,0-1.34,2.79,3.38,3.38,0,0,0,1.25,2.75A5.44,5.44,0,0,0,488.24,62.38Z"/><path class="cls-1" d="M504.6,65V43.15h3.7V65Z"/><path class="cls-1" d="M514.72,65V43.15h3.35l.22,3.92a7.88,7.88,0,0,1,3-3.26,8.58,8.58,0,0,1,4.49-1.19A8.27,8.27,0,0,1,532,45q2.31,2.35,2.31,7.23V65h-3.69V52.61q0-6.82-5.64-6.82a6.05,6.05,0,0,0-4.68,2.05,8.3,8.3,0,0,0-1.87,5.83V65Z"/><path class="cls-1" d="M548.25,65.5a10.42,10.42,0,0,1-6.51-2,7.72,7.72,0,0,1-3-5.37h3.79a5.16,5.16,0,0,0,1.82,3,5.92,5.92,0,0,0,4,1.26,5,5,0,0,0,3.44-1,3.09,3.09,0,0,0,1.1-2.36,2.62,2.62,0,0,0-1.43-2.64,19.16,19.16,0,0,0-4-1.18,23.34,23.34,0,0,1-3.52-1,8,8,0,0,1-3-1.87,4.36,4.36,0,0,1-1.19-3.19,5.9,5.9,0,0,1,2.14-4.68,8.58,8.58,0,0,1,5.78-1.83,9,9,0,0,1,5.7,1.74,7,7,0,0,1,2.58,5h-3.66a3.78,3.78,0,0,0-1.43-2.62,5.09,5.09,0,0,0-3.23-.94,5,5,0,0,0-3.06.83,2.65,2.65,0,0,0-1.08,2.2,2.3,2.3,0,0,0,1.39,2.07,15.12,15.12,0,0,0,3.76,1.28,32.72,32.72,0,0,1,3.85,1.07,7.22,7.22,0,0,1,3,1.9,5.11,5.11,0,0,1,1.17,3.63,6,6,0,0,1-2.22,4.86A9.24,9.24,0,0,1,548.25,65.5Z"/><path class="cls-2" d="M103.13,51.4l.84.44a78.08,78.08,0,0,1,12.55-5.65c-2.58-1.1-5.42-2.58-8.47-4.18-9.32-4.89-20.92-11-35-11s-25.65,6.08-35,11c-6.18,3.23-11.51,6-15.44,6H17.87v10.6h4.79c6.54,0,13-3.35,20.36-7.24,8.72-4.57,18.61-9.75,30-9.75S94.4,46.83,103.13,51.4Z"/><path class="cls-3" d="M123.49,48c-6.54,0-12.95,3.35-20.36,7.24C94.4,59.85,84.52,65,73.07,65s-21.33-5.18-30-9.75l-.84-.44a76.37,76.37,0,0,1-12.55,5.65c2.57,1.1,5.42,2.58,8.47,4.18,9.32,4.89,20.92,11,35,11s25.66-6.08,35-11c6.18-3.23,11.51-6,15.44-6h4.79V48Z"/><path class="cls-4" d="M161.42,65a8.56,8.56,0,0,1-5.57-1.69c-1.4-1.13-2.09-3.14-2.09-6V47.73H150V42.94h3.79l.67-5.93h5v5.93h6v4.79h-6V57.4a2.84,2.84,0,0,0,.69,2.2,3.64,3.64,0,0,0,2.38.6h2.77v4.86Z"/><path class="cls-4" d="M174.42,65V42.94h5.08l.53,4.14a9,9,0,0,1,8.16-4.68v6h-1.61a9.08,9.08,0,0,0-3.34.58,4.54,4.54,0,0,0-2.3,2,8,8,0,0,0-.82,4V65Z"/><path class="cls-4" d="M201.63,65.58a10.34,10.34,0,0,1-4.68-.92,6.21,6.21,0,0,1-3.6-5.77,6.09,6.09,0,0,1,2.4-5c1.61-1.28,4-1.91,7.22-1.91h5.62v-.54a4.13,4.13,0,0,0-1.3-3.34A4.87,4.87,0,0,0,204.08,47a5.56,5.56,0,0,0-3,.82,3.55,3.55,0,0,0-1.6,2.43h-5.57a7.85,7.85,0,0,1,1.63-4.19,9.08,9.08,0,0,1,3.63-2.74,12.61,12.61,0,0,1,5-1,11,11,0,0,1,7.4,2.38,8.36,8.36,0,0,1,2.72,6.68V65h-4.86l-.53-3.56a8.31,8.31,0,0,1-2.74,2.94A8.1,8.1,0,0,1,201.63,65.58Zm1.3-4.46a4.73,4.73,0,0,0,3.81-1.6,7.85,7.85,0,0,0,1.71-4h-4.86a5.11,5.11,0,0,0-3.25.82,2.58,2.58,0,0,0-1,2,2.36,2.36,0,0,0,1,2,4.37,4.37,0,0,0,2.59.78Z"/><path class="cls-4" d="M231.07,65.58a13.12,13.12,0,0,1-5.17-1,9,9,0,0,1-3.57-2.65,7.72,7.72,0,0,1-1.6-3.92h5.75a3.64,3.64,0,0,0,1.45,2.2,4.82,4.82,0,0,0,3,.91,4.13,4.13,0,0,0,2.74-.75,2.25,2.25,0,0,0,.87-1.74,1.92,1.92,0,0,0-1.2-1.9,23.09,23.09,0,0,0-3.48-1c-1-.21-1.91-.46-2.89-.76a13.1,13.1,0,0,1-2.7-1.14,5.8,5.8,0,0,1-2-1.78,4.56,4.56,0,0,1-.76-2.69,6.29,6.29,0,0,1,2.34-5,9.78,9.78,0,0,1,6.57-2,9.93,9.93,0,0,1,6.26,1.83,7.43,7.43,0,0,1,2.79,5H234.1c-.33-1.64-1.56-2.45-3.7-2.45a4.13,4.13,0,0,0-2.47.62,1.87,1.87,0,0,0-.87,1.56q0,1,1.29,1.56a18.17,18.17,0,0,0,3.43,1.07c1.54.36,3,.75,4.25,1.18a7.12,7.12,0,0,1,3.1,1.92,5.2,5.2,0,0,1,1.16,3.63,6.23,6.23,0,0,1-1.07,3.7A7.27,7.27,0,0,1,236,64.64,11.93,11.93,0,0,1,231.07,65.58Z"/><path class="cls-4" d="M257.72,65.58a12,12,0,0,1-5.93-1.43,10.32,10.32,0,0,1-4-4,11.83,11.83,0,0,1-1.47-6A12.76,12.76,0,0,1,247.76,48a10.53,10.53,0,0,1,4-4.16,11.66,11.66,0,0,1,6-1.5,11.44,11.44,0,0,1,5.75,1.43,10.22,10.22,0,0,1,3.9,3.9,10.94,10.94,0,0,1,1.41,5.5v1a7.2,7.2,0,0,1-.06,1.11H252a5.58,5.58,0,0,0,5.8,5.53,5.06,5.06,0,0,0,2.91-.78,4.8,4.8,0,0,0,1.76-2h5.8a10.51,10.51,0,0,1-2.08,3.81,10.27,10.27,0,0,1-3.56,2.7A11.34,11.34,0,0,1,257.72,65.58Zm0-18.54A6,6,0,0,0,254,48.22a5.44,5.44,0,0,0-2,3.59h11a4.83,4.83,0,0,0-1.6-3.48A5.41,5.41,0,0,0,257.76,47Z"/></svg>