<?xml version="1.0" encoding="utf-8"?>
<!-- Generator: Adobe Illustrator 25.2.3, SVG Export Plug-In . SVG Version: 6.00 Build 0)  -->
<svg version="1.1" id="Layer_1" xmlns="http://www.w3.org/2000/svg" xmlns:xlink="http://www.w3.org/1999/xlink" x="0px" y="0px"
	 viewBox="0 0 487.6 60" style="enable-background:new 0 0 487.6 60;" xml:space="preserve">
<style type="text/css">
	.st0{fill:#FF615F;}
	.st1{fill:url(#SVGID_1_);}
	.st2{fill:url(#SVGID_2_);}
	.st3{fill:#1F444D;}
	.st4{fill:url(#SVGID_3_);}
	.st5{fill:url(#SVGID_4_);}
</style>
<path class="st0" d="M153.6,293.9c-1.4,0-2.5-0.3-3.4-1s-1.4-1.6-1.5-2.7h2.4c0.1,0.5,0.4,0.9,0.8,1.3c0.4,0.4,1,0.5,1.7,0.5
	s1.2-0.1,1.5-0.4s0.5-0.6,0.5-1c0-0.6-0.2-0.9-0.7-1.1c-0.4-0.2-1.1-0.4-1.9-0.5c-0.6-0.1-1.2-0.3-1.8-0.5s-1.1-0.5-1.5-0.9
	s-0.6-0.9-0.6-1.6c0-1,0.4-1.7,1.1-2.4c0.7-0.6,1.8-1,3.1-1c1.2,0,2.2,0.3,3,0.9s1.2,1.4,1.3,2.5h-2.2c-0.1-0.5-0.3-0.8-0.6-1.1
	c-0.3-0.3-0.8-0.4-1.4-0.4c-0.6,0-1,0.1-1.4,0.4c-0.3,0.2-0.5,0.6-0.5,0.9s0.2,0.7,0.7,0.9c0.4,0.2,1,0.4,1.8,0.6
	c0.7,0.2,1.4,0.3,2,0.6c0.6,0.2,1.1,0.5,1.5,0.9s0.6,1,0.6,1.8c0,1-0.4,1.8-1.2,2.5C156.1,293.5,155,293.9,153.6,293.9z"/>
<path class="st0" d="M165.1,293.9c-1.3,0-2.4-0.4-3.1-1.2c-0.8-0.8-1.1-2-1.1-3.7v-6.3h2.3v6c0,2.1,0.9,3.2,2.6,3.2
	c0.9,0,1.6-0.3,2.1-0.9c0.6-0.6,0.8-1.5,0.8-2.6v-5.6h2.3v10.9h-2l-0.2-1.9c-0.3,0.7-0.8,1.2-1.5,1.6
	C166.7,293.7,165.9,293.9,165.1,293.9z"/>
<path class="st0" d="M174.6,298.4v-15.8h2.1l0.2,1.7c0.4-0.5,0.8-1,1.5-1.4c0.6-0.4,1.4-0.6,2.4-0.6c1.1,0,2,0.2,2.8,0.7
	s1.4,1.2,1.9,2s0.7,1.8,0.7,2.9s-0.2,2.1-0.7,2.9s-1.1,1.5-1.9,2c-0.8,0.5-1.7,0.7-2.8,0.7c-0.9,0-1.6-0.2-2.3-0.5s-1.2-0.8-1.6-1.4
	v6.5h-2.3L174.6,298.4L174.6,298.4z M180.3,291.9c1,0,1.8-0.3,2.5-1c0.6-0.7,1-1.6,1-2.7c0-0.7-0.1-1.4-0.4-1.9
	c-0.3-0.6-0.7-1-1.2-1.3s-1.1-0.5-1.8-0.5c-1,0-1.8,0.3-2.5,1c-0.6,0.7-1,1.6-1,2.7s0.3,2,1,2.7
	C178.5,291.5,179.3,291.9,180.3,291.9z"/>
<path class="st0" d="M189.2,298.4v-15.8h2.1l0.2,1.7c0.4-0.5,0.8-1,1.5-1.4c0.6-0.4,1.4-0.6,2.4-0.6c1.1,0,2,0.2,2.8,0.7
	s1.4,1.2,1.9,2s0.7,1.8,0.7,2.9s-0.2,2.1-0.7,2.9s-1.1,1.5-1.9,2c-0.8,0.5-1.7,0.7-2.8,0.7c-0.9,0-1.6-0.2-2.3-0.5s-1.2-0.8-1.6-1.4
	v6.5h-2.3L189.2,298.4L189.2,298.4z M194.9,291.9c1,0,1.8-0.3,2.5-1c0.6-0.7,1-1.6,1-2.7c0-0.7-0.1-1.4-0.4-1.9
	c-0.3-0.6-0.7-1-1.2-1.3s-1.1-0.5-1.8-0.5c-1,0-1.8,0.3-2.5,1c-0.6,0.7-1,1.6-1,2.7s0.3,2,1,2.7
	C193.1,291.5,193.9,291.9,194.9,291.9z"/>
<path class="st0" d="M203.8,293.6v-15.8h2.3v15.8H203.8z"/>
<path class="st0" d="M210.9,298.4l2.6-5.7h-0.6l-4.3-10h2.5l3.3,8.1l3.5-8.1h2.5l-7,15.8L210.9,298.4L210.9,298.4z"/>
<path class="st0" d="M230.5,293.9c-1.1,0-2-0.2-2.9-0.7c-0.8-0.5-1.5-1.2-2-2c-0.5-0.9-0.7-1.9-0.7-3s0.2-2.1,0.7-3s1.1-1.5,2-2
	c0.8-0.5,1.8-0.7,2.9-0.7c1.3,0,2.5,0.4,3.4,1.1s1.5,1.7,1.8,2.9h-2.4c-0.1-0.6-0.5-1.1-1-1.4s-1.1-0.5-1.8-0.5
	c-0.6,0-1.1,0.1-1.6,0.4s-0.9,0.7-1.2,1.3c-0.3,0.5-0.4,1.2-0.4,2s0.1,1.5,0.4,2c0.3,0.5,0.7,1,1.2,1.3s1,0.4,1.6,0.4
	c0.7,0,1.3-0.2,1.8-0.5s0.8-0.8,1-1.4h2.4c-0.2,1.2-0.8,2.1-1.8,2.8C233,293.5,231.8,293.9,230.5,293.9z"/>
<path class="st0" d="M238.7,293.6v-15.8h2.3v6.7c0.4-0.6,0.9-1.1,1.5-1.5s1.4-0.5,2.2-0.5c1.3,0,2.3,0.4,3.1,1.2
	c0.7,0.8,1.1,2,1.1,3.7v6.3h-2.3v-6c0-2.1-0.8-3.2-2.5-3.2c-0.9,0-1.6,0.3-2.2,0.9c-0.6,0.6-0.9,1.5-0.9,2.6v5.6L238.7,293.6
	L238.7,293.6z"/>
<path class="st0" d="M255.9,293.9c-0.9,0-1.7-0.2-2.3-0.5s-1-0.7-1.3-1.2s-0.4-1.1-0.4-1.7c0-1.1,0.4-1.9,1.2-2.5s2-0.9,3.5-0.9h2.9
	v-0.2c0-0.9-0.2-1.5-0.7-1.9s-1.1-0.6-1.8-0.6c-0.6,0-1.2,0.2-1.7,0.5s-0.8,0.8-0.9,1.4h-2.3c0.1-0.8,0.3-1.5,0.8-2
	c0.5-0.6,1-1,1.8-1.3c0.7-0.3,1.5-0.5,2.3-0.5c1.5,0,2.7,0.4,3.5,1.2s1.3,1.9,1.3,3.3v6.7h-2l-0.2-1.9c-0.3,0.6-0.8,1.1-1.3,1.5
	C257.6,293.7,256.9,293.9,255.9,293.9z M256.4,292c0.6,0,1.2-0.2,1.6-0.5s0.8-0.7,1-1.2s0.4-1,0.5-1.6h-2.6c-0.9,0-1.6,0.2-2,0.5
	s-0.6,0.7-0.6,1.2s0.2,0.9,0.6,1.2C255.2,291.8,255.7,292,256.4,292z"/>
<path class="st0" d="M265.2,293.6v-10.9h2.3v10.9H265.2z"/>
<path class="st0" d="M271.1,293.6v-10.9h2.1l0.2,1.9c0.3-0.7,0.8-1.2,1.5-1.6s1.4-0.6,2.3-0.6c1.3,0,2.4,0.4,3.1,1.2
	c0.8,0.8,1.1,2,1.1,3.7v6.3h-2.3v-6c0-2.1-0.9-3.2-2.6-3.2c-0.9,0-1.6,0.3-2.1,0.9c-0.6,0.6-0.8,1.5-0.8,2.6v5.6h-2.5L271.1,293.6
	L271.1,293.6z"/>
<path class="st0" d="M289,293.9c-1.4,0-2.5-0.3-3.4-1s-1.4-1.6-1.5-2.7h2.4c0.1,0.5,0.4,0.9,0.8,1.3s1,0.5,1.7,0.5s1.2-0.1,1.5-0.4
	s0.5-0.6,0.5-1c0-0.6-0.2-0.9-0.7-1.1c-0.4-0.2-1.1-0.4-1.9-0.5c-0.6-0.1-1.2-0.3-1.8-0.5c-0.6-0.2-1.1-0.5-1.5-0.9
	s-0.6-0.9-0.6-1.6c0-1,0.4-1.7,1.1-2.4c0.7-0.6,1.8-1,3.1-1c1.2,0,2.2,0.3,3,0.9s1.2,1.4,1.3,2.5h-2.2c-0.1-0.5-0.3-0.8-0.6-1.1
	c-0.3-0.3-0.8-0.4-1.4-0.4s-1,0.1-1.4,0.4c-0.3,0.2-0.5,0.6-0.5,0.9s0.2,0.7,0.7,0.9c0.4,0.2,1,0.4,1.8,0.6c0.7,0.2,1.4,0.3,2,0.6
	c0.6,0.2,1.1,0.5,1.5,0.9s0.6,1,0.6,1.8c0,1-0.4,1.8-1.2,2.5C291.4,293.5,290.3,293.9,289,293.9z"/>
<path class="st0" d="M248.3,40.4c-2.2,0-4-0.6-5.5-1.7s-2.3-2.6-2.6-4.5h3.2c0.2,1,0.7,1.8,1.5,2.5s1.9,1.1,3.3,1.1
	c1.3,0,2.3-0.3,2.9-0.8c0.6-0.6,0.9-1.2,0.9-2c0-1.1-0.4-1.8-1.2-2.2s-1.9-0.7-3.4-1c-1-0.2-2-0.5-3-0.9s-1.8-0.9-2.5-1.6
	s-1-1.6-1-2.7c0-1.6,0.6-2.9,1.8-3.9s2.8-1.5,4.9-1.5c1.9,0,3.5,0.5,4.8,1.5c1.2,1,2,2.4,2.2,4.2h-3.1c-0.1-0.9-0.5-1.7-1.2-2.2
	s-1.6-0.8-2.7-0.8c-1.1,0-2,0.2-2.6,0.7s-0.9,1.1-0.9,1.8s0.4,1.3,1.2,1.7s1.8,0.8,3.2,1.1c1.1,0.2,2.2,0.5,3.2,0.9s1.9,0.9,2.5,1.6
	c0.7,0.7,1,1.7,1,3c0,1.7-0.6,3-1.9,4.1C252.2,39.9,250.5,40.4,248.3,40.4z"/>
<path class="st0" d="M266.4,40.4c-2.2,0-3.9-0.7-5.2-2c-1.3-1.3-1.9-3.3-1.9-6.1V21.6h3.1V32c0,3.8,1.6,5.7,4.7,5.7
	c1.6,0,2.9-0.6,4-1.7c1-1.1,1.6-2.8,1.6-4.9v-9.5h3.1v18.3H273l-0.2-3.3c-0.6,1.2-1.4,2.1-2.5,2.7C269.1,40.1,267.8,40.4,266.4,40.4
	z"/>
<path class="st0" d="M280.9,48.1V21.6h2.8l0.3,3c0.6-0.9,1.4-1.7,2.5-2.4s2.5-1.1,4.2-1.1c1.8,0,3.4,0.4,4.8,1.3
	c1.4,0.8,2.4,2,3.2,3.4c0.8,1.5,1.1,3.1,1.1,5c0,1.8-0.4,3.5-1.1,4.9c-0.8,1.4-1.8,2.6-3.2,3.4c-1.4,0.8-3,1.2-4.8,1.2
	c-1.5,0-2.8-0.3-4-0.9s-2.1-1.5-2.7-2.6V48L280.9,48.1L280.9,48.1z M290.4,37.7c1.2,0,2.3-0.3,3.3-0.9c0.9-0.6,1.7-1.4,2.2-2.4
	s0.8-2.2,0.8-3.6s-0.3-2.6-0.8-3.6s-1.3-1.8-2.2-2.4c-0.9-0.6-2-0.9-3.3-0.9c-1.2,0-2.3,0.3-3.3,0.9c-0.9,0.6-1.7,1.4-2.2,2.4
	s-0.8,2.2-0.8,3.6s0.3,2.6,0.8,3.6s1.3,1.8,2.2,2.4C288,37.4,289.1,37.7,290.4,37.7z"/>
<path class="st0" d="M304.1,48.1V21.6h2.8l0.3,3c0.6-0.9,1.4-1.7,2.5-2.4s2.5-1.1,4.2-1.1c1.8,0,3.4,0.4,4.8,1.3
	c1.4,0.8,2.4,2,3.2,3.4c0.8,1.5,1.1,3.1,1.1,5c0,1.8-0.4,3.5-1.1,4.9c-0.8,1.4-1.8,2.6-3.2,3.4c-1.4,0.8-3,1.2-4.8,1.2
	c-1.5,0-2.8-0.3-4-0.9s-2.1-1.5-2.7-2.6V48L304.1,48.1L304.1,48.1z M313.6,37.7c1.2,0,2.3-0.3,3.3-0.9c0.9-0.6,1.7-1.4,2.2-2.4
	s0.8-2.2,0.8-3.6s-0.3-2.6-0.8-3.6s-1.3-1.8-2.2-2.4c-0.9-0.6-2-0.9-3.3-0.9c-1.2,0-2.3,0.3-3.3,0.9c-0.9,0.6-1.7,1.4-2.2,2.4
	s-0.8,2.2-0.8,3.6s0.3,2.6,0.8,3.6s1.3,1.8,2.2,2.4C311.2,37.4,312.3,37.7,313.6,37.7z"/>
<path class="st0" d="M327.3,40V13.3h3.1v26.6L327.3,40L327.3,40z"/>
<path class="st0" d="M337.5,48.1l4.5-9.9h-1l-7.3-16.6h3.4l6.1,14.3l6.4-14.3h3.2l-12,26.5H337.5z"/>
<path class="st0" d="M370,40.4c-1.8,0-3.3-0.4-4.7-1.2c-1.4-0.8-2.5-1.9-3.3-3.4c-0.8-1.4-1.2-3.1-1.2-5s0.4-3.6,1.2-5
	c0.8-1.4,1.9-2.6,3.3-3.4s3-1.2,4.7-1.2c2.2,0,4,0.6,5.5,1.7s2.4,2.6,2.8,4.5h-3.2c-0.2-1.1-0.9-2-1.8-2.6s-2.1-0.9-3.4-0.9
	c-1,0-2,0.3-2.9,0.8s-1.7,1.3-2.2,2.3c-0.6,1-0.9,2.3-0.9,3.8c0,1.5,0.3,2.8,0.9,3.8s1.3,1.8,2.2,2.3c0.9,0.5,1.9,0.8,2.9,0.8
	c1.3,0,2.4-0.3,3.4-0.9s1.6-1.5,1.8-2.7h3.2c-0.4,1.8-1.3,3.4-2.8,4.5C374,39.8,372.2,40.4,370,40.4z"/>
<path class="st0" d="M382.6,40V13.3h3.1v11.4c0.6-1.1,1.5-2,2.6-2.6s2.4-0.9,3.7-0.9c2.1,0,3.8,0.7,5.1,2c1.3,1.3,1.9,3.3,1.9,6.1
	V40h-3.1V29.6c0-3.8-1.5-5.7-4.6-5.7c-1.6,0-2.9,0.6-4,1.7s-1.6,2.8-1.6,4.9V40H382.6z"/>
<path class="st0" d="M409.9,40.4c-1.5,0-2.8-0.3-3.8-0.8s-1.8-1.2-2.3-2.1c-0.5-0.9-0.7-1.8-0.7-2.8c0-1.9,0.7-3.3,2.1-4.3
	s3.4-1.5,5.8-1.5h5v-0.2c0-1.6-0.4-2.8-1.3-3.6c-0.8-0.8-2-1.2-3.4-1.2c-1.2,0-2.2,0.3-3.1,0.9s-1.4,1.5-1.6,2.6h-3.2
	c0.1-1.3,0.6-2.5,1.3-3.4s1.7-1.6,2.9-2.1s2.4-0.7,3.7-0.7c2.6,0,4.5,0.7,5.8,2.1s1.9,3.2,1.9,5.5v11.3h-2.8l-0.2-3.3
	c-0.5,1-1.3,1.9-2.3,2.6C412.9,40,411.5,40.4,409.9,40.4z M410.3,37.8c1.2,0,2.2-0.3,3-0.9c0.8-0.6,1.5-1.4,1.9-2.4s0.7-2,0.7-3.1
	l0,0h-4.7c-1.8,0-3.1,0.3-3.9,0.9c-0.8,0.6-1.1,1.4-1.1,2.3c0,1,0.4,1.7,1.1,2.3C408.1,37.5,409.1,37.8,410.3,37.8z"/>
<path class="st0" d="M424.1,40V21.6h3.1v18.3L424.1,40L424.1,40z"/>
<path class="st0" d="M432.6,40V21.6h2.8l0.2,3.3c0.6-1.2,1.4-2.1,2.5-2.7c1.1-0.7,2.4-1,3.8-1c2.2,0,3.9,0.7,5.2,2
	c1.3,1.3,1.9,3.3,1.9,6.1V40h-3.1V29.6c0-3.8-1.6-5.7-4.7-5.7c-1.6,0-2.9,0.6-3.9,1.7s-1.6,2.8-1.6,4.9V40
	C435.7,40,432.6,40,432.6,40z"/>
<path class="st0" d="M460.8,40.4c-2.2,0-4-0.6-5.5-1.7s-2.3-2.6-2.5-4.5h3.2c0.2,1,0.7,1.8,1.5,2.5s1.9,1.1,3.3,1.1
	c1.3,0,2.3-0.3,2.9-0.8c0.6-0.6,0.9-1.2,0.9-2c0-1.1-0.4-1.8-1.2-2.2c-0.8-0.4-1.9-0.7-3.4-1c-1-0.2-2-0.5-3-0.9s-1.8-0.9-2.5-1.6
	s-1-1.6-1-2.7c0-1.6,0.6-2.9,1.8-3.9c1.2-1,2.8-1.5,4.9-1.5c1.9,0,3.5,0.5,4.8,1.5c1.2,1,2,2.4,2.2,4.2h-3.1
	c-0.1-0.9-0.5-1.7-1.2-2.2s-1.6-0.8-2.7-0.8s-2,0.2-2.6,0.7s-0.9,1.1-0.9,1.8s0.4,1.3,1.2,1.7c0.8,0.4,1.8,0.8,3.2,1.1
	c1.1,0.2,2.2,0.5,3.2,0.9s1.9,0.9,2.5,1.6c0.7,0.7,1,1.7,1,3c0,1.7-0.6,3-1.9,4.1S462.9,40.4,460.8,40.4z"/>
<linearGradient id="SVGID_1_" gradientUnits="userSpaceOnUse" x1="17.9" y1="-1092.95" x2="100.7201" y2="-1092.95" gradientTransform="matrix(1 0 0 -1 0 -1070)">
	<stop  offset="0" style="stop-color:#FF615F"/>
	<stop  offset="0.17" style="stop-color:#FF6361;stop-opacity:0.99"/>
	<stop  offset="0.3" style="stop-color:#FF6967;stop-opacity:0.95"/>
	<stop  offset="0.42" style="stop-color:#FF7372;stop-opacity:0.88"/>
	<stop  offset="0.53" style="stop-color:#FF8280;stop-opacity:0.79"/>
	<stop  offset="0.63" style="stop-color:#FF9594;stop-opacity:0.67"/>
	<stop  offset="0.74" style="stop-color:#FFACAB;stop-opacity:0.52"/>
	<stop  offset="0.84" style="stop-color:#FFC8C7;stop-opacity:0.35"/>
	<stop  offset="0.93" style="stop-color:#FFE7E6;stop-opacity:0.15"/>
	<stop  offset="1" style="stop-color:#FFFFFF;stop-opacity:0"/>
</linearGradient>
<path class="st1" d="M89.5,28.6l0.7,0.3c3.4-1.9,6.9-3.4,10.6-4.8c-2.2-0.9-4.5-2.2-7.1-3.5c-7.8-4.1-17.6-9.2-29.4-9.2
	s-21.6,5.1-29.4,9.2c-5.2,2.7-9.7,5-12.9,5h-3.9v8.9h4c5.5,0,10.9-2.8,17.1-6c7.3-3.9,15.6-8.2,25.2-8.2S82.2,24.7,89.5,28.6z"/>
<linearGradient id="SVGID_2_" gradientUnits="userSpaceOnUse" x1="27.8" y1="-1107.35" x2="110.7041" y2="-1107.35" gradientTransform="matrix(1 0 0 -1 0 -1070)">
	<stop  offset="0" style="stop-color:#FFFFFF;stop-opacity:0"/>
	<stop  offset="7.000000e-02" style="stop-color:#FFE7E6;stop-opacity:0.15"/>
	<stop  offset="0.16" style="stop-color:#FFC8C7;stop-opacity:0.35"/>
	<stop  offset="0.26" style="stop-color:#FFACAB;stop-opacity:0.52"/>
	<stop  offset="0.37" style="stop-color:#FF9594;stop-opacity:0.67"/>
	<stop  offset="0.47" style="stop-color:#FF8280;stop-opacity:0.79"/>
	<stop  offset="0.58" style="stop-color:#FF7372;stop-opacity:0.88"/>
	<stop  offset="0.7" style="stop-color:#FF6967;stop-opacity:0.95"/>
	<stop  offset="0.83" style="stop-color:#FF6361;stop-opacity:0.99"/>
	<stop  offset="1" style="stop-color:#FF615F"/>
</linearGradient>
<path class="st2" d="M106.6,25.7c-5.5,0-10.8,2.8-17.1,6c-7.3,3.9-15.6,8.2-25.3,8.2S46.3,35.6,39,31.8l-0.7-0.3
	c-3.4,1.9-6.9,3.4-10.5,4.8c2.2,0.9,4.5,2.2,7.1,3.5c7.8,4.1,17.6,9.2,29.4,9.2s21.6-5.1,29.4-9.2c5.2-2.7,9.7-5,12.9-5h4v-9
	L106.6,25.7L106.6,25.7z"/>
<path class="st3" d="M138.4,40c-1.7,0.1-3.4-0.4-4.7-1.4c-1.2-0.9-1.8-2.6-1.8-5v-8.1h-3.1v-4h3.2l0.6-5h4.2v5h5v4h-5v8.1
	c-0.1,0.7,0.2,1.3,0.6,1.8c0.6,0.4,1.3,0.6,2,0.5h2.4V40H138.4z"/>
<path class="st3" d="M149.4,40V21.4h4.3l0.4,3.4c1.3-2.5,4-4,6.9-3.9v5h-1.3c-0.9,0-1.9,0.2-2.8,0.5c-0.8,0.3-1.5,0.9-1.9,1.7
	c-0.5,1-0.8,2.2-0.7,3.4V40C154.2,40,149.4,40,149.4,40z"/>
<path class="st3" d="M172.2,40.4c-1.3,0.1-2.7-0.3-3.9-0.8c-0.9-0.4-1.8-1.2-2.3-2s-0.8-1.8-0.8-2.8c0-1.7,0.7-3.2,2-4.2
	c1.3-1.1,3.4-1.6,6-1.6h4.7v-0.3c0.1-1.1-0.3-2.1-1.1-2.8c-0.8-0.6-1.7-0.9-2.7-0.9c-0.9,0-1.8,0.3-2.5,0.7c-0.8,0.4-1.2,1.2-1.3,2
	h-4.7c0.1-1.3,0.6-2.5,1.3-3.5c0.8-1,1.8-1.8,3-2.3c1.3-0.6,2.8-0.8,4.2-0.8c2.3-0.1,4.5,0.6,6.2,2c1.6,1.4,2.4,3.5,2.3,5.6v11.4
	h-4.1l-0.4-3c-0.6,1-1.3,1.8-2.3,2.4C174.9,40.2,173.5,40.5,172.2,40.4z M173.3,36.7c1.2,0.1,2.4-0.4,3.2-1.3s1.3-2.1,1.4-3.4h-4.1
	c-0.9-0.1-1.9,0.2-2.7,0.7c-0.5,0.4-0.8,1-0.8,1.7s0.3,1.3,0.8,1.7C171.8,36.5,172.5,36.7,173.3,36.7L173.3,36.7z"/>
<path class="st3" d="M197,40.4c-1.5,0-2.9-0.3-4.4-0.8c-1.2-0.5-2.2-1.3-3-2.3c-0.8-0.9-1.2-2.1-1.3-3.3h4.9
	c0.2,0.8,0.6,1.4,1.2,1.8c0.8,0.5,1.6,0.8,2.5,0.8c0.8,0.1,1.6-0.2,2.3-0.7c0.4-0.3,0.8-0.9,0.8-1.4c0.1-0.7-0.3-1.3-1-1.6
	c-0.9-0.3-1.9-0.7-2.9-0.8c-0.8-0.2-1.6-0.4-2.4-0.7c-0.8-0.3-1.5-0.6-2.3-0.9c-0.7-0.3-1.3-0.8-1.7-1.5s-0.7-1.4-0.7-2.3
	c0-1.6,0.7-3.2,1.9-4.2c1.6-1.2,3.5-1.8,5.5-1.7c1.8-0.1,3.7,0.4,5.3,1.5c1.3,1,2.2,2.5,2.4,4.2h-4.5c-0.3-1.3-1.3-2.1-3.1-2.1
	c-0.8-0.1-1.4,0.2-2.1,0.5c-0.4,0.3-0.8,0.8-0.8,1.3s0.3,1,1.1,1.3c0.9,0.4,1.9,0.7,2.9,0.9c1.3,0.3,2.5,0.7,3.5,1s1.9,0.8,2.6,1.6
	c0.7,0.8,1,1.9,1,3s-0.3,2.2-0.9,3.1c-0.7,1-1.6,1.8-2.7,2.3C199.8,40.3,198.4,40.5,197,40.4z"/>
<path class="st3" d="M219.3,40.4c-1.8,0-3.4-0.4-5-1.2c-1.4-0.8-2.6-1.9-3.4-3.4c-0.8-1.5-1.3-3.3-1.3-5s0.4-3.5,1.2-5.1
	c0.8-1.4,1.9-2.7,3.4-3.5s3.3-1.3,5-1.3s3.4,0.4,4.9,1.2c1.3,0.8,2.5,1.9,3.3,3.3s1.2,3,1.2,4.6c0,0.3,0,0.6,0,0.8s0,0.6-0.1,0.9
	h-14c0,1.3,0.6,2.5,1.5,3.4c0.9,0.8,2.1,1.3,3.4,1.3c0.8,0,1.7-0.2,2.4-0.7c0.7-0.4,1.2-1,1.5-1.7h4.9c-0.3,1.2-0.9,2.3-1.8,3.2
	c-0.8,0.9-1.8,1.8-3,2.3C222.2,40.2,220.8,40.5,219.3,40.4z M219.3,24.9c-1.1,0-2.2,0.3-3.1,1c-0.9,0.8-1.5,1.8-1.7,3h9.2
	c0-1.1-0.5-2.2-1.3-2.9C221.6,25.2,220.5,24.9,219.3,24.9L219.3,24.9z"/>
<linearGradient id="SVGID_3_" gradientUnits="userSpaceOnUse" x1="22.5" y1="-1353.8" x2="69.55" y2="-1353.8" gradientTransform="matrix(1 0 0 -1 0 -1070)">
	<stop  offset="0" style="stop-color:#FF615F"/>
	<stop  offset="0.17" style="stop-color:#FF6361;stop-opacity:0.99"/>
	<stop  offset="0.3" style="stop-color:#FF6967;stop-opacity:0.95"/>
	<stop  offset="0.42" style="stop-color:#FF7372;stop-opacity:0.88"/>
	<stop  offset="0.53" style="stop-color:#FF8280;stop-opacity:0.79"/>
	<stop  offset="0.63" style="stop-color:#FF9594;stop-opacity:0.67"/>
	<stop  offset="0.74" style="stop-color:#FFACAB;stop-opacity:0.52"/>
	<stop  offset="0.84" style="stop-color:#FFC8C7;stop-opacity:0.35"/>
	<stop  offset="0.93" style="stop-color:#FFE7E6;stop-opacity:0.15"/>
	<stop  offset="1" style="stop-color:#FFFFFF;stop-opacity:0"/>
</linearGradient>
<path class="st4" d="M63.2,286.9l0.4,0.2c1.9-1.1,3.9-2,6-2.7c-1.2-0.5-2.6-1.2-4-2c-4.5-2.3-10-5.2-16.7-5.2s-12.2,2.9-16.7,5.2
	c-3,1.5-5.5,2.9-7.4,2.9h-2.3v5.1h2.3c3.1,0,6.2-1.6,9.7-3.4c4.2-2.2,8.9-4.6,14.3-4.6S59,284.7,63.2,286.9z"/>
<linearGradient id="SVGID_4_" gradientUnits="userSpaceOnUse" x1="28.12" y1="-1361.8" x2="75.11" y2="-1361.8" gradientTransform="matrix(1 0 0 -1 0 -1070)">
	<stop  offset="0" style="stop-color:#FFFFFF;stop-opacity:0"/>
	<stop  offset="7.000000e-02" style="stop-color:#FFE7E6;stop-opacity:0.15"/>
	<stop  offset="0.16" style="stop-color:#FFC8C7;stop-opacity:0.35"/>
	<stop  offset="0.26" style="stop-color:#FFACAB;stop-opacity:0.52"/>
	<stop  offset="0.37" style="stop-color:#FF9594;stop-opacity:0.67"/>
	<stop  offset="0.47" style="stop-color:#FF8280;stop-opacity:0.79"/>
	<stop  offset="0.58" style="stop-color:#FF7372;stop-opacity:0.88"/>
	<stop  offset="0.7" style="stop-color:#FF6967;stop-opacity:0.95"/>
	<stop  offset="0.83" style="stop-color:#FF6361;stop-opacity:0.99"/>
	<stop  offset="1" style="stop-color:#FF615F"/>
</linearGradient>
<path class="st5" d="M72.9,285.3c-3.1,0-6.2,1.6-9.7,3.4c-4.2,2.2-8.9,4.7-14.3,4.7s-10.2-2.5-14.3-4.7l-0.4-0.2
	c-1.9,1.1-3.9,2-6,2.7c1.2,0.5,2.6,1.2,4,2c4.4,2.3,10,5.2,16.7,5.2s12.2-2.9,16.7-5.2c2.9-1.5,5.5-2.9,7.4-2.9h2.3v-5.1L72.9,285.3
	z"/>
<path class="st3" d="M91,293.4c-1,0-1.9-0.2-2.7-0.8c-0.8-0.8-1.1-1.8-1-2.9v-4.6h-1.8v-2.3h1.8l0.3-2.8H90v2.8h2.8v2.3H90v4.6
	c0,0.4,0.1,0.7,0.3,1c0.3,0.2,0.7,0.3,1.1,0.3h1.3v2.3L91,293.4z"/>
<path class="st3" d="M97.3,293.4v-10.5h2.4l0.3,2c0.8-1.4,2.3-2.3,3.9-2.2v2.9h-0.8c-0.5,0-1.1,0.1-1.6,0.3c-0.5,0.2-0.9,0.5-1.1,1
	c-0.3,0.6-0.4,1.2-0.4,1.9v4.8L97.3,293.4z"/>
<path class="st3" d="M110.5,293.7c-0.8,0-1.5-0.1-2.2-0.4c-0.5-0.2-1-0.7-1.3-1.2s-0.4-1-0.4-1.6c0-0.9,0.4-1.8,1.1-2.4
	c1-0.7,2.2-1,3.4-0.9h2.7V287c0-0.6-0.2-1.2-0.6-1.6c-0.4-0.3-1-0.5-1.5-0.5s-1,0.1-1.4,0.4s-0.7,0.7-0.8,1.2h-2.7
	c0.1-0.7,0.3-1.4,0.8-2s1.1-1,1.7-1.3c0.8-0.3,1.6-0.5,2.4-0.4c1.3-0.1,2.5,0.3,3.6,1.1c0.9,0.8,1.4,2,1.3,3.2v6.5h-2.3l-0.3-1.7
	c-0.3,0.6-0.8,1-1.3,1.4C112,293.5,111.2,293.7,110.5,293.7z M111.1,291.6c0.7,0,1.4-0.2,1.8-0.8c0.4-0.5,0.7-1.2,0.8-1.9h-2.3
	c-0.5,0-1.1,0.1-1.6,0.4c-0.3,0.2-0.5,0.6-0.5,1s0.1,0.8,0.5,1C110.2,291.5,110.7,291.6,111.1,291.6L111.1,291.6z"/>
<path class="st3" d="M124.7,293.7c-0.8,0-1.7-0.1-2.5-0.5c-0.7-0.3-1.2-0.7-1.7-1.3c-0.4-0.5-0.7-1.2-0.8-1.9h2.7
	c0.1,0.4,0.3,0.8,0.7,1.1c0.4,0.3,0.9,0.5,1.4,0.4c0.5,0,0.9-0.1,1.3-0.4c0.3-0.2,0.4-0.5,0.4-0.8c0-0.4-0.2-0.8-0.6-0.9
	c-0.5-0.2-1.1-0.4-1.7-0.5c-0.4-0.1-0.9-0.2-1.4-0.4c-0.4-0.1-0.9-0.3-1.3-0.5s-0.7-0.5-0.9-0.9c-0.2-0.4-0.4-0.8-0.4-1.3
	c0-0.9,0.4-1.8,1.1-2.4c1.8-1.2,4.2-1.3,6.1-0.1c0.8,0.6,1.2,1.5,1.3,2.4h-2.6c-0.2-0.8-0.7-1.2-1.8-1.2c-0.4,0-0.8,0.1-1.2,0.3
	c-0.3,0.2-0.4,0.4-0.4,0.7s0.2,0.6,0.6,0.8c0.5,0.2,1.1,0.4,1.6,0.5c0.7,0.2,1.3,0.3,2,0.6c0.6,0.2,1.1,0.5,1.5,0.9
	c0.4,0.5,0.6,1.1,0.6,1.7s-0.2,1.3-0.5,1.8c-0.4,0.5-0.9,1-1.5,1.2C126.2,293.6,125.4,293.7,124.7,293.7z"/>
<path class="st3" d="M137.5,293.7c-1,0-2-0.2-2.8-0.7c-0.8-0.4-1.5-1.1-1.9-1.9c-0.5-0.9-0.7-1.8-0.7-2.8s0.2-2,0.7-2.9
	c0.4-0.8,1.1-1.5,1.9-2c0.9-0.5,1.9-0.7,2.9-0.7s1.9,0.2,2.7,0.7c0.8,0.4,1.4,1.1,1.9,1.9c0.4,0.8,0.7,1.7,0.7,2.6
	c0,0.2,0,0.3,0,0.5s0,0.4,0,0.5h-8c0,0.7,0.3,1.4,0.9,1.9c0.5,0.5,1.2,0.7,1.9,0.7c0.5,0,1-0.1,1.4-0.4s0.7-0.6,0.8-1h2.8
	c-0.2,0.7-0.5,1.3-1,1.8c-0.5,0.6-1,1-1.7,1.3C139.1,293.5,138.3,293.7,137.5,293.7z M137.5,284.9c-0.6,0-1.3,0.2-1.8,0.6
	s-0.9,1-1,1.7h5.2c0-0.6-0.3-1.2-0.8-1.7C138.8,285.1,138.2,284.8,137.5,284.9L137.5,284.9z"/>
<text transform="matrix(1 0 0 1 21.28 253.5402)" style="font-family:'DMSans-Medium'; font-size:21.9px;">FOR SMALL SCREENS:</text>
</svg>
