<svg width="47" height="42" xmlns="http://www.w3.org/2000/svg"><g fill="#34444C" fill-rule="evenodd"><path d="M1.504 26.382c.83 0 1.503-.673 1.503-1.504 0-11.645 9.475-21.118 21.12-21.118a21.088 21.088 0 0 1 17.478 9.215l-2.062-.277a1.504 1.504 0 0 0-.4 2.98l5.427.73a1.503 1.503 0 0 0 1.691-1.29l.729-5.427a1.503 1.503 0 1 0-2.98-.401l-.212 1.577A24.076 24.076 0 0 0 24.127.752C10.824.752 0 11.575 0 24.878c0 .83.673 1.504 1.504 1.504"/><path d="M21.488 39.338c-.184-.753-.647-1.66-1.421-2.79a30.041 30.041 0 0 0-2.12-2.71c.19-.14.999-.595 3.444-.567a3.19 3.19 0 0 0 3.035-2.213c.154-.472.507-.964 1.019-1.424a4.16 4.16 0 0 0 1.385-3.344 4.04 4.04 0 0 0-1.692-3.082 4.913 4.913 0 0 0-1.052-.567c-1.231-.483-2.645-.426-3.88.156-1.806.85-4.36 1.262-5.721 1.432a4.11 4.11 0 0 1-1.09-.02c-1.379-.188-2.543.452-3.44 1.27a14.03 14.03 0 0 1 2.132-7.357c.226.277.488.53.789.745a4.83 4.83 0 0 0 2.79.893h.005c.73 0 1.47-.166 2.139-.481 1.805-.85 4.359-1.262 5.72-1.432.335-.041.692-.035 1.09.02 1.203.165 2.376-.278 3.488-1.318 1.07-1 1.653-2.36 1.694-3.757a14.03 14.03 0 0 1 6.864 6.75l.034.073a13.938 13.938 0 0 1 1.284 5.134c-.203.146-1.013.583-3.432.56a3.188 3.188 0 0 0-3.035 2.21c-.195.598-.662 1.106-1.02 1.426a4.16 4.16 0 0 0-1.383 3.344 4.039 4.039 0 0 0 1.691 3.08c.314.225.668.416 1.053.568.388.152.797.232 1.213.277a14.02 14.02 0 0 1-9.09 3.351c-.84 0-1.673-.08-2.493-.227m-5.384-3.901c.873 1.016 1.609 1.979 2.14 2.788l-.216-.078c-.38-.143-.718-.293-1.038-.446a14.071 14.071 0 0 1-2.977-2.296c-.721-.857-2.262-2.913-3.13-4.839a14.045 14.045 0 0 1-.518-1.688c.599-1.006 1.704-2.385 2.697-2.242a6.54 6.54 0 0 0 1.727.024c1.506-.188 4.348-.653 6.46-1.647.628-.295 1.336-.33 1.94-.092.197.078.375.173.527.281.397.284.64.73.669 1.224.03.526-.181 1.03-.576 1.384-.844.758-1.42 1.595-1.711 2.488a.747.747 0 0 1-.715.522c-2.305-.026-3.9.32-4.885 1.042a2.405 2.405 0 0 0-.975 1.684c-.077.681.134 1.37.58 1.89m8.792-23.893c.101.007.201.018.302.026.204.017.407.038.61.064.114.014.229.033.343.05a16.384 16.384 0 0 1 .906.171c.07.016.14.035.21.052a2.895 2.895 0 0 1-.832 2.854c-.545.51-1.047.738-1.483.679a6.618 6.618 0 0 0-1.724-.023c-1.505.188-4.349.652-6.46 1.647-.629.296-1.336.33-1.942.091a2.431 2.431 0 0 1-.527-.281 1.565 1.565 0 0 1-.6-.848c.122-.132.245-.262.371-.388.164-.163.326-.328.496-.483.193-.174.393-.336.594-.5.185-.149.368-.3.56-.44.199-.146.406-.278.613-.412.206-.135.41-.273.624-.396.205-.119.418-.223.63-.332.224-.115.445-.235.676-.337.216-.096.439-.176.658-.262.235-.09.468-.188.707-.267.238-.076.481-.134.722-.2.23-.061.458-.132.69-.182.289-.061.583-.1.875-.143.193-.029.384-.07.58-.091.49-.052.987-.08 1.486-.08.307 0 .612.011.915.03M37.61 28.848c-.018.078-.041.154-.061.231-.1.387-.218.77-.351 1.146-.03.081-.056.164-.087.245-.16.428-.34.848-.542 1.26-.034.067-.072.133-.107.2-.175.342-.366.676-.57 1.003-.04.063-.079.127-.12.189-.388.14-.75.29-1.077.444-.628.296-1.335.33-1.94.092a2.447 2.447 0 0 1-.527-.281 1.601 1.601 0 0 1-.668-1.224c-.03-.525.18-1.03.574-1.384.844-.758 1.42-1.594 1.712-2.488a.744.744 0 0 1 .706-.521v-.752l.009.752c1.343.01 2.437-.1 3.316-.335l-.009.075c-.064.454-.15.904-.258 1.348m2.824-4.205l-.001-.004-.004-.071c-.119-2.05-.61-4.03-1.464-5.89l-.045-.099a16.476 16.476 0 0 0-10.155-8.806c-.01-.004-.018-.012-.028-.015l-.207-.06a16.519 16.519 0 0 0-7.221-.419 16.472 16.472 0 0 0-9.834 5.53l-.118.138c-.013.016-.018.036-.03.052A16.478 16.478 0 0 0 7.858 28.96l.003.007c.104.822.381 1.689.757 2.539v.004a16.426 16.426 0 0 0 3.567 5.528c1.003 1.293 2.365 2.206 3.683 2.845l.008.005.112.062a16.478 16.478 0 0 0 21.484-4.962c.008-.01.02-.016.026-.026l.091-.133a16.385 16.385 0 0 0 2.845-10.134v-.002l-.001-.051" opacity=".2"/><path d="M24.17 39.549c-.101.002-.2.013-.3.013-.84 0-1.674-.08-2.495-.228-.182-.753-.646-1.66-1.42-2.79a30.383 30.383 0 0 0-2.12-2.71c.19-.139.999-.595 3.444-.567a3.182 3.182 0 0 0 2.89-1.862v-4.313c-.096.27-.25.517-.472.715-.843.758-1.42 1.595-1.711 2.488a.748.748 0 0 1-.714.522c-2.306-.026-3.9.32-4.886 1.041a2.404 2.404 0 0 0-.975 1.685c-.078.68.134 1.37.58 1.89.874 1.016 1.61 1.98 2.14 2.789-.07-.026-.143-.052-.214-.08-.38-.14-.72-.292-1.039-.445a14.075 14.075 0 0 1-2.976-2.296c-.723-.856-2.264-2.913-3.13-4.838a13.78 13.78 0 0 1-.518-1.688c.597-1.006 1.703-2.385 2.696-2.242a6.546 6.546 0 0 0 1.727.024c1.506-.188 4.348-.653 6.46-1.647.629-.295 1.336-.33 1.94-.092.198.078.375.173.527.28.266.191.456.458.565.76v-3.23c-.066-.028-.127-.063-.195-.09-1.23-.483-2.644-.426-3.88.156-1.806.85-4.36 1.262-5.72 1.432-.336.042-.691.035-1.09-.02-1.38-.188-2.544.452-3.44 1.27.011-2.617.761-5.16 2.131-7.358.227.278.488.531.788.746.317.226.672.416 1.053.567.55.216 1.135.326 1.739.326h.003c.732 0 1.471-.166 2.14-.481 1.805-.85 4.36-1.263 5.72-1.433.236-.028.487-.025.751-.007v-2.452a6.435 6.435 0 0 0-1.054.028c-1.505.188-4.349.652-6.46 1.647-.629.296-1.336.33-1.943.091a2.4 2.4 0 0 1-.525-.28 1.572 1.572 0 0 1-.601-.848c.122-.132.245-.262.371-.388.164-.164.327-.328.497-.483.192-.175.393-.336.594-.5.184-.149.367-.3.559-.44.2-.147.406-.278.613-.413.206-.134.411-.272.624-.395.205-.12.418-.224.63-.332.224-.115.446-.235.677-.338.215-.096.437-.175.657-.261.236-.091.467-.188.708-.266.237-.078.48-.136.722-.2.23-.063.457-.133.69-.183.288-.062.582-.1.874-.144.194-.028.385-.07.58-.09.491-.052.987-.081 1.487-.081.1 0 .2.007.3.01v-2.45c-.1-.001-.2-.01-.3-.01a16.472 16.472 0 0 0-12.506 5.748l-.117.136c-.014.016-.02.037-.03.053a16.467 16.467 0 0 0-3.468 13.962l.001.006c.105.822.383 1.689.757 2.54a16.422 16.422 0 0 0 3.568 5.532c1.004 1.293 2.366 2.206 3.683 2.844l.009.006.112.062a16.491 16.491 0 0 0 7.991 2.065c.1 0 .2-.007.3-.01V39.55z"/></g></svg>