<svg width="49" height="50" xmlns="http://www.w3.org/2000/svg" xmlns:xlink="http://www.w3.org/1999/xlink"><defs><path id="a" d="M0 0h12.157v44.207H0z"/><path id="c" d="M.55.006h9.915v3.31H.55z"/></defs><g fill="none" fill-rule="evenodd"><g transform="translate(0 4.968)"><mask id="b" fill="#fff"><use xlink:href="#a"/></mask><path d="M2.24 41.997l.058-2.21h5.438a1.106 1.106 0 0 0 0-2.211h-5.38L3.2 5.526h5.757l.96 36.47H2.24zM8.87 2.21l.03 1.106H3.257l.029-1.106H8.87zM2.21 0c-.598 0-1.089.477-1.105 1.076L0 43.073a1.108 1.108 0 0 0 1.105 1.134h9.947a1.105 1.105 0 0 0 1.105-1.134L11.05 1.076A1.105 1.105 0 0 0 9.947 0H2.21z" fill="#34444C" mask="url(#b)"/></g><g transform="translate(3.868 .547)"><mask id="d" fill="#fff"><use xlink:href="#c"/></mask><path d="M9.123.094a3.934 3.934 0 0 0-1.486.674 1.691 1.691 0 0 1-2.012 0A3.906 3.906 0 0 0 3.321.005c-.84 0-1.636.266-2.315.763a1.127 1.127 0 0 0-.442.724c-.045.293.027.58.198.823.349.47 1.072.586 1.548.238a1.669 1.669 0 0 1 2.011 0 3.91 3.91 0 0 0 2.31.762 3.91 3.91 0 0 0 2.31-.762c.199-.144.42-.249.657-.299.592-.132.973-.718.84-1.315A1.125 1.125 0 0 0 9.123.094z" fill="#34444C" mask="url(#d)"/></g><path d="M20.446 2.763c.359 0 .696.116 1.005.337.194.138.415.21.652.21a1.104 1.104 0 0 0 .652-1.995A3.902 3.902 0 0 0 18.992.84c-.27.11-.486.32-.602.591-.116.271-.116.57-.006.846.222.552.885.834 1.437.608.205-.083.415-.122.625-.122zM16.312 3.741a1.11 1.11 0 0 0 1.061-.78 1.107 1.107 0 0 0-.73-1.38 1.11 1.11 0 0 0-1.38.723 1.1 1.1 0 0 0 .077.846 1.086 1.086 0 0 0 .972.591zM47.065 16.119l-10.594 4.816v-3.81a1.106 1.106 0 0 0-1.563-1.006l-10.594 4.816v-3.81a1.106 1.106 0 0 0-1.563-1.006l-8.841 4.018a1.106 1.106 0 0 0 .915 2.013l7.279-3.309v3.81a1.105 1.105 0 0 0 1.562 1.006l10.595-4.816v3.81a1.105 1.105 0 0 0 1.562 1.006l10.594-4.816v23.703h-32.05a1.105 1.105 0 1 0 0 2.21h32.05v2.21h-32.05a1.105 1.105 0 1 0 0 2.211h33.156c.61 0 1.105-.495 1.105-1.105V17.125a1.106 1.106 0 0 0-1.563-1.006z" fill="#34444C"/><path d="M22.104 37.018a1.106 1.106 0 0 0 0-2.21h-6.631a1.106 1.106 0 0 0 0 2.21h6.63zM32.05 37.018a1.106 1.106 0 0 0 0-2.21h-6.63a1.106 1.106 0 0 0 0 2.21h6.63zM41.997 37.018a1.106 1.106 0 0 0 0-2.21h-6.631a1.106 1.106 0 0 0 0 2.21h6.63z" fill="#34444C"/></g></svg>