<svg width="50" height="50" xmlns="http://www.w3.org/2000/svg"><g fill="#34444C" fill-rule="evenodd"><path d="M32.609 45.652a1.087 1.087 0 0 0 0-2.174h-14.13a1.087 1.087 0 0 0 0 2.174h14.13z"/><path d="M35.87 45.652c0-1.199.975-2.174 2.173-2.174 1.2 0 2.174.975 2.174 2.174a2.176 2.176 0 0 1-2.174 2.174 2.176 2.176 0 0 1-2.173-2.174m2.173-4.347a4.353 4.353 0 0 0-4.347 4.347c0 .793.216 1.533.588 2.174h-9.827a1.09 1.09 0 0 0-1.087 1.087A1.09 1.09 0 0 0 24.457 50h16.847a1.09 1.09 0 0 0 1.087-1.087 1.09 1.09 0 0 0-.646-.991 4.317 4.317 0 0 0 .646-2.27 4.353 4.353 0 0 0-4.348-4.347"/><path d="M47.826 40.218H46.74V39.13c0-.6-.487-1.087-1.087-1.087H4.348c-.6 0-1.087.487-1.087 1.087v1.087H2.174V22.826H3.26v8.696a5.441 5.441 0 0 0 5.435 5.435h32.608a5.441 5.441 0 0 0 5.435-5.435v-8.696h1.087v17.392zM5.435 10.87h39.13v2.174H7.61a1.087 1.087 0 0 0 0 2.174h36.956v16.304a3.264 3.264 0 0 1-3.26 3.26H8.694a3.264 3.264 0 0 1-3.26-3.26V10.87zm19.592-8.458l9.427 6.284H16.386l8.641-6.284zm23.886 18.24h-2.174V9.782c0-.6-.487-1.086-1.087-1.086h-7.28L25.602.183a1.086 1.086 0 0 0-1.242.025L12.69 8.696H4.348c-.6 0-1.087.487-1.087 1.087v10.87H1.087c-.6 0-1.087.486-1.087 1.086v19.566c0 .6.487 1.086 1.087 1.086h2.174v1.087c0 .468.3.884.743 1.031l3.26 1.087a1.087 1.087 0 0 0 .688-2.062l-2.517-.839v-2.477h39.13v2.589l-1.573.786a1.087 1.087 0 1 0 .973 1.945l2.174-1.087c.368-.185.6-.56.6-.973v-1.087h2.174c.6 0 1.087-.486 1.087-1.086V21.739c0-.6-.487-1.087-1.087-1.087zM44.565 47.826a1.09 1.09 0 0 0-1.087 1.087A1.09 1.09 0 0 0 44.565 50a1.09 1.09 0 0 0 1.087-1.087 1.09 1.09 0 0 0-1.087-1.087M21.196 47.826a1.09 1.09 0 0 0-1.087 1.087A1.09 1.09 0 0 0 21.196 50a1.09 1.09 0 0 0 1.087-1.087 1.09 1.09 0 0 0-1.087-1.087M48.913 47.826h-1.087a1.09 1.09 0 0 0-1.087 1.087A1.09 1.09 0 0 0 47.826 50h1.087A1.09 1.09 0 0 0 50 48.913a1.09 1.09 0 0 0-1.087-1.087"/><path d="M10.87 45.652c0-1.199.975-2.174 2.173-2.174 1.2 0 2.174.975 2.174 2.174a2.176 2.176 0 0 1-2.174 2.174 2.176 2.176 0 0 1-2.173-2.174m7.065 2.174h-1.132c.372-.64.588-1.381.588-2.174a4.353 4.353 0 0 0-4.348-4.347 4.353 4.353 0 0 0-4.347 4.347c0 .793.216 1.533.588 2.174H1.087A1.09 1.09 0 0 0 0 48.913 1.09 1.09 0 0 0 1.087 50h16.848a1.09 1.09 0 0 0 1.087-1.087 1.09 1.09 0 0 0-1.087-1.087"/></g></svg>