<svg width="50" height="41" xmlns="http://www.w3.org/2000/svg"><g fill="#34444C" fill-rule="evenodd"><path d="M22.018 37.842c-.188-.771-.663-1.701-1.457-2.858a30.782 30.782 0 0 0-2.172-2.777c.195-.143 1.024-.61 3.53-.581a3.268 3.268 0 0 0 3.11-2.268c.157-.484.519-.988 1.043-1.459a4.262 4.262 0 0 0 1.42-3.426 4.14 4.14 0 0 0-1.734-3.158 5.034 5.034 0 0 0-1.079-.58c-1.26-.496-2.71-.438-3.976.159-1.85.87-4.467 1.293-5.861 1.467a4.212 4.212 0 0 1-1.116-.02c-1.413-.193-2.607.462-3.525 1.301a14.376 14.376 0 0 1 2.184-7.539c.232.284.5.544.808.764a4.949 4.949 0 0 0 2.86.915h.004c.748 0 1.507-.17 2.192-.493 1.85-.872 4.467-1.293 5.862-1.468a4.336 4.336 0 0 1 1.115.02c1.234.17 2.436-.284 3.575-1.35a5.48 5.48 0 0 0 1.736-3.85 14.376 14.376 0 0 1 7.033 6.917l.035.075a14.282 14.282 0 0 1 1.315 5.26c-.208.15-1.038.598-3.516.574-1.419 0-2.668.91-3.11 2.266-.2.612-.678 1.132-1.045 1.46a4.263 4.263 0 0 0-1.417 3.426 4.138 4.138 0 0 0 1.733 3.158c.322.23.684.425 1.078.58.398.156.817.238 1.243.285a14.365 14.365 0 0 1-9.315 3.433c-.86 0-1.713-.082-2.553-.233M16.5 33.845c.894 1.04 1.648 2.028 2.192 2.857l-.22-.08c-.39-.146-.737-.3-1.064-.457a14.418 14.418 0 0 1-3.05-2.352c-.74-.879-2.318-2.986-3.207-4.959a14.391 14.391 0 0 1-.531-1.73c.613-1.03 1.746-2.443 2.763-2.297a6.701 6.701 0 0 0 1.77.025c1.542-.193 4.454-.669 6.619-1.687.644-.303 1.369-.338 1.987-.095.203.08.385.177.54.288.407.291.657.748.686 1.254a1.766 1.766 0 0 1-.59 1.419c-.865.776-1.455 1.634-1.754 2.549a.766.766 0 0 1-.732.535c-2.362-.027-3.996.327-5.006 1.068a2.464 2.464 0 0 0-.998 1.724c-.08.698.137 1.405.595 1.938m9.007-24.483c.104.007.207.019.31.027.209.018.418.039.625.065.117.015.235.034.352.052a16.788 16.788 0 0 1 .928.175c.073.016.144.036.216.053a2.966 2.966 0 0 1-.853 2.925c-.56.523-1.073.755-1.52.695a6.781 6.781 0 0 0-1.766-.023c-1.543.193-4.457.667-6.62 1.687-.644.304-1.369.338-1.99.094-.2-.079-.38-.175-.54-.289a1.604 1.604 0 0 1-.614-.869c.125-.134.25-.268.38-.397.168-.167.333-.336.508-.495.198-.178.403-.344.609-.511.19-.154.377-.31.573-.452.204-.15.417-.285.629-.422.21-.139.42-.28.64-.406.209-.122.427-.229.644-.34.23-.118.457-.24.693-.346.222-.098.45-.18.675-.268.24-.093.479-.192.724-.273.243-.079.493-.138.74-.204.236-.064.469-.137.707-.188.295-.063.597-.102.896-.147.198-.029.394-.071.594-.093a14.496 14.496 0 0 1 1.523-.082c.315 0 .627.012.937.032m13.03 17.731c-.019.08-.043.157-.064.237-.102.396-.223.788-.36 1.174-.03.083-.056.168-.088.25a14.43 14.43 0 0 1-.555 1.291c-.035.07-.074.138-.11.206-.18.35-.375.693-.585 1.028-.04.065-.08.13-.121.193-.399.144-.77.297-1.105.455-.643.303-1.368.338-1.988.094a2.508 2.508 0 0 1-.54-.288 1.64 1.64 0 0 1-.684-1.254 1.765 1.765 0 0 1 .589-1.417c.864-.777 1.455-1.634 1.754-2.55a.763.763 0 0 1 .723-.534v-.77l.009.77c1.376.011 2.497-.102 3.397-.343-.004.025-.005.051-.008.077a14.18 14.18 0 0 1-.264 1.381m2.893-4.309l-.001-.004-.004-.073c-.122-2.1-.626-4.13-1.5-6.035l-.046-.101a16.882 16.882 0 0 0-10.406-9.023c-.01-.004-.018-.013-.028-.016l-.213-.06a16.926 16.926 0 0 0-7.399-.43 16.878 16.878 0 0 0-10.076 5.667l-.121.14c-.013.016-.019.037-.032.054a16.885 16.885 0 0 0-3.552 14.306l.002.007c.107.842.392 1.73.776 2.601v.004a16.831 16.831 0 0 0 3.656 5.664c1.027 1.325 2.423 2.261 3.773 2.916l.009.005.115.064a16.884 16.884 0 0 0 22.014-5.084c.007-.01.019-.017.026-.027l.093-.136a16.79 16.79 0 0 0 2.915-10.385v-.001l-.001-.053" opacity=".2"/><path d="M48.176 26.991h-.002c-.85 0-1.54-.69-1.54-1.54-.01-12.268-9.994-22.242-22.26-22.242h-.016A22.224 22.224 0 0 0 5.896 13.01l2.256-.305a1.541 1.541 0 0 1 .413 3.053l-5.71.773a1.539 1.539 0 0 1-1.733-1.321L.35 9.501a1.54 1.54 0 1 1 3.054-.412l.238 1.76C8.364 4.163 16.005.132 24.356.126h.018c13.963 0 25.33 11.357 25.34 25.323.002.85-.688 1.54-1.538 1.541"/><path d="M38.994 25.712a13.95 13.95 0 0 1-.264 1.381c-.018.08-.042.158-.063.237-.103.396-.223.788-.36 1.174-.03.083-.057.168-.088.25-.164.44-.35.87-.557 1.291-.033.07-.073.137-.108.207a14.434 14.434 0 0 1-.707 1.22c-.398.145-.768.297-1.104.455-.644.303-1.368.338-1.988.094a2.508 2.508 0 0 1-.54-.288 1.642 1.642 0 0 1-.685-1.254 1.768 1.768 0 0 1 .59-1.418c.864-.776 1.455-1.634 1.753-2.549a.765.765 0 0 1 .724-.534v-.77l.008.77c1.376.011 2.498-.102 3.398-.343-.004.025-.005.051-.01.077m2.632-2.873v-.002l-.002-.053v-.004l-.004-.073c-.122-2.1-.626-4.13-1.5-6.035l-.047-.101a16.878 16.878 0 0 0-10.405-9.023c-.01-.004-.018-.013-.03-.016l-.211-.06a16.925 16.925 0 0 0-4.662-.652c-.15 0-.3.013-.451.017v2.505c.15-.005.3-.012.451-.012.315 0 .626.012.937.032.104.007.206.018.309.027.21.018.418.038.626.065.117.015.234.034.352.052a16.788 16.788 0 0 1 .928.175c.072.016.143.036.215.053a2.964 2.964 0 0 1-.852 2.925c-.56.523-1.074.756-1.52.695a6.917 6.917 0 0 0-1.446-.04v2.507c.341-.04.702-.035 1.106.02 1.233.17 2.435-.284 3.575-1.349a5.482 5.482 0 0 0 1.735-3.85 14.37 14.37 0 0 1 7.033 6.916l.035.075a14.297 14.297 0 0 1 1.316 5.26c-.208.15-1.038.598-3.517.574a3.268 3.268 0 0 0-3.11 2.266c-.199.612-.677 1.132-1.044 1.46a4.266 4.266 0 0 0-1.418 3.426 4.142 4.142 0 0 0 1.732 3.157c.323.23.685.426 1.08.581a4.8 4.8 0 0 0 1.243.285 14.365 14.365 0 0 1-9.315 3.433c-.15 0-.3-.016-.451-.02v2.516c.15.004.3.015.451.015 5.512 0 10.662-2.69 13.826-7.2.008-.01.02-.017.026-.027l.093-.136a16.79 16.79 0 0 0 2.916-10.384"/><path d="M25.221 29.358c.158-.483.52-.988 1.043-1.459a4.26 4.26 0 0 0 1.42-3.426 4.142 4.142 0 0 0-1.733-3.158 5.053 5.053 0 0 0-1.079-.58 4.711 4.711 0 0 0-.56-.177v2.704c.059.034.129.06.181.096.407.29.656.748.685 1.254.03.54-.185 1.055-.59 1.419-.099.09-.183.183-.275.276v4.454a3.28 3.28 0 0 0 .908-1.403"/></g></svg>