<?xml version="1.0" encoding="UTF-8"?>
<svg width="447px" height="400px" viewBox="0 0 447 400" version="1.1" xmlns="http://www.w3.org/2000/svg" xmlns:xlink="http://www.w3.org/1999/xlink">
    <!-- Generator: Sketch 53.2 (72643) - https://sketchapp.com -->
    <title>Group 15</title>
    <desc>Created with Sketch.</desc>
    <g id="Page-1" stroke="none" stroke-width="1" fill="none" fill-rule="evenodd">
        <g id="dashboard-8" transform="translate(-116.000000, -1034.000000)">
            <g id="Group-15" transform="translate(116.000000, 1034.000000)">
                <rect id="Rectangle" fill="#787C83" opacity="0.200000003" x="316" y="53" width="17" height="15"></rect>
                <rect id="Rectangle" fill="#787C83" opacity="0.400000006" x="430" y="148" width="17" height="15"></rect>
                <rect id="Rectangle" fill="#787C83" opacity="0.200000003" x="400" y="180" width="17" height="15"></rect>
                <rect id="Rectangle" fill="#1B2930" x="411" y="191" width="17" height="15"></rect>
                <rect id="Rectangle" fill="#787C83" x="380" y="80" width="8" height="29"></rect>
                <rect id="Rectangle" fill="#787C83" opacity="0.200000003" x="48" y="80" width="4" height="29"></rect>
                <rect id="Rectangle" fill="#1B2930" x="57" y="80" width="3" height="58"></rect>
                <rect id="Rectangle" fill="#1B2930" x="360" y="209" width="3" height="29"></rect>
                <rect id="Rectangle" fill="#787C83" opacity="0.200000003" x="331" y="371" width="11" height="29"></rect>
                <rect id="Rectangle" fill="#787C83" opacity="0.200000003" x="239" y="294" width="17" height="15"></rect>
                <rect id="Rectangle" fill="#787C83" x="100" y="0" width="17" height="15"></rect>
                <rect id="Rectangle" fill="#787C83" opacity="0.400000006" x="177" y="129" width="17" height="15"></rect>
                <rect id="Rectangle" fill="#1B2930" x="260" y="333" width="17" height="15"></rect>
                <rect id="Rectangle" fill="#787C83" opacity="0.400000006" x="266" y="323" width="17" height="15"></rect>
                <rect id="Rectangle" fill="#787C83" x="0" y="323" width="17" height="15"></rect>
                <rect id="Rectangle" fill="#1B2930" x="20" y="343" width="10" height="10"></rect>
                <rect id="Rectangle" fill="#787C83" opacity="0.200000003" x="39" y="294" width="11" height="9"></rect>
                <rect id="Rectangle" fill="#787C83" opacity="0.569999993" x="134" y="36" width="17" height="15"></rect>
                <rect id="Rectangle" fill="#787C83" opacity="0.200000003" x="4" y="196" width="10" height="59.1176471"></rect>
                <rect id="Rectangle" fill="#787C83" opacity="0.200000003" x="9" y="216" width="3" height="59.1176471"></rect>
            </g>
        </g>
    </g>
</svg>