<svg width="447" height="400" xmlns="http://www.w3.org/2000/svg"><g fill="none" fill-rule="evenodd"><path fill="#787C83" opacity=".2" d="M316 53h17v15h-17z"/><path fill="#787C83" opacity=".4" d="M430 148h17v15h-17z"/><path fill="#787C83" opacity=".2" d="M400 180h17v15h-17z"/><path fill="#1B2930" d="M411 191h17v15h-17z"/><path fill="#787C83" d="M380 80h8v29h-8z"/><path fill="#787C83" opacity=".2" d="M48 80h4v29h-4z"/><path fill="#1B2930" d="M57 80h3v58h-3zM360 209h3v29h-3z"/><path fill="#787C83" opacity=".2" d="M331 371h11v29h-11zM239 294h17v15h-17z"/><path fill="#787C83" d="M100 0h17v15h-17z"/><path fill="#787C83" opacity=".4" d="M177 129h17v15h-17z"/><path fill="#1B2930" d="M260 333h17v15h-17z"/><path fill="#787C83" opacity=".4" d="M266 323h17v15h-17z"/><path fill="#787C83" d="M0 323h17v15H0z"/><path fill="#1B2930" d="M20 343h10v10H20z"/><path fill="#787C83" opacity=".2" d="M39 294h11v9H39z"/><path fill="#787C83" opacity=".57" d="M134 36h17v15h-17z"/><path fill="#787C83" opacity=".2" d="M4 196h10v59.118H4z"/><path fill="#787C83" opacity=".2" d="M9 216h3v59.118H9z"/></g></svg>