<svg xmlns="http://www.w3.org/2000/svg" viewBox="0 0 50 100">
  <defs/>
  <path fill="#F6F6F6" fill-opacity=".3" fill-rule="nonzero" d="M47.808405 9.97713L50 11.711454l-8.325802 10.434534-2.925893 2.734896 1.01672 11.921098 6.427926 6.584715-5.39991 7.947399-4.089471 1.486563h-4.676909l1.310438 6.203545-7.309083 2.115495 1.751017 5.212502-4.38319 11.797218 5.411206 3.725938-2.925892 6.079665-4.970628 6.584715 2.632173 4.593101L17.114776 100l-5.264347-5.460263-.881157-17.00972-8.178942-28.8927 2.474017-10.101011L0 25.624166 3.502033 8.862207 6.721645 5.63179l-.790782-2.449019L10.065522 0l9.218256.533638 5.151378 4.640747 5.953457.085764 6.100316 3.144654-1.796204 3.544883.429281 3.582999 8.642115-.343053z"/>
</svg>
