<svg xmlns="http://www.w3.org/2000/svg" viewBox="0 0 116 100">
  <defs/>
  <path fill="#F6F6F6" fill-opacity=".3" fill-rule="nonzero" d="M72.182945 100l6.60532-10.567033.243076-8.879121 12.322886-6.610989h6.901239l5.421648-7.63956.982871-14.663737-2.219387-3.920879 13.062682-9.916483L116 26.857143l-17.744534-7.226374-21.432944-5.573626-10.103499-.826374 2.716108-4.747253-.739796-7.226373-2.208819-.606594-3.265671 5.397803-1.712099 1.784615-4.396501-1.617582-14.78535 4.334066-4.924927-5.16044L38.194606 0l-4.650145 3.938462-5.654155-1.696704.010569 1.872528 4.428207 1.978022-6.647595 5.828571-4.1957-.035165-4.248542-3.595604-4.808674.123077-.591836 4.272527 2.758382 2.786813-3.255102 8.676924-3.804665.246153-6.055758 3.182418L0 33.828571l5.252551 4.676924L6.214286 37.6l3.688411-.826374 3.149417 4.413187 9.014941-3.217582 3.498178.167033 2.409621 7.094505 12.861881 3.393407 2.219387 5.661538 5.47449.545055 2.610423 5.406594-1.764942 4.808791 2.303936 2.514286-.338192 3.745055 6.172011-.483517 5.654155 5.942857-.443878 4.175824 3.350219 2.356044-8.03207 10.118682z"/>
</svg>
