<svg xmlns="http://www.w3.org/2000/svg" viewBox="0 0 210 75">
  <defs/>
  <g fill="#F6F6F6" fill-opacity=".3" fill-rule="nonzero">
    <path d="M96.4540636 9.55150442L92.7809187 21.2272566l-19.9240282 5.6899115-5.9628976-5.918584L64 21.6711504l5.4063604 17.6481416L77.5 40.0860177l10.7968198 3.4569911V47l4.9452297-.7667257 7.2031805-8.4339823v-6.9005309l4.05477-6.900531 4.5.7667257-5.40636-9.5907965L102.766784 9zM.45463228 0L0 3.06564724 11.0248329 18.4073293h3.2148997l22.9751671 31.8262589L46.4049666 51 51 39.8803058l-7.3553009-3.832059-1.3801337-6.1312945zM109 42.6088678l3.699405 3.7284244-2.40625 5.5993665V53h5.467262l1.931547-13.9984165 1.767857.4038005 3.208334 12.787015 3.061012.6730008 2.897321-5.4647664-2.897321-8.2644497-2.40625-3.5938242 7.5625-4.5360254-1.767857-2.0055423-7.23512 3.8630245h-1.931547l-3.535714-4.266825 1.129464-1.8709422 5.958333-2.3958828 9.002976 2.2612826 2.733631-.1346001L142 21.2612827 139.266369 19l-6.269345 3.9976247h-4.026786l-6.105655-2.3958828-4.337797.1346001-4.828869 6.3935076-3.061012 11.064133zM148.486441 17L145 22.9512485 150.5 28h1.827119l2.38644-3.3614744L156 23.4744352l-2.386441-1.8180737-3.48644-.9024971zM49.5613712 56L45 58.3078376l.9786215 1.9395656 14.5134537 2.4305949 7.3313675.9697828 3.1017324 2.4305949 8.3099889.4910293L83.1496498 69l3.5827498-.6137866L90 66.2011331l-6.0375968-2.0623229-5.2082565-3.2776204-13.5348323-2.4305949zM177.263079 30l-6.856502.6315318L166 33.2651538l1.825112 3.0098537 7.464873 1.1286951v1.1286951l-4.718984 3.1307853 2.285501 6.5168707 2.285501.1209317 1.973094-6.3959391h3.650224l1.529148 6.2615706 17.807175 12.0394148.460389 9.4057927L206.64574 75l2.745889-.1209316L210 41.663183l-10.342302-5.8853389-9.750374 5.3881756-3.502242 1.7602269-5.787743-3.0098536-.147982-9.5267244z"/>
  </g>
</svg>
