<?xml version="1.0" encoding="UTF-8"?>
<svg width="38px" height="38px" viewBox="0 0 38 38" version="1.1" xmlns="http://www.w3.org/2000/svg" xmlns:xlink="http://www.w3.org/1999/xlink">
    <title>01D96171-6AD2-44A0-8EF8-426CEF68ED40</title>
    <g id="Flow/data" stroke="none" stroke-width="1" fill="none" fill-rule="evenodd">
        <g id="Home-01" transform="translate(-115.000000, -1381.000000)">
            <g id="Footer" transform="translate(0.000000, 1035.000000)">
                <g id="Group-5" transform="translate(116.000000, 347.000000)">
                    <circle id="kk836rifkb" stroke="#9AECC8" stroke-width="0.8" cx="18" cy="18" r="18"></circle>
                    <path d="M26.742,25.556 L26.742,18.802 C26.742,15.183 24.811,13.499 22.234,13.499 C20.155,13.499 19.224,14.643 18.706,15.445 L18.706,13.775 L14.79,13.775 C14.842,14.881 14.79,25.555 14.79,25.555 L18.706,25.555 L18.706,18.977 C18.706,18.625 18.731,18.273 18.835,18.022 C19.118,17.319 19.761,16.591 20.843,16.591 C22.261,16.591 22.827,17.671 22.827,19.254 L22.827,25.557 L26.742,25.556 Z M10.664,12.167 C12.029,12.167 12.88,11.262 12.88,10.131 C12.854,8.976 12.029,8.097 10.69,8.097 C9.35,8.097 8.475,8.975 8.475,10.13 C8.475,11.262 9.325,12.166 10.64,12.166 L10.664,12.166 L10.664,12.167 L10.664,12.167 Z M12.622,25.556 L12.622,13.776 L8.708,13.776 L8.708,25.556 L12.622,25.556 Z" id="Shape" fill="#9AECC8" fill-rule="nonzero"></path>
                </g>
            </g>
        </g>
    </g>
</svg>