<?xml version="1.0" encoding="UTF-8"?>
<svg width="38px" height="38px" viewBox="0 0 38 38" version="1.1" xmlns="http://www.w3.org/2000/svg" xmlns:xlink="http://www.w3.org/1999/xlink">
    <title>E23EE5F4-4A09-4FE3-B8F6-955AF7572409</title>
    <g id="Flow/data" stroke="none" stroke-width="1" fill="none" fill-rule="evenodd">
        <g id="Home-01" transform="translate(-64.000000, -1381.000000)">
            <g id="Footer" transform="translate(0.000000, 1035.000000)">
                <g id="Group-3" transform="translate(65.000000, 347.000000)">
                    <circle id="dn3ipvmf3b" stroke="#9AECC8" stroke-width="0.8" cx="18" cy="18" r="18"></circle>
                    <path d="M20.504,9.997 C18.716,10.648 17.584,12.327 17.714,14.164 L17.756,14.872 L17.04,14.786 C14.436,14.453 12.16,13.324 10.227,11.429 L9.282,10.489 L9.04,11.183 C8.525,12.73 8.855,14.365 9.929,15.467 C10.502,16.074 10.372,16.161 9.386,15.799 C9.043,15.684 8.741,15.597 8.713,15.641 C8.613,15.742 8.956,17.058 9.228,17.581 C9.601,18.305 10.358,19.012 11.189,19.433 L11.891,19.766 L11.06,19.779 C10.259,19.779 10.23,19.793 10.316,20.099 C10.602,21.039 11.733,22.038 12.993,22.472 L13.88,22.776 L13.107,23.239 C11.962,23.906 10.617,24.282 9.271,24.309 C8.626,24.324 8.096,24.381 8.096,24.425 C8.096,24.569 9.844,25.379 10.858,25.698 C13.908,26.638 17.528,26.233 20.248,24.628 C22.18,23.484 24.112,21.212 25.014,19.011 C25.501,17.841 25.987,15.698 25.987,14.671 C25.987,14.005 26.03,13.919 26.831,13.123 C27.304,12.66 27.747,12.153 27.834,12.009 C27.978,11.734 27.962,11.734 27.233,11.98 C26.017,12.414 25.844,12.357 26.446,11.706 C26.89,11.242 27.42,10.403 27.42,10.158 C27.42,10.115 27.205,10.187 26.962,10.316 C26.704,10.461 26.132,10.679 25.702,10.808 L24.929,11.054 L24.228,10.575 C23.841,10.315 23.298,10.025 23.012,9.938 C22.281,9.736 21.165,9.765 20.505,9.997 L20.504,9.997 Z" id="Path" fill="#9AECC8" fill-rule="nonzero"></path>
                </g>
            </g>
        </g>
    </g>
</svg>