<svg version="1" xmlns="http://www.w3.org/2000/svg" width="682.667" height="682.667" viewBox="0 0 512.000000 512.000000"><path d="M239.8 10.7c-2.1.5-4.9 4.8-4.4 6.5.3.7.7 2.6 1 4.1.4 1.5 1.1 2.5 1.6 2.2.6-.3 1 0 1 .8 0 1.5 7.1 6.7 9 6.7.6 0 .8.5.4 1.2-.4.6-.3.8.4.5 1.2-.8 4.2.2 4.2 1.4 0 .5-.6.9-1.4.9-1.8 0-5.8 4.9-5 6.1.3.5.1.9-.5.9-1.6 0 2 6.3 5.3 9.3 3.9 3.5 10.6 7.3 14.6 8.2 1.6.4 3 1.1 3 1.6s.3.8.8.8c.4-.1.9 0 1.2.1.3.1 1.3.3 2.3.5 1 .2 3.8 1.3 6.3 2.4 2.4 1.2 5.1 2.1 5.9 2.1.8 0 1.5.4 1.5 1 0 .5.7 1 1.6 1 .9 0 3 .6 4.7 1.4 1.8.8 6.1 2.7 9.7 4.2 3.6 1.6 6.8 3.3 7.2 3.9.4.5.8.6.8.2 0-1 14 6.4 14 7.5 0 .4.4.7.8.5 1.2-.3 14.8 8.5 19.3 12.5 1 1 2.1 1.8 2.4 1.8.3 0 3.2 2.7 6.5 5.9 3.3 3.3 6 5.6 6 5.1 0-1-7-11.3-8.4-12.2-.7-.5-.7-.8-.1-.8s.3-.5-.5-1-1.5-1.3-1.5-1.7c0-.5-1-1.9-2.2-3.3-1.3-1.3-2.3-2.9-2.3-3.6 0-.6-.7-1.5-1.6-1.8-.9-.4-1.4-.9-1.1-1.2.3-.3-.3-1.6-1.4-2.8-6.9-7.5-9.9-11.3-9.9-12.4 0-.7-.4-1-1-.7-.5.3-1 .3-1-.2 0-1.2-6.5-8.6-14-16.2-3.6-3.6-6.3-7-6.2-7.6.2-.5 0-.7-.4-.3-.4.4-2-.6-3.6-2.2-1.5-1.7-3.2-3-3.6-3-.4-.1-1.8-1.4-3.2-3-1.3-1.7-2.8-3-3.2-3-.5 0-1.9-.9-3.1-2.1-1.2-1.1-4.8-3.8-7.9-5.9-3.1-2.1-5.4-4.1-5-4.5.4-.5-.1-.5-1-.2-1 .3-2 .2-2.3-.3-.9-1.4-14.7-7.9-18.3-8.6-1.8-.4-3-1-2.7-1.4.2-.3-.1-.7-.8-.7-.7-.1-3.7-.3-6.7-.6s-6.3-.3-7.2 0zM363 116.7c.5.2.8.8.5 1.2-.4.7 3.3 12.4 4.7 14.6.3.6.5 2.5.4 4.2-.1 1.7.2 3 .6 2.7.4-.3.8.5.7 1.8 0 1.3.2 6.9.4 12.5s0 12.6-.4 15.5c-.5 2.9-1 6.3-1.1 7.5-.1 1.3-.5 2.3-.8 2.3-.3 0-.7 1.2-.8 2.7-.1 1.6-.6 3.7-1.1 4.8-1 2.1-2.3 5.6-2.5 6.5-.3 1.3-5.2 10.8-6.9 13.2-1 1.6-1.6 2.8-1.3 2.8.5 0-.2.9-4.9 6.1-.8.9-1.5 1.9-1.5 2.4s-.7 1.5-1.5 2.4c-.8.9-3.4 3.6-5.8 6.1-3.5 3.7-8.9 8.5-17.4 15.5-2.6 2.1-4 3.1-8.3 6-2.5 1.6-4.7 3.2-5 3.5-.3.3-2.9 2.1-5.7 3.9-2.9 1.8-5.3 3.7-5.3 4.2s-.5.9-1.1.9c-.6 0-4.5 2.7-8.6 6-4.2 3.3-8 6-8.5 6s-.6.4-.3 1c.3.5.1 1-.4 1-.6 0-1.9.8-3 1.7-1 1-4.2 3.8-7.1 6.3-3 2.5-6.6 5.7-8.2 7.3-1.6 1.5-3.3 2.7-3.9 2.7-.6 0-.8.3-.6.7.5 1-3 4.3-3.7 3.5-.3-.3-.6.2-.6 1.1 0 .9-.7 1.7-1.5 1.7s-1.5.4-1.5.9-1.3 2.3-3 4.1c-1.6 1.8-3 2.8-3 2.4 0-.5-.8.4-1.9 2.1-1 1.6-3.4 4.7-5.4 6.7-2 2.1-3.4 3.8-3.1 3.8.5 0-.7 1.5-3.6 4.8-.9.9-2.9 3.7-4.5 6.2-1.7 2.5-3.3 4.7-3.7 5-.3.3-1 1.8-1.3 3.3-.4 1.5-1.1 2.7-1.5 2.7-.4 0-1.1 1.1-1.4 2.5-.4 1.4-1 2.5-1.6 2.5-1.6 0 0 5.4 2.1 7.2 1.2 1 3.2 1.8 4.5 1.8 1.3 0 2.4.3 2.4.8 0 1.3 22.6.2 24.9-1.3 1.3-.7 6.5-1.8 9.8-1.9 1.7-.1 2.9-.4 2.6-.9-.2-.4.8-.7 2.2-.7 1.4 0 2.4-.4 2.1-.9-.3-.5 1.4-1.2 3.9-1.5 2.5-.4 4.5-1.2 4.5-1.7 0-.6.5-.7 1-.4.6.4 1.6.2 2.3-.3.7-.5 2.6-1.2 4.2-1.6 1.7-.4 5.3-1.8 8-3.1 2.8-1.2 8.2-3.8 12-5.6 3.9-1.8 7.2-3.6 7.5-4 .3-.4 1.8-1.1 3.3-1.4 1.5-.4 2.7-1.1 2.7-1.6s.6-.9 1.4-.9c.7 0 1.9-.7 2.6-1.5.7-.8 1.6-1.2 2.1-.9.5.3.9.1.9-.5 0-.5 1-1.3 2.2-1.7 2.2-.7 3.4-1.5 6.9-4.7 1-.9 2.2-1.7 2.5-1.7.8 0 7.8-5.3 8.2-6.3.2-.4.8-.5 1.3-.1.5.3.9-.2.9-1 0-.9.4-1.6.8-1.6.5 0 2.5-1.6 4.5-3.5 2.1-2 3.7-3.3 3.7-2.9 0 .4 1.3-.9 2.9-2.9 1.5-2 3.1-3.4 3.5-3 .3.3.6.1.6-.5s1.5-2.7 3.3-4.7c4.4-4.7 5.7-6.3 5.9-7.2.2-.8 2.3-3.5 4.4-5.7.6-.7 1.5-2.2 1.8-3.4.4-1.2 1.2-2 1.7-1.6.5.3.9.2.8-.3-.3-1.3 2.2-7.3 3.1-7.3.4 0 1.1-1.6 1.4-3.5.4-2 1.1-3.3 1.7-3 .5.4.9 0 1-.7.1-2.9 1-6.2 1.7-6.8.8-.6 1.2-1.8 2.5-9 .6-3 1.3-5.7 1.7-6 .3-.3.5-1.2.5-2-.1-.8.2-2 .6-2.5.9-1.4.9-34.5 0-34.5-.4 0-.5-1.4-.3-3.1.4-2.5.2-3-.9-2.4-1.2.8-1.2.6 0-.8.7-.9.9-1.7.4-1.7s-1-.6-1-1.3c-.2-2.5-1.5-9.1-2.3-11.3-.5-1.2-.6-2.5-.3-2.8.4-.3.1-.6-.5-.6s-.9-.6-.6-1.4c.3-.8.1-1.7-.5-2.1-.6-.3-1.1-1.5-1.1-2.6 0-1-.4-2.7-.9-3.7-.5-.9-2.1-4.9-3.7-8.7-1.5-3.9-5.2-12-8.3-18-3-6.1-5.4-11.4-5.3-11.8.2-.5-.2-.6-.8-.2-.5.3-1-.1-1-.9 0-.9-.5-1.6-1.1-1.6-.6 0-.8-.7-.5-1.6.3-.9.2-1.2-.5-.9-.6.4-.9 0-.7-1 .2-1-.3-1.9-1-2.1-.7-.1-.8 0-.2.3zM287 121.8c0 .4-2.6.8-5.8 1-6.9.3-8.3.5-9.9 1.5-.8.5-1.3.3-1.3-.4 0-.8-.4-.8-1.3-.1-.7.6-3.3 1.6-5.7 2.2-4.9 1.2-5.7 1.4-8 2.3-2.8 1-5.5 1.8-5.8 1.7-.1 0-3.5 1.8-7.6 3.9-4 2.2-7.6 3.7-8 3.4-.3-.4-.6-.1-.6.5s-1.5 1.9-3.2 2.8c-1.8.9-3.5 2-3.8 2.3-.3.4-2.1 1.7-4 2.9-1.9 1.1-4.7 3.3-6.2 4.7-1.6 1.4-2.8 2.3-2.8 2.1 0-.3-3.9 3.2-8.7 7.9-4.8 4.7-9.1 8.5-9.5 8.5-.4 0-.8.6-.8 1.2 0 .7-1.4 2.6-3.1 4.3-1.7 1.6-4.5 4.9-6.2 7.2-1.7 2.4-3.4 4.3-3.9 4.3-.4 0-.8.6-.8 1.3 0 .7-1.1 2.4-2.5 3.9s-2.5 3.1-2.5 3.7c0 .5-.3 1.1-.7 1.3-1.2.5-5.3 6.6-5.3 7.8 0 .5-.5 1-1.1 1-.5 0-.7.4-.4 1 .3.5.1 1-.5 1s-1.6 1.3-2.1 3c-.6 1.6-1.5 3-1.9 3-.4 0-1.1 1.1-1.4 2.5-.4 1.4-1.1 2.5-1.7 2.5-.6 0-.7.4-.4 1 .3.5.1 1-.4 1-.6 0-1.1.4-1.1 1 0 1.9 2.6-.1 4.4-3.5 1.1-1.9 2.3-3.5 2.8-3.5.4 0 .8-.5.8-1 0-.6 1.6-2.6 3.5-4.6 1.9-1.9 3.5-3.9 3.5-4.5 0-.6.4-.8.9-.4.5.3 1.2-.4 1.6-1.5.3-1.1 1-2 1.5-2 .4 0 2.4-1.5 4.2-3.3 7-6.6 10.9-9.8 15.3-12.6 2.4-1.5 4.2-3.1 3.8-3.5-.3-.3 0-.6.7-.6s2.8-1.1 4.6-2.5c1.8-1.4 3.7-2.5 4.3-2.5.6 0 1.1-.4 1.1-.9s1.6-1.5 3.4-2.2c1.9-.7 3.3-1.6 3.1-2-.3-.4 1.2-1.4 3.3-2.3 4.4-1.9 14-7.2 15.9-8.7.7-.6 1.3-.8 1.3-.4 0 .5.9 0 2-1s2-1.5 2-1c0 .4.6.2 1.3-.4.8-.6 1.7-.8 2-.4.4.3.7.2.7-.4 0-.6 2.1-2 4.8-3.1 2.6-1.1 7-3.1 9.7-4.3 2.8-1.3 5.2-2.4 5.5-2.4.3-.1 1.3-.5 2.3-.8.9-.4 2.5-1 3.5-1.4.9-.3 2-.5 2.5-.5.4.1.7-.2.7-.7 0-.5 1.2-1.2 2.8-1.6 1.5-.3 4.6-1.5 6.9-2.6 2.3-1.1 5.1-2.1 6.2-2.2 1.1 0 1.7-.5 1.5-.9-.3-.4.2-.8 1-.8 2 0 15-5.3 15.4-6.3.2-.4.9-.7 1.7-.7 1.5 0 4-2.8 3.2-3.6-.3-.3-3.2-.7-6.5-.9-3.3-.1-6.5-.6-7-.9-.6-.4-1.3-.2-1.6.2-.5.9-7.7.6-10.3-.3-.7-.2-1.3-.1-1.3.3zM157.5 224.1c-.4.6-.5 1.2-.2 1.5.2.3.7-.2 1-1.1.7-1.7.1-2-.8-.4zM151.5 232c-.3.5-.1 1 .4 1 .6 0 1.1-.5 1.1-1 0-.6-.2-1-.4-1-.3 0-.8.4-1.1 1z"/><path d="M149.5 236c-.3.5-.3 1 .2 1 .4 0 .4.4-.2.8-1 .7-4.4 6.7-7.4 12.9-.8 1.8-1.9 3.3-2.3 3.3-.4 0-.5.7-.2 1.5.4.8.1 1.5-.4 1.5-.6 0-1.4 1-1.8 2.2-.3 1.2-2.2 5.4-4 9.4-1.9 3.9-3.4 7.7-3.4 8.3 0 .6-.4 1.1-.8 1.1-.5 0-.9.6-1 1.2 0 .7-1.9 7.1-4.2 14.3-2.3 7.1-4.3 15-4.6 17.5-.3 2.4-.9 4.9-1.4 5.4-1.4 1.4-1.2 2.9.3 2 .8-.5.8-.3-.2.9-.7.9-1.1 2.6-.8 3.7.3 1.1.1 2-.3 2-.5 0-.7 8.4-.5 18.7.5 20.5.5 21.3 1.5 21.3.3 0 .7 1.6.8 3.5.2 2 .7 4.7 1.2 6 .5 1.4.7 2.5.4 2.5-.4 0-.1.6.5 1.3.6.8.8 1.7.4 2-.3.4-.1.7.6.7s1 .4.7.9c-.3.4.3 2.4 1.3 4.4 1 1.9 2.4 5.6 3.1 8.1.7 2.5 1.6 4.3 2 4.1.5-.3 1.1.8 1.5 2.5.4 1.6 1.4 3.4 2.3 3.9.9.5 1.6 1.3 1.5 1.8-.4 1.4.8 4.3 1.8 4.3.5 0 .9.7.9 1.5s.4 1.5 1 1.5c.5 0 1.9 1.8 3 3.9 1.1 2.2 2.8 4.5 3.7 5 1 .6 1.4 1.1 1 1.1-.4 0 .2 1.1 1.5 2.4 1.3 1.3 3.9 4.2 5.8 6.4 1.9 2.3 4.1 4.2 4.8 4.2.6 0 1.2.6 1.2 1.4 0 .8.9 1.8 2 2.1 1.1.4 1.8 1.1 1.5 1.6-.4.5-.2.9.2.9.5 0 2.4 1.6 4.3 3.5s3.8 3.5 4.3 3.5c.4 0 1.5.8 2.5 1.8 3.2 2.9 5.7 4.8 7.5 5.5.9.3 1.7 1.1 1.7 1.7 0 .5.5 1 1.2 1 .6 0 2.6 1.1 4.4 2.5 1.8 1.4 3.7 2.5 4.3 2.5.6 0 1.1.3 1.1.8 0 .8 2.2 2.1 8.2 4.8 2.1.9 3.5 2.1 3.2 2.6-.3.5-.2.8.3.7 1.5-.2 5.3 1.3 5.3 2.2 0 .5.3.8.8.7 1-.2 6.6 2.5 7.4 3.7.4.5.8.7.8.3 0-.4 3.7 1 8.3 3.1 8.7 4.1 15.7 6.6 17 6.3.4-.1.7.2.7.7 0 1 5.7 2.5 8 2.1.8-.1 1.2.2.7.6-.7.7 7.8 3.5 11.1 3.7.6 0 1.2.3 1.2.7 0 .5 1.8.9 5.8 1.2.6.1 1.2.4 1.2.7 0 .3 1 .7 2.3.7 1.2.1 3.8.6 5.7 1 3.1.8 24.4 1 27.8.3.6-.1 1.2-.6 1.2-1.1 0-.5.5-.6 1-.3.6.3 1.3-.1 1.6-.9.3-.9 1.1-1.3 1.7-.9.5.3.7.1.3-.5-.3-.6-.2-1.3.4-1.7 1.1-.7 1-5.5-.1-5.5-.4 0-1-1-1.4-2.3l-.9-2.7c-.1-.3-1.5-2.5-3.1-5s-2.8-4.8-2.7-5.3c.1-.4-.2-.7-.8-.7-.5 0-1-.7-1-1.5s-.4-1.5-.8-1.5-1.5-1.2-2.4-2.8c-.9-1.5-2.6-3.7-3.8-4.9-1.1-1.3-1.8-2.3-1.5-2.3.3 0-.7-1.3-2.2-2.8-4.9-5-10.3-11.5-10.3-12.4 0-.5-.5-.6-1-.3-.6.3-1 .1-1-.5 0-1.5-2.6-4.1-3.4-3.3-.3.4-.6.1-.6-.6 0-1.5-8.6-10.1-10.1-10.1-.5 0-.8-.4-.4-.9.3-.5-.4-1.2-1.5-1.6-1.1-.3-2-1.3-2-2.1s-.4-1.4-.9-1.4c-.4 0-1.9-1-3.3-2.3-6.6-6-10.1-8.8-19.9-16.7-5.9-4.7-12.1-9.6-13.9-11-1.8-1.4-3.9-3.1-4.6-3.8-.7-.6-1.5-1.2-1.8-1.2-1.4 0-18.4-12.9-17.8-13.5.4-.3.2-.5-.4-.3-1.4.4-12.2-7.4-18.1-13-2.3-2.2-4.4-3.7-4.7-3.4-.3.3-.6.1-.6-.5s-2.1-3.3-4.7-6.1c-2.7-2.8-5.7-6.3-6.8-7.8-1.1-1.6-2.9-3.8-4.1-5-1.1-1.1-1.9-2.5-1.7-3.1.2-.5-.6-1.8-1.7-2.8-1.1-1-2-2.3-2-2.8 0-.6-.7-1.8-1.5-2.7-.9-1-1.7-2.6-2-3.6-.2-1.1-1.3-3.9-2.5-6.3-1.2-2.5-2.4-5.2-2.5-6-.2-.9-.4-1.7-.5-1.9-.2-.1-.3-.6-.4-1.1 0-.5-.4-1.3-.8-1.7-.5-.4-.8-2.3-.8-4.1 0-1.9-.4-3.2-.9-2.9-.5.3-.9-.4-.8-1.7 0-1.2-.4-4.7-.8-7.7-1.6-10.9-.5-34 1.6-36.6.7-.8.6-1.4-.3-1.7-1-.4-1-.7-.1-1.4 1.1-.8 2.4-5.6 2.6-9.1 0-.6.5-1.2 1-1.2s.7-.9.4-2c-.3-1.1-.1-1.8.4-1.4.5.3.9-.4.9-1.5 0-1 .6-2.2 1.3-2.4.7-.3.6-.6-.5-.6-.9-.1-2 .3-2.3.9zM361.5 316.8c-1.6.2-3.5.8-4.1 1.3-.7.5-2.6 1.1-4.3 1.2-1.7.1-3.1.6-3.1 1 0 .5-.4.6-.9.2-.5-.3-1.2-.1-1.6.5-.4.6-1.1.8-1.6.5-.5-.4-.9-.2-.9.3 0 .9-5.1 2.3-7.4 2.1-.5 0-1.2.4-1.6 1.1-.4.6-1.5 1.2-2.4 1.4-1 .1-2.1.7-2.4 1.2-.4.5-1.1.9-1.7 1-1.4 0-11.5 4.8-11.5 5.4 0 1.3 12.4 5.2 13.4 4.2.3-.3.6-.1.6.4 0 1.4 4 1.8 15.5 1.7 11.5-.2 14.5-.5 14.5-1.4 0-.4 1.1-1 2.5-1.3 3.6-.9 12-9.5 13.7-14.1 1.4-3.5 1.4-4.2.1-5.4-1.5-1.4-10.9-2.1-16.8-1.3z"/></svg>
