<svg xmlns="http://www.w3.org/2000/svg" width="184" height="104" viewBox="0 0 184 104">
    <g fill="none" fill-rule="evenodd">
        <path fill="#34444C" d="M90.95 96.693H71.36a4.892 4.892 0 0 1-4.846-4.188H2.099v4.537a4.541 4.541 0 0 0 4.546 4.537H177.355a4.541 4.541 0 0 0 4.546-4.537v-4.537h-64.415a4.892 4.892 0 0 1-4.846 4.188H90.95zm0-2.094h21.69c1.545 0 2.767-.691 2.8-2.11.027-1.198.686-2.052 2.046-2.1-.008.007 52.987.022 64.397.022 1.358 0 2.12.93 2.117 2.078-.005 1.518 0 4.553 0 4.553 0 3.663-2.975 6.63-6.645 6.63H6.645c-3.67 0-6.645-2.967-6.645-6.63 0 0 .005-3.035 0-4.553-.004-1.147.76-2.078 2.117-2.078 11.41 0 64.405-.015 64.397-.022 1.36.048 2.02.902 2.046 2.1.033 1.419 1.255 2.11 2.8 2.11h19.59zM17.84 86.55c0 .579-.47 1.047-1.05 1.047-.579 0-1.049-.468-1.049-1.047V7.675c0-4.047 3.288-7.326 7.346-7.326h135.028c4.057 0 7.345 3.278 7.345 7.326V86.55c0 .579-.47 1.047-1.05 1.047-.579 0-1.049-.468-1.049-1.047V7.675a5.238 5.238 0 0 0-5.246-5.232H23.087a5.238 5.238 0 0 0-5.247 5.232V86.55zM155.665 10.82H25.536V86.55c0 .579-.47 1.047-1.05 1.047-.579 0-1.049-.468-1.049-1.047V9.772c0-.578.47-1.047 1.05-1.047h132.228c.58 0 1.05.469 1.05 1.047V86.55c0 .579-.47 1.047-1.05 1.047-.58 0-1.05-.468-1.05-1.047V10.82zM38.172 64.606a1.051 1.051 0 0 1-1.484 0 1.045 1.045 0 0 1 0-1.48l32.628-32.553a1.051 1.051 0 0 1 1.484 0c.41.409.41 1.072 0 1.48L38.172 64.607zm38.479-38.39a1.051 1.051 0 0 1-1.484 0 1.045 1.045 0 0 1 0-1.48l6.742-6.727a1.051 1.051 0 0 1 1.484 0c.41.41.41 1.072 0 1.48l-6.742 6.728zm-40.578 27.92a1.051 1.051 0 0 1-1.484 0 1.045 1.045 0 0 1 0-1.48l8.841-8.821a1.051 1.051 0 0 1 1.484 0c.41.409.41 1.072 0 1.48l-8.841 8.821zm12.593-12.563a1.051 1.051 0 0 1-1.484 0 1.045 1.045 0 0 1 0-1.481l17.237-17.197a1.051 1.051 0 0 1 1.484 0c.41.409.41 1.072 0 1.48L48.666 41.574z"/>
        <path fill="#EA6869" d="M94.169 40.986c0-.335-.205-.503-.616-.503h-1.007c-.43 0-.644.168-.644.503v14.043c0 .335.215.503.644.503h.98c.428 0 .643-.168.643-.503V40.986zm.308 16.947c0-.484-.243-.726-.728-.726h-1.4c-.484 0-.727.242-.727.726V59.3c0 .484.243.726.728.726h1.399c.485 0 .728-.242.728-.726v-1.368z"/>
    </g>
</svg>
